<svg width="26" height="26" xmlns="http://www.w3.org/2000/svg"><g stroke-linecap="round" stroke="#94A3A7" stroke-linejoin="round" fill="none" fill-rule="evenodd"><path d="M17.817 4.99A9.363 9.363 0 0 0 13 3.656M22.345 13c0-1.81-.53-3.6-1.523-5.115M19.746 3.074A12.028 12.028 0 0 0 13 1M25 13c0-2.513-.8-4.995-2.274-7.03M8.183 4.99A9.363 9.363 0 0 1 13 3.656M3.655 13c0-1.81.53-3.6 1.523-5.115M6.254 3.074A12.026 12.026 0 0 1 13 1M1 13c0-2.513.8-4.995 2.274-7.03M19.83 13.335v9.267H6.17v-9.267M19.83 13.335a6.83 6.83 0 1 0-13.66 0"/><path d="M15.496 13.613a2.495 2.495 0 0 0-4.992 0c0 .9.48 1.68 1.193 2.12v6.869h2.606v-6.869a2.488 2.488 0 0 0 1.193-2.12zM4.664 22.602h16.672H4.664zM21.336 25.353H4.664h16.672zM21.336 22.596s.364.617.364 1.379c0 .76-.364 1.378-.364 1.378M4.664 22.596s-.364.617-.364 1.379c0 .76.364 1.378.364 1.378"/></g></svg>