<svg width="26" height="27" xmlns="http://www.w3.org/2000/svg"><g stroke-linecap="round" stroke="#94A3A7" stroke-linejoin="round" fill="none" fill-rule="evenodd"><path d="M2.033 15.43h21.694H2.033zM23.727 22.923H2.033h21.694zM23.727 15.438s1.033 1.676 1.033 3.743-1.033 3.742-1.033 3.742M20.313 15.438s.561 1.676.561 3.743-.56 3.742-.56 3.742M16.665 15.438s.28 1.676.28 3.743-.28 3.742-.28 3.742M5.447 15.438s-.561 1.676-.561 3.743.56 3.742.56 3.742M9.095 15.438s-.28 1.676-.28 3.743.28 3.742.28 3.742M2.033 15.438S1 17.114 1 19.181s1.033 3.742 1.033 3.742M12.88 15.43v7.493-7.493zM2.033 15.43H4.13v-2.464H2.033v2.464zM21.628 15.43h2.099v-2.464h-2.099v2.464zM7.219 1H18.54v14.43H7.22V1zM7.219 5.466h11.322H7.219zM10.864 5.466v9.972-9.972z"/><path d="M2.033 22.923h21.694v2.827H2.033v-2.827z"/></g></svg>