<svg width="23" height="23" xmlns="http://www.w3.org/2000/svg"><g stroke-linecap="round" stroke="#94A3A7" stroke-linejoin="round" fill="none" fill-rule="evenodd"><path d="M14.596 14.642a4.646 4.646 0 0 0-6.564 0l-1.7-1.702c2.747-2.747 7.218-2.747 9.965 0l-1.7 1.702z"/><path d="M17.564 10.758c-3.447-3.083-9.054-3.082-12.5 0l-1.901-1.7c4.494-4.022 11.808-4.023 16.303 0l-1.902 1.7z"/><path d="M20.81 7.079c-5.235-4.898-13.755-4.898-18.99 0L0 5.377c6.24-5.836 16.39-5.836 22.629 0l-1.82 1.702zM11.314 18.678l-1.701-1.7 1.701 1.7zM11.314 18.678l1.702-1.7-1.702 1.7zM5.624 18.678h11.381v3.572H5.624v-3.572zM13.997 20.464h1.26-1.26z"/></g></svg>