<svg width="24" height="24" xmlns="http://www.w3.org/2000/svg"><g stroke-linecap="round" stroke="#94A3A7" stroke-linejoin="round" fill="none" fill-rule="evenodd"><path d="M6.343.686H12v22.628H6.343V.686zm-5.657 0h5.657v22.628H.686V.686zM23.314 22.629v.685h-.685"/><path d="M21.021 23.314h-1.874" stroke-dasharray="1.562,2.344"/><path d="M18.343 23.314h-.686v-.685"/><path d="M17.657 20.696V2.338" stroke-dasharray="1.879,2.818"/><path d="M17.657 1.371V.686h.686"/><path d="M19.95.686h1.875" stroke-dasharray="1.562,2.344"/><path d="M22.629.686h.685v.685"/><path d="M23 3.304v18.358" stroke-dasharray="1.879,2.818"/><path d="M17.657 22.629v.685h-.686"/><path d="M15.364 23.314H13.49" stroke-dasharray="1.562,2.344"/><path d="M12.686 23.314H12v-.685"/><path d="M12 20.696V2.338" stroke-dasharray="1.879,2.818"/><path d="M12 1.371V.686h.686"/><path d="M14.293.686h1.875" stroke-dasharray="1.562,2.344"/><path d="M16.971.686h.686v.685"/><path d="M17.657 3.304v18.358" stroke-dasharray="1.879,2.818"/><path d="M4.103 13.524v1.219m4.458-1.22v1.22m6.863-1.22v1.22m4.458-1.22v1.22" stroke-dasharray="2,4"/><path d="M17.657 10.123v6.6"/></g></svg>