<svg width="40" height="40" viewBox="0 0 40 40" xmlns="http://www.w3.org/2000/svg"><g fill-rule="nonzero" fill="none"><path d="M30.981 20c0 2.3-.704 4.433-1.908 6.2l6.4 6.401A19.912 19.912 0 0039.948 20c0-4.777-1.677-9.162-4.473-12.601l-6.4 6.4A10.984 10.984 0 0130.98 20z" fill="#6836DC"/><path d="M26.148 29.126a10.98 10.98 0 01-6.201 1.908c-5.386 0-9.865-3.86-10.834-8.965H.053C1.088 32.142 9.6 40 19.947 40a19.91 19.91 0 0012.601-4.472l-6.4-6.402z" fill="#08E6F8"/><path d="M9.113 17.931c.97-5.104 5.448-8.965 10.834-8.965 2.3 0 4.433.704 6.2 1.908l6.401-6.4A19.908 19.908 0 0019.947 0C9.6 0 1.088 7.857.053 17.931h9.06z" fill="#FD6D90"/></g></svg>