<svg width="24" height="18" xmlns="http://www.w3.org/2000/svg"><g fill="#FFF" fill-rule="evenodd"><path d="M1 4.992v11.016A1 1 0 0 0 2.005 17h19.99A.998.998 0 0 0 23 16.008V4.992a.987.987 0 0 0-.992-.985c-.085 0-.24 0-.45.002-1.036.003-2.16.002-3.216-.007-.176 0-.176 0-.308-.004-.58.02-.972-.28-1.38-.788a6.91 6.91 0 0 1-.513-.756 12.926 12.926 0 0 1-.585-1.112c-.083-.16-.38-.344-.552-.344H8.997c-.162 0-.458.187-.514.3a11.28 11.28 0 0 1-.59 1.159c-.236.403-.473.737-.725.99-.345.348-.72.564-1.16.55-1.27.012-2.523.013-3.61.01l-.407-.003a.985.985 0 0 0-.99.985zm-1 0c0-1.1.894-1.988 1.994-1.985 0 0 1.854.013 4.006-.007.653.02 1.565-2.095 1.565-2.095.24-.5.888-.905 1.432-.905h6.006c.55 0 1.19.395 1.442.89 0 0 .974 2.13 1.555 2.11 1.934.02 4 .007 4 .007 1.105-.004 2 .886 2 1.985v11.016c0 1.1-.897 1.992-2.005 1.992H2.005A2 2 0 0 1 0 16.008V4.992z"/><path d="M12 15.5a5.5 5.5 0 1 0 0-11 5.5 5.5 0 1 0 0 11zm0-1a4.5 4.5 0 1 1 0-9 4.5 4.5 0 0 1 0 9z"/><path d="M15.5 10A3.5 3.5 0 0 0 12 6.5a.5.5 0 0 0 0 1 2.5 2.5 0 0 1 2.5 2.5.5.5 0 0 0 1 0zm4-7v-.25c0-.135.117-.25.257-.25h1.486c.144 0 .257.11.257.25V3l1 .2v-.45c0-.694-.563-1.25-1.257-1.25h-1.486c-.69 0-1.257.56-1.257 1.25V3h1zM4 8.5a1.5 1.5 0 1 0-.001-3.001A1.5 1.5 0 0 0 4 8.5zm0-1a.5.5 0 1 1 0-1 .5.5 0 0 1 0 1z"/></g></svg>