<svg width="24" height="24" xmlns="http://www.w3.org/2000/svg"><g stroke-linecap="round" stroke="#94A3A7" stroke-linejoin="round" fill="none" fill-rule="evenodd"><path d="M.953 18.587h22.094v2.018H.953v-2.018zM22.302 13.922a2.51 2.51 0 0 0 .13-2.9c.38-.5.615-1.115.615-1.79 0-1.261-.787-2.332-1.895-2.764.323-.346.523-.807.523-1.318 0-1.072-.87-1.942-1.942-1.942-.251 0-.49.051-.71.138a2.517 2.517 0 1 0-4.988.587 2.552 2.552 0 0 0-3.045 2.503 2.54 2.54 0 0 0 1.048 2.052 2.52 2.52 0 0 0-.89 4.139M9.837 8.711a2.037 2.037 0 0 0-2.063.168 2.82 2.82 0 0 0-2.698-2.027A2.828 2.828 0 0 0 2.248 9.68c0 .364.075.709.2 1.028a2.274 2.274 0 0 0-.948 3.573M5.883 5.726a3.195 3.195 0 0 1 4.768-1.836"/><path d="M15.362 20.605v2.624h2.019v-2.624h2.352v2.624h2.02v-2.624h1.294v-2.018h-1.295v-3.043l-1.01-.951-1.009.951v3.043h-2.352v-3.043l-1.01-.951-1.009.951v3.043H13.01v-3.043L12 14.593l-1.01.951v3.043H8.639v-3.043l-1.01-.951-1.009.951v3.043H4.267v-3.043l-1.01-.951-1.01.951v3.043H.954v2.018h1.295v2.624h2.019v-2.624h2.352v2.624h2.019v-2.624h2.353v2.624h2.018v-2.624h2.353z"/></g></svg>