<svg width="26" height="26" xmlns="http://www.w3.org/2000/svg"><g stroke-linecap="round" stroke="#94A3A7" stroke-linejoin="round" fill="none" fill-rule="evenodd"><path d="M1 2.836h23.612H1zM1 2.836c0-.957 5.286-1.733 11.806-1.733s11.806.776 11.806 1.733H1zM1 2.836h23.612v1.863H1V2.836zM1.71 4.699v10.008V4.699zM23.902 4.699v10.008V4.699zM6.316 20.478h12.98-12.98zM6.316 22.597h12.98-12.98zM6.316 24.715h12.98-12.98zM20.945 14.707h3.667v10.008h-3.667V14.707zM19.425 24.715h1.52V13.323h-1.52v11.392z"/><path d="M21.516 11.992a1.33 1.33 0 1 0-2.66 0 1.33 1.33 0 0 0 2.66 0zM4.097 11.992a1.33 1.33 0 1 1 2.66 0 1.33 1.33 0 0 1-2.66 0zM8.568 19.36V6.107h8.476V19.36H8.568zM15.777 12.458v1.103-1.103zM1 24.715h3.667V14.707H1v10.008z"/><path d="M4.667 13.323h1.52v11.392h-1.52V13.323zM22.779 16.275v6.872-6.872zM2.834 16.275v6.872-6.872z"/></g></svg>