<svg width="20" height="25" xmlns="http://www.w3.org/2000/svg"><g stroke-linecap="round" stroke="#94A3A7" stroke-linejoin="round" fill="none" fill-rule="evenodd"><path d="M9.943 10.763v8.168M8.243 10.763l-3.457 7.4M11.643 10.763l3.457 7.4" stroke-dasharray="2,3"/><path d="M19.254 22.257c0 .754-.617 1.372-1.371 1.372H2.003a1.375 1.375 0 0 1-1.371-1.372V2.371C.632 1.617 1.249 1 2.003 1h15.88c.754 0 1.371.617 1.371 1.371v19.886z"/><path d="M2.364 6.06h15.157v15.107H2.364V6.06zM13.908 2.672h3.614v1.761h-3.614V2.672zM12.688 3.552a.88.88 0 1 1-1.762 0 .88.88 0 0 1 1.762 0z"/><path d="M5.285 8.586H14.6v2.177H5.285V8.586zM8.855 6.06h2.176v2.526H8.855V6.06zM2.364 2.672v1.761-1.761z"/></g></svg>