<svg width="24" height="22" xmlns="http://www.w3.org/2000/svg"><g stroke-linecap="round" stroke="#94A3A7" stroke-linejoin="round" fill="none" fill-rule="evenodd"><path d="M14.635 3.715a78.794 78.794 0 0 0-2.616-.043c-5.897 0-10.677.633-10.677 1.412h-.01v14.21h.01c0 .78 4.78 1.412 10.677 1.412 5.896 0 10.676-.632 10.676-1.412h.009V8.254a4.63 4.63 0 0 0-8.069-4.538zm6.463 8.474v5.86H2.938V6.33h9.84M4.716 8.253h8.062M4.716 10.22h9.13m-9.13 1.969H19.32M4.716 14.158H19.32M4.716 16.126H19.32"/><path d="M23.333 5.923a4.629 4.629 0 1 1-9.258 0 4.629 4.629 0 0 1 9.258 0zm-4.261-2.52c-.23.551-.825.706-.825 1.505 0 .992.915.992.915 1.985 0 .82-.626.963-.842 1.549M16.825 4.36c-.143.341-.512.437-.512.932 0 .616.567.616.567 1.231 0 .51-.388.597-.522.96M21.04 4.36c-.143.341-.512.437-.512.932 0 .616.567.616.567 1.231 0 .51-.388.597-.522.96"/></g></svg>