<svg width="24" height="22" xmlns="http://www.w3.org/2000/svg"><g stroke-linecap="round" stroke="#94A3A7" stroke-linejoin="round" fill="none" fill-rule="evenodd"><path d="M14.63 3.72a78.805 78.805 0 0 0-2.611-.043c-5.897 0-10.677.632-10.677 1.412h-.01V19.3h.01c0 .78 4.78 1.412 10.677 1.412 5.896 0 10.676-.632 10.676-1.412h.009V8.25A4.629 4.629 0 0 0 14.63 3.72zm6.468 8.475v5.859H2.938V6.334h9.84M4.716 8.257h8.062m-8.062 1.969h9.13m-9.13 1.969H19.32M4.716 14.163H19.32M4.716 16.132H19.32"/><path d="M23.333 5.917a4.629 4.629 0 1 1-9.257 0 4.629 4.629 0 0 1 9.257 0zm-4.629-2.856v5.714V3.06zm2.857 2.856h-5.714 5.714zm-.837 2.021l-4.04-4.04 4.04 4.04zm0-4.04l-4.04 4.04 4.04-4.04z"/></g></svg>