<svg width="25" height="25" xmlns="http://www.w3.org/2000/svg"><g fill="none" fill-rule="evenodd"><path d="M18.644 14.197a6.027 6.027 0 0 1-11.774-.094M6.87 14.021h11.81M15.832 18.355l2.447 6.06M9.772 18.355l-2.446 6.06M4.51 15.13h2.555M6.828 11.839a6.028 6.028 0 0 1 5.939-5.003 5.936 5.936 0 0 1 5.912 5.06M4.51 11.896h14.17" stroke="#94A3A7" stroke-linecap="round" stroke-linejoin="round"/><path d="M3.481 11.896a.513.513 0 1 1 1.027-.002.513.513 0 0 1-1.027.002" fill="#94A3A7"/><path d="M3.481 11.896a.513.513 0 1 1 1.027-.002.513.513 0 0 1-1.027.002z" stroke="#94A3A7" stroke-linecap="round" stroke-linejoin="round"/><path d="M3.481 15.13a.514.514 0 1 1 1.028 0 .514.514 0 0 1-1.028 0" fill="#94A3A7"/><path d="M3.481 15.13a.514.514 0 1 1 1.028 0 .514.514 0 0 1-1.028 0zM12.995 0c-.25.6-.898.767-.898 1.637 0 1.08.995 1.08.995 2.16 0 .895-.68 1.049-.915 1.687M10.55 1.042c-.154.371-.556.476-.556 1.015 0 .67.617.67.617 1.34 0 .553-.422.65-.568 1.045M15.135 1.042c-.155.371-.556.476-.556 1.015 0 .67.617.67.617 1.34 0 .553-.422.65-.568 1.045M19.03 21.205c.07-.491.07-1.086-.221-1.554.758.234 1.173.876 1.881 1.274.264-.588.74-1.218 1.148-1.719.111.559.428 1.063.47 1.64.512-.579 1.3-.701 1.882-1.05-.274.386-.18.894-.134 1.455M1.221 21.205c.07-.491.07-1.086-.221-1.554.759.234 1.173.876 1.88 1.274.265-.588.74-1.218 1.149-1.719.111.559.428 1.063.47 1.64.512-.579 1.3-.701 1.882-1.05-.274.386-.18.894-.134 1.455M22.008 23.169h1.543-1.543zM11.824 21.735h1.542-1.542zM2.2 23.59h1.402H2.2z" stroke="#94A3A7" stroke-linecap="round" stroke-linejoin="round"/></g></svg>