<svg width="24" height="24" xmlns="http://www.w3.org/2000/svg"><g stroke-linecap="round" stroke="#94A3A7" stroke-linejoin="round" fill="none" fill-rule="evenodd"><path d="M18.704 2.63v5.715V2.63zM21.56 5.488h-5.713 5.714zM20.724 7.508l-4.04-4.04 4.04 4.04zM20.724 3.468l-4.04 4.04 4.04-4.04zM13.208 20.28v-6.547h-2.416v6.548H9.14L12 23.14l2.86-2.86h-1.652zM7.36 20.14a42.12 42.12 0 0 1-3.172-.311c-1.766-.252-2.846-.59-2.846-.96M23.333 5.488a4.629 4.629 0 1 1-9.257 0 4.629 4.629 0 0 1 9.257 0zM9.282 17.624H2.938V5.904h9.84M21.098 11.764v5.86h-6.365M4.716 7.827h8.062M4.716 9.795h9.13M4.716 11.764H19.32M14.733 13.733h4.587M4.716 13.733h4.566M14.733 15.701h4.587M4.716 15.701h4.566"/><path d="M1.332 18.869V4.659c.01-.78 4.79-1.411 10.687-1.411 1.475 0 2.474.052 2.474.052M22.695 8l.009 10.869c-.009.564-2.512 1.051-6.13 1.277"/></g></svg>