<svg xmlns="http://www.w3.org/2000/svg" viewBox="0 0 29 28"><defs/><g fill="none" fill-rule="evenodd"><rect width="22.8" height="23" x=".6" y="3.6" stroke="#53627C" stroke-width="1.2" rx="2.4"/><rect width="22.8" height="22.8" x="4.8" y=".6" fill="#FFF" stroke="#53627C" stroke-width="1.2" rx="2.4"/><path fill="#53627C" fill-rule="nonzero" d="M16.2822388,4.65435 C16.0379834,4.87575 16.0177281,5.25495 16.2381536,5.50155 C16.4579834,5.74755 16.8344941,5.76795 17.0793451,5.54595 L16.2822388,4.65435 Z M19.6595153,2.40015 L20.0580685,1.95435 C19.8316856,1.74855 19.4873451,1.74855 19.2609622,1.95435 L19.6595153,2.40015 Z M22.2396856,5.54595 C22.4845366,5.76795 22.8610473,5.74755 23.0808771,5.50155 C23.3013026,5.25495 23.2810473,4.87575 23.0367919,4.65435 L22.2396856,5.54595 Z M19.0637707,13.20015 C19.0637707,13.53135 19.3306643,13.80015 19.6595153,13.80015 C19.9883664,13.80015 20.25526,13.53135 20.25526,13.20015 L19.0637707,13.20015 Z M17.0793451,5.54595 L20.0580685,2.84595 L19.2609622,1.95435 L16.2822388,4.65435 L17.0793451,5.54595 Z M19.2609622,2.84595 L22.2396856,5.54595 L23.0367919,4.65435 L20.0580685,1.95435 L19.2609622,2.84595 Z M19.0637707,2.40015 L19.0637707,13.20015 L20.25526,13.20015 L20.25526,2.40015 L19.0637707,2.40015 Z" transform="rotate(45 19.7 7.8)"/></g></svg>