<svg width="32" height="32" viewBox="0 0 32 32" xmlns="http://www.w3.org/2000/svg"><g transform="translate(3 5)" fill="none" fill-rule="evenodd"><rect stroke="#53627C" stroke-width="2" width="26" height="22.286" rx="1"/><path fill="#53627C" d="M5.571 0h1.857v22.286H5.571zM18.571 0h1.857v22.286h-1.857zM12.071 0h1.857v22.286h-1.857z"/><path fill="#53627C" d="M.929 6.5h4.643v1.857H.929zM7.429 12.071h4.643v1.857H7.429zM7.429 2.786h4.643v1.857H7.429zM13.929 6.5h4.643v1.857h-4.643zM13.929 15.786h4.643v1.857h-4.643zM20.429 12.071h4.643v1.857h-4.643zM20.429 2.786h4.643v1.857h-4.643zM.929 15.786h4.643v1.857H.929z"/></g></svg>