<svg width="32" height="32" viewBox="0 0 32 32" xmlns="http://www.w3.org/2000/svg"><g transform="translate(3 8)" stroke="#53627C" stroke-width="2" fill="none" fill-rule="evenodd"><rect transform="rotate(90 5.571 8.357)" x="-2.786" y="6.5" width="16.714" height="3.714" rx="1"/><path d="M14.857 1v14.714a1 1 0 01-1 1h-1.714a1 1 0 01-1-1V1a1 1 0 011-1h1.714a1 1 0 011 1zM22.286 1v14.714a1 1 0 01-1 1H19.57a1 1 0 01-1-1V1a1 1 0 011-1h1.715a1 1 0 011 1z"/><rect fill="#FFF" transform="rotate(-180 13 8.357)" y="6.5" width="26" height="3.714" rx="1"/></g></svg>