<svg width="32" height="32" viewBox="0 0 32 32" xmlns="http://www.w3.org/2000/svg"><g fill="#53627C" fill-rule="nonzero"><path d="M29 15c0-1-.958-.914-2.135-.914H6.582v-6.97c0-.802.65-1.455 1.449-1.455h.379c.392 0 .762.16 1.031.434l-.064.065a2.793 2.793 0 000 3.933l.366.368a.822.822 0 001.17 0l3.615-3.632a.833.833 0 000-1.175l-.366-.368a2.744 2.744 0 00-1.958-.814 2.74 2.74 0 00-1.56.483A3.099 3.099 0 008.41 4h-.38a3.113 3.113 0 00-3.102 3.116v6.98C3.643 13.957 3 14.26 3 15s.455 1.075 1.365 1v4.965a5.01 5.01 0 003.98 4.904l-.71.713a.833.833 0 000 1.175.822.822 0 001.17 0l1.777-1.785h10.835l1.779 1.785a.822.822 0 001.17 0 .833.833 0 000-1.175l-.71-.713a5.01 5.01 0 003.979-4.904V16c.91 0 1.365-.333 1.365-1zM12.359 6c.228 0 .447.057.641.165L10.164 9a1.328 1.328 0 01.224-1.578l1.034-1.034c.25-.25.583-.388.937-.388zM26 20.605C26 22.477 24.503 24 22.664 24H9.336C7.496 24 6 22.477 6 20.605V16h20v4.605z"/><path d="M12.903 10.432l-.335-.335a.332.332 0 10-.47.47l.334.336a.331.331 0 00.47 0c.13-.13.13-.34 0-.47zM14.568 10.097a.332.332 0 10-.47.47l.334.336a.331.331 0 00.47 0c.13-.13.13-.34 0-.47l-.334-.336zM14.097 8.097c-.13.13-.13.34 0 .47l.335.336a.331.331 0 00.47 0c.13-.13.13-.34 0-.47l-.334-.336a.333.333 0 00-.47 0z"/></g></svg>