<svg width="32" height="32" viewBox="0 0 32 32" xmlns="http://www.w3.org/2000/svg"><g fill="#53627C" fill-rule="evenodd"><path d="M4.555 24.208c-.46-.345-1.081-.2-1.387.311-.306.501-.182 1.202.277 1.536l1.11-1.847zm24 1.847c.459-.334.583-1.035.277-1.536-.306-.511-.927-.656-1.387-.311l1.11 1.847zm-4.714.01l-.707.79.707-.79zm-.427-.478l-.707.79.707-.79zm-3 .2l-.707-.79.707.79zm-3-.2l-.707.79.707-.79zm-3 .2l-.707-.79.707.79zm-5.828-.2l-.707-.778.707.778zm-5.141.468l1.636 1.212L6.19 25.42l-1.635-1.212-1.11 1.847zm5.421.8l.427-.478-1.414-1.568-.427.467 1.414 1.58zm1.841-.478l.172.19 1.414-1.57-.172-.188-1.414 1.568zm4.414.19l.172-.19-1.414-1.568-.172.189 1.414 1.568zm1.586-.19l.172.19 1.414-1.57-.172-.188-1.414 1.568zm4.414.19l.172-.19-1.414-1.568-.172.189 1.414 1.568zm1.586-.19l.427.479 1.414-1.58-.427-.467-1.414 1.568zm4.212.89l1.636-1.212-1.11-1.847-1.635 1.212 1.109 1.847zm-3.785-.411c1.011 1.123 2.595 1.301 3.785.411L25.81 25.42a.928.928 0 01-1.262-.144l-1.414 1.58zm-1.841-.479a.93.93 0 011.414 0l1.414-1.568c-1.171-1.302-3.071-1.302-4.242 0l1.414 1.568zm-4.414.19c1.171 1.3 3.071 1.3 4.242 0l-1.414-1.57a.93.93 0 01-1.414 0l-1.414 1.57zm-1.586-.19a.93.93 0 011.414 0l1.414-1.568c-1.171-1.302-3.071-1.302-4.242 0l1.414 1.568zm-4.414.19c1.171 1.3 3.071 1.3 4.242 0l-1.414-1.57a.93.93 0 01-1.414 0l-1.414 1.57zm-1.586-.19a.93.93 0 011.414 0l1.414-1.568c-1.171-1.302-3.071-1.302-4.242 0l1.414 1.568zm-4.212.89c1.19.89 2.774.712 3.785-.411l-1.414-1.58a.928.928 0 01-1.262.144l-1.109 1.847zM4.555 19.208c-.46-.345-1.081-.2-1.387.311-.306.501-.182 1.202.277 1.536l1.11-1.847zm24 1.847c.459-.334.583-1.035.277-1.536-.306-.511-.927-.656-1.387-.311l1.11 1.847zm-4.714.01l-.707.79.707-.79zm-.427-.478l-.707.79.707-.79zm-3 .2l-.707-.79.707.79zm-3-.2l-.707.79.707-.79zm-3 .2l-.707-.79.707.79zm-5.828-.2l-.707-.778.707.778zm-5.141.468l1.636 1.212L6.19 20.42l-1.635-1.212-1.11 1.847zm5.421.8l.427-.478-1.414-1.568-.427.467 1.414 1.58zm1.841-.478l.172.19 1.414-1.57-.172-.188-1.414 1.568zm4.414.19l.172-.19-1.414-1.568-.172.189 1.414 1.568zm1.586-.19l.172.19 1.414-1.57-.172-.188-1.414 1.568zm4.414.19l.172-.19-1.414-1.568-.172.189 1.414 1.568zm1.586-.19l.427.479 1.414-1.58-.427-.467-1.414 1.568zm4.212.89l1.636-1.212-1.11-1.847-1.635 1.212 1.109 1.847zm-3.785-.411c1.011 1.123 2.595 1.301 3.785.411L25.81 20.42a.928.928 0 01-1.262-.144l-1.414 1.58zm-1.841-.479a.93.93 0 011.414 0l1.414-1.568c-1.171-1.302-3.071-1.302-4.242 0l1.414 1.568zm-4.414.19c1.171 1.3 3.071 1.3 4.242 0l-1.414-1.57a.93.93 0 01-1.414 0l-1.414 1.57zm-1.586-.19a.93.93 0 011.414 0l1.414-1.568c-1.171-1.302-3.071-1.302-4.242 0l1.414 1.568zm-4.414.19c1.171 1.3 3.071 1.3 4.242 0l-1.414-1.57a.93.93 0 01-1.414 0l-1.414 1.57zm-1.586-.19a.93.93 0 011.414 0l1.414-1.568c-1.171-1.302-3.071-1.302-4.242 0l1.414 1.568zm-4.212.89c1.19.89 2.774.712 3.785-.411l-1.414-1.58a.928.928 0 01-1.262.144l-1.109 1.847z" fill-rule="nonzero"/><path d="M12 19.059c0 .517.448.941 1 .941s1-.424 1-.941h-2zM7 7.765c0 .517.448.94 1 .94s1-.423 1-.94H7zm5-.47v11.764h2V7.294h-2zm-5 0v.47h2v-.47H7zm3.5-1.413c.828 0 1.5.63 1.5 1.412h2C14 5.478 12.433 4 10.5 4v1.882zM10.5 4C8.567 4 7 5.478 7 7.294h2c0-.781.672-1.412 1.5-1.412V4zM21 19.03c0 .534.448.97 1 .97s1-.436 1-.97h-2zM16 7.88c0 .533.448.97 1 .97s1-.437 1-.97h-2zm5-.485V19.03h2V7.394h-2zm-5 0v.485h2v-.485h-2zm3.5-1.455c.828 0 1.5.65 1.5 1.455h2C23 5.522 21.433 4 19.5 4v1.94zM19.5 4C17.567 4 16 5.522 16 7.394h2c0-.805.672-1.455 1.5-1.455V4z" fill-rule="nonzero"/><path d="M14 11h8v2h-8zM14 15h9v2h-9z"/></g></svg>