<svg width="32" height="32" viewBox="0 0 32 32" xmlns="http://www.w3.org/2000/svg"><g fill="#53627C" fill-rule="evenodd"><path d="M7.667 6.833h14.666c1.013 0 1.834.825 1.834 1.834v5.5c0 .504.41.916.916.916a.918.918 0 00.917-.916v-5.5A3.666 3.666 0 0022.333 5H7.667A3.666 3.666 0 004 8.667v14.666A3.666 3.666 0 007.667 27h6.416a.918.918 0 00.917-.917.918.918 0 00-.917-.916H7.667a1.836 1.836 0 01-1.834-1.834V8.667c0-1.009.82-1.834 1.834-1.834z"/><path d="M14.125 21c.483 0 .875.45.875 1s-.392 1-.875 1h-5.25C8.392 23 8 22.55 8 22s.392-1 .875-1h5.25zM14.125 16c.483 0 .875.45.875 1s-.392 1-.875 1h-5.25C8.392 18 8 17.55 8 17s.392-1 .875-1h5.25zM8.938 11C8.42 11 8 11.45 8 12s.42 1 .938 1h13.124c.518 0 .938-.45.938-1s-.42-1-.938-1H8.938zM20.856 17.268a.918.918 0 10-1.296 1.301l1.89 1.888a.451.451 0 01.133.32v.349a.456.456 0 01-.458.458h-.347a.439.439 0 01-.324-.138l-1.89-1.887a.918.918 0 10-1.295 1.3l1.319 1.32a.45.45 0 010 .642l-1.32 1.32a.918.918 0 101.296 1.301l1.89-1.888a.439.439 0 01.324-.138h.347c.253 0 .458.202.458.458v.349c0 .119-.048.238-.133.32l-1.89 1.888a.918.918 0 101.296 1.301l1.32-1.32a.452.452 0 01.648 0l1.32 1.32a.918.918 0 101.296-1.301l-1.89-1.888a.451.451 0 01-.133-.32v-.349c0-.256.205-.458.458-.458h.347c.121 0 .238.046.324.138l1.89 1.887a.918.918 0 101.295-1.3l-1.319-1.32a.45.45 0 010-.642l1.32-1.32a.918.918 0 10-1.296-1.301l-1.89 1.888a.439.439 0 01-.324.138h-.347a.456.456 0 01-.458-.458v-.349c0-.119.048-.238.133-.32l1.89-1.888a.918.918 0 10-1.296-1.301l-1.32 1.32a.452.452 0 01-.648 0l-1.32-1.32z"/></g></svg>