<svg width="32" height="32" viewBox="0 0 32 32" xmlns="http://www.w3.org/2000/svg"><g fill="none" fill-rule="evenodd" stroke="#53627C"><path d="M6 9h20a1 1 0 011 1v18H5V10a1 1 0 011-1z" stroke-width="2"/><path d="M9 14.933c0-.513.392-.933.875-.933h12.25c.483 0 .875.42.875.933v12.134c0 .513-.392.933-.875.933H9.875C9.392 28 9 27.58 9 27.067V14.933zM13.477 4.14L8 8h16l-5.477-3.86a.784.784 0 00-.44-.14h-4.167a.784.784 0 00-.439.14z" stroke-width="2"/><path d="M13 21h0c0-1.66 1.343-3 3-3h0c1.657 0 3 1.34 3 3h0"/><rect x="11.5" y="21.5" width="9" height="4" rx="1"/></g></svg>