<svg width="32" height="32" viewBox="0 0 32 32" xmlns="http://www.w3.org/2000/svg"><g stroke="#53627C" stroke-width="2" fill="none" fill-rule="evenodd"><path d="M4 10.555c0-.427.267-.804.667-.943l13-4.555A1.003 1.003 0 0119 6v22H4V10.555z"/><path d="M8 17c0-.55.448-1 1-1h5c.552 0 1 .45 1 1v10c0 .55-.448 1-1 1H9c-.552 0-1-.45-1-1V17zM19 25c0-.55.448-1 1-1h7c.552 0 1 .45 1 1v2c0 .55-.448 1-1 1h-8v-3zM19 21c0-.55.448-1 1-1h5c.552 0 1 .45 1 1v2c0 .55-.448 1-1 1h-5c-.552 0-1-.45-1-1v-2zM19 17c0-.55.448-1 1-1h3c.552 0 1 .45 1 1v2c0 .55-.448 1-1 1h-3c-.552 0-1-.45-1-1v-2z"/></g></svg>