<svg width="32" height="32" viewBox="0 0 32 32" xmlns="http://www.w3.org/2000/svg"><g transform="translate(5 4)" stroke="#53627C" fill="none" fill-rule="evenodd"><path stroke-width="2" d="M0 17h22v7H0zM0 3.875C0 3.394.38 3 .846 3h20.308c.467 0 .846.394.846.875v12.25c0 .481-.38.875-.846.875H.846C.38 17 0 16.606 0 16.125V3.875zM0 3h22V.75c0-.412-.38-.75-.846-.75H.846C.38 0 0 .338 0 .75V3z"/><path d="M6 17h10v6.125c0 .481-.373.875-.833.875H6.833c-.46 0-.833-.394-.833-.875V17z" stroke-width="2"/><rect stroke-width="2" x="6" y="3" width="10" height="14" rx="1"/><rect x="6" y="20" width="10" height="1" rx=".5"/><rect x="13" y="9" width="1" height="4" rx=".5"/></g></svg>