<svg width="32" height="32" viewBox="0 0 32 32" xmlns="http://www.w3.org/2000/svg"><g transform="translate(4 4)" stroke="#53627C" stroke-width="2" fill="none" fill-rule="evenodd"><rect width="24" height="24" rx="3"/><path d="M16 12.853C16 15.144 14.209 17 12 17s-4-1.856-4-4.147c0-.674.238-1.483.671-2.353.428-.861 1.009-1.732 1.61-2.51a24.542 24.542 0 011.651-1.917c.023-.021.046-.052.068-.073.022.02.045.052.068.073.453.476 1.053 1.14 1.651 1.918.601.777 1.182 1.648 1.61 2.509.433.87.671 1.68.671 2.353z" stroke-linecap="round" stroke-linejoin="round"/></g></svg>