<svg width="32" height="32" viewBox="0 0 32 32" xmlns="http://www.w3.org/2000/svg"><g transform="translate(4 4)" fill="none" fill-rule="evenodd"><rect stroke="#53627C" stroke-width="2" x="11" y="12" width="14" height="12" rx="2"/><path d="M3.692 1.778h16.616c1.02 0 1.846.8 1.846 1.778V8c0 .489.413.889.923.889S24 8.489 24 8V3.556C24 1.59 22.347 0 20.308 0H3.692C1.653 0 0 1.591 0 3.556v8.888C0 14.41 1.653 16 3.692 16h3.693c.51 0 .923-.4.923-.889s-.414-.889-.923-.889H3.692c-1.02 0-1.846-.8-1.846-1.778V3.556c0-.978.826-1.778 1.846-1.778z" fill="#53627C"/><rect fill="#53627C" x="4" y="4" width="16" height="2" rx="1"/><rect fill="#53627C" x="4" y="7" width="16" height="2" rx="1"/><rect fill="#53627C" x="4" y="10" width="4" height="2" rx="1"/><path d="M15.5 21v-2M15.5 16v-1M20.5 17v-2M20.5 21v-1" stroke="#53627C" stroke-width="2" stroke-linecap="round"/></g></svg>