<svg width="32" height="32" viewBox="0 0 32 32" xmlns="http://www.w3.org/2000/svg"><g fill="#53627C" fill-rule="evenodd"><path d="M16.99 22.856A8.42 8.42 0 0114 23.4 8.4 8.4 0 015.6 15 8.4 8.4 0 0114 6.6a8.402 8.402 0 018.396 8.136 5.12 5.12 0 011.596.68c.006-.144.008-.28.008-.416 0-5.52-4.477-10-10-10S4 9.48 4 15s4.477 10 10 10a9.95 9.95 0 004.226-.936 5.228 5.228 0 01-1.236-1.208z" stroke="#53627C" stroke-width=".5"/><path d="M22 25c2.209 0 4-1.787 4-4s-1.791-4-4-4-4 1.787-4 4 1.791 4 4 4zm0 2a6 6 0 100-12 6 6 0 000 12z"/></g></svg>