<svg width="32" height="32" viewBox="0 0 32 32" xmlns="http://www.w3.org/2000/svg"><g transform="translate(2 4)" fill="none" fill-rule="evenodd"><path d="M1.81 12.17l.047-.17h24.286l.047.17a21.39 21.39 0 010 11.66.232.232 0 01-.223.17H2.033a.232.232 0 01-.223-.17 21.39 21.39 0 010-11.66z" stroke="#53627C" stroke-width="2"/><path d="M6.517 12.55c.061-.32.34-.55.666-.55h14.634c.325 0 .605.23.666.55.69 3.6.69 7.3 0 10.9a.677.677 0 01-.666.55H7.183a.677.677 0 01-.666-.55c-.69-3.6-.69-7.3 0-10.9z" stroke="#53627C" stroke-width="2"/><path d="M11.296 12.92c.04-.52.49-.92 1.033-.92h3.342c.542 0 .993.4 1.033.92l.192 2.42c.139 1.77.139 3.55 0 5.32l-.192 2.42c-.04.52-.49.92-1.033.92H12.33c-.542 0-.993-.4-1.033-.92l-.192-2.42a34.028 34.028 0 010-5.32l.192-2.42z" stroke="#53627C" stroke-width="2"/><rect stroke="#53627C" stroke-width="2" x="8" width="12" height="12" rx="1"/><rect fill="#53627C" x="1" y="9" width="2" height="3" rx="1"/><rect fill="#53627C" x="25" y="9" width="2" height="3" rx="1"/></g></svg>