<svg width="32" height="32" viewBox="0 0 32 32" xmlns="http://www.w3.org/2000/svg"><g fill="#53627C" fill-rule="evenodd"><path d="M15 7.818A.827.827 0 0014.167 7H5.833A.827.827 0 005 7.818v16.364c0 .45.373.818.833.818h8.334c.46 0 .833-.368.833-.818V7.818zM4.75 5C3.783 5 3 5.762 3 6.692v18.616C3 26.238 3.783 27 4.75 27H17V5H4.75z"/><path d="M27 7.818A.827.827 0 0026.167 7h-8.334a.827.827 0 00-.833.818v16.364c0 .45.373.818.833.818h8.334c.46 0 .833-.368.833-.818V7.818zM15 5v22h12.25c.967 0 1.75-.762 1.75-1.692V6.692C29 5.762 28.217 5 27.25 5H15z"/><path d="M19 18c0-.55.336-1 .75-1h4.5c.414 0 .75.45.75 1s-.336 1-.75 1h-4.5c-.414 0-.75-.45-.75-1zM19 14c0-.55.448-1 1-1h4c.552 0 1 .45 1 1s-.448 1-1 1h-4c-.552 0-1-.45-1-1zM19 10c0-.55.336-1 .75-1h4.5c.414 0 .75.45.75 1s-.336 1-.75 1h-4.5c-.414 0-.75-.45-.75-1zM19 22c0-.55.336-1 .75-1h4.5c.414 0 .75.45.75 1s-.336 1-.75 1h-4.5c-.414 0-.75-.45-.75-1zM7 18c0-.55.392-1 .875-1h5.25c.483 0 .875.45.875 1s-.392 1-.875 1h-5.25C7.392 19 7 18.55 7 18zM7 14c0-.55.448-1 1-1h4c.552 0 1 .45 1 1s-.448 1-1 1H8c-.552 0-1-.45-1-1zM7 10c0-.55.392-1 .875-1h5.25c.483 0 .875.45.875 1s-.392 1-.875 1h-5.25C7.392 11 7 10.55 7 10zM7 22c0-.55.392-1 .875-1h5.25c.483 0 .875.45.875 1s-.392 1-.875 1h-5.25C7.392 23 7 22.55 7 22z"/></g></svg>