<svg width="32" height="32" viewBox="0 0 32 32" xmlns="http://www.w3.org/2000/svg"><g transform="translate(4 4)" stroke="#53627C" stroke-width="2" fill="none" fill-rule="evenodd"><path d="M4.84 11.333v10.774c0 .736-.597 1.333-1.333 1.333H2.333A1.333 1.333 0 011 22.107V11.333C1 10.597 1.597 10 2.333 10h1.174c.736 0 1.333.597 1.333 1.333zM13.84 11.333v10.774c0 .736-.597 1.333-1.333 1.333h-1.174A1.333 1.333 0 0110 22.107V11.333c0-.736.597-1.333 1.333-1.333h1.174c.736 0 1.333.597 1.333 1.333zM21.84 11.333v10.774c0 .736-.597 1.333-1.333 1.333h-1.174A1.333 1.333 0 0118 22.107V11.333c0-.736.597-1.333 1.333-1.333h1.174c.736 0 1.333.597 1.333 1.333z"/><rect fill="#FFF" transform="rotate(-180 11.52 16.92)" y="15" width="23.04" height="3.84" rx="1.333"/><path d="M.153 7a3.082 3.082 0 01.012-1.956 3.037 3.037 0 011.185-1.54 2.92 2.92 0 011.87-.495c.66.044 1.285.313 1.78.757M4 3A5.042 5.042 0 015.56.892 4.146 4.146 0 017.89.003a4.173 4.173 0 012.39.65A4.922 4.922 0 0112 2.613M12 3.59a5.053 5.053 0 012.06-.575 5.384 5.384 0 012.142.27 4.81 4.81 0 011.771 1.07A3.945 3.945 0 0119 6M20 2c1.095.397 1.983 1.125 2.503 2.051A3.69 3.69 0 0122.831 7" stroke-linecap="round"/></g></svg>