<svg width="32" height="32" viewBox="0 0 32 32" xmlns="http://www.w3.org/2000/svg"><path d="M11.333 5.933a.934.934 0 00-1.866 0v.934a.934.934 0 001.866 0v-.934zM7.6 7.8a.934.934 0 00-.933-.933h-2.8A1.866 1.866 0 002 8.733v16.8c0 1.032.835 1.867 1.867 1.867h24.266A1.866 1.866 0 0030 25.533v-16.8a1.866 1.866 0 00-1.867-1.866h-2.8a.934.934 0 000 1.866h2.8V16.2H3.867V8.733h2.8A.934.934 0 007.6 7.8zm13.067 10.267v7.466h-9.334v-7.466h9.334zm1.866 7.466v-7.466h5.6v7.466h-5.6zm-13.066 0v-7.466h-5.6v7.466h5.6zM10.4 9.667c.515 0 .933.418.933.933v2.8a.934.934 0 01-1.866 0v-2.8c0-.515.418-.933.933-.933zm5.6 1.866c.515 0 .933.418.933.934v.933a.934.934 0 01-1.866 0v-.933c0-.516.418-.934.933-.934zm6.533-.933a.934.934 0 00-1.866 0v2.8a.934.934 0 001.866 0v-2.8zM21.6 5c.515 0 .933.418.933.933v.934a.934.934 0 01-1.866 0v-.934c0-.515.418-.933.933-.933zm-4.667.933a.934.934 0 00-1.866 0v2.8a.934.934 0 001.866 0v-2.8z" fill="#53627C" fill-rule="evenodd"/></svg>