<svg width="32" height="32" viewBox="0 0 32 32" xmlns="http://www.w3.org/2000/svg"><g fill="none" fill-rule="evenodd"><path d="M5.93 6.19a.848.848 0 000 1.248.977.977 0 001.325 0L5.93 6.19zm2.184-.815l.937.026a.87.87 0 00-.273-.655.978.978 0 00-.692-.257l.028.886zM7.088 8.138c-.015.496.392.903.91.912.516.018.948-.363.963-.86l-1.873-.052zm-1.956-3.56c-.518.009-.924.416-.91.912.017.487.449.868.966.85l-.056-1.762zm2.41 21.652a.976.976 0 001.325 0 .847.847 0 000-1.249L7.542 26.23zM7.255 7.438l.76-.717-1.324-1.258-.761.726 1.325 1.25zm.76-.717l.763-.717-1.326-1.258-.76.717 1.324 1.258zm-.837-1.373l-.09 2.79 1.873.053.09-2.79-1.873-.053zm.908-.859l-2.954.089.056 1.762 2.955-.08-.057-1.77zM6.11 24.875l1.433 1.355 1.325-1.249-1.433-1.355-1.325 1.249zm1.325-1.249a10.936 10.936 0 01-2.6-3.781l-1.747.646a12.656 12.656 0 003.022 4.384l1.325-1.249zm-2.6-3.781a10.948 10.948 0 01-.814-4.534l-1.872-.053c-.057 1.806.26 3.577.94 5.233l1.746-.646zM4.02 15.31a11.9 11.9 0 011.113-4.614l-1.715-.708a13.545 13.545 0 00-1.27 5.269l1.872.053zm1.113-4.614a13.126 13.126 0 012.883-3.976L6.69 5.463A14.873 14.873 0 003.418 9.99l1.715.708zM24.993 24.846l.655.638-.655-.638zM23.58 26.24l-.028.903a.913.913 0 01-.897-.875l.925-.028zm2.946-.83a.92.92 0 01.897.94.92.92 0 01-.953.884l.056-1.823zm-3.959-2.023a.92.92 0 01.896-.939.92.92 0 01.953.884l-1.849.055zm1.199-16.591a.908.908 0 010-1.295.935.935 0 011.308 0l-1.308 1.295zm1.883 18.688l-1.415 1.394-1.308-1.285 1.414-1.395 1.31 1.286zm-2.041-.155l2.918.082-.056 1.823-2.918-.091.056-1.814zm-.953.939l-.088-2.881 1.85-.055.088 2.872-1.85.064zm1.685-2.07a11.284 11.284 0 002.568-3.892l1.724.665a13.057 13.057 0 01-2.983 4.513l-1.309-1.286zm2.568-3.892c.578-1.459.852-3.045.803-4.668l1.85-.054a13.55 13.55 0 01-.929 5.387l-1.724-.665zm.803-4.668a12.678 12.678 0 00-1.099-4.75l1.694-.728a14.43 14.43 0 011.254 5.424l-1.849.054zm-1.099-4.75a13.506 13.506 0 00-2.846-4.092L25.073 5.5a15.306 15.306 0 013.232 4.659l-1.694.729z" fill="#53627C" fill-rule="nonzero"/><path d="M20 17.23c0 2.083-1.791 3.77-4 3.77s-4-1.687-4-3.77c0-.613.238-1.348.671-2.14.428-.782 1.009-1.574 1.61-2.28a23.072 23.072 0 011.651-1.744c.023-.019.046-.047.068-.066.022.019.045.047.068.066a23.072 23.072 0 011.651 1.744c.601.706 1.182 1.498 1.61 2.28.433.792.671 1.527.671 2.14z" stroke="#53627C" stroke-width="2" stroke-linecap="round" stroke-linejoin="round"/></g></svg>