<svg width="32" height="32" viewBox="0 0 32 32" xmlns="http://www.w3.org/2000/svg" xmlns:xlink="http://www.w3.org/1999/xlink"><defs><path d="M0 1c0-.55.448-1 1-1s1 .45 1 1v2c0 .55-.448 1-1 1s-1-.45-1-1V1z" id="a"/><path d="M0 1c0-.55.448-1 1-1s1 .45 1 1v2c0 .55-.448 1-1 1s-1-.45-1-1V1z" id="c"/></defs><g fill="none" fill-rule="evenodd"><path d="M4 5c0-.55.448-1 1-1h11v24H5c-.552 0-1-.45-1-1V5zM16 4h11c.552 0 1 .45 1 1v22c0 .55-.448 1-1 1H16V4z" stroke="#53627C" stroke-width="2"/><g transform="translate(11 14)"><mask id="b" fill="#fff"><use xlink:href="#a"/></mask><path d="M0 1v2h4V1H0zm2 2V1h-4v2h4zM1 2c.552 0 1 .45 1 1h-4c0 1.66 1.343 3 3 3V2zM0 3c0-.55.448-1 1-1v4c1.657 0 3-1.34 3-3H0zm1-1c-.552 0-1-.45-1-1h4C4-.66 2.657-2 1-2v4zm0-4C-.657-2-2-.66-2 1h4c0 .55-.448 1-1 1v-4z" fill="#53627C" fill-rule="nonzero" mask="url(#b)"/></g><g transform="translate(19 14)"><mask id="d" fill="#fff"><use xlink:href="#c"/></mask><path d="M0 1v2h4V1H0zm2 2V1h-4v2h4zM1 2c.552 0 1 .45 1 1h-4c0 1.66 1.343 3 3 3V2zM0 3c0-.55.448-1 1-1v4c1.657 0 3-1.34 3-3H0zm1-1c-.552 0-1-.45-1-1h4C4-.66 2.657-2 1-2v4zm0-4C-.657-2-2-.66-2 1h4c0 .55-.448 1-1 1v-4z" fill="#53627C" fill-rule="nonzero" mask="url(#d)"/></g></g></svg>