<svg width="32" height="32" viewBox="0 0 32 32" xmlns="http://www.w3.org/2000/svg"><g stroke="#53627C" stroke-width="2" fill="none" fill-rule="evenodd"><path d="M3.039 5.28c-.18-.64.287-1.28.935-1.28h24.052c.648 0 1.115.64.935 1.28L27.634 10H4.366L3.04 5.28zM8 10c.552 0 1 .45 1 1v16c0 .55-.448 1-1 1H5c-.552 0-1-.45-1-1V10h4zM26 28H6h20zM17.653 15.92c-.301 1.614-1.196 2.931-1.012 3.386.098.238.445.06.642-.118C20.849 16.078 21.425 24 15.835 24c-5.458 0-5.038-8.179.93-8.991a.775.775 0 01.888.911zM28 10v17c0 .55-.448 1-1 1h-3c-.552 0-1-.45-1-1V11c0-.55.448-1 1-1h4z"/></g></svg>