<svg width="32" height="32" viewBox="0 0 32 32" xmlns="http://www.w3.org/2000/svg"><g transform="translate(2 8)" fill="none" fill-rule="evenodd"><path d="M5.957 5.633l1.796-.002-1.58 12.01c-.074.565-.56.985-1.129.978a.872.872 0 01-.853-1L5.957 5.634zM21.842 5.633l-1.796-.002 1.58 12.01c.074.565.559.985 1.129.978a.872.872 0 00.853-1L21.842 5.634z" fill="#53627C"/><rect stroke="#53627C" stroke-width="2" fill="#FFF" x="1" y="9" width="27" height="4" rx="1"/><path d="M4 5h20V3a2 2 0 00-2-2H6a2 2 0 00-2 2v2z" stroke="#53627C" stroke-width="2"/></g></svg>