<svg width="32" height="32" viewBox="0 0 32 32" xmlns="http://www.w3.org/2000/svg"><g fill="#53627C" fill-rule="evenodd"><path d="M9.274 16.212a1.83 1.83 0 01-.683 2.52 1.868 1.868 0 01-2.55-.674 1.835 1.835 0 01.684-2.52 1.885 1.885 0 012.55.674zm-4.257 5.631a1.834 1.834 0 00.683-2.52 1.868 1.868 0 00-2.55-.674 1.832 1.832 0 00-.683 2.52 1.885 1.885 0 002.55.674zm2.326 2.123c1.508-2.068 3.89-3.424 6.455-3.683a3.669 3.669 0 01-1.473 4.846 3.747 3.747 0 01-4.982-1.163zm-1.786 1.246a1.366 1.366 0 01.048-1.467c2.112-3.105 5.68-5.112 9.504-5.336a1.473 1.473 0 011.334.693l.08.142c1.736 2.923.707 6.66-2.3 8.34-3.006 1.69-6.85.693-8.585-2.23l-.08-.142zm7.542-7.984a1.833 1.833 0 00.683-2.52 1.868 1.868 0 00-2.55-.674 1.832 1.832 0 00-.683 2.52 1.885 1.885 0 002.55.674zM25.146 7.01a1.874 1.874 0 01-2.286 1.31c-.996-.268-1.587-1.283-1.32-2.262.266-.987 1.29-1.569 2.286-1.31a1.845 1.845 0 011.32 2.261zM18.11 8.014c.996.259 2.02-.323 2.287-1.31.267-.979-.325-1.994-1.32-2.262-.996-.258-2.02.323-2.286 1.31-.267.98.323 1.995 1.32 2.262zm.125 3.13a9.225 9.225 0 017.2 1.91c-.62 1.837-2.589 2.899-4.508 2.391-1.918-.508-3.086-2.4-2.692-4.301zm-1.694-.694a1.404 1.404 0 011.063-1.025c3.62-.755 7.456.29 10.219 2.805.391.351.558.91.423 1.428l-.04.155c-.867 3.312-4.19 5.278-7.422 4.388-3.232-.88-5.15-4.285-4.284-7.596l.04-.155zm10.584-.045c.996.259 2.02-.323 2.287-1.31a1.845 1.845 0 00-1.32-2.262c-.996-.259-2.02.323-2.286 1.31-.267.98.324 1.994 1.32 2.262z"/></g></svg>