<svg width="32" height="32" viewBox="0 0 32 32" xmlns="http://www.w3.org/2000/svg"><g fill="#53627C" fill-rule="evenodd"><path d="M8 6h16a2 2 0 012 2v3a1 1 0 002 0V8a4 4 0 00-4-4H8a4 4 0 00-4 4v16a4 4 0 004 4h7a1 1 0 000-2H8a2 2 0 01-2-2V8a2 2 0 012-2z"/><path d="M15 21a1 1 0 010 2H9a1 1 0 010-2h6zM15 15a1 1 0 010 2H9a1 1 0 010-2h6zM9 9a1 1 0 000 2h14a1 1 0 000-2H9z"/><path d="M25.97 27.627c.353.412 1.024.495 1.497.186.472-.309.567-.894.213-1.306l-1.71 1.12zm1.611-13.353a1.181 1.181 0 00-1.512 0 .851.851 0 000 1.32l1.512-1.32zm-.293 1.064l-.756.66.756-.66zm.392 11.169l-.286-.333-1.711 1.12.286.333 1.711-1.12zm-.096-1.845l.204-.154-1.392-1.416-.204.153 1.392 1.417zm.204-5.753l.072-.055-1.391-1.416-.073.054 1.392 1.417zm.256-4.231l-.463-.404-1.512 1.32.463.404 1.512-1.32zm-.184 4.176c1.444-1.08 1.528-3.003.184-4.176l-1.512 1.32c.463.405.434 1.067-.063 1.44l1.391 1.416zm-.072 1.438c-.485-.364-.485-1.02 0-1.383l-1.392-1.417c-1.481 1.108-1.481 3.109 0 4.217l1.392-1.417zm0 4.216c1.482-1.107 1.482-3.108 0-4.216l-1.392 1.417c.486.364.486 1.019 0 1.383l1.392 1.416zm-.394 1.666c-.403-.47-.32-1.13.19-1.512l-1.392-1.417c-1.366 1.02-1.588 2.792-.51 4.049l1.712-1.12zM21.97 27.627c.353.412 1.024.495 1.497.186.472-.309.567-.894.213-1.306l-1.71 1.12zm1.611-13.353a1.181 1.181 0 00-1.512 0 .851.851 0 000 1.32l1.512-1.32zm-.293 1.064l-.756.66.756-.66zm.392 11.169l-.286-.333-1.711 1.12.286.333 1.711-1.12zm-.096-1.845l.204-.154-1.392-1.416-.204.153 1.392 1.417zm.204-5.753l.072-.055-1.391-1.416-.073.054 1.392 1.417zm.256-4.231l-.463-.404-1.512 1.32.463.404 1.512-1.32zm-.184 4.176c1.444-1.08 1.528-3.003.184-4.176l-1.512 1.32c.463.405.434 1.067-.063 1.44l1.391 1.416zm-.072 1.438c-.485-.364-.485-1.02 0-1.383l-1.392-1.417c-1.481 1.108-1.481 3.109 0 4.217l1.392-1.417zm0 4.216c1.482-1.107 1.482-3.108 0-4.216l-1.392 1.417c.486.364.486 1.019 0 1.383l1.392 1.416zm-.394 1.666c-.403-.47-.32-1.13.19-1.512l-1.392-1.417c-1.366 1.02-1.588 2.792-.51 4.049l1.712-1.12zM17.97 27.627c.353.412 1.024.495 1.497.186.472-.309.567-.894.213-1.306l-1.71 1.12zm1.611-13.353a1.181 1.181 0 00-1.512 0 .851.851 0 000 1.32l1.512-1.32zm-.293 1.064l-.756.66.756-.66zm.392 11.169l-.286-.333-1.711 1.12.286.333 1.711-1.12zm-.096-1.845l.204-.154-1.392-1.416-.204.153 1.392 1.417zm.204-5.753l.072-.055-1.391-1.416-.073.054 1.392 1.417zm.256-4.231l-.463-.404-1.512 1.32.463.404 1.512-1.32zm-.184 4.176c1.444-1.08 1.528-3.003.184-4.176l-1.512 1.32c.463.405.434 1.067-.063 1.44l1.391 1.416zm-.072 1.438c-.485-.364-.485-1.02 0-1.383l-1.392-1.417c-1.481 1.108-1.481 3.109 0 4.217l1.392-1.417zm0 4.216c1.482-1.107 1.482-3.108 0-4.216l-1.392 1.417c.486.364.486 1.019 0 1.383l1.392 1.416zm-.394 1.666c-.403-.47-.32-1.13.19-1.512l-1.392-1.417c-1.366 1.02-1.588 2.792-.51 4.049l1.712-1.12z" fill-rule="nonzero"/></g></svg>