<svg width="32" height="32" viewBox="0 0 32 32" xmlns="http://www.w3.org/2000/svg"><g transform="translate(5 3)" fill="none" fill-rule="evenodd"><path stroke="#53627C" stroke-width="2" d="M0 7.333h22v18H0z"/><path d="M4 11.933c0-.513.42-.933.938-.933h13.125c.517 0 .937.42.937.933v12.134c0 .513-.42.933-.938.933H4.938A.937.937 0 014 24.067V11.933zM0 7.19c0 .55.41 1 .917 1h20.166c.506 0 .917-.45.917-1v-2c0-.55-.41-1-.917-1H.917c-.506 0-.917.45-.917 1v2zM8.477.14L3 4h16L13.523.14a.784.784 0 00-.44-.14H8.917a.784.784 0 00-.439.14z" stroke="#53627C" stroke-width="2"/><path d="M11.5 16c-1.243 0-2.25.9-2.25 2H7c0-2.21 2.015-4 4.5-4s4.5 1.79 4.5 4h-2.25c0-1.1-1.007-2-2.25-2z" fill="#53627C"/><circle fill="#53627C" cx="11.524" cy="20.952" r="2.095"/></g></svg>