<svg width="32" height="32" viewBox="0 0 32 32" xmlns="http://www.w3.org/2000/svg"><g fill="none" fill-rule="evenodd"><path d="M24.072 17.722c.202 2.112-.508 4.103-.054 4.464.195.156.437-.105.571-.322 2.983-4.847 5.95 4.188-.142 5.935-5.975 1.714-7.862-8.041-1.418-10.74.475-.198.991.12 1.043.663z" stroke="#53627C" stroke-width="2"/><path d="M7.833 5.917h15.334c1.059 0 1.916.857 1.916 1.916v5.75a.959.959 0 001.917 0v-5.75A3.834 3.834 0 0023.167 4H7.833A3.834 3.834 0 004 7.833v15.334A3.834 3.834 0 007.833 27h6.709a.959.959 0 000-1.917H7.833a1.916 1.916 0 01-1.916-1.916V7.833c0-1.059.857-1.916 1.916-1.916z" fill="#53627C"/><path d="M15 20a1 1 0 010 2H9a1 1 0 010-2h6zM15 15a1 1 0 010 2H9a1 1 0 010-2h6zM8.938 10C8.42 10 8 10.448 8 11s.42 1 .938 1h13.124c.518 0 .938-.448.938-1s-.42-1-.938-1H8.938z" fill="#53627C"/></g></svg>