<svg width="32" height="32" viewBox="0 0 32 32" xmlns="http://www.w3.org/2000/svg"><g fill="none" fill-rule="evenodd"><path d="M5 11.942V5.058c0-.868.98-1.366 1.666-.847l2.222 1.694c.18.138.4.212.625.212h3.167a10.81 10.81 0 018.06 3.622c.635.72.021 1.843-.911 1.673l-1.835-.339a11.094 11.094 0 00-2.05-.19H9.513a1.03 1.03 0 00-.625.212l-2.222 1.694C5.98 13.308 5 12.81 5 11.942z" stroke="#53627C" stroke-width="2"/><path d="M11 10v15.882c0 1.165.895 2.118 2 2.118h0c1.105 0 2-.953 2-2.118V10M23 25.846v-9.692C23 14.969 24.119 14 25.5 14s2.5.97 2.5 2.154v9.692C28 27.031 26.881 28 25.5 28s-2.5-.97-2.5-2.154zM25.5 15V9" stroke="#53627C" stroke-width="2"/><path fill="#53627C" d="M24 7.5l.5 1.5h2l.5-1.5-.5-2.5h-2zM10 6c0-1.1.895-2 2-2h2c1.105 0 2 .9 2 2h-6z"/></g></svg>