<svg width="32" height="32" viewBox="0 0 32 32" xmlns="http://www.w3.org/2000/svg"><g fill="#53627C" fill-rule="evenodd"><path d="M8 6h16c1.105 0 2 .9 2 2v6c0 .55.448 1 1 1s1-.45 1-1V8a4 4 0 00-4-4H8a4 4 0 00-4 4v16a4 4 0 004 4h7c.552 0 1-.45 1-1s-.448-1-1-1H8c-1.105 0-2-.9-2-2V8c0-1.1.895-2 2-2z"/><path d="M15.478 21.74c.576 0 1.044.469 1.044 1.043s-.468 1.043-1.044 1.043h-6.26c-.577 0-1.044-.47-1.044-1.043 0-.574.467-1.044 1.043-1.044h6.261zM15.478 15.478c.576 0 1.044.47 1.044 1.044 0 .574-.468 1.043-1.044 1.043h-6.26c-.577 0-1.044-.47-1.044-1.043 0-.574.467-1.044 1.043-1.044h6.261zM9.152 9.217c-.54 0-.978.47-.978 1.044 0 .574.438 1.043.978 1.043h13.696c.54 0 .978-.47.978-1.043 0-.574-.438-1.044-.978-1.044H9.152zM22.26 16.522c.577 0 1.044.47 1.044 1.043v6.875l1.871-1.878a1.044 1.044 0 111.476 1.482l-3.652 3.65a1.044 1.044 0 01-1.476 0l-3.652-3.65a1.044 1.044 0 111.475-1.481l1.871 1.877v-6.875c0-.574.468-1.043 1.044-1.043z"/></g></svg>