<svg width="32" height="32" viewBox="0 0 32 32" xmlns="http://www.w3.org/2000/svg"><g stroke="#53627C" fill="none" fill-rule="evenodd" stroke-linecap="round" stroke-linejoin="round"><path d="M12 26v.106C12 27.694 13.354 29 15 29s3-1.306 3-2.894V26M22.326 17.27v-3.007C22.326 10.375 18.919 7 15 7c-3.92 0-7.326 3.411-7.326 7.336v2.934C7.674 20.608 5 21.122 5 22.992 5 24.68 8.846 26 15 26s10-1.32 10-3.008c0-1.87-2.674-2.384-2.674-5.722z" stroke-width="2"/><path d="M22 4a7.945 7.945 0 012.739 2.53A7.754 7.754 0 0126 10M21 6c1.465.966 2.525 2.381 3 4" stroke-width="1.4"/></g></svg>