<svg width="32" height="32" viewBox="0 0 32 32" xmlns="http://www.w3.org/2000/svg"><g stroke="#53627C" stroke-width="2" fill="none" fill-rule="evenodd"><path d="M25.81 29H6.233l-.5-3.156c-.979-6.188-.979-12.5 0-18.688l.081-.51C6.055 5.125 7.404 4 8.989 4h14.1c1.565 0 2.896 1.115 3.135 2.615a63.314 63.314 0 010 19.77L25.809 29z"/><path d="M25.99 7.86c.088.6-.394 1.14-1.022 1.14H7.032c-.628 0-1.11-.54-1.021-1.14l.188-1.28C6.417 5.1 7.723 4 9.263 4h13.474c1.54 0 2.846 1.1 3.064 2.58l.188 1.28z"/><path d="M20 19.253C20 21.25 18.286 23 16 23s-4-1.75-4-3.747c0-.58.225-1.294.655-2.102.424-.787 1.001-1.573 1.601-2.288a22.75 22.75 0 011.647-1.77c.033-.03.066-.062.097-.093l.097.093a22.75 22.75 0 011.647 1.77c.6.715 1.177 1.501 1.601 2.288.43.808.655 1.522.655 2.102z" stroke-linecap="round" stroke-linejoin="round"/></g></svg>