<svg width="25" height="24" xmlns="http://www.w3.org/2000/svg"><g stroke-linecap="round" stroke="#94A3A7" stroke-linejoin="round" fill="none" fill-rule="evenodd"><path d="M23.629 22.943L21.079 1M18.11 22.943L16.558 1M6.518 22.943L8.07 1M1 22.943L3.55 1M12.314 1v21.943M3.393 2.356h4.565M12.314 13.324h5.02M7.592 7.769h4.722M16.89 3.219h4.446M18.11 18.866h5.013M1.442 19.135H6.78M5.39 17.723c-.99-1.84-1.91-5.773-1.6-9.171.057-.628.45-2.208 1.028-2.486.922-.444 1.33.919 1.645 1.967M7.99 21.352c1.2.2 2.742-1.457 2.952-4.301.2-2.727-1.013-5.702-2.152-7.528"/><path d="M7.79 18.237c1.085.144 1.473-.543 1.629-1.37.164-.877-.425-2.398-1.115-3M10.876 6.352c-.975-.96-1.43-3.734-.23-4.343M13.56 2.38c1.658 1.315 2.027 3.315 2.087 5 .05 1.411-.371 3.312-1.315 4.4M13.533 5.438c.723 1.32.799 2.717.028 4.029M14.304 22.466c-.4-1.702-1.152-4.87.028-6.286.572-.685 1.543-.914 2.287-.085M16.132 22.38c-.8-1.685-1.285-4.714.658-3.885M20.476 5.38c-1.658.772-2.413 3.727-1.749 6.985.463 2.272 2.263 3.93 3.177 4.273M20.819 8.037c-.972.858-1.087 4.344.2 4.944M3.018 15.467c.008.514.235 1.882.629 2.256"/></g></svg>