<svg width="24" height="22" xmlns="http://www.w3.org/2000/svg"><g stroke="#94A3A7" fill="none" fill-rule="evenodd"><path d="M19.657 4.291h1.418v2.018h-1.418M4.328 4.291H2.91v2.018h1.418" stroke-linecap="round" stroke-linejoin="round"/><path d="M15.5 6.3h2M15.5 4.3h2M6.5 6.3h2M6.5 4.3h2M11.5 6.3h1M11.5 4.3h1" stroke-linecap="square"/><path d="M17.548 7.842V2.148l1.009-.952 1.01.952v5.694h-2.019zM13.177 7.842V2.148l1.008-.952 1.01.952v5.694h-2.018zM8.805 7.842V2.148l1.01-.952 1.008.952v5.694H8.805zM4.434 7.842V2.148l1.009-.952 1.009.952v5.694H4.434z" stroke-linecap="round" stroke-linejoin="round"/><g stroke-linecap="round" stroke-linejoin="round"><path d="M4.267 12.5h-2.02V9.691l1.01-.952 1.01.952V12.5zM2.248 20.804V18.9h2.019v1.904h-2.02zM2.248 16.804V14.9M4.26 16.804V14.9"/></g><g stroke-linecap="round" stroke-linejoin="round"><path d="M8.667 12.5h-2.02V9.691l1.01-.952 1.01.952V12.5zM6.648 20.804V18.9h2.019v1.904h-2.02zM6.648 16.804V14.9M8.66 16.804V14.9"/></g><g stroke-linecap="round" stroke-linejoin="round"><path d="M12.967 12.5h-2.02V9.691l1.01-.952 1.01.952V12.5zM10.948 20.804V18.9h2.019v1.904h-2.02zM10.948 16.804V14.9M12.96 16.804V14.9"/></g><g stroke-linecap="round" stroke-linejoin="round"><path d="M17.367 12.5h-2.02V9.691l1.01-.952 1.01.952V12.5zM15.348 20.804V18.9h2.019v1.904h-2.02zM15.348 16.804V14.9M17.36 16.804V14.9"/></g><g stroke-linecap="round" stroke-linejoin="round"><path d="M21.767 12.5h-2.02V9.691l1.01-.952 1.01.952V12.5zM19.748 20.804V18.9h2.019v1.904h-2.02zM19.748 16.804V14.9M21.76 16.804V14.9"/></g><path d="M.953 16.848h22.094v2.018H.953v-2.018zM.953 12.52h22.094v2.018H.953V12.52z" stroke-linecap="round" stroke-linejoin="round"/></g></svg>