<svg width="25" height="24" xmlns="http://www.w3.org/2000/svg"><g stroke-linecap="round" stroke="#94A3A7" stroke-linejoin="round" fill="none" fill-rule="evenodd"><path d="M4.282 18.662c-1.736 0-.427-3.334-2.407-3.334M4.282 18.662h8.043-8.043z"/><path d="M1.875 15.328c-.483 0-.875-.41-.875-.915 0-.505.392-.914.875-.914.594 0 2.715 0 2.883 2.892M7.008 14.715c-.326-2.928-1.704-4.419-1.704-4.419s-.088-1.183 7.02-1.183"/><path d="M1.54 13.569l4.677-1.784L1.54 13.57zM7.008 14.715l-2.25 1.676 2.25-1.676zM4.758 16.391h7.567-7.567zM20.368 18.662c1.736 0 .427-3.334 2.407-3.334M17.59 18.662h-5.265 5.266zM22.775 15.328c1.531-.167.762-1.772-.43-1.814-.968-.034-1.885.726-2.207 1.616M17.59 9.53c-1.81-.39-3.423-.419-5.265-.417l5.266.416z"/><path d="M23.184 13.837c-.724-.512-2.067-1.028-3.063-1.408l3.063 1.408zM17.59 16.391h-5.265 5.266zM17.59 18.662H4.283v1.948H17.59v-1.948zM17.258 22.629h3.364-3.364zM22.963 4.549C22.837 2.386 21.087.671 18.94.671c-2.146 0-3.896 1.715-4.023 3.878h8.046zM18.94 4.549v18.08-18.08zM22.088 4.549v3.043-3.043zM3.8 10.05H2.73V2.41h9.606v4.566"/><path d="M9.466 2.411L7.533 0 5.6 2.411h3.866zM4.36 8.03V3.906h6.346v3.071"/></g></svg>