<svg width="23" height="21" xmlns="http://www.w3.org/2000/svg"><g stroke-linecap="round" stroke="#94A3A7" stroke-linejoin="round" fill="none" fill-rule="evenodd"><path d="M22.362 4.147h.009v14.21h-.009c0 .78-4.78 1.412-10.677 1.412-5.896 0-10.676-.632-10.676-1.412M1 18.357V4.147h.009c0-.78 4.78-1.412 10.676-1.412.525 0 1.04.006 1.544.015"/><path d="M20.766 10.566v6.546H2.606V5.392h9.839M4.383 7.315h8.062M4.383 9.283h9.131M4.383 11.252h14.605M4.383 13.22h14.605M4.383 15.19h14.605"/><path d="M17.542 0s3.42 3.491 3.42 6.153a3.42 3.42 0 0 1-6.839 0c0-2.662 3.42-6.153 3.42-6.153"/><path d="M17.542 4.175s1.928 1.968 1.928 3.47a1.928 1.928 0 0 1-3.855 0c0-1.502 1.927-3.47 1.927-3.47"/></g></svg>