<svg width="26" height="26" xmlns="http://www.w3.org/2000/svg"><g stroke-linecap="round" stroke="#94A3A7" stroke-linejoin="round" fill="none" fill-rule="evenodd"><path d="M4.503 7.875s3.504 3.577 3.504 6.304a3.504 3.504 0 1 1-7.007 0c0-2.727 3.503-6.304 3.503-6.304M6.63 13.96a2.281 2.281 0 0 1-1.642 2.19M21.497 7.875S25 11.452 25 14.179a3.504 3.504 0 1 1-7.007 0c0-2.727 3.504-6.304 3.504-6.304M23.623 13.96a2.281 2.281 0 0 1-1.643 2.19M4.636 5.603A9.203 9.203 0 0 1 12.61 1a9.205 9.205 0 0 1 7.974 4.6"/><path d="M21.364 3.91l-.453 2.165-2.166-.454M21.364 19.955a9.203 9.203 0 0 1-7.975 4.603 9.205 9.205 0 0 1-7.974-4.6"/><path d="M4.636 21.648l.453-2.165 2.166.454"/></g></svg>