<svg width="26" height="19" xmlns="http://www.w3.org/2000/svg"><g stroke-linecap="round" stroke="#94A3A7" stroke-linejoin="round" fill="none" fill-rule="evenodd"><path d="M8.567 17.18a.718.718 0 0 1-.716.716H6.183a.718.718 0 0 1-.716-.715V1.716c0-.394.322-.716.716-.716H7.85c.394 0 .716.322.716.716V17.18zM3.036 15.965c0 .394.322.716.716.716h1a.718.718 0 0 0 .715-.716V2.931a.718.718 0 0 0-.715-.715h-1a.718.718 0 0 0-.716.715v13.034z"/><path d="M1 7.4h2.036v4.096H1V7.4zM17.046 1.716c0-.394.322-.716.715-.716h1.669c.393 0 .715.322.715.716V17.18a.718.718 0 0 1-.715.715H17.76a.718.718 0 0 1-.715-.715V1.716zM22.576 2.931a.718.718 0 0 0-.715-.715h-1a.718.718 0 0 0-.716.715v13.034c0 .394.322.716.716.716h1a.718.718 0 0 0 .715-.716V2.931zM22.576 7.4h2.036v4.096h-2.036V7.4zM8.567 7.42h8.478v4.057H8.567V7.42z"/></g></svg>