<svg width="32" height="32" viewBox="0 0 32 32" xmlns="http://www.w3.org/2000/svg"><defs><linearGradient x1="100%" y1="50%" x2="0%" y2="50%" id="a"><stop stop-color="#FE92AC" offset="0%"/><stop stop-color="#FF3FDD" offset="100%"/></linearGradient></defs><path d="M25.779 2.349C24.329.834 22.34 0 20.179 0a7.216 7.216 0 00-4.4 1.463A8.824 8.824 0 0014 3.253a8.819 8.819 0 00-1.779-1.79A7.215 7.215 0 007.821 0c-2.161 0-4.15.834-5.6 2.349C.789 3.846 0 5.89 0 8.107c0 2.282.882 4.37 2.777 6.572 1.695 1.97 4.13 3.97 6.952 6.287.963.79 2.055 1.687 3.189 2.642.3.253.683.392 1.082.392.398 0 .783-.14 1.082-.391 1.134-.956 2.226-1.853 3.19-2.644 2.82-2.315 5.256-4.315 6.951-6.286C27.118 12.477 28 10.39 28 8.107c0-2.216-.789-4.261-2.221-5.758z" transform="translate(2 4)" fill="url(#a)" fill-rule="evenodd"/></svg>