<svg width="32" height="32" viewBox="0 0 32 32" xmlns="http://www.w3.org/2000/svg"><path d="M15.562 26.843h0c.119.1.274.157.438.157a.68.68 0 00.438-.156c.945-.797 1.72-1.438 3.2-2.652 3.988-3.274 5.453-4.568 6.827-6.165C28.212 15.996 29 14.132 29 12.107c0-1.964-.693-3.76-1.944-5.067C25.797 5.724 24.07 5 22.178 5c-1.4 0-2.671.423-3.802 1.265-.367.273-.915.825-1.619 1.64L16 8.784l-.757-.877c-.704-.816-1.252-1.368-1.62-1.641A6.216 6.216 0 009.823 5c-1.892 0-3.62.724-4.878 2.04C3.693 8.347 3 10.144 3 12.107c0 2.025.788 3.889 2.535 5.92 1.374 1.597 2.84 2.892 6.836 6.172l-.003-.002a299.567 299.567 0 013.194 2.646z" stroke="inherit" stroke-width="2" fill="none" fill-rule="evenodd"/></svg>