<svg xmlns="http://www.w3.org/2000/svg" style="display:none"><symbol id="profile" viewBox="0 0 32 32"><g fill="none" fill-rule="evenodd" stroke="currentColor" stroke-width="2"><path d="M16 18c3.298 0 6-2.895 6-6.5S19.298 5 16 5c-.75 0-1.482.15-2.167.437-.44.185-.86.427-1.25.72-.385.29-.737.627-1.05 1.005C10.553 8.345 10 9.874 10 11.5c0 3.605 2.702 6.5 6 6.5zM11.5 21c2 0 2.25 1 4.5 1s2.5-1 4.5-1 3.5 1.473 4.5 2.5.5 2.5 0 3-5 .5-9 .5-8.5 0-9-.5-1-2 0-3S9.5 21 11.5 21z"/><path stroke-linecap="round" d="M10.174 10.223c1.068.617 2.1.925 3.098.925 1.497 0 2.696-.18 3.727-.796.34-.204.83-.634 1.464-1.29.543.49 1.155.59 1.837.303.432-.182.65-.507.655-.977"/></g></symbol><symbol id="add" viewBox="0 0 32 32"><path fill="none" fill-rule="evenodd" stroke="currentColor" stroke-linecap="round" stroke-width="2" d="M16 9v14M9 16h14"/></symbol><symbol id="subtract" viewBox="0 0 32 32"><path fill="none" fill-rule="evenodd" stroke="currentColor" stroke-linecap="round" stroke-width="2" d="M9 16h14"/></symbol><symbol id="heart" viewBox="0 0 32 32"><g fill="none" fill-rule="evenodd" stroke="currentColor" stroke-width="2"><path d="M16.095 26c.1-.08.266-.216.462-.38.385-.317.795-.662 1.22-1.026 1.32-1.13 2.57-2.258 3.7-3.346.705-.678 1.348-1.325 1.926-1.94 1.695-1.8 2.764-3.24 3.216-4.33C28.545 10.336 26.29 6 21.706 6c-2.297 0-3.82.687-4.786 2.093l-.82 1.192-.825-1.19C14.302 6.696 12.77 6 10.482 6 5.684 6 3.38 10.353 5.57 14.978c.507 1.07 1.488 2.4 2.946 3.996.628.687 1.336 1.413 2.12 2.176 1.147 1.116 2.413 2.268 3.753 3.42.43.37.845.722 1.235 1.045.2.166.368.303.468.384h.002z"/><path stroke-linecap="round" d="M20.826 9.78c.898-.27 1.63-.186 2.195.246.567.433.757 1.1.573 2"/></g></symbol><symbol id="heart-full" viewBox="0 0 32 32"><g fill="none" fill-rule="evenodd"><path fill="#FD4974" d="M16.097 27.283l-.63-.504-.48-.394c-.377-.313-.798-.668-1.25-1.058-1.295-1.113-2.59-2.284-3.8-3.462-.784-.763-1.508-1.505-2.16-2.218-1.475-1.615-2.54-3.035-3.11-4.242C2.25 10.306 4.752 5 10.482 5c2.614 0 4.45.847 5.615 2.526C17.26 5.834 19.092 5 21.707 5c5.584 0 7.917 5.348 5.835 10.362-.525 1.264-1.7 2.814-3.41 4.632-.598.636-1.255 1.296-1.96 1.975-1.194 1.145-2.47 2.29-3.745 3.384-.446.382-.86.73-1.233 1.038-.224.186-.385.317-.473.387l-.623.503z"/><path stroke="#FFF" stroke-linecap="round" stroke-width="2" d="M21.004 8.08c1.354-.303 2.432-.1 3.233.613.8.713 1.188 1.815 1.16 3.308"/></g></symbol><symbol id="draw-map" viewBox="0 0 32 32"><g fill="none" fill-rule="evenodd"><path stroke="currentColor" stroke-linecap="round" stroke-linejoin="round" stroke-width="2" d="M22 28H10V15l6-9 6 9z"/><path fill="currentColor" d="M19 12h-6l3-6"/><path stroke="currentColor" stroke-linecap="round" stroke-linejoin="round" stroke-width="2" d="M21.5 16L19 18l-3-3-3 3-2.5-2M25.5 12C27.735 1.08 13.835.5 7 5.5c-5.183 3.79-4.27 10.37.5 8M18 21.5v3M14 21.5v3"/></g></symbol><symbol id="create-alert" viewBox="0 0 32 32"><g fill="none" fill-rule="evenodd" stroke="currentColor" stroke-width="2"><path d="M7.004 21.8c.053.035.125.076.216.12.41.197 1.06.387 1.9.55 1.755.34 4.202.53 6.88.53s5.125-.19 6.88-.53c.84-.163 1.49-.353 1.9-.55.09-.044.163-.085.216-.12-.02-.385-.11-.524-.4-.782-.038-.033-.29-.25-.372-.324-.177-.16-.328-.308-.476-.477C22.574 18.877 22 16.662 22 12.5 22 9.315 19.89 7 16 7s-6 2.315-6 5.5c0 4.162-.574 6.377-1.748 7.717-.148.17-.3.318-.476.477-.083.075-.334.29-.37.324-.29.258-.382.397-.402.782z"/><path stroke-linecap="round" d="M17.19 10.97c.848 0 .982.904 1.047 2.142.033.622.218 2.2.218 2.2"/><path d="M19 23c0 3-1.343 4-3 4s-3-1-3-4M18 7c0-1.5-.5-2.5-2-2.5s-2 1-2 2.5"/></g></symbol><symbol id="drop-down" viewBox="0 0 32 32"><path fill="none" fill-rule="evenodd" stroke="currentColor" stroke-linecap="round" stroke-linejoin="round" stroke-width="2" d="M12 14l4 4 4-4"/></symbol><symbol id="search-small" viewBox="0 0 32 32"><g fill="none" fill-rule="evenodd" stroke="currentColor" stroke-width="2"><circle cx="15" cy="15" r="5"/><path stroke-linecap="round" d="M18.82 18.82l3.536 3.536"/></g></symbol><symbol id="contact" viewBox="0 0 32 32"><g fill="none" fill-rule="evenodd" stroke="currentColor" stroke-width="2"><path stroke-linecap="square" d="M20 16l6 6"/><path d="M5 9h22v14H5z"/><path stroke-linecap="square" d="M6 10c4.795 4.667 8.128 7 10 7 1.872 0 5.205-2.333 10-7"/><path d="M6 22l6-6"/></g></symbol><symbol id="print" viewBox="0 0 32 32"><g fill="none" fill-rule="evenodd" stroke="currentColor" stroke-linecap="round" stroke-width="2"><path d="M9.5 20h-2c-.553 0-1-.445-1-.996V9.996c0-.55.45-.996.995-.996h17.01c.55 0 .995.445.995.996v9.008c0 .55-.443.996-1 .996h-2M9.5 9V7c0-.553.447-1 1-1h11c.553 0 1 .443 1 1v2"/><path d="M9.5 18v7.003c0 .55.447.997 1 .997h11c.553 0 1-.453 1-.997V18M7.5 17h17M12.5 20h7M12.5 23h7"/></g></symbol><symbol id="photo" viewBox="0 0 32 32"><g fill="none" fill-rule="evenodd" stroke="currentColor" stroke-width="2"><path fill-rule="nonzero" d="M16 20c1.657 0 3-1.343 3-3s-1.343-3-3-3-3 1.343-3 3 1.343 3 3 3z"/><path d="M6 23H26V12h-.01v-.002c-.62.008-3.693.006-3.953 0-.88.033-1.53-.375-2.162-1.16-.198-.246-.393-.534-.594-.87-.156-.265-.31-.55-.462-.85L18.76 9h-5.497l-.05.102c-.146.304-.3.594-.456.863-.288.49-.57.88-.88 1.19-.552.558-1.178.868-1.868.845-1.128.01-3.418.01-4-.002V12c-.007 0-.01 0-.01-.003-.065 0-.107-.003-.122-.004L6 11l.01.998zm.01-11.002H6V23H26V12h-.01v-.002c-.62.008-3.693.006-3.953 0-.88.033-1.53-.375-2.162-1.16-.198-.246-.393-.534-.594-.87-.156-.265-.31-.55-.462-.85L18.76 9h-5.497l-.05.102c-.146.304-.3.594-.456.863-.288.49-.57.88-.88 1.19-.552.558-1.178.868-1.868.845-1.128.01-3.418.01-4-.002V12z"/></g></symbol><symbol id="floorplan" viewBox="0 0 32 32"><g fill="none" fill-rule="evenodd"><path fill="currentColor" fill-rule="nonzero" d="M17 14.5c.276 0 .5-.224.5-.5V7h-1v6.5H6v1h11z"/><path stroke="currentColor" stroke-linecap="square" stroke-width="2" d="M17 7v7H6"/><path stroke="currentColor" stroke-linecap="round" stroke-width="2" d="M13.5 17.5v6L16 21M20 24.5v-7h3"/><path stroke="currentColor" stroke-width="2" d="M6 25h20V7H6v18z"/></g></symbol><symbol id="play" viewBox="0 0 32 32"><g fill="none" fill-rule="evenodd"><path d="M0 0h32v32H0z"/><path stroke="currentColor" stroke-width="2" d="M24.475 16L9 7.352v17.296L24.475 16z"/></g></symbol><symbol id="share" viewBox="0 0 32 32"><path fill="none" fill-rule="evenodd" stroke="currentColor" stroke-linecap="round" stroke-width="2" d="M16 4v15M16 4l-3.5 3.5M16 4l3.5 3.5M12.5 11H9c-.553 0-1 .445-1 1v14c0 .552.445 1 1 1h14c.552 0 1-.445 1-1V12c0-.552-.448-1-1-1h-3.5"/></symbol><symbol id="fullscreen" viewBox="0 0 32 32"><path fill="none" fill-rule="evenodd" stroke="currentColor" stroke-linecap="round" stroke-linejoin="round" stroke-width="2" d="M27 13V5h-8M27 19v8h-8M13 27H5v-8M13 5H5v8"/></symbol><symbol id="close-large" viewBox="0 0 32 32"><g fill="currentColor" fill-rule="nonzero"><path d="M7.294 8.708l.81.81 2.14 2.134c2.21 2.208 4.422 4.418 6.486 6.483l.03.03c2.682 2.68 4.91 4.912 6.53 6.54.39.392 1.024.393 1.416.004.39-.39.392-1.024.003-1.416-1.624-1.63-3.853-3.86-6.536-6.544l-.03-.03c-2.064-2.064-4.276-4.274-6.488-6.483-.774-.774-1.493-1.49-2.14-2.135l-.81-.81c-.39-.39-1.024-.39-1.414.002-.39.39-.39 1.024.002 1.414z"/><path d="M23.292 7.294l-.81.81-2.134 2.14c-2.208 2.21-4.418 4.422-6.483 6.486l-.03.03c-2.68 2.682-4.912 4.91-6.54 6.53-.392.39-.393 1.024-.004 1.416.39.39 1.024.392 1.416.003 1.63-1.624 3.86-3.853 6.544-6.536l.03-.03c2.064-2.064 4.274-4.276 6.483-6.488.774-.774 1.49-1.493 2.135-2.14l.81-.81c.39-.39.39-1.024-.002-1.414-.39-.39-1.024-.39-1.414.002z"/></g></symbol><symbol id="back-large" viewBox="0 0 32 32"><path fill="currentColor" fill-rule="nonzero" d="M10.308 16c0 .256.097.512.293.707l9.193 9.192c.39.39 1.024.39 1.414 0 .39-.39.39-1.024 0-1.415L12.722 16l8.485-8.485c.39-.39.39-1.024 0-1.414-.39-.39-1.024-.39-1.414 0L10.6 15.294c-.195.195-.292.45-.292.707z"/></symbol><symbol id="close" viewBox="0 0 512 512"><path d="m279 256l68 68c6 6 6 16 0 23-7 6-17 6-23 0l-68-68-68 68c-6 6-16 6-23 0-6-7-6-17 0-23l68-68-68-68c-6-6-6-16 0-23 7-6 17-6 23 0l68 68 68-68c6-6 16-6 23 0 6 7 6 17 0 23z"/></symbol><symbol id="fullscreen-close" viewBox="0 0 512 512"><path d="m208 216c4 0 8-4 8-8l0-128c0-4-4-8-8-8-4 0-8 4-8 8l0 120-120 0c-4 0-8 4-8 8 0 4 4 8 8 8z m-8 96l0 120c0 4 4 8 8 8 4 0 8-4 8-8l0-128c0-4-4-8-8-8l-128 0c-4 0-8 4-8 8 0 4 4 8 8 8z m112-112l0-120c0-4-4-8-8-8-4 0-8 4-8 8l0 128c0 4 4 8 8 8l128 0c4 0 8-4 8-8 0-4-4-8-8-8z m-8 96c-4 0-8 4-8 8l0 128c0 4 4 8 8 8 4 0 8-4 8-8l0-120 120 0c4 0 8-4 8-8 0-4-4-8-8-8z"/></symbol><symbol id="collapse" viewBox="0 0 512 512"><path d="m256 305l136-135c6-7 16-7 22 0 7 6 7 16 0 22l-147 147c-3 3-7 5-11 5-4 0-8-2-11-5l-147-147c-7-6-7-16 0-22 6-7 16-7 22 0z"/></symbol><symbol id="tick" viewBox="0 0 512 512"><path d="m222 315l149-149c6-6 16-6 23 0 6 7 6 17 0 23l-159 158c0 1 0 1-1 1 0 0 0 1 0 1-7 6-17 6-23 0l-68-68c-6-6-6-16 0-23 6-6 17-6 23 0z"/></symbol><symbol id="trash" viewBox="0 0 512 512"><path d="m144 189l43 224c0 1 2 3 3 3l116 0c1 0 3-2 3-3l43-224c0 1 1 3 3 3l-214 0c1 0 3-2 3-3z m-16 3c-1-9 4-16 13-16l214 0c9 0 14 7 13 16l-43 224c-2 9-10 16-19 16l-116 0c-8 0-17-7-19-16z m154-106l-48-6c7 1 12-3 15-8 0-1 1-2 1-2 0 1 0 3 0 8 0 0 0 0 0 1 0 6 0 8 0 11 0 3-1 6-2 8-3 7-9 12-18 11-10-1-10-1-21-3-34-5-34-5-46-6-2-1-5 1-6 3l-8 17c1-2-1-6-3-7l209 30c-2 0-5 3-5 5l-3-18c0-2-3-5-4-5l-65-9c-9-1-14-8-15-15 0-3 0-6 0-9 1-3 2-6 4-12 0 0 0 0 0 0 1-5 2-6 2-8 0 0 0 1 0 2 1 6 5 11 13 12 0 0 0 0 0 0z m0-2l0 0c0 0 0 0 0 0-2 8-5 16-2 16l65 9c9 1 17 9 18 18l3 18c2 9-4 15-13 14l-209-30c-9-1-13-8-9-16l8-17c3-8 13-13 22-12 0 0 39 5 67 9 3 1 2-8 2-16 0 0 0 0 0 0 0 0 0 0 0 0-1-7-1-14 2-13l48 7c3 0 1 6-2 13z m-42 148l0 144c0 4 4 8 8 8 4 0 8-4 8-8l0-144c0-4-4-8-8-8-4 0-8 4-8 8z m-52 2l20 143c1 4 5 8 9 7 5-1 8-5 7-9l-20-143c-1-4-5-7-9-7-4 1-8 5-7 9z m104-2l-20 143c-1 4 2 8 7 9 4 1 8-3 9-7l20-142c1-5-2-9-7-10-4 0-8 3-9 7z"/></symbol><symbol id="search" viewBox="0 0 512 512"><path d="m240 352c71 0 128-57 128-128 0-71-57-128-128-128-71 0-128 57-128 128 0 71 57 128 128 128z m0 16c-80 0-144-64-144-144 0-80 64-144 144-144 80 0 144 64 144 144 0 80-64 144-144 144z m8-240c40 0 88 44 88 88 0 4 4 8 8 8 4 0 8-4 8-8 0-54-55-104-104-104-4 0-8 4-8 8 0 4 4 8 8 8z m79 227l68 68c3 3 9 3 12 0 3-3 3-9 0-12l-68-68c-3-3-8-3-12 0-3 4-3 9 0 12z"/></symbol><symbol id="edit" viewBox="0 0 512 512"><path d="m330 122l-181 181c0 0 0 0 0 0l57 57c0 0 0 0 0 0l181-181c12-13 12-33 0-45l-11-12c-13-12-33-12-46 0z m-11-11c19-19 49-19 68 0l11 11c19 19 19 50 0 68l-181 181c-6 7-16 7-23 0l-56-56c-6-7-6-17 0-23z m-6 40l45 45 6 6 11-12-5-5-51-51-11 11z m-215 260l85-28-57-57z"/></symbol><symbol id="office" viewBox="0 0 512 512"><path d="m352 281l0 150c62-33 104-99 104-175 0-110-90-200-200-200-110 0-200 90-200 200 0 76 42 142 104 175l0-148c-4 0-7 0-9 0-2 0-4 0-7-1-5-3-10-8-15-14-2-3-4-6-5-9-2-2-2-4-2-4-7-11 14-36 56-76 36-33 67-58 78-59 21-1 142 105 141 123-2 18-21 38-38 38-2 0-4 0-7 0z m-312-25c0-119 97-216 216-216 119 0 216 97 216 216 0 119-97 216-216 216-119 0-216-97-216-216z m217-120c-5 0-37 26-68 55-16 15-30 30-40 41-5 6-9 11-11 14-1 2-2 3-2 4 0-1 3 4 6 8 4 5 7 8 9 9 8 0 27 0 54-2 4 0 4 0 9 0 11-1 22-1 34-2 6 0 11 0 15 0 2 0 7 0 12 0 10 0 19 1 29 1 4 0 4 0 9 0 22 1 39 1 46 1 8 0 21-13 22-23 0-2-27-30-57-56-32-28-63-50-67-50z m-81 147l0 156c0 0 40 17 80 17 40 0 80-17 80-17l0-156z m116 139c2-5 3-19 3-43 0-8-1-17-1-26 0-6 0-11 0-14l0-5-4-2-38-21-32 22-3 2 0 4c0 3 0 8-1 15 0 8 0 17 0 25 0 27 0 39 4 43 8 10 65 12 72 0z m-60-43c0-8 0-16 0-25 1-6 0-10 1-10 8-6 18-15 20-14 10 5 25 12 25 14 0 2 0 6 0 9 0 9 1 18 1 26 0 19-1 34-1 34-1 0-16 2-22 1-7 0-24-3-24-2 1 1 0-23 0-33z"/></symbol><symbol id="menu" viewBox="0 0 512 512"><path d="m96 368l320 0c4 0 8-4 8-8 0-4-4-8-8-8l-320 0c-4 0-8 4-8 8 0 4 4 8 8 8z m0-104l320 0c4 0 8-4 8-8 0-4-4-8-8-8l-320 0c-4 0-8 4-8 8 0 4 4 8 8 8z m0-104l320 0c4 0 8-4 8-8 0-4-4-8-8-8l-320 0c-4 0-8 4-8 8 0 4 4 8 8 8z"/></symbol><symbol id="forward-popup" viewBox="0 0 512 512"><path d="m237 369l102-102c7-6 7-16 0-22-6-7-16-7-22 0l-102 102c-6 6-6 16 0 22 6 6 16 6 22 0z m-22-204l102 102c6 7 16 7 22 0 7-6 7-16 0-22l-102-102c-6-6-16-6-22 0-6 6-6 16 0 22z"/></symbol><symbol id="back-popup" viewBox="0 0 512 512"><path d="m275 369l-102-102c-7-6-7-16 0-22 6-7 16-7 22 0l102 102c6 6 6 16 0 22-6 6-16 6-22 0z m22-204l-102 102c-6 7-16 7-22 0-7-6-7-16 0-22l102-102c6-6 16-6 22 0 6 6 6 16 0 22z"/></symbol><symbol id="settings" viewBox="0 0 512 512"><path d="m245 400l22 0 8-32c2-5 6-9 11-11 7-2 13-5 20-9 5-2 11-2 16 1l28 17 16-16-17-28c-3-5-3-11-1-16 4-7 7-13 9-20 1-5 6-9 11-11l32-8 0-22-32-8c-5-2-10-6-11-11-2-7-5-13-9-20-2-5-2-11 1-16l17-28-16-16-28 17c-5 3-11 3-16 1-7-4-13-7-20-9-5-1-9-6-11-11l-8-32-22 0-8 32c-2 5-6 10-11 11-7 2-13 5-20 9-5 2-11 2-16-1l-28-17-16 16 17 28c3 5 3 11 1 16-4 7-7 13-9 20-2 5-6 9-11 11l-32 8 0 22 32 8c5 2 10 6 11 11 2 7 5 13 9 20 2 5 2 11-1 16l-17 28 17 16 27-17c5-3 11-3 16 0 7 3 13 6 20 8 5 2 9 6 11 11z m-14 12l-10-40c-7-2-15-5-22-9l-35 21c-3 1-6 1-7-1l-28-28c-2-1-2-4-1-7l21-35c-3-7-7-14-9-22l-40-10c-2-1-4-3-4-6l0-38c0-3 2-5 4-6l40-10c2-7 5-15 9-22l-21-35c-1-3-1-6 1-7l27-28c2-2 5-2 7-1l36 21c7-3 14-7 22-9l10-40c1-2 3-4 6-4l38 0c3 0 5 2 6 4l10 40c7 2 15 6 22 9l35-21c3-1 6-1 7 1l28 27c2 2 2 5 1 7l-21 36c3 7 7 14 9 22l40 10c2 1 4 3 4 6l0 38c0 3-2 5-4 6l-40 10c-2 8-6 15-9 22l21 35c1 3 1 6-1 7l-27 28c-2 2-5 2-7 1l-36-21c-7 3-15 7-22 9l-10 40c-1 2-3 4-6 4l-38 0c-3 0-5-2-6-4z m25-128c16 0 28-12 28-28 0-16-12-28-28-28-16 0-28 12-28 28 0 16 12 28 28 28z m0 16c-24 0-44-20-44-44 0-24 20-44 44-44 24 0 44 20 44 44 0 24-20 44-44 44z"/></symbol><symbol id="map" viewBox="0 0 512 512"><path d="m220 387c-35 6-60 20-60 37 0 22 43 40 96 40 53 0 96-18 96-40 0-17-25-31-60-37 43-56 108-149 108-200 0-77-64-139-144-139-80 0-144 62-144 139 0 51 65 144 108 200z m61 14c32 4 55 15 55 23 0 9-35 24-80 24-45 0-80-15-80-24 0-8 23-19 55-23 15 19 25 31 25 31 0 0 10-12 25-31z m-25 7c0 0-6-9-10-14-17-21-33-43-49-65-11-16-21-32-30-46-25-42-39-75-39-96 0-68 57-123 128-123 71 0 128 55 128 123 0 21-14 54-39 96-9 14-19 30-30 46-16 22-32 44-49 65-6 8-10 14-10 14z m0-184c18 0 32-14 32-32 0-18-14-32-32-32-18 0-32 14-32 32 0 18 14 32 32 32z m0 16c-27 0-48-21-48-48 0-27 21-48 48-48 27 0 48 21 48 48 0 27-21 48-48 48z m112-56c0-52-52-104-104-104-4 0-8 4-8 8 0 4 4 8 8 8 44 0 88 44 88 88 0 4 4 8 8 8 4 0 8-4 8-8z"/></symbol><symbol id="star-full-jumbo" viewBox="0 0 512 512"><path d="m121 494c-16 8-26 0-23-17l26-151-110-106c-12-12-8-24 9-27l151-22 68-137c8-16 20-16 28 0l68 137 151 22c17 3 21 15 9 27l-110 106 26 151c3 17-7 25-23 17l-135-71z"/></symbol><symbol id="star-full-large" viewBox="0 0 512 512"><path d="m256 384l-117 62c-7 4-13 0-11-9l22-129-94-92c-6-7-4-13 4-14l131-19 58-118c4-8 10-8 14 0l58 118 131 19c8 1 10 7 4 14l-94 92 22 129c2 9-4 13-11 9z"/></symbol><symbol id="star-full-medium" viewBox="0 0 512 512"><path d="m256 366l-91 48c-16 9-26 1-23-16l17-102-74-72c-13-13-9-25 9-27l102-15 46-93c8-16 20-16 28 0l46 93 102 15c18 2 22 14 9 27l-74 72 17 102c3 17-7 25-23 16z"/></symbol><symbol id="star-outline-small" viewBox="0 0 512 512"><path d="m256 308l55 29-10-61 44-43-61-9-28-57-28 57-61 8 44 44-10 61z m0 18l-48 25c-16 9-26 1-23-16l9-54-38-37c-13-13-9-25 8-27l54-8 24-49c8-15 20-16 28 0l24 49 54 8c17 2 21 14 8 27l-38 37 9 54c3 17-7 25-23 16z"/></symbol><symbol id="star-outline-medium" viewBox="0 0 512 512"><path d="m256 348l99 52-19-110 80-78-111-15-49-101-49 101-111 15 80 78-19 110z m0 18l-91 48c-16 9-26 1-23-16l17-102-74-72c-13-13-9-25 9-27l102-15 46-93c8-16 20-16 28 0l46 93 102 15c18 2 22 14 9 27l-74 72 17 102c3 17-7 25-23 16z"/></symbol><symbol id="star-outline-large" viewBox="0 0 512 512"><path d="m256 375l120 64-23-134 98-95-135-19-60-122-60 122-135 19 98 95-23 134z m0 9l-117 62c-7 4-13 0-11-9l22-129-94-92c-6-7-4-13 4-14l131-19 58-118c4-8 10-8 14 0l58 118 131 19c8 1 10 7 4 14l-94 92 22 129c2 9-4 13-11 9z"/></symbol><symbol id="star-outline-jumbo" viewBox="0 0 512 512"><path d="m121 494c-16 8-26 0-23-17l26-151-110-106c-12-12-8-24 9-27l151-22 68-137c8-16 20-16 28 0l68 137 151 22c17 3 21 15 9 27l-110 106 26 151c3 17-7 25-23 17l-135-71z m135-90l142 76-27-159 116-112-160-23-71-145-71 145-159 22 115 113-28 158z"/></symbol><symbol id="star-full-small" viewBox="0 0 512 512"><path d="m256 326l-48 25c-16 9-26 1-23-16l9-54-38-37c-13-13-9-25 8-27l54-8 24-49c8-15 20-16 28 0l24 49 54 8c17 2 21 14 8 27l-38 37 9 54c3 17-7 25-23 16z"/></symbol><symbol id="google" viewBox="0 0 512 512"><path d="m258 240l0 38 64 0c-3 17-19 49-64 49-38 0-69-32-69-71 0-39 31-71 69-71 22 0 37 10 45 18l30-30c-19-18-45-29-75-29-62 0-112 50-112 112 0 62 50 112 112 112 65 0 108-45 108-109 0-8-1-13-2-19z"/></symbol><symbol id="instagram" viewBox="0 0 512 512"><path d="m370 96l-238 0c-20 0-36 16-36 36l0 240c0 20 16 36 36 36l238 0c19 0 35-16 35-36l0-240c0-20-16-36-35-36z m-27 132l27 0 0 132c0 6-6 12-12 12l-214 0c-7 0-12-6-12-12l0-132 27 0c-2 8-4 16-4 24 0 53 43 96 96 96 52 0 95-43 95-96 0-8-1-16-3-24z m15-96c6 0 12 5 12 12l0 36c0 7-6 12-12 12l-36 0c-7 0-12-5-12-12l0-36c0-7 5-12 12-12z m-167 120c0-33 27-60 60-60 32 0 59 27 59 60 0 33-27 60-59 60-33 0-60-27-60-60z"/></symbol><symbol id="twitter" viewBox="0 0 512 512"><path d="m303 144c-32 0-57 25-57 56 0 4 1 9 2 13-47-3-89-25-117-59-5 8-7 18-7 28 0 20 9 37 25 47-10 0-18-3-26-7l0 1c0 27 20 49 45 54-4 2-9 2-15 2-3 0-7 0-10-1 7 23 28 39 53 39-20 15-44 24-71 24-4 0-9 0-13-1 25 16 55 26 87 26 104 0 160-86 160-160 0-2 0-4 0-7 11-8 21-18 28-29-10 5-21 8-32 9 12-7 21-18 25-31-11 6-23 11-36 14-10-11-25-18-41-18"/></symbol><symbol id="linkedin" viewBox="0 0 512 512"><path d="m131 375l55 0 0-166-55 0z m59-217c-1-16-12-29-31-29-19 0-31 13-31 29 0 16 12 29 30 29l1 0c19 0 31-13 31-29z m193 122c0-51-27-74-63-74-29 0-42 16-49 27l0-24-55 0c1 16 0 166 0 166l55 0 0-92c0-5 0-10 2-14 4-10 13-20 28-20 20 0 27 15 27 38l0 88 55 0z"/></symbol><symbol id="facebook" viewBox="0 0 512 512"><path d="m266 184l0 39 55 0-8 47-47 0 0 128-45 0 0-128-45 0 0-47 45 0 0-42c0-43 27-69 65-69 18 0 32 2 37 3l0 44-32 0c-21 0-25 10-25 25"/></symbol><symbol id="pinterest" viewBox="0 0 512 512"><path d="m201 418c7-5 16-27 20-42 2-9 13-55 13-55 7 13 27 25 48 25 63 0 106-58 106-136 0-58-49-113-124-113-93 0-140 68-140 124 0 34 13 64 40 75 5 2 9 0 10-5 1-3 3-12 4-16 1-5 1-6-3-11-8-9-13-21-13-38 0-50 37-95 97-95 52 0 81 32 81 76 0 57-25 105-62 105-20 0-36-17-31-38 6-25 17-52 17-70 0-17-8-30-26-30-21 0-38 22-38 51 0 19 6 31 6 31 0 0-21 92-25 108-3 15-6 38-3 45 3 8 16 14 23 9z"/></symbol></svg>