<svg width="26" height="26" xmlns="http://www.w3.org/2000/svg"><g stroke-linecap="round" stroke="#94A3A7" stroke-linejoin="round" fill="none" fill-rule="evenodd"><path d="M9.604 9.427H1.727a.73.73 0 0 0-.727.727v1.35c0 .4.327.727.727.727h22.546a.73.73 0 0 0 .727-.728v-1.349a.73.73 0 0 0-.727-.727h-7.877a4.887 4.887 0 0 0 1.499-3.528A4.897 4.897 0 0 0 13 1a4.897 4.897 0 0 0-4.895 4.899c0 1.385.575 2.637 1.5 3.528z"/><path d="M17.895 5.899A4.897 4.897 0 0 1 13 10.798a4.897 4.897 0 0 1-4.895-4.9A4.897 4.897 0 0 1 13 1a4.897 4.897 0 0 1 4.895 4.899zM1.91 25h22.18V12.23H1.91V25zM25 25H1h24z"/><path d="M13.39 3.233c-.244.582-.874.746-.874 1.592 0 1.05.968 1.05.968 2.1 0 .87-.661 1.02-.89 1.64M11.012 4.247c-.15.36-.54.461-.54.986 0 .651.6.651.6 1.302 0 .538-.41.632-.553 1.016M15.47 4.247c-.15.36-.541.461-.541.986 0 .651.6.651.6 1.302 0 .538-.41.632-.552 1.016M5.238 14.055v9-9zM8.343 14.055v9-9zM11.448 14.055v9-9zM14.553 14.055v9-9zM17.657 14.055v9-9zM20.762 14.055v9-9zM1.91 9.427V1v8.427zM24.09 9.427V1v8.427zM1.91 1h6.685-6.686zM17.405 1h6.686-6.686z"/></g></svg>