<svg width="24" height="24" xmlns="http://www.w3.org/2000/svg"><g stroke-linecap="round" stroke="#94A3A7" stroke-linejoin="round" fill="none" fill-rule="evenodd"><path d="M2.797 2.213H.686v19.574h2.111v1.527h7.114v-1.527h13.403V2.213H9.911V.686H2.797v1.527zm7.114 1.953h11.452v7.629H9.91V4.166zM18.08 14.523h-4.676 4.676zM21.363 14.523h-1.516 1.516zM18.08 16.952h-4.676 4.676zM21.363 16.952h-1.516 1.516zM18.08 19.38h-4.676 4.676zM21.363 19.38h-1.516 1.516z"/><path d="M16.825 7.217a1.408 1.408 0 1 1-2.815 0 1.408 1.408 0 0 1 2.815 0z"/><path d="M12.269 11.766a3.148 3.148 0 0 1 6.297 0h-6.297zM2.797.686h7.114v22.628H2.797V.686z"/></g></svg>