<svg version="1.2" baseProfile="tiny" xmlns="http://www.w3.org/2000/svg" width="600" height="600" fill="#3c515b"><path d="M231.204 415.259c-12.692 12.691-33.27 12.691-45.962 0-12.692-12.692-12.692-33.271 0-45.962l184.555-184.555c12.691-12.692 33.27-12.692 45.962 0 12.691 12.692 12.691 33.27 0 45.962L231.204 415.259z"/><path d="M329.335 194.091L449.149 74.276c6.356-6.357 16.664-6.357 23.021 0l54.054 54.054c6.357 6.357 6.357 16.664 0 23.021L406.409 271.166c-3.915 3.915-9.324 5.401-14.389 4.489l-45.478 45.478c32.011 25.123 78.885 22.939 108.336-6.512l118.329-118.33c31.784-31.785 31.847-83.882.062-115.667L519.875 27.23c-31.784-31.786-83.881-31.723-115.665.062L285.881 145.62c-29.452 29.452-31.637 76.326-6.513 108.337l45.478-45.478c-.912-5.064.573-10.473 4.489-14.388zm-60.498 214.646L149.021 528.553c-6.357 6.357-16.663 6.357-23.02 0l-54.055-54.055c-6.357-6.357-6.357-16.663 0-23.02l119.816-119.816c3.915-3.915 9.323-5.401 14.388-4.488l48.306-48.306c-32.011-25.124-78.884-22.939-108.336 6.513L27.792 403.71c-31.784 31.784-31.847 83.881-.062 115.666l53.394 53.394c31.785 31.785 83.882 31.724 115.667-.061l118.33-118.33c29.451-29.451 31.636-76.325 6.513-108.336l-48.306 48.306c.911 5.064-.575 10.472-4.491 14.388z"/></svg>