<svg width="25" height="25" xmlns="http://www.w3.org/2000/svg"><g stroke-linecap="round" stroke="#94A3A7" stroke-linejoin="round" fill="none" fill-rule="evenodd"><path d="M22.804 18.996H1.824l.006-13.83h20.98l-.006 13.83z"/><path d="M23.629 1H1l.006 4.166h22.629L23.629 1zM1 23.629h22.629v-4.633H1v4.633zM6.648 12.011c0-3.01 2.537-5.452 5.666-5.452 3.13 0 5.666 2.441 5.666 5.452M6.648 12.011v6.985-6.985zM17.98 12.011v6.985-6.985zM2.173 21.31h20.143H2.173zM4.016 20.082v2.457-2.457zM7.308 20.082v2.457-2.457zM10.6 20.082v2.457-2.457zM13.89 20.082v2.457-2.457zM17.182 20.082v2.457-2.457zM20.474 20.082v2.457-2.457zM2.173 3.11h20.143H2.173zM4.016 2.168v1.885-1.885zM7.308 2.168v1.885-1.885zM10.6 2.168v1.885-1.885zM13.89 2.168v1.885-1.885zM17.182 2.168v1.885-1.885zM20.474 2.168v1.885-1.885z"/><path d="M9.031 18.81c-1.404-1.54.199-3.573-.014-5.308.618.193 1.024.984 1.176 1.436.025-.748.206-1.847.478-2.53.486-1.22 1.357-1.97 2.252-2.87-.249.388-.19 3.075.418 3.664.238-.6 1.215-1.35 1.972-1.136-.498 2.765 1.733 3.215.093 6.857l-6.375-.114z"/><path d="M11.269 18.892c-.987-1.127.473-2.976 1.036-3.94.616.859 1.818 2.85.978 3.94H11.27z"/></g></svg>