<svg width="24" height="23" xmlns="http://www.w3.org/2000/svg"><g stroke-linecap="round" stroke="#94A3A7" stroke-linejoin="round" fill="none" fill-rule="evenodd"><path d="M23.314 22.237H.686h22.628zM8.798 9.611H1.371a.688.688 0 0 0-.685.686v1.273c0 .377.308.686.685.686H22.63a.688.688 0 0 0 .685-.686v-1.273a.688.688 0 0 0-.685-.686h-7.427a4.608 4.608 0 0 0 1.413-3.326A4.617 4.617 0 0 0 12 1.666a4.617 4.617 0 0 0-4.615 4.619c0 1.306.542 2.486 1.413 3.326z"/><path d="M1.543 22.237h20.914v-9.982H1.543v9.982zM16.615 6.285A4.617 4.617 0 0 1 12 10.904a4.617 4.617 0 0 1-4.615-4.619A4.617 4.617 0 0 1 12 1.666a4.617 4.617 0 0 1 4.615 4.619z"/><path d="M12.367 3.772c-.23.548-.823.703-.823 1.5 0 .991.912.991.912 1.981 0 .819-.623.96-.84 1.545M10.126 4.727c-.142.34-.51.436-.51.93 0 .614.565.614.565 1.228 0 .508-.386.596-.52.958M14.329 4.727c-.142.34-.51.436-.51.93 0 .614.565.614.565 1.228 0 .508-.387.596-.52.958M4.681 13.975v6.429-6.429zM7.609 13.975v6.429-6.429zM10.537 13.975v6.429-6.429zM13.464 13.975v6.429-6.429zM16.39 13.975v6.429-6.429zM19.319 13.975v6.429-6.429zM1.574 2.437c.064-.45.065-.995-.203-1.424.696.216 1.076.804 1.724 1.167.242-.539.678-1.115 1.053-1.575.102.513.393.975.43 1.504.47-.53 1.193-.643 1.726-.963-.251.354-.165.82-.123 1.335M3.847 4.666h1.2-1.2zM1.79 6.766h2.743H1.79zM22.426 2.437c-.064-.45-.065-.995.203-1.424-.696.216-1.076.804-1.724 1.167-.242-.539-.678-1.115-1.053-1.575-.102.513-.393.975-.43 1.504-.47-.53-1.193-.643-1.726-.963.251.354.165.82.123 1.335M20.153 4.666h-1.2 1.2zM22.21 6.766h-2.743 2.743z"/></g></svg>