<svg width="24" height="24" xmlns="http://www.w3.org/2000/svg"><g stroke-linecap="round" stroke="#94A3A7" stroke-linejoin="round" fill="none" fill-rule="evenodd"><path d="M9.914 23.237h4.172-4.172zM7.478 6.443H.686v13.214h22.628V6.443h-6.792a4.615 4.615 0 1 0-9.045 0zm.966 2.018H2.84v9.177H21.16V8.46h-5.605A4.605 4.605 0 0 1 12 10.134c-1.43 0-2.71-.65-3.556-1.673zM12 19.656v3.44-3.44z"/><path d="M16.615 5.52a4.615 4.615 0 1 1-9.23 0 4.615 4.615 0 0 1 9.23 0zM12 3.14v4.757-4.756zm2.379 2.38H9.62h4.758zM5.4 14.79l3.493-3.493L5.4 14.79zm2.271 0l1.188-1.187L7.67 14.79zm5.144 1.328l5.785-5.786-5.785 5.786zm4.242-1.922l1.07-1.07-1.07 1.07zm-6.128.251l1.74-1.74-1.74 1.74z"/></g></svg>