<svg width="24" height="25" xmlns="http://www.w3.org/2000/svg"><g stroke-linecap="round" stroke="#94A3A7" stroke-linejoin="round" fill="none" fill-rule="evenodd"><path d="M7.647 17.55c2.082-.376 5.44 1.644 4.993 3.976-.367 1.912-3.247.586-4.14.747-.894.161-3.12 2.41-4.133.746-1.234-2.029 1.239-5.1 3.28-5.469zM3.333 17.313c.567.747.606 1.673.087 2.067-.52.394-1.4.11-1.968-.638-.567-.746-.606-1.672-.087-2.066.52-.395 1.4-.11 1.968.637zM13.237 14.534c-.624-.188-1.35.387-1.62 1.285-.271.898.016 1.778.64 1.967.625.188 1.35-.388 1.62-1.286.271-.897-.015-1.778-.64-1.966zM6.352 14.76c-.281-.895-1.014-1.461-1.636-1.265-.622.195-.898 1.079-.617 1.974.282.894 1.015 1.46 1.636 1.265.623-.196.899-1.08.617-1.974zM8.986 12.724c-.651.034-1.14.82-1.09 1.757.048.936.615 1.669 1.267 1.634.651-.033 1.14-.82 1.09-1.756-.048-.937-.616-1.669-1.267-1.635zM16.745 5.922c2.046.538 4.237 3.787 2.847 5.712-1.14 1.578-3.191-.84-4.069-1.07-.878-.232-3.845.865-4.06-1.07-.263-2.36 3.275-4.1 5.282-3.572zM12.934 3.886c.199.916-.156 1.771-.794 1.91-.637.138-1.315-.493-1.514-1.41-.199-.916.156-1.77.793-1.91.638-.138 1.316.493 1.515 1.41zM23.085 5.548c-.486-.435-1.387-.22-2.01.48-.625.7-.737 1.62-.251 2.054.487.434 1.388.218 2.012-.481.624-.7.736-1.619.25-2.053zM16.75 2.845c.121-.93-.304-1.752-.95-1.838-.646-.085-1.27.6-1.392 1.53-.123.93.302 1.753.949 1.838.646.085 1.27-.6 1.392-1.53zM19.996 2.112c-.605-.244-1.38.262-1.73 1.133-.352.87-.147 1.772.458 2.016S20.104 5 20.455 4.13c.351-.87.146-1.772-.459-2.017z"/></g></svg>