<svg width="26" height="26" xmlns="http://www.w3.org/2000/svg"><g stroke-linecap="round" stroke="#94A3A7" stroke-linejoin="round" fill="none" fill-rule="evenodd"><path d="M25 25H1L4.636 1h16.728L25 25z"/><path d="M22.576 22.6H3.424L6.473 3.02h13.054l3.049 19.58z"/><path d="M13 19.965c1.863 0 1.863-1.218 3.724-1.218 1.864 0 1.864 1.218 3.728 1.218M13 16.693c1.863 0 1.863-1.219 3.724-1.219 1.63 0 1.835.933 3.109 1.166M13 13.42c1.863 0 1.863-1.219 3.724-1.219 1.395 0 1.746.682 2.614 1.026M13 10.147c1.863 0 1.863-1.218 3.724-1.218 1.27 0 1.675.566 2.395.926M13 6.874c1.863 0 1.863-1.218 3.724-1.218.93 0 1.397.303 1.861.607M13 19.965c-1.863 0-1.863-1.218-3.724-1.218-1.864 0-1.864 1.218-3.728 1.218M13 16.693c-1.863 0-1.863-1.219-3.724-1.219-1.63 0-1.835.933-3.109 1.166M13 13.42c-1.863 0-1.863-1.219-3.724-1.219-1.395 0-1.746.682-2.614 1.026M13 10.147c-1.863 0-1.863-1.218-3.724-1.218-1.27 0-1.675.566-2.395.926M13 6.874c-1.863 0-1.863-1.218-3.724-1.218-.93 0-1.397.303-1.861.607"/></g></svg>