<svg width="20" height="22" xmlns="http://www.w3.org/2000/svg"><g fill="none" fill-rule="evenodd"><path d="M-6-5h32v32H-6z"/><g transform="translate(.5 1)"><circle fill="#3C515B" cx="15.5" cy="7" r="1"/><path d="M3 14H1c-.553 0-1-.445-1-.996V3.996C0 3.446.45 3 .995 3h17.01c.55 0 .995.445.995.996v9.008c0 .55-.443.996-1 .996h-2M3 3V1a1 1 0 0 1 1-1h11c.553 0 1 .443 1 1v2" stroke="#3C515B" stroke-linecap="round"/><path d="M3 12v7.003c0 .55.447.997 1 .997h11c.553 0 1-.453 1-.997V12M2 12h15M6 14h7m-7 2h7m-7 2h7" stroke="#3C515B" stroke-linecap="round"/></g></g></svg>