<svg width="24" height="24" xmlns="http://www.w3.org/2000/svg"><g stroke-linecap="round" stroke="#94A3A7" stroke-linejoin="round" fill="none" fill-rule="evenodd"><path d="M1.438 21.257V6.692v14.565zM22.562 21.257V6.692v14.565zM.686 3.162L12 .686.686 3.162zM23.314 3.162L12 .686l11.314 2.476zM7.847 6.484H.657V3.162h22.657v3.322H16.15M16.174 21.257h7.14-7.14zM.686 21.257H7.89.686zM7.843 21.257H3.224V8.81h4.619M16.23 8.807h4.545v12.45h-4.668"/><path d="M16.093 10.762h2.743v2.827H16.08M7.923 10.762H5.18v2.827h2.755M7.948 4.8h8.104v18.057H7.948V4.8z"/><path d="M9.557 6.386h4.886v3.529H9.557V6.386zM13.357 14.162a1.357 1.357 0 1 1-2.714 0 1.357 1.357 0 0 1 2.714 0zM13.357 18.802a1.357 1.357 0 1 1-2.714 0 1.357 1.357 0 0 1 2.714 0zM16.233 15.729h2.603-2.603zM16.233 17.443h2.603-2.603zM16.233 19.157h2.603-2.603zM5.164 15.731h2.603-2.603zM5.164 17.445h2.603-2.603zM5.164 19.16h2.603-2.603z"/></g></svg>