<svg width="24" height="24" xmlns="http://www.w3.org/2000/svg"><g fill="none" fill-rule="evenodd"><path d="M-4-4h32v32H-4z"/><path d="M11 1l-.707-.707.12-.293h1l3.294 3.293a1 1 0 0 1 0 1.414l-4 3.997V7.29l6 6.003h-1.414l4-4a1 1 0 0 1 1.414 0L24 12.586v1l-.293.12L23 13V0l1 1H11zm2.293 3.707L14 4l-.707-.707L10 0h14v14l-4-4-4 4-6-6.003 3.293-3.29zM13 23l.707.707-.12.293h-1l-3.294-3.293a1 1 0 0 1 0-1.414l4-3.997v1.414l-6-6.003h1.414l-4 4a1 1 0 0 1-1.414 0L0 11.414v-1l.293-.12L1 11v13l-1-1h13zm-3-3l.707.707L14 24H0V10l4 4 4-4 6 6.003-3.293 3.29L10 20z" fill="#FFF"/></g></svg>