<svg width="24" height="23" xmlns="http://www.w3.org/2000/svg"><g stroke-linecap="round" stroke="#94A3A7" stroke-linejoin="round" fill="none" fill-rule="evenodd"><path d="M10.812 3.364V8.41l3.814-2.434-3.814-2.612z"/><path d="M17.52 5.976a5.29 5.29 0 1 1-10.58 0 5.29 5.29 0 0 1 10.58 0"/><path d="M17.52 5.976a5.29 5.29 0 1 1-10.58 0 5.29 5.29 0 0 1 10.58 0zM4.798 22.303H2.77h2.028zM21.23 22.303h-2.028 2.028zM4.534 19.518c-1.904 0-.468-4.973-2.641-4.973M4.534 19.518H12"/><path d="M1.893 14.545c-.53 0-.96-.507-.96-1.131 0-.625.43-1.131.96-1.131.652 0 2.979 0 3.164 3.578M6.72 13.788C6.361 10.166 4.85 8.32 4.85 8.32s-.41-.719 2.196-1.147M1.524 12.369l4.328-2.205"/><path d="M5.057 15.86l1.662-2.072s5.217-1.258 10.562 0M5.057 15.86H12M4.76 19.518v2.785H12M19.466 19.518c1.904 0 .468-4.973 2.641-4.973M19.466 19.518H12"/><path d="M22.107 14.545c.531 0 .96-.507.96-1.131 0-.625-.429-1.131-.96-1.131-.652 0-2.979 0-3.164 3.578M17.28 13.788c.358-3.622 1.87-5.468 1.87-5.468s.287-.645-1.793-1.08M22.475 12.369l-4.328-2.205"/><path d="M17.28 13.788l1.663 2.073H12M19.24 19.518v2.785H12"/></g></svg>