<svg width="24" height="24" xmlns="http://www.w3.org/2000/svg"><g stroke-linecap="round" stroke="#94A3A7" stroke-linejoin="round" fill="none" fill-rule="evenodd"><path d="M1.438 20.652V6.098v14.554zM22.562 20.652V6.098v14.554zM.686 3.204L12 .686.686 3.204zM23.314 3.204L12 .686l11.314 2.518zM.686 3.204h22.628v2.683H.686V3.204zM.686 20.652h6.343H.686zM16.971 20.652h6.343-6.343zM8.375 20.652h-5.15V8.251h17.55v12.401H15.69"/><path d="M5.164 10.24h5.958v2.876H5.164V10.24zM12.878 10.24h5.958v2.876h-5.958V10.24zM15.535 22.629a.688.688 0 0 1-.686.685H9.151a.688.688 0 0 1-.686-.685v-3.953c0-.377.309-.686.686-.686h5.698c.377 0 .686.309.686.686v3.953zM9.912 16.762c0-1.173.935-2.124 2.088-2.124s2.088.951 2.088 2.124M9.912 16.762v1.228-1.228zM14.088 16.762v1.228-1.228zM18.836 15.22h-3.464 3.464zM18.836 16.963h-2.693 2.693zM18.836 18.707H16.97h1.865zM5.164 15.22h3.464-3.464zM5.164 16.963h2.693-2.693zM5.164 18.707H7.03 5.164z"/></g></svg>