<svg width="32" height="32" viewBox="0 0 32 32" xmlns="http://www.w3.org/2000/svg"><g fill="#53627C" fill-rule="nonzero"><path d="M10.331 6.757a1 1 0 101.338 1.486l-1.338-1.486zM16 3l.669-.743a.999.999 0 00-1.338 0L16 3zm4.331 5.243a1 1 0 101.338-1.486l-1.338 1.486zM15 21a1 1 0 002 0h-2zM11.669 8.243l5-4.5-1.338-1.486-5 4.5 1.338 1.486zm3.662-4.5l5 4.5 1.338-1.486-5-4.5-1.338 1.486zM15 3v18h2V3h-2zM11 13a1 1 0 000-2v2zm10-2a1 1 0 000 2v-2zm4 3v13h2V14h-2zm-1 14H8v2h16v-2zM7 27V14H5v13h2zm1-14h3v-2H8v2zm13 0h3v-2h-3v2zM8 28a1 1 0 01-1-1H5a3 3 0 003 3v-2zm17-1a1 1 0 01-1 1v2a3 3 0 003-3h-2zm2-13a3 3 0 00-3-3v2a1 1 0 011 1h2zM7 14a1 1 0 011-1v-2a3 3 0 00-3 3h2z"/></g></svg>