<svg width="26" height="26" xmlns="http://www.w3.org/2000/svg"><g stroke-linecap="round" stroke="#94A3A7" stroke-linejoin="round" fill="none" fill-rule="evenodd"><path d="M1.798 25V6.643 25zM24.202 25V6.643 25zM1 3.626L13 1 1 3.626zM25 3.626L13 1l12 2.626zM1 3.626h24v2.797H1V3.626zM1 25h24H1zM4.692 8.545h16.615V25H4.692V8.545zM13 8.545V25 8.545zM20.035 11.182h2.545-2.545zM20.035 16.788h2.545-2.545zM20.035 22.394h2.545-2.545zM3.465 11.182h2.546-2.546zM3.465 16.788h2.546-2.546zM3.465 22.394h2.546-2.546zM10.95 16.002v1.573-1.573zM15.05 16.002v1.573-1.573z"/></g></svg>