<svg width="24" height="24" xmlns="http://www.w3.org/2000/svg"><g stroke-linecap="round" stroke="#94A3A7" stroke-linejoin="round" fill="none" fill-rule="evenodd"><path d="M15.708 7.404h7.606V.686H.686v6.718h7.606C9.556 4.703 12 2.208 12 2.208s2.444 2.495 3.708 5.196z"/><path d="M12 2.208s4.448 4.54 4.448 8.002a4.448 4.448 0 0 1-8.896 0C7.552 6.748 12 2.208 12 2.208M14.699 9.931c0 1.317-.88 2.43-2.085 2.78M12 16.572v6.742-6.742z"/><path d="M22.286 7.404v15.91H1.714V7.658M19.714 7.404v15.91-15.91zM9.429 15.756v7.558-7.558zM4.286 7.404v15.91-15.91zM14.571 15.756v7.558-7.558zM17.143 14.086v9.228-9.228zM6.857 14.086v9.228-9.228z"/></g></svg>