<svg width="25" height="24" xmlns="http://www.w3.org/2000/svg"><g stroke-linecap="round" stroke="#94A3A7" stroke-linejoin="round" fill="none" fill-rule="evenodd"><path d="M15.326 4.8h8.303v17.829H1V4.8h8.262M21.486 6.93v13.303V6.93zM18.84 10.857v9.376-9.376zM16.196 13.414v6.819-6.82zM13.551 13.414v6.819-6.82zM8.261 12.251v7.982-7.982zM10.906 13.415v6.818-6.818zM5.616 10.857v9.376-9.376zM2.971 6.93v13.303V6.93zM21.486 20.233H2.97h18.515zM21.486 17.572H2.97h18.515zM21.486 14.912H2.97h18.515zM21.486 9.591h-1.61 1.61zM4.581 9.591h-1.61 1.61zM21.486 12.251h-4.018 4.018zM6.989 12.251H2.971 6.99z"/><path d="M15.399 6.07a3.084 3.084 0 1 1-6.169-.001 3.084 3.084 0 0 1 6.169 0zM12.315 0v1.617V0zM12.314 12.14v-1.618 1.617zM12.314 0v1.617V0zM12.315 12.14v-1.618 1.617zM18.384 6.07h-1.617 1.617zM6.244 6.07h1.617-1.617zM18.384 6.07h-1.617 1.617zM6.244 6.07h1.617-1.617zM16.607 1.778l-1.144 1.143 1.144-1.143zM8.022 10.361l1.143-1.143-1.143 1.143zM16.606 1.777l-1.144 1.144 1.144-1.144zM8.022 10.362l1.144-1.143-1.144 1.143zM16.606 10.362l-1.144-1.143 1.144 1.143zM8.022 1.777l1.144 1.144-1.144-1.144zM16.607 10.361l-1.144-1.143 1.144 1.143zM8.022 1.778l1.143 1.143-1.143-1.143zM21.486 6.93H20.39h1.096zM4.067 6.93H2.971h1.096z"/></g></svg>