<svg width="24" height="24" xmlns="http://www.w3.org/2000/svg"><g stroke-linecap="round" stroke="#94A3A7" stroke-linejoin="round" fill="none" fill-rule="evenodd"><path d="M.686.686h22.628V8H.686V.686zM17.127 17.164a4.62 4.62 0 1 1-9.239 0 4.62 4.62 0 0 1 9.24 0z"/><path d="M12.875 14.65c-.23.55-.824.704-.824 1.501 0 .991.913.991.913 1.981 0 .82-.624.962-.84 1.546M10.632 15.606c-.142.34-.51.436-.51.93 0 .614.566.614.566 1.229 0 .507-.387.595-.522.958M14.839 15.606c-.143.34-.511.436-.511.93 0 .614.566.614.566 1.229 0 .507-.387.595-.52.958M.686.686h22.628v4.657H.686V.686zM2.925 2.615h18.15-18.15z"/><path d="M6.245 11.014h17.07v12.3H6.244v-12.3z"/><path d="M6.245 11.014H18.77v12.3H6.245v-12.3zM20.29 12.477h1.586-1.586zM20.29 20.706h1.586-1.586zM6.245 21.42a3.105 3.105 0 0 1-3.104-3.106V8"/></g></svg>