<svg width="26" height="26" xmlns="http://www.w3.org/2000/svg"><g stroke-linecap="round" stroke="#94A3A7" stroke-linejoin="round" fill="none" fill-rule="evenodd"><path d="M1 1h23.612v7.633H1V1z"/><path d="M1 1h23.612v4.86H1V1zM3.336 3.013h18.94-18.94zM6.802 11.777h17.81v12.835H6.802V11.777z"/><path d="M6.802 11.777H19.87v12.835H6.802V11.777z"/><path d="M18.156 18.195a4.82 4.82 0 1 1-9.64 0 4.82 4.82 0 0 1 9.64 0zM21.456 13.304h1.655-1.655zM21.456 21.89h1.655-1.655zM13.336 14.986v6.45-6.45zM11.19 15.892v4.638-4.638zM15.482 15.892v4.638-4.638zM16.56 18.211h-6.448 6.449zM15.655 16.065h-4.638 4.638zM15.655 20.358h-4.638 4.638zM6.802 22.635a3.24 3.24 0 0 1-3.24-3.24V8.633"/></g></svg>