<svg width="26" height="26" xmlns="http://www.w3.org/2000/svg"><g stroke-linecap="round" stroke="#94A3A7" stroke-linejoin="round" fill="none" fill-rule="evenodd"><path d="M24.612 14.203H1l4.293-3.575H20.32l4.293 3.575zM1 14.203h23.612v2.238H1v-2.238zM2.261 16.441h1.82v8.171H2.26v-8.17zM21.532 16.441h1.819v8.171h-1.819v-8.17zM8.08 4.32C8.08 2.485 10.198 1 12.807 1c2.61 0 4.726 1.486 4.726 3.32M8.08 4.32v6.308V4.32zM17.532 4.32v6.308V4.32zM11.357 6.766L9.962 8.152l1.395-1.386zM11.348 8.162L9.971 6.756l1.377 1.406zM15.65 6.766l-1.395 1.386 1.395-1.386zM15.641 8.162l-1.377-1.406 1.377 1.406z"/><path d="M13.504 3.05l-1.395 1.386 1.395-1.387z"/><path d="M13.495 4.446L12.118 3.04l1.377 1.406zM11.845 16.441h1.923v3.605h-1.923V16.44zM9.746 20.046h6.12v1.712h-6.12v-1.712z"/></g></svg>