<svg width="24" height="24" xmlns="http://www.w3.org/2000/svg"><g stroke-linecap="round" stroke="#94A3A7" stroke-linejoin="round" fill="none" fill-rule="evenodd"><path d="M4.179.686H19.82M23.314 23.314H.686M2.637 10.73C1.978 14.996.686 23.314.686 23.314M4.179.686L3.388 5.81M21.371 10.763c.65 4.21 1.943 12.551 1.943 12.551M19.821.686l.8 5.176M5.457 17.772h13.086M4.776 23.314L5.944 10.76M6.38 5.8c.175-1.605.501-5.114.501-5.114M17.593 5.798L17.119.686M19.224 23.314l-1.168-12.56M12 3.5v2M12 10.905V17.5M1.24 10.704h21.522V5.886H1.239v4.818zM1.24 8.288h21.52H1.24zM4.299 6.987v2.6-2.6zM6.865 6.987v2.6-2.6zM9.433 6.987v2.6-2.6zM12 6.987v2.6-2.6zM14.567 6.987v2.6-2.6zM17.135 6.987v2.6-2.6zM19.701 6.987v2.6-2.6zM6.649 3.314H17.35 6.65z"/></g></svg>