<svg width="25" height="24" xmlns="http://www.w3.org/2000/svg"><g stroke-linecap="round" stroke="#94A3A7" stroke-linejoin="round" fill="none" fill-rule="evenodd"><path d="M23.595 21.026H9.34l.827-2.714h12.6l.827 2.714zM18.915 18.312H14.02l.828-2.714h3.24l.827 2.714zM9.34 21.026h14.254v2.478H9.341v-2.478zM15.553 15.598h1.83V4.65h-1.83v10.948zM8.513 4.65c0-1.845 1.78-3.342 3.978-3.342 2.196 0 3.977 1.497 3.977 3.342M8.513 15.868c0 1.648-1.312 2.984-2.93 2.984-1.619 0-2.93-1.336-2.93-2.984M8.513 4.65v11.218V4.65zM2.652 15.868V5.398v10.47zM.884 5.398H4.42.884z"/></g></svg>