<svg width="24" height="24" xmlns="http://www.w3.org/2000/svg"><g stroke-linecap="round" stroke="#94A3A7" stroke-linejoin="round" fill="none" fill-rule="evenodd"><path d="M1.371 6.364H22.63v16.807H1.37V6.364zM.686 4.136L12 .542.686 4.136zM23.314 4.136L12 .542l11.314 3.594z"/><path d="M.686 4.136h22.628v2.228H.686V4.136zM12 .542L7.533 4.136 12 .542zM12 .542l4.467 3.594L12 .542zM7.533 4.136v2.228-2.228zM16.467 4.136v2.228-2.228zM14.064 10.543h8.565-8.565zM1.371 10.543h8.455-8.455zM1.371 14.786h6.27-6.27zM16.329 14.786h6.3-6.3zM15.667 19.029h6.962-6.962zM1.371 19.029h7.031-7.03zM12 8.357s4.394 4.486 4.394 7.906a4.394 4.394 0 0 1-8.788 0c0-3.42 4.394-7.906 4.394-7.906M14.667 15.988c0 1.302-.87 2.4-2.06 2.746"/></g></svg>