<svg width="26" height="24" xmlns="http://www.w3.org/2000/svg"><g stroke-linecap="round" stroke="#94A3A7" stroke-linejoin="round" fill="none" fill-rule="evenodd"><path d="M19.9 16.064h2.918L25 20.695H1l2.182-4.631H7.73M1 20.695h24V23H1v-2.305zM7.052 2.156c.62.712 2.441.712 3.06 0 0 0 2.242.12 3.355 1.18 1.463 1.395 1.363 2.558 1.193 2.655-.35.202-1.238-1.907-4.145-1.745l-.402.782M7.052 5.028c.62-.712 2.441-.712 3.06 0M7.052 2.156H4.047v2.872h3.005M7.052 2.156V.868h3.06v1.288"/><path d="M10.113 5.028l-.78 1.584v12.176H7.831V6.612l-.779-1.584M19.77 11.403c-.712-.54-.712-2.132 0-2.672M16.896 11.403c.713-.54.713-2.132 0-2.672M16.896 8.73a2.031 2.031 0 0 1 2.875 0M19.77 18.204a2.031 2.031 0 0 1-2.874 0M16.896 11.403v6.801-6.801zM19.77 11.403v6.801-6.801zM18.334 8.135V.868v7.267zM9.716 16.064h6.7-6.7z"/></g></svg>