<svg xmlns="http://www.w3.org/2000/svg" viewBox="0 0 79 71"><path fill="#DFE8EF" d="M37 62c-2.9-3.5-5.6-7.3-8.1-11.1-1.2-1.9-2.5-3.6-3.4-5.7-1.2-2.8 1.7-5.3 3.3-7.3.2-.2.2-.4.2-.6-.8.1-1.6.2-2.4.2-2.5 3.1-4.5 5.6-2.3 9.7 3.1 5.7 7.4 11.2 11.5 16.2.6 1 2-.4 1.2-1.4zM52.9 39.5c-1.3-.3-1.7 1.6-.5 1.9.9.2 1.8 3.5 2.3 4.3-.3-.5-.2-.3-1.1.9l-1.2 1.8c-3.6 4.9-7.4 9.2-12.2 12.9-.6.2-1 .8-.6 1.5 0 0 0 .1.1.1.3.4.9.7 1.4.3 3.3-2.4 6-5.2 8.9-8.2 2.4-2.5 3.9-5.9 6.4-8.4 1.3-1.6-1.8-6.7-3.5-7.1zM39.1 61.1c-1.2-5.5-1.2-11.3-2.2-16.8-.2-1.3-2.1-.7-1.9.6 1 5.5 1 11.4 2.2 16.8.3 1.2 2.2.6 1.9-.6zM36.4 39c-.4.4-.8.9-1.1 1.4 0 0 0 .1-.1.1-.5-1.1-1.1-2.1-1.8-3.1-.8 0-1.6-.1-2.4-.2 0 .2.1.5.3.7 1.2 1.4 2 3.2 2.8 4.8.2.4.7.6 1.1.4.6-.2.9-.6 1.2-1 .4-.6.9-1.2 1.4-1.7.9-1-.6-2.4-1.4-1.4zM46.2 40.8l-.6.6c0-.1-.1-.2-.1-.3-.4-.7-.7-1.4-1.1-2-.6-1.1-2.3-.1-1.7 1 .4.8.9 1.7 1.3 2.5.1.2.2.3.2.4v-.2c0 .1 0 .3.1.4.1.3.3.6.7.8.5.3 1.1.1 1.4-.4.4-.6.8-1.1 1.3-1.5.9-.8-.6-2.2-1.5-1.3z"/><path fill="#DFE8EF" d="M67.1 44.4c-1.7 0-1.6-1.8-2.1-2.9-.2-.6-.7-.7-1.3-.9-1.1-.4-2.8-.1-4-.2-1.6-.1-3.2-.4-4.9-.4-1.3 0-1.2 2 .1 2 1.4 0 2.7.2 4 .3 1.2.1 4.2-.4 4.3 1.1.2 1.9 2.1 2.9 3.9 2.9 1.3.1 1.3-1.9 0-1.9z"/><path fill="#DFE8EF" d="M67.6 60.5c-.4-4.4.1-9.7.8-14.1.2-1.3-1.7-1.7-1.9-.5-.8 4.3-1.2 9.2-1 13.6-1.5.5-2.6 2.6-2.6 4.1 0 1.3 2 1.2 2-.1.5-.7.9-1.4 1.4-2 .6.2 1.3-.4 1.3-1zM61.2 62.6c-5.5-.6-11.1-1-16.6-1.4-1.3-.1-1.2 1.9.1 2 5.5.4 11.1.8 16.6 1.4 1.2.1 1.1-1.9-.1-2zM12 38.9c-.4.1-.8 0-1-.2-1.1 1.3-1 4.4-1.2 5.8-.4 2.6 0 5.7-.6 8.2-.1.3 0 .7.3 1 1 .7 1.5 1.7 1.5 3.1-.8 1 1 2 1.7 1 1.4-2 .1-3.7-1.4-5.1.1.1-.1-1.5 0-2.6.3-3.2.7-6.3 1.2-9.5h.3c.9 0 2.4-.8 2.8-1.6.1-.1.1-.3.2-.4-1.2-.1-2.5 0-3.8.3z"/><path fill="#DFE8EF" d="M27.3 59.9c-2.5-.2-4.9-.7-7.2-1.3-2.2-.6-4.6-.6-6.8-1.1-1.3-.3-1.7 1.6-.5 1.9 2.2.6 4.5.5 6.8 1.1 2.6.7 5.1 1.2 7.8 1.4 1.3.1 1.2-1.9-.1-2z"/><path fill="#A5B2BB" d="M37.7 63.6c-.4 0-1-.1-4.4-5.2-2.5-3.7-9.1-14.1-8.7-15.4.3-1.1 3.3-4.7 4.4-5.8.2-.2.5-.2.7 0 .2.2.2.5 0 .7-2 2.2-4 4.8-4.1 5.4.1 1.8 10.6 18.3 12.3 19.3C39.4 62 52.8 48 53.4 45.7c.2-1.3-2.3-6.2-3-6.6-.4-.1-6.5-1.3-11.8-2-.3 0-.5-.3-.4-.6s.3-.5.6-.4c5.2.7 11.5 1.9 12.1 2.1 1.1.4 4 6 3.6 7.7-.6 1.4-14.6 17.7-16.8 17.7z"/><path fill="#A5B2BB" d="M53.7 46.2c-25.2-3.7-28.4-2.7-28.5-2.6-.2.1-.5 0-.7-.2-.1-.2 0-.6.2-.7.3-.1 3.2-1.3 29 2.5.3 0 .5.3.4.6.1.3-.1.4-.4.4z"/><path fill="#A5B2BB" d="M45 45c-.7 0-1.3-1.1-2.6-4.1-.5-1-1.1-2.5-1.5-3-.5.4-1.5 1.7-2.2 2.6-1.8 2.3-2.7 3.3-3.3 3.3-.9.1-2.5-2-4.5-6.4-.1-.2 0-.5.2-.7.3-.1.5 0 .7.2 1.2 2.7 3 5.6 3.5 5.8.3-.1 1.7-1.8 2.6-3 1.9-2.4 2.6-3.1 3.2-3 .6.1 1 1 2.2 3.6.6 1.2 1.4 3.1 1.8 3.5.6-.4 3-3.2 5-5.7.2-.2.5-.3.7-.1.2.2.3.5.1.7-2.2 2.9-4.9 6.2-5.9 6.3z"/><path fill="#A5B2BB" d="M37.7 63.6c-.2 0-.4-.2-.5-.4 0-.1-2-7.2-2.6-19.6 0-.3.2-.5.5-.5s.5.2.5.5c.4 9.2 1.6 15.4 2.2 18 1.4-3.1 4.9-10.9 6.4-16.9.1-.3.3-.4.6-.4.3.1.4.3.4.6-2 7.6-7.1 18.2-7.1 18.3 0 .3-.2.4-.4.4z"/><path fill="#A5B2BB" d="M69.9 68.5c-.2 0-21.1-.2-32.4-1.5-11.3-1.2-33-5.5-33.2-5.5-.1 0-.2-.1-.3-.2-.1-.1-.1-.2-.1-.4 0-.1 1.7-8.2 2.4-13.9.7-5.8.2-14.7.2-14.8 0-.3.2-.5.4-.5 0 0 1.2-.2 3.2-.3.3 0 .5.2.5.5s-.2.5-.5.5c-1.2.1-2.1.2-2.6.3.1 1.8.4 9.3-.2 14.3-.5 5-1.9 11.7-2.3 13.6 3.3.6 22.3 4.3 32.6 5.4 10.2 1.1 28.6 1.4 31.8 1.5.1-2.1.4-10.4.5-12.8.3-4.8 1.1-13.5 1.3-15.5-1.8-.4-9.3-1.8-20.6-3.7-.3 0-.5-.3-.4-.6 0-.3.3-.5.6-.4 13.1 2.2 21 3.8 21.1 3.8.3 0 .4.3.4.5 0 .1-1 10.5-1.3 16-.2 2.7-.5 13.1-.5 13.2-.1.2-.3.5-.6.5z"/><path fill="#A5B2BB" d="M64.6 65.2c-3.9-.4-22.5-1.7-22.7-1.7-.3 0-.5-.3-.5-.5 0-.3.3-.5.5-.5s16.9 1.1 21.9 1.6c-.1-.5 0-1 .2-1.4.4-.9 1.3-1.6 2.6-2-.5-3.1.8-13 1.2-15.7-.6 0-1.5 0-2.5-.6-1.1-.7-1.1-1.8-.9-2.6l-10.6-1.3c-.3 0-.5-.3-.4-.6 0-.3.3-.5.6-.4l11.3 1.3c.2 0 .3.1.4.3.1.1.1.3 0 .5-.1.1-.7 1.3.3 1.9 1.2.7 2.4.4 2.4.4.2-.1.3 0 .5.1s.2.3.2.5c-.5 3.9-1.8 14.4-1.2 16.4v.4s-.2.2-.3.2c-1.3.4-2.1 1-2.5 1.6-.2.4-.2.9.1 1.4.1.2.1.4-.1.5-.2.1-.3.2-.5.2zM31.6 62.1c-.1 0-.1 0 0 0-.7-.1-16.2-1.5-20.4-3.1-.2-.1-.4-.3-.3-.6.3-1.2.2-2.1-.2-2.6-.6-.8-1.7-.8-1.8-.8-.1 0-.3-.1-.4-.2-.1-.1-.1-.2-.1-.4 0-.1 1-10.4 1.8-16.2 0-.3.3-.5.6-.4.3 0 .5.3.4.6-.7 5.1-1.5 13.6-1.7 15.7.6.1 1.4.3 2 1.1.6.7.8 1.8.5 3.1 4.6 1.5 19.5 2.8 19.6 2.9.3 0 .5.3.5.5-.1.2-.3.4-.5.4z"/><path fill="#A5B2BB" d="M50.9 59.7c-.2 0-.4-.1-.4-.3-.1-.2 0-.5.2-.7 9.3-4.8 6.5-14.7 6.5-14.8-.1-.3.1-.5.3-.6.3-.1.5.1.6.3 0 .1 3 10.8-7 16-.1.1-.1.1-.2.1zM26.4 56.5c-.1 0-.2 0-.3-.1-.3-.2-6.4-4-6.4-9.1 0-5.8 2.8-8.3 2.9-8.4.2-.2.5-.2.7 0 .2.2.2.5 0 .7 0 0-2.6 2.4-2.6 7.7 0 4.5 5.8 8.2 5.9 8.2.2.1.3.5.2.7 0 .2-.2.3-.4.3zM63 52.2h-.1c-.3-.1-.7-.1-1.1-.1-.4 0-.9 0-1.4-.2-.3-.1-.4-.3-.3-.6s.4-.4.6-.3h1.1c.4 0 .9 0 1.4.2.3.1.4.4.3.6 0 .2-.2.4-.5.4zM61.9 55.9c-.2 0-.3-.1-.4-.2-.2-.3-1.2-.9-1.7-1-.3-.1-.4-.3-.4-.6.1-.3.3-.4.6-.4.6.1 1.9.8 2.3 1.5.1.2.1.5-.2.7 0-.1-.1 0-.2 0zM60.3 58.7c-.1 0-.2 0-.3-.1-.4-.3-.8-.7-1.1-1-.3-.4-.7-.7-1-1-.2-.2-.3-.5-.1-.7.2-.2.5-.3.7-.1.4.3.8.7 1.2 1.1.3.3.6.7 1 .9.2.2.3.5.1.7-.2.2-.3.2-.5.2zM17.1 47.3c-.5 0-.9-.1-1.4-.2-.4-.1-.7-.2-1.1-.2-.3 0-.5-.2-.5-.5s.2-.5.5-.5c.5 0 .9.1 1.4.2.4.1.8.2 1.1.2.3 0 .5.2.5.5 0 .2-.2.5-.5.5zM14.8 50.7c-.1 0-.3 0-.4-.1-.2-.2-.2-.5 0-.7.6-.6 2-.9 2.6-.8.3 0 .5.2.5.5s-.2.4-.5.4c-.5 0-1.6.3-1.9.6-.1.1-.2.1-.3.1zM15.6 53.9c-.2 0-.4-.1-.5-.3-.1-.3 0-.5.3-.7l1.2-.6c.4-.3.9-.6 1.4-.8.3-.1.5 0 .6.3.1.3 0 .5-.3.6-.4.2-.8.4-1.2.7-.4.3-.8.5-1.3.7-.1.1-.2.1-.2.1z"/><g><path fill="#DFE8EF" d="M42.3 31.6c-3.6-2.7-7.2-5.8-10.5-8.8-1.7-1.5-3.3-2.9-4.7-4.7-1.8-2.4.3-5.5 1.4-7.8.5-1.2-1.2-2.2-1.7-1-1.9 4.1-3.9 7.3-.5 11.1 4.4 4.8 9.8 9.2 15 13 1.1.7 2.1-1 1-1.8zM52.4 6c-1.3 0-1.3 2 0 2 .9 0 2.6 3 3.2 3.6-.4-.4-.3-.2-.8 1.1-.3.7-.5 1.4-.8 2.1-2.3 5.6-5 10.7-8.8 15.4-.5.3-.8 1-.3 1.6l.1.1c.4.4 1.1.4 1.4 0 2.6-3.2 4.6-6.5 6.7-10 1.8-3 2.4-6.7 4.2-9.7 1.2-2-3.1-6.2-4.9-6.2zM44.2 30.2c-2.5-5-3.9-10.7-6.2-15.8-.5-1.2-2.2-.2-1.7 1 2.3 5.1 3.6 10.8 6.2 15.8.5 1.2 2.3.2 1.7-1zM36.3 9.4c-.3.5-.5 1-.8 1.6v.1c-1-1.2-2.1-2.4-3.4-3.3-1.1-.7-2.1 1-1 1.7 1.5 1 2.7 2.6 3.9 4 .3.3.8.4 1.2.2.5-.3.7-.7.9-1.3.3-.7.6-1.3.9-2 .6-1.1-1.1-2.1-1.7-1zM46.2 8.8c-.2.2-.3.5-.4.7l-.2-.2c-.5-.6-1-1.1-1.6-1.7-.9-1-2.3.4-1.4 1.4.6.7 1.3 1.4 1.9 2.1.1.1.2.3.3.4v-.2c0 .1.1.2.2.3.2.3.5.5.8.6.5.2 1.1-.2 1.2-.7.2-.6.5-1.2.9-1.8.8-.9-.9-1.9-1.7-.9z"/><path fill="#DFE8EF" d="M67.4 7.4c-1.6.4-2-1.3-2.7-2.3-.4-.5-.9-.5-1.5-.5-1.2-.1-2.7.5-3.9.8-1.6.3-3.2.4-4.8.8-1.3.1-.7 2 .5 1.8 1.3-.3 2.7-.5 4-.6 1.2-.2 4-1.4 4.5 0 .6 1.8 2.7 2.4 4.4 1.9 1.3-.3.8-2.2-.5-1.9z"/><path fill="#DFE8EF" d="M71.7 22.9c-1.4-4.2-2.3-9.4-2.5-13.9-.1-1.3-2.1-1.3-2 0 .3 4.3 1 9.2 2.3 13.4-1.4.8-1.9 3.2-1.5 4.6.3 1.2 2.3.7 1.9-.5.3-.8.6-1.5.9-2.3.6 0 1.1-.7.9-1.3zM66 26.5c-5.5.8-11 1.7-16.5 2.6-1.3.2-.7 2.1.5 1.9 5.5-.9 11-1.8 16.5-2.6 1.3-.2.7-2.1-.5-1.9zM24.4 8.7c-3.3.1-6.6.4-9.7 1.7-1.1.5-.7 4.7-2 4.2-.3-.1-.7 0-1 .3-1.2 1.2-.1 4.7 0 6.2.2 2.6 1.4 5.5 1.4 8.1 0 .3.2.7.5.9 1.1.5 1.8 1.3 2.2 2.6-.5 1.2 1.5 1.7 1.9.5.9-2.3-.8-3.6-2.6-4.6.1.1-.4-1.5-.6-2.6-.5-3.2-.8-6.3-1.1-9.5.1 0 .2-.1.3-.1.8-.2 2.1-1.3 2.4-2.2.2-.7.4-1.6.2-2.3.9-.3 1.7-.6 2.6-.8 1.6-.4 3.8-.4 5.5-.5 1.3 0 1.3-2 0-1.9z"/><path fill="#DFE8EF" d="M32.5 32c-2.5.4-4.9.5-7.4.4-2.3-.1-4.6.5-6.9.5-1.3 0-1.3 2 0 2 2.3 0 4.5-.6 6.9-.5 2.7 0 5.3-.1 7.9-.5 1.3-.2.7-2.2-.5-1.9z"/><path fill="#A5B2BB" d="M43.3 33c-1.8 0-17.6-15.1-17.6-16.8 0-1.4 3.4-8 4-8.6 1.6-1.3 18.7-2.5 19.9-2.5h.2c1.2.1 5.3 4.9 5.4 6.6.1 1.7-9.8 21.1-11.9 21.3zm6.5-26.8c-2.5 0-18.2 1.3-19.4 2.2-.5.5-3.7 6.7-3.7 7.8.6 1.8 14.9 15.4 16.6 15.8 1.1-.6 10.9-17.8 11-20.1-.1-1.3-3.7-5.5-4.5-5.7z"/><path fill="#A5B2BB" d="M26.2 16.7c-.1 0-.3-.1-.4-.2-.2-.2-.2-.5 0-.7.2-.2 2.9-2 28.8-4.5.3 0 .5.2.5.5s-.2.5-.5.5c-25.3 2.4-28.1 4.2-28.2 4.2.1.2-.1.2-.2.2z"/><path fill="#A5B2BB" d="M36.2 14.4c-1 0-3.1-2-6.3-5.9-.2-.2-.1-.5.1-.7.2-.2.5-.1.7.1 2.1 2.5 4.7 5.3 5.4 5.6.4-.4 1.3-2.2 1.9-3.5 1.3-2.8 1.7-3.6 2.4-3.7.6-.1 1.2.7 3 3 .8 1.1 2.1 2.7 2.6 3 .5-.5 2.2-3.8 3.5-6.7.1-.3.4-.4.7-.3s.4.4.3.7c-1.4 3.2-3.3 7-4.2 7.3-.7.2-1.5-.7-3.6-3.4C42 9 41 7.7 40.6 7.3c-.4.5-1.1 2-1.6 3-1.2 2.6-1.8 3.8-2.4 4-.3.1-.3.1-.4.1z"/><path fill="#A5B2BB" d="M43.3 33c-.2 0-.3-.1-.4-.3 0-.1-3.7-6.5-7.2-18.4-.1-.3.1-.5.3-.6.3-.1.5.1.6.3 2.6 8.8 5.3 14.6 6.5 17 .6-3.3 2.1-11.8 2.2-17.9 0-.3.2-.5.5-.5s.5.2.5.5c-.1 7.8-2.5 19.4-2.5 19.5 0 .2-.2.4-.5.4.1 0 .1 0 0 0z"/><path fill="#A5B2BB" d="M10.5 38.9c-.1 0-.2 0-.3-.1-.1-.1-.2-.2-.2-.4 0-.1-.3-8.4-1-14.1-.7-5.7-2.4-15.5-2.4-15.5 0-.2.1-.5.3-.6.1 0 13.2-4.4 32.3-5.9 19-1.5 31.2-2 31.4-2 .3 0 .5.2.5.4 0 .1 1.5 10.5 2.5 15.8.5 2.7 2.6 12.9 2.7 13 .1.3-.1.5-.4.6-.2 0-20.6 4.8-31.8 6.3-11.3 1.5-33.4 2.5-33.6 2.5zM7.6 9C8 11 9.3 19.1 10 24.2c.6 5 .9 11.8 1 13.7 3.4-.2 22.7-1.2 33-2.5 10.2-1.4 28-5.5 31.2-6.2-.5-2.1-2.2-10.2-2.6-12.5-.9-4.7-2.1-13.3-2.4-15.4-2.4.1-13.9.7-30.9 2C22.2 4.6 10 8.3 7.6 9z"/><path fill="#A5B2BB" d="M47.4 32c-.2 0-.4-.2-.5-.4 0-.3.1-.5.4-.6.2 0 16.6-3 21.7-3.7-.2-.5-.3-1-.2-1.4.2-.9.9-1.8 2.1-2.6-1.2-2.9-2.3-12.8-2.6-15.5-.6.2-1.5.3-2.6 0-1.2-.4-1.5-1.5-1.5-2.3L53.6 6.7c-.3 0-.5-.2-.6-.4 0-.3.2-.5.4-.6l11.2-1.4c.2 0 .3 0 .4.2s.1.3.1.5c0 .1-.3 1.5.7 1.8 1.3.4 2.4-.2 2.4-.2.1-.1.3-.1.5 0s.3.2.3.4c.4 3.9 1.6 14.4 2.8 16.2.1.1.1.3.1.4 0 .1-.1.2-.2.3-1.1.7-1.8 1.4-2 2.2-.1.5 0 .9.4 1.3.1.1.1.3.1.5-.1.2-.2.3-.4.3-3.8.5-22.1 3.7-22.4 3.8.1 0 0 0 0 0zM18.2 35c-.6 0-1.2 0-1.6-.1-.3 0-.4-.2-.4-.5 0-1.2-.3-2.1-.8-2.5-.8-.6-1.9-.3-1.9-.3-.1 0-.3 0-.4-.1s-.2-.2-.2-.3c0-.1-1.5-10.3-2.2-16.2 0-.1 0-.3.1-.4.1-.1.2-.2.3-.2.8-.1 1.3-.4 1.7-.9.9-1.1.5-3 .5-3.1 0-.1 0-.3.1-.4s.2-.2.3-.2l12.6-1.6c.3 0 .5.2.6.4 0 .3-.2.5-.4.6l-12.1 1.6c.1.8 0 2.2-.8 3.3-.5.6-1.1 1-1.9 1.2.6 5.1 1.7 13.1 2 15.2.6 0 1.5 0 2.2.6.7.6 1.2 1.5 1.2 2.9 4.8.3 19.6-1.9 19.8-1.9.3 0 .5.1.6.4 0 .3-.1.5-.4.6-.6 0-13.2 1.9-18.9 1.9z"/><path fill="#A5B2BB" d="M55.2 26.1c-.1 0-.3-.1-.4-.2-.2-.2-.2-.5 0-.7 7.8-6.9 3-15.6 2.8-15.9-.1-.2-.1-.5.2-.7.2-.1.5-.1.7.2.1.1 5.5 9.7-3 17.2-.1.1-.2.1-.3.1zM30.7 28.9h-.2c-.3-.1-7.1-2.3-8.3-7.3-1.4-5.7.7-8.8.8-8.9.2-.2.5-.3.7-.1.2.2.3.5.1.7 0 0-1.9 2.9-.7 8.1 1.1 4.4 7.6 6.5 7.7 6.6.3.1.4.4.3.6 0 .1-.2.3-.4.3zM62.8 16.3s-.1 0 0 0c-.4 0-.6-.2-.6-.5s.3-.5.5-.5c.4 0 .7-.1 1.1-.2.4-.1.9-.2 1.4-.2.3 0 .5.2.5.5s-.2.5-.5.5c-.4 0-.7.1-1.1.2-.4.1-.9.2-1.3.2zM65 19.8c-.1 0-.3-.1-.4-.2-.3-.3-1.3-.6-1.9-.6-.3 0-.5-.2-.5-.5s.2-.5.5-.5c.6 0 2 .3 2.6.9.2.2.2.5 0 .7-.1.1-.2.2-.3.2zM64.1 22.9h-.2c-.5-.2-.9-.5-1.3-.8-.4-.3-.8-.5-1.2-.7-.3-.1-.4-.4-.3-.7.1-.3.4-.4.7-.3.5.2 1 .5 1.4.8.4.3.8.5 1.2.7.3.1.4.4.3.7-.2.2-.4.3-.6.3zM17 22.3c-.2 0-.4-.1-.5-.4-.1-.3.1-.5.4-.6.9-.2 1.8 0 2.5-.2.3-.1.5.1.6.4s-.1.5-.4.6c-.9.2-1.8 0-2.5.2H17zM18 26c-.1 0-.2 0-.3-.1-.2-.1-.3-.5-.2-.7.4-.7 1.8-1.3 2.4-1.4.3-.1.5.1.6.4.1.3-.1.5-.4.6-.5.1-1.5.6-1.7 1-.1.1-.2.2-.4.2zM19.5 28.9c-.2 0-.3-.1-.4-.2-.1-.2-.1-.5.1-.7.4-.3.7-.6 1-.9.4-.4.7-.8 1.2-1.1.2-.2.5-.1.7.1.2.2.1.5-.1.7-.4.3-.7.6-1 .9-.3.4-.7.7-1.1 1-.2.2-.3.2-.4.2z"/></g><g><path fill="#A5B2BB" d="M6.6 16.4H3.1c-.3 0-.5-.2-.5-.5s.2-.5.5-.5h3.5c.3 0 .5.2.5.5s-.2.5-.5.5z"/></g><g><path fill="#A5B2BB" d="M5.5 20h-4c-.3 0-.5-.2-.5-.5s.2-.5.5-.5h4c.3 0 .5.2.5.5s-.2.5-.5.5z"/></g><g><path fill="#A5B2BB" d="M7 22.8H5.1c-.3 0-.5-.2-.5-.5s.2-.5.5-.5H7c.3 0 .5.2.5.5s-.2.5-.5.5z"/></g><g><path fill="#A5B2BB" d="M7.9 26.6h-2c-.3 0-.5-.2-.5-.5s.2-.5.5-.5h2c.3 0 .5.2.5.5s-.2.5-.5.5z"/></g><g><path fill="#A5B2BB" d="M78.1 34.6h-4.8c-.3 0-.5-.2-.5-.5s.2-.5.5-.5h4.8c.3 0 .5.2.5.5s-.2.5-.5.5z"/></g><g><path fill="#A5B2BB" d="M77.1 40.2h-3.2c-.3 0-.5-.2-.5-.5s.2-.5.5-.5h3.2c.3 0 .5.2.5.5s-.2.5-.5.5z"/></g><g><path fill="#A5B2BB" d="M76.6 44.5h-2.5c-.3 0-.5-.2-.5-.5s.2-.5.5-.5h2.5c.3 0 .5.2.5.5s-.2.5-.5.5z"/></g><g><path fill="#A5B2BB" d="M76.4 48.1h-1.8c-.3 0-.5-.2-.5-.5s.2-.5.5-.5h1.8c.3 0 .5.2.5.5s-.2.5-.5.5z"/></g><g><path fill="#A5B2BB" d="M11.1 66H3.5c-.3 0-.5-.2-.5-.5s.2-.5.5-.5h7.6c.3 0 .5.2.5.5s-.2.5-.5.5z"/></g><g><path fill="#A5B2BB" d="M19.1 67.6h-6.8c-.3 0-.5-.2-.5-.5s.2-.5.5-.5h6.8c.3 0 .5.2.5.5s-.2.5-.5.5z"/></g><g><path fill="#A5B2BB" d="M25.2 69h-3.4c-.3 0-.5-.2-.5-.5s.2-.5.5-.5h3.4c.3 0 .5.2.5.5s-.2.5-.5.5z"/></g><g><path fill="#A5B2BB" d="M31.6 69.8h-3.4c-.3 0-.5-.2-.5-.5s.2-.5.5-.5h3.4c.3 0 .5.2.5.5s-.2.5-.5.5z"/></g><g><path fill="#A5B2BB" d="M38 70h-2.4c-.3 0-.5-.2-.5-.5s.2-.5.5-.5H38c.3 0 .5.2.5.5s-.2.5-.5.5z"/></g><g><path fill="#A5B2BB" d="M44.4 70.6h-1.9c-.3 0-.5-.2-.5-.5s.2-.5.5-.5h1.9c.3 0 .5.2.5.5s-.2.5-.5.5z"/></g><g><path fill="#A5B2BB" d="M4.9 42.2h-3c-.3 0-.5-.2-.5-.5s.2-.5.5-.5h3c.3 0 .5.2.5.5s-.2.5-.5.5z"/></g><g><path fill="#A5B2BB" d="M3.2 46H.9c-.3 0-.5-.2-.5-.5s.2-.5.5-.5h2.4c.3 0 .5.2.5.5s-.3.5-.6.5z"/></g></svg>