<svg width="189" height="164" viewBox="0 0 189 164" xmlns="http://www.w3.org/2000/svg"><title>35C53302-3393-4BF6-A07F-21556283A5E2</title><g fill="none" fill-rule="evenodd"><path d="M88.348 77.406c-.206 5.165 0 9.943 0 15.077 0 3.07 3.31 3.07 3.31 0 0-3.283-.277-6.595-.277-9.914 0-4.07 1.517-6.85 4.315-8.75 1.927-1.31 1.38-4.978-.537-3.676 0 0-6.687 4.22-6.81 7.262zM89.095 60.362c.088 3.062 2.678 1.646 2.59-1.425-.183-6.367-2.938-14.953 3.813-18.414 2.765-1.418 2.093-4.732-.664-3.43-9.848 4.65-5.987 14.61-5.74 23.27zM121.656 44.918c-.84 4.81.086 10.1.602 14.933.324 3.018 3.275 2.27 2.947-.78-.314-2.933-.556-4.496-.556-7.458 0-2.172-.113-5.63.263-7.777.426-2.438 3.017-3.29 4.83-4.076 2.805-1.224 1.52-4.183-1.264-2.972-3.87 1.685-6.065 3.788-6.824 8.13zM163.658 40.875c3.735 2.208 3.7 2.4 3.536 6.29-.152 3.554 0 9.555 0 13.114 0 3.07 2.345 2.573 2.345-.496 0-4.975.828-9.544.925-14.49.08-4.143-3.47-6.408-6.807-8.38-2.648-1.566-2.64 2.402 0 3.96zM163.946 70.25c-1.8-1.44-3.43.886-1.63 2.328.593.473 4.6 2.995 4.767 5.593.3 4.702-.26 10.617-.528 15.304-.177 3.06 2.827 2.126 3.002-.908.33-5.763 1.324-10.515.76-16.268 0 0-5.203-5.114-6.37-6.05zM128.55 69.68c-2.763 0-5.72 3.644-7.528 5.232-1.807 1.588-1.318 4.697-1.318 7.067 0 5.606-.675 8.92-.67 13.08.007 5.356.41 13.295.963 16.333.522 2.867 2.724.805 2.838-2.254.195-5.355-.566-8.723-.566-14.08 0-4.39-2.232-13.57 1.73-19.053 2.29-3.17 5.034-3.1 7.098-2.477 2.423.733 5.688 4.063 5.848 13.353.115 6.765-1.787 15.603-1.04 22.256.338 3.013 2.652 3.763 2.924.687.46-5.202 1.623-22.61 0-32.84-.502-3.16-7.03-7.307-10.28-7.307z" fill="#DFE8EE"/><path d="M131.422 37.624c-1.373 0-3.505-.604-1.71 1.89 1.163 1.61 4.272 2.478 4.798 4.398 1.24 4.526-.69 11.47-.733 15.91-.03 3.07 2.675 3.607 2.706.54.072-7.345.41-10.77.41-17.978l-5.47-4.76z" fill="#DFE8EE"/><path d="M184.25 24.1c-4.107-1.263-19.785-1.588-25.743-1.617-27.388-.13-52.51-.207-79.898.354-.485.01-4.18-.224-4.696.972-1.63 3.766-3.532 20.266-2.998 25.903.13 1.364 3.52.79 2.998-2.635-.522-3.424.68-19.972 3.192-21.363 2.512-1.39 39.954-.698 60.333-.346 9.523.166 18.767.313 28.287.722 3.22.14 12.57-.046 14.668.542 4.857 1.36 4.918 16.157 4.473 20.444-.314 3.05 3.053 3.02 3.364 0 .657-6.338-3.982-22.977-3.982-22.977zM78.734 51.112s-.2 9.756 0 16.387c.423 14.1.456 28.645 1.02 43.112.19 4.86 4.344 2.07 3.656-.917-2.33-10.1-1.988-20.882-2.16-31.19-.077-4.432.132-11.89 0-16.32-.175-5.775-.514-7.796 5.417-7.796 3.16 0 1.87-1.225 1.204-2.865M180.96 51.065s.45 9.824.25 16.456c-.422 14.103-.05 28.625-.616 43.092-.19 4.86-4.344 2.07-3.656-.917 2.332-10.1 1.988-20.882 2.162-31.19.076-4.432-.133-11.89 0-16.32.174-5.775-.412-7.457-6.343-7.457-3.16 0-3.27-1.68-2.605-3.32M152.338 51.2c-2.453-.04-4.67-.114-7.144-.02-2.27.09-4.542.21-6.815.264-3.167.075-3.18 3 0 2.925 2.275-.055 4.54-.188 6.814-.264 1.09-.036 2.163-.098 3.245-.184 1.275-.1 2.61.183 3.898.203 3.178.053 3.17-2.872 0-2.925M119.5 51.566c-4.998-.252-9.92-.398-14.844.295-2.903.41-1.67 3.23 1.228 2.822 4.472-.63 9.082-.42 13.616-.19 2.968.148 2.947-2.777 0-2.926M102.152 95.058c-4.128.29-8.29.228-12.453.228-3.07 0-3.07 2.136 0 2.136 4.612 0 9.145.016 13.718-.304 3.024-.213 1.734-2.27-1.266-2.06M168.185 95.674c-3.208.65-7.412.164-10.66-.1-2.995-.243-4.275 1.67-1.263 1.915 4.673.378 9.798.814 14.323-.102 2.763-.56.348-2.27-2.4-1.714" fill="#DFE8EE"/><path d="M167.997 61.96c-1.437.556-3.795.27-5.394.19-1.054-.053-2.07-.128-3.1-.274-.557-.078-1.722-.494-1.337-.118-1.616-1.575-5.734-.13-4.11 1.453 1.348 1.31 4.526 1.583 6.865 1.727 3.013.186 6.775.558 9.48-.49 2.575-.996.19-3.49-2.403-2.486M134.738 61.374c-1.37.616-3.755.43-5.36.42-1.057-.01-2.08-.04-3.125-.142-.564-.057-1.773-.42-1.347-.064-1.794-1.5-5.734.117-3.928 1.626 1.494 1.25 4.697 1.387 7.048 1.43 3.026.056 6.82.266 9.396-.89 2.455-1.106-.215-3.492-2.684-2.38M101.427 61.614c-1.37.616-3.754.43-5.358.42-1.06-.01-2.083-.04-3.127-.142-.564-.057-1.773-.42-1.347-.064-1.794-1.5-5.734.117-3.928 1.626 1.494 1.25 4.697 1.385 7.047 1.43 3.027.056 6.822.266 9.396-.89 2.457-1.106-.213-3.492-2.683-2.38" fill="#DFE8EE"/><path d="M180.104 112.31c1.558-2.18.797-60.375.797-60.375M78.586 51.935s.026 57.913 1.587 59.88M88.475 42.864s-.47 17.1 1.016 18.39c1.488 1.29 11.6 1.884 12.89.1 1.287-1.785 1.19-18.563 1.19-18.563" stroke="#A5B2BA" stroke-linecap="round" stroke-linejoin="round"/><path d="M84.435 46.68s9.715-10.21 11.5-10.308c1.784-.1 11.798 10.507 11.798 10.507M121.786 42.864s-.47 17.1 1.016 18.39c1.487 1.29 11.6 1.884 12.888.1 1.288-1.785 1.19-18.563 1.19-18.563" stroke="#A5B2BA" stroke-linecap="round" stroke-linejoin="round"/><path d="M117.746 46.68s9.714-10.21 11.5-10.308c1.783-.1 11.798 10.507 11.798 10.507M155.096 42.864s-.47 17.1 1.016 18.39c1.487 1.29 11.6 1.884 12.89.1 1.286-1.785 1.188-18.563 1.188-18.563" stroke="#A5B2BA" stroke-linecap="round" stroke-linejoin="round"/><path d="M151.056 46.68s9.715-10.21 11.5-10.308c1.784-.1 11.798 10.507 11.798 10.507M88.475 76.175s-.47 17.1 1.016 18.39c1.488 1.29 11.6 1.884 12.89.1 1.287-1.785 1.19-18.564 1.19-18.564" stroke="#A5B2BA" stroke-linecap="round" stroke-linejoin="round"/><path d="M84.435 79.992s9.715-10.212 11.5-10.31c1.784-.1 11.798 10.507 11.798 10.507M138.267 112.31c1.635-1.84.62-36.21.62-36.21M119.746 76.18s-1.41 34.604.478 35.932" stroke="#A5B2BA" stroke-linecap="round" stroke-linejoin="round"/><path d="M114.623 79.992s12.32-10.212 14.583-10.31c2.262-.1 14.96 10.507 14.96 10.507M155.096 76.175s-.47 17.1 1.016 18.39c1.487 1.29 11.6 1.884 12.89.1 1.286-1.785 1.188-18.564 1.188-18.564" stroke="#A5B2BA" stroke-linecap="round" stroke-linejoin="round"/><path d="M151.056 79.992s9.715-10.212 11.5-10.31c1.784-.1 11.798 10.507 11.798 10.507M170.637 51.32c9.65-.23 16.09-.57 16.505-1.02 1.784-1.933-1.04-25.652-3.42-26.842-2.378-1.19-107.515-2.824-110.042 0-1.068 1.194-4.016 25.056-2.38 26.84.388.427 7.05.758 17.003.99M137.103 51.685c6.19-.014 12.26-.05 17.917-.112M103.57 51.54c5.705.065 11.827.11 18.067.134M79.478 104.035s29.47-.502 39.457.167M139.06 104.085s31.174-.533 41.738.18" stroke="#A5B2BA" stroke-linecap="round" stroke-linejoin="round"/><g><path d="M31.32 159.047c1.544.056 18.768-.746 20.717 1.794 1.57 2.045-12.217 2.576-20.477 2.754-8.453.183-23.244.325-21.534-1.99 2.172-2.943 13.547-2.838 21.293-2.557M45.1 76.548c1.655 1.226 5.563 5.23 6.815 6.867 1.168 1.528-1.51 1.54-2.686 0-1.91-2.496-7-5.788-9.69-8.283-.05-.587-1.345-.995.42-1.174 1.815-.184 3.744 1.558 5.14 2.59z" fill="#DFE8EE"/><path d="M43.978 84.947c1.62 1.032 3.228 2.05 4.92 2.96 5.26 2.834 4.347-4.88 4.16-6.782-.463-4.69-1.642-8.822-5.294-12.044-1.45-1.278.81-3.257 2.242-1.993 5.234 4.618 6.922 12.49 6.07 19.234-.226 1.788-1.537 4.942-3.587 5.38-3.6.765-7.367-2.467-10.175-4.256-1.63-1.04.03-3.538 1.663-2.497M25.865 75.006s-7.824 6.11-11.685 11.56c-6.722 9.488-5.846 17.188-4.912 22.45-1.03.513-1.898 2.735-2.55 2.638-3.218-.475-2.298-9.132-2.298-9.132l1.866-7.928s1.706-5.646 1.844-5.913c.137-.266 3.67-4.61 3.67-4.61s2.733-3.246 3.026-3.615c.294-.37 6.44-4.59 6.44-4.59l4.6-.86" fill="#DFE8EE"/><path d="M41.61 85.354s.5 9.963-.485 19.116c-.74 6.875-1.922 11.122-1.922 11.122l4.767-.123s1.62-3.456 1.275-8.7c-.345-5.245-3.635-21.416-3.635-21.416M24.5 84.387s1.34 2.95 1.21 12.862c-.092 6.965-3.37 16.82-3.37 16.82l-4.626-2.324 3.328-8.347 2.726-9.956M27.745 115.134s-2.638 12.21-11.657 19.19c-9.02 6.98-14.57 6.102-14.57 6.102l-.352 2.808 5.623.03c-.002 0 9.385-3.75 9.698-3.953.312-.202 7.47-8.062 7.47-8.062l4.578-15.785M38.864 116.302s-.702 20.376-3.157 28.287c-2.342 7.545-5.272 11.167-5.272 11.167l.412 2.888 3.166-.192s3.823-5.467 3.767-5.964c-.057-.498 1.75-9.677 1.75-9.677l.873-11.506-1.54-15.005M38.907 56.907s.126 7.182-5.797 7.498c-6.3.336-8.75-5.337-8.75-5.337s-.786 9.342 6.517 9.016c7.303-.325 8.858-3.894 8.858-3.894s1.44-2.952 1.29-3.404c-.15-.452-2.118-3.88-2.118-3.88M34.678 46.808s.772 2.74-1.382 4.483c-2.154 1.743-10.97 1.167-10.97 1.167s5.235 3.368 8.606 3.067c3.37-.3 6.494-2.63 6.494-2.63s1.477-2.636 1.436-3.14c-.04-.506-2.682-3.907-2.682-3.907l-1.502.96" fill="#DFE8EE"/><path d="M23.925 59.533c-.386 4.574 3.01 8.595 7.585 8.98 4.574.387 8.595-3.01 8.98-7.584.115-1.356-.103-2.662-.584-3.84m-4.11-10.92s4.296 3.373 1.516 6.588c-4.57 5.285-15.007.93-15.007.93m27.47 26.775c-.095-8.69-6.405-10.97-2.92-13.333 2.982-2.024 7.643 4.164 9.12 11.012.756 3.51 1.425 11.98-2.135 12.897-3.845.99-11.32-5.55-11.32-5.55s1.48 8.936 1.913 17.094c.24 4.494.592 8.152.033 12.83-1.536.51-4.43.314-4.43.314 1.204 11.69-.325 25.722-1.54 32.738-1.204 6.95-3.75 11.42-5.89 10.902-2.586-.63-2.267-5.194-1.876-6.916.392-1.722 2.472-8.5 3.045-18.21.562-9.512.188-18.264.188-18.264h-5.226s-1.597 8.26-4.783 13.76c-3.225 5.568-6.354 9.404-13 12.55-6.843 3.24-9.514 1.903-9.927.458-.557-1.95.673-2.928 4.267-4.51 3.31-1.46 7.958-4.512 12.36-10.8 4.4-6.287 4.686-13.365 4.686-13.365-2.117-.177-4.55-1.662-4.55-1.662s4.866-11.037 5.534-16.23c.667-5.19.127-11.42.127-11.42-9.16 4.984-12.002 13.19-12.975 17.914-.755 3.67-1.284 8.617-3.787 8.734-1.132.053-1.993-2.038-2.22-4.78-.23-2.74.85-12.425 6.01-20.896C15.794 77 25.172 74.078 25.172 74.078m27.234 9.93c-1.252-1.476-6.452-7.957-12.33-10.18" stroke="#A5B2BA" stroke-linecap="round" stroke-linejoin="round"/><path d="M77.408 35.692c-3.17-5.168-1.367-8.123-1.367-8.123s8.182-3.526 9.43-9.875c.932-4.74-1.704-9.73-8.062-12.91-6.895-3.45-17.826-4.87-24.145-4.13-6.003.7-14.303 1.033-18.804 4.13-5.59 3.85-6.644 10.914-5.7 15.926 2.274 12.077 36.046 10.22 36.046 10.22s8.355 5.66 12.602 4.762z" fill="#FD4974"/><path d="M48.64 22V10.8h-1.12v9.008L40.832 10.8h-.88V22h1.12v-8.992L47.744 22h.896zm9.808 0v-1.088H53.12v-4.16h5.328v-1.088H53.12v-3.776h5.328V10.8h-6.512V22h6.512zm8.992-11.2h-1.12l-2.544 9.152h-.032L61.28 10.8h-1.232L63.12 22h1.168l2.544-9.216h.032L69.232 22H70.4l3.216-11.2h-1.152l-2.592 9.152h-.032l-2.4-9.152z" fill="#FFF"/></g><path d="M121.213 154.543c0 .504 7.024-2.01 8.584-2.656 1.56-.646 9.21-3.345 14.557-7.003.92-.628 4.225-3.37 5.992-7.044 1.196-2.488 1.697-3.022 1.697-7.696 0-4.674-9.666-11.114-10.666-11.684-1-.57-1.194-.264-1.194.57 0 .833 9.06 4.438 9.603 11.114.544 6.677-3.487 10.832-4.25 11.744-2.068 2.47-15.775 8.567-19.373 9.414-3.37.793-4.95 2.736-4.95 3.24zM43.337 143.945c0 .504-5.907 2.805 16.87 1 22.778-1.807 40.836-4.8 50.312-8.458 2.727-1.053 16.828-5.724 17.182-12.228.14-2.54-3.424-5.835-4.567-6.673-1.144-.838-2.105-1.143-2.105-.31 0 .834 5.3 4.306 5.178 7.845-.098 2.88-3.797 4.836-9.03 6.96-17.048 6.917-51.417 9.17-57.792 10.018-5.97.793-16.05 1.34-16.05 1.845z" fill="#DFE8EE"/><path d="M120.232 117.648c18.622 10.706-11.613 16.994-19.003 18.725-7.39 1.73-43.832 6.494-57.785 6.74M140.232 117.648c13.478 6.438 12.802 14.355 10.997 18.725-1.805 4.37-4.14 11.03-30.116 19.022" stroke="#A5B2BA"/></g></svg>
