<svg width="85" height="141" viewBox="0 0 85 141" xmlns="http://www.w3.org/2000/svg"><title>Curious</title><g fill="none" fill-rule="evenodd"><path d="M58.82 135.547c1.544.056 18.768-.746 20.717 1.794 1.57 2.045-12.217 2.576-20.477 2.754-8.453.183-23.244.325-21.534-1.99 2.172-2.943 13.547-2.838 21.293-2.557M67.46 50.458c1.815-.184 3.744 1.558 5.14 2.59 1.655 1.226 3.426 2.746 4.678 4.383 1.168 1.53-.2 4.025-1.376 2.485-1.91-2.496-6.17-5.788-8.863-8.283-.05-.587-1.345-.995.42-1.174" fill="#DFE8EE"/><path d="M71.478 61.447c1.62 1.032 3.228 2.05 4.92 2.96 5.26 2.834 4.347-4.88 4.16-6.782-.463-4.69-1.642-8.822-5.294-12.044-1.45-1.278.81-3.257 2.242-1.993 5.234 4.618 6.922 12.49 6.07 19.234-.226 1.788-1.537 4.942-3.587 5.38-3.6.765-7.367-2.467-10.175-4.256-1.63-1.04.03-3.538 1.663-2.497M53.365 51.506s-7.824 6.11-11.685 11.56c-6.722 9.488-5.846 17.188-4.912 22.45-1.03.513-1.898 2.735-2.55 2.638-3.218-.475-2.298-9.132-2.298-9.132l1.866-7.928s1.706-5.646 1.844-5.913c.137-.266 3.67-4.61 3.67-4.61s2.733-3.246 3.026-3.615c.294-.37 6.44-4.59 6.44-4.59l4.6-.86" fill="#DFE8EE"/><path d="M69.11 61.854s.5 9.963-.485 19.116c-.74 6.875-1.922 11.122-1.922 11.122l4.767-.123s1.62-3.456 1.275-8.7c-.345-5.245-3.635-21.416-3.635-21.416M52 60.887s1.34 2.95 1.21 12.862c-.092 6.965-3.37 16.82-3.37 16.82l-4.626-2.324 3.328-8.347 2.726-9.956M55.245 91.634s-2.638 12.21-11.657 19.19c-9.02 6.98-14.57 6.102-14.57 6.102l-.352 2.808 5.623.03c-.002 0 9.385-3.75 9.698-3.953.312-.202 7.47-8.062 7.47-8.062l4.578-15.785M66.364 92.802s-.702 20.376-3.157 28.287c-2.342 7.545-5.272 11.167-5.272 11.167l.412 2.888 3.166-.192s3.823-5.467 3.767-5.964c-.057-.498 1.75-9.677 1.75-9.677l.873-11.506-1.54-15.005M66.407 33.407s.126 7.182-5.797 7.498c-6.3.336-8.75-5.337-8.75-5.337s-.786 9.342 6.517 9.016c7.303-.325 8.858-3.894 8.858-3.894s1.44-2.952 1.29-3.404c-.15-.452-2.118-3.88-2.118-3.88M62.178 23.308s.772 2.74-1.382 4.483c-2.154 1.743-10.97 1.167-10.97 1.167s5.235 3.368 8.606 3.067c3.37-.3 6.494-2.63 6.494-2.63s1.477-2.636 1.436-3.14c-.04-.506-2.682-3.907-2.682-3.907l-1.502.96" fill="#DFE8EE"/><path d="M51.425 36.033c-.386 4.574 3.01 8.595 7.585 8.98 4.574.387 8.595-3.01 8.98-7.584.115-1.356-.103-2.662-.584-3.84m-4.11-10.92s4.296 3.373 1.516 6.588c-4.57 5.285-15.007.93-15.007.93M77.05 59.194c-.095-8.69-6.18-13.2-2.696-15.564 2.983-2.024 7.644 4.164 9.12 11.012.757 3.51 1.426 11.98-2.134 12.897-3.845.99-11.32-5.55-11.32-5.55s1.48 8.936 1.913 17.094c.24 4.494.592 8.152.033 12.83-1.536.51-4.43.314-4.43.314 1.204 11.69-.325 25.722-1.54 32.738-1.204 6.95-3.75 11.42-5.89 10.902-2.586-.63-2.267-5.194-1.876-6.916.392-1.722 2.472-8.5 3.045-18.21.562-9.512.188-18.264.188-18.264l-5.003-.48s-1.82 8.74-5.006 14.24c-3.225 5.568-6.354 9.404-13 12.55-6.843 3.24-9.514 1.903-9.927.458-.557-1.95.673-2.928 4.267-4.51 3.31-1.46 7.958-4.512 12.36-10.8 4.4-6.287 4.686-13.365 4.686-13.365-2.117-.177-4.55-1.662-4.55-1.662s4.866-11.037 5.534-16.23c.667-5.19.127-11.42.127-11.42-9.16 4.984-12.002 13.19-12.975 17.914-.755 3.67-1.284 8.617-3.787 8.734-1.132.053-1.993-2.038-2.22-4.78-.23-2.74.85-12.425 6.01-20.896 5.316-8.73 14.694-11.652 14.694-11.652m24.16 6.303s-3.378-4.33-9.257-6.552" stroke="#A5B2BA" stroke-linecap="round" stroke-linejoin="round"/><path d="M22.26 39.328s10.68 7.206 16.11 6.062c-4.05-6.58-1.747-10.342-1.747-10.342s10.457-4.49 12.052-12.573C51.16 9.89 40.925-1.028 25.402.777 8.198 2.78-.428 14.794 1.75 26.315c2.907 15.377 20.51 13.013 20.51 13.013z" stroke="#FD4974" stroke-linecap="round" stroke-linejoin="round"/><path d="M22.26 39.328s10.68 7.206 16.11 6.062c-4.05-6.58-1.747-10.342-1.747-10.342s10.457-4.49 12.052-12.573C51.16 9.89 40.925-1.028 25.402.777 8.198 2.78-.428 14.794 1.75 26.315c2.907 15.377 20.51 13.013 20.51 13.013z" fill="#FD4974"/><path d="M35.62 19.978c1.594-3.84.35-8.978-4.913-8.978-5.262 0-5.61 4.263-5.61 4.263S24.744 11 19.482 11c-5.262 0-6.868 4.847-4.912 8.978C16.526 24.108 25.095 31 25.095 31s8.93-7.18 10.524-11.022zM25.096 32.283l-.63-.504-.48-.394c-.377-.313-.798-.668-1.25-1.058-1.295-1.113-2.59-2.284-3.8-3.462-.784-.763-1.508-1.505-2.16-2.218-1.475-1.615-2.54-3.035-3.11-4.242C11.25 15.306 13.752 10 19.482 10c2.614 0 4.45.847 5.615 2.526C26.26 10.834 28.092 10 30.707 10c5.584 0 7.917 5.348 5.835 10.362-.525 1.264-1.7 2.814-3.41 4.632-.598.636-1.255 1.296-1.96 1.975-1.194 1.145-2.47 2.29-3.745 3.384-.446.382-.86.73-1.233 1.038-.224.186-.385.317-.473.387l-.623.503zm10.21-14.99c.25-2.814-1.297-5.24-4.15-5.24-.275 0-.5.223-.5.5 0 .275.225.5.5.5 2.173 0 3.36 1.86 3.154 4.15-.023.277.18.52.455.544.275.024.518-.18.542-.454z" fill="#FFF"/><path d="M60.5 53.167s2.916 21.166-1.334 38.666" stroke="#A5B2BA" stroke-linecap="round" stroke-linejoin="round"/></g></svg>
