<svg id="Layer_1" xmlns="http://www.w3.org/2000/svg" xmlns:xlink="http://www.w3.org/1999/xlink" viewBox="0 0 240 240"><style>.st0{fill:#fff}.st3{clip-path:url(#SVGID_6_)}</style><path class="st0" d="M0 0h240v240H0z"/><path class="st0" d="M0 0h240v240H0z"/><defs><circle id="SVGID_1_" cx="120" cy="120" r="100"/></defs><clipPath id="SVGID_2_"><use xlink:href="#SVGID_1_" overflow="visible"/></clipPath><g clip-path="url(#SVGID_2_)"><defs><path id="SVGID_3_" d="M0 0h240v240H0z"/></defs><clipPath id="SVGID_4_"><use xlink:href="#SVGID_3_" overflow="visible"/></clipPath><g clip-path="url(#SVGID_4_)"><defs><path id="SVGID_5_" d="M20 20h200v200H20z"/></defs><clipPath id="SVGID_6_"><use xlink:href="#SVGID_5_" overflow="visible"/></clipPath><g class="st3"><defs><path id="SVGID_7_" d="M20 20h200v200H20z"/></defs><clipPath id="SVGID_8_"><use xlink:href="#SVGID_7_" overflow="visible"/></clipPath><path clip-path="url(#SVGID_8_)" fill="#dfe8ee" d="M15 15h210v210H15z"/></g><g class="st3"><defs><path id="SVGID_9_" d="M-67 63.1c-4.8 0-14.5 1.2-20.8 7-7 1.5-16.4 9.1-19.3 14.4-6 10.9-11.8 17.8-14.9 32.4-12.1 3.7-24.2 6.1-27.6 11-3.4 4.9-6 8.7.6 21.7-.6 3.7-1.4 20.5-.4 29.2.7 6 3.4 24.5 17.2 46h318.5c13.1-17.4 21.2-47.6 17-75.4 2.6-4.2 4-9.2 3.5-14.6-.8-10.6-11.7-11.3-20.5-14.6-4.3-1.5-14.3-6-14.3-6s0-10-5.5-20-14.6-22.3-24.6-23.9c-1.3-.2-1.7-2.2-3.9-2.9-6.9-2.3-19.5-5.1-31.8-5.2-16.9-.2-34 4-39.7 5.4-6.9-2-24.6-5.5-36.8-5.6-6.9-.1-13.5 1.1-20.6 1.3-7.1.2-19.2 5.1-21.5 4.5-3.2-.8-8.2-2.7-11.1-3.1 1-1.2-43.5-1.6-43.5-1.6z"/></defs><clipPath id="SVGID_10_"><use xlink:href="#SVGID_9_" overflow="visible"/></clipPath><g clip-path="url(#SVGID_10_)"><defs><path id="SVGID_11_" d="M20 20h200v200H20z"/></defs><clipPath id="SVGID_12_"><use xlink:href="#SVGID_11_" overflow="visible"/></clipPath><path clip-path="url(#SVGID_12_)" fill="#fff" d="M-158.1 56.8h370v172.9h-370z"/></g></g><g class="st3"><defs><path id="SVGID_13_" d="M128.2 113.7c-.2-2.9.4-6.6 1.7-9.7 1.2-2.9 2.9-5.3 3.7-6.5 1-1.6 2.3-3.1 4.3-3.4 2.7-.5 6.2.6 8.6 1.9 3.6 1.9 5.1 5.8 5.8 6 .4.1 2.3 4.2 5.5 6.8 3.1 2.5 8 2.5 8 2.5s-3 3.5-4.4 5.5c-.7 1-1.8 3.4-1.8 3.4s2.6 1.4 3 2.3c.5 1.2-.1 4.1-.1 4.1s-1.1 1.9-1.9 2.3c-.9.5-3.2.5-3.2.5s-1.3-.4-2.2-1.2c-1.2.4-1.3 5.9-1.3 5.9s-.4 3.7-.4 5.8c0 2.2 3.9 6.7 12.6 7.7 8.7.9 13.4-1.4 14-2.7.5-1.3-1.5-7.7-.5-12.6 1-4.9 5.9-14 5.9-20.4 0-2.8-.5-5.2-1.9-7.1-1.8-2.6-4.4-4-4.4-4s-2.5-13-16-16.8c-13.5-3.8-25.7.4-30.2 8.6s-3.7 9.4-6.9 14.1c-3.2 4.6-10.1 8.1-11.4 8.6-1.3.5 5.4 12.5 17.7 15.9.7-.5 2.4-3.5 2.4-3.5s-6-5.9-6.6-14z"/></defs><clipPath id="SVGID_14_"><use xlink:href="#SVGID_13_" overflow="visible"/></clipPath><g clip-path="url(#SVGID_14_)"><defs><path id="SVGID_15_" d="M20 20h200v200H20z"/></defs><clipPath id="SVGID_16_"><use xlink:href="#SVGID_15_" overflow="visible"/></clipPath><path clip-path="url(#SVGID_16_)" fill="#ffd07c" d="M109.5 77.5h81v75.2h-81z"/></g></g><g class="st3"><defs><path id="SVGID_17_" d="M153.9 133.9c0-2.2 1.4-5.5 1.4-5.5s.9 1.1 2.6 1.1c1.7 0 4.8-1.2 5.1-4.1.4-3-.7-4.1-3.4-5.8-.9 0 6.3-8.3 6.3-8.3s-2.1.7-8-2.8c-5.9-3.4-6.7-10-11.1-12.4-4.4-2.3-8.6-2.4-9.6-2-1 .4-9.1 7.5-9.1 16.1 0 8.5 1.6 12.9 6.7 17.5-1.5 2.4-3.9 5.1-5.8 6.2-1.5.9-2.5.4-2.5.4s-1.9 1.8-2.4 3.7c-.3 1-.5 2 .8 2.8 3.9 2.2 15-1.1 15-1.1s-.8-4.2 3.4-6.5c4.1.9 8.5 1.5 10.6.7z"/></defs><clipPath id="SVGID_18_"><use xlink:href="#SVGID_17_" overflow="visible"/></clipPath><g clip-path="url(#SVGID_18_)"><defs><path id="SVGID_19_" d="M20 20h200v200H20z"/></defs><clipPath id="SVGID_20_"><use xlink:href="#SVGID_19_" overflow="visible"/></clipPath><path clip-path="url(#SVGID_20_)" fill="#fff5db" d="M118.9 88.9h52v57.7h-52z"/></g></g><g class="st3"><defs><path id="SVGID_21_" d="M18.2 160.6c-2.1-1.1-4-2.6-4-2.6-3 .7-5.8 1.6-7.5 2.4.4 2.6.4 4.8.5 6.1 3.8.7 11.6.2 13.2-.6 1.8-.9 2.5-3.8 1.6-4.1-.4-.1-2.3-.5-3.8-1.2z"/></defs><clipPath id="SVGID_22_"><use xlink:href="#SVGID_21_" overflow="visible"/></clipPath><g clip-path="url(#SVGID_22_)"><defs><path id="SVGID_23_" d="M20 20h200v200H20z"/></defs><clipPath id="SVGID_24_"><use xlink:href="#SVGID_23_" overflow="visible"/></clipPath><path clip-path="url(#SVGID_24_)" fill="#cf7e50" d="M1.7 152.9h25.6v18.9H1.7z"/></g></g><g class="st3"><defs><path id="SVGID_25_" d="M-22.9 140c.1 1.8-.3 3.2-.3 4.3 0 2.8.2 3.9.5 5.3 2.1.4 37.1 4.2 38.6 4.4-.4 1-2.6 3.1-2.1 3.5.4.4 4.4 4.2 8.2 4.6.6.1 5-6.6 5.8-7.5 2.1.4 25.7 1.9 29.2 4.6.9.7 5.9 5.9 10.6 7 4.4 1 9.9.3 14.9-.2 1.1-4 .6-20-4.3-21.1-.1 0-10.7.3-13.7-.7-3.1-2.8-16.9-17.8-23-17.8-2.7 0-11.1 6.6-17.2 15.7-.2.2-1.2.2-3.2.1-1.3 0-3.3-.4-4.9-.1-.8.1-1.1 2.1-2 2.2-.8.1-.6 1.3-1.5 1.3-1.1-.1-2.6-4-3.6-4-1-.1-1.1-1.1-2.1-1.1-.3 0 1.2 2.2.8 2.2-.4 0-1 .9-1.4.9-.7 0-2.2-1.7-2.9-1.7-8.6-.4-17.6-1-21.8-1.4l-4.6-.5z"/></defs><clipPath id="SVGID_26_"><use xlink:href="#SVGID_25_" overflow="visible"/></clipPath><g clip-path="url(#SVGID_26_)"><defs><path id="SVGID_27_" d="M20 20h200v200H20z"/></defs><clipPath id="SVGID_28_"><use xlink:href="#SVGID_27_" overflow="visible"/></clipPath><path clip-path="url(#SVGID_28_)" fill="#ddb59a" d="M-28.2 121.2H88.1v50.4H-28.2z"/></g></g><g class="st3"><defs><path id="SVGID_29_" d="M75.9 144.2s.3-1.9 1.5-1.6c1.2.2 6 1.8 11.3 1.6 5.2-.2 11.6-2.1 11.6-2.1s5 11.4 7.8 15c2.8 3.6 5.1 6.8 5.1 6.8l1.6 1.6-9.2 2.4-10.7 1.3h-8.2l-6.1-1.5-1-1.3 3-.5s1.2-5.4.3-10.7c-.9-5.3-3.9-10.4-3.9-10.4l-1.2-.3-1.9-.3z"/></defs><clipPath id="SVGID_30_"><use xlink:href="#SVGID_29_" overflow="visible"/></clipPath><g clip-path="url(#SVGID_30_)"><defs><path id="SVGID_31_" d="M20 20h200v200H20z"/></defs><clipPath id="SVGID_32_"><use xlink:href="#SVGID_31_" overflow="visible"/></clipPath><path clip-path="url(#SVGID_32_)" fill="#3c9ccd" d="M70.9 137.1h48.8v37.1H70.9z"/></g></g><g class="st3"><defs><path id="SVGID_33_" d="M108.6 140.5l6.5 10.7s2.8 4 3.8 4.7c1 .7 4.4.3 4.4.3l9.1-4.3s3.6-.2 5.5.4c1.8.6 6.3 4.5 6.3 4.5l-.9 1.3s1.9 1.4 3 .4c1.2-1 2.7-6.7 2.7-6.7l-.8-5.7-1.9-3.4-2.8-1.9v-1.3l-3.2-2.3-.2.7-.2 2s-7 1-9.6 1.6c-2.5.6-6-1.3-6.1-1.6-.1-.3-.2-2-.2-2l2.3-3.4 1.7-.3 1.4-1-3.9-1.7-1.4-.8-4.8-1.5s-3.2-.2-4.9-.3c-.1 0-1.6.5-1.6.5s-.7.3-.9.7c-.2.4-.3 1.7-.3 1.7h1.7l1 2.5.4 4-6.1 2.2z"/></defs><clipPath id="SVGID_34_"><use xlink:href="#SVGID_33_" overflow="visible"/></clipPath><g clip-path="url(#SVGID_34_)"><defs><path id="SVGID_35_" d="M20 20h200v200H20z"/></defs><clipPath id="SVGID_36_"><use xlink:href="#SVGID_35_" overflow="visible"/></clipPath><path clip-path="url(#SVGID_36_)" fill="#3c9ccd" d="M103.6 124H154v39.9h-50.4z"/></g></g><g class="st3"><defs><path id="SVGID_37_" d="M133.7 111.5l6 2.9s-2.2 3.5-4.7 2c-2.6-1.4-1.3-4.9-1.3-4.9z"/></defs><clipPath id="SVGID_38_"><use xlink:href="#SVGID_37_" overflow="visible"/></clipPath><g clip-path="url(#SVGID_38_)"><defs><path id="SVGID_39_" d="M20 20h200v200H20z"/></defs><clipPath id="SVGID_40_"><use xlink:href="#SVGID_39_" overflow="visible"/></clipPath><path clip-path="url(#SVGID_40_)" fill="#fff" d="M128.4 106.5h16.3v15.3h-16.3z"/></g></g><g class="st3"><defs><path id="SVGID_41_" d="M81.7 85.8c2.4.6 30.5 12.9 31.4 14.4l.3.5c0 1.8-12.9 30.4-13.6 30.6-.6.2-28.1-18.2-27.8-20.6.5-2.3 7.2-25.6 9.7-24.9z"/></defs><clipPath id="SVGID_42_"><use xlink:href="#SVGID_41_" overflow="visible"/></clipPath><g clip-path="url(#SVGID_42_)"><defs><path id="SVGID_43_" d="M20 20h200v200H20z"/></defs><clipPath id="SVGID_44_"><use xlink:href="#SVGID_43_" overflow="visible"/></clipPath><path clip-path="url(#SVGID_44_)" fill="#dfe8ee" d="M67.1 80.8h51.5v55.5H67.1z"/></g></g><g class="st3"><defs><path id="SVGID_45_" d="M113.3 100.1l1.5 1 .1 1.9-3.1 6.8-8.5 19.2-.9-1.9 11-25.7z"/></defs><clipPath id="SVGID_46_"><use xlink:href="#SVGID_45_" overflow="visible"/></clipPath><g clip-path="url(#SVGID_46_)"><defs><path id="SVGID_47_" d="M20 20h200v200H20z"/></defs><clipPath id="SVGID_48_"><use xlink:href="#SVGID_47_" overflow="visible"/></clipPath><path clip-path="url(#SVGID_48_)" fill="#9da0a3" d="M97.4 95.1H120V134H97.4z"/></g></g><g class="st3"><defs><path id="SVGID_49_" d="M144.1 157.1c-2.7 1.8-7.7 5-13 7.1-5.2 2-10.7 2.8-13.4 2.2-4.9-1-9.2-7.6-12.3-13.9-1.2-2.5-2.6-5-3.5-7-.7-1.6-1-2.8-1.7-3.3-.6-.5-1.9-.7-2.8-1.2-4.3-2.6-10.7-6.2-12.9-7.8-2.5-1.9-7.5-14.8-9.5-19.1 2.8 1.8 12.6 9.6 17.5 13.4 0-1.6.7-4.5 2-4.8 1-.2 1.6-1.2 3.5-2.1.6-.3 1.3-1.3 2.4-1.3.6 0 .6 7.9 2.5 9.8 1.2-1.3 1.2-4.2 2-4.1.3.1 0 6.4.4 6.7 2 1.4 8.3-.6 8.6.4.7 2.2 1.6 5.5.6 6.5-1.1 1-6 1.6-5.6 2.5 1.3 2.5 8.3 14.9 10.6 15.4 2.9.6 10.5-3 13.1-4.9 5.2 1 7.3 1.5 11.5 5.5z"/></defs><clipPath id="SVGID_50_"><use xlink:href="#SVGID_49_" overflow="visible"/></clipPath><g clip-path="url(#SVGID_50_)"><defs><path id="SVGID_51_" d="M20 20h200v200H20z"/></defs><clipPath id="SVGID_52_"><use xlink:href="#SVGID_51_" overflow="visible"/></clipPath><path clip-path="url(#SVGID_52_)" fill="#fff5db" d="M70.1 109h79v62.6h-79z"/></g></g><g class="st3"><defs><path id="SVGID_53_" d="M75.6 100.2c-2.4.8-3.3-.2-4.9 5.6-.2.9-1.6 3.4-.7 3.1l1.3 1.6c1-.4.4-1.3 1.4-1.8 1.4-.6 3.5.6 4.3 0 .8-.5.4-2 .8-2.7.4-.9.8-1.2.5-2.1.8-.6.7-1.7.8-2 .3-1.2-3.5-1.7-3.5-1.7z"/></defs><clipPath id="SVGID_54_"><use xlink:href="#SVGID_53_" overflow="visible"/></clipPath><g clip-path="url(#SVGID_54_)"><defs><path id="SVGID_55_" d="M20 20h200v200H20z"/></defs><clipPath id="SVGID_56_"><use xlink:href="#SVGID_55_" overflow="visible"/></clipPath><path clip-path="url(#SVGID_56_)" fill="#ffeec8" d="M64.7 95.2h19.4v20.3H64.7z"/></g></g><g class="st3"><defs><path id="SVGID_57_" d="M178.9 163.1c1.3-3 4.1-6.4 6.7-8.5 1.6-1.4 4.9-2.5 4.9-2.5.1-.1 8.8-.6 9-.4.1 0 3.6-1.4 3.7-1.4 1-.3-1.5 5-4.2 4.9-2.6-.1-6.3.4-9.1.9-3.7.7-6.1 4.1-7.8 7-3.1 5.4-6.4 13.9-12.9 16.1-1.2.4-1.6-1.2-.8-1.8 5-4 8.1-8.6 10.5-14.3z"/></defs><clipPath id="SVGID_58_"><use xlink:href="#SVGID_57_" overflow="visible"/></clipPath><g clip-path="url(#SVGID_58_)"><defs><path id="SVGID_59_" d="M20 20h200v200H20z"/></defs><clipPath id="SVGID_60_"><use xlink:href="#SVGID_59_" overflow="visible"/></clipPath><path clip-path="url(#SVGID_60_)" fill="#dfe8ee" d="M163 145.2h45.5v38.9H163z"/></g></g><g class="st3"><defs><path id="SVGID_61_" d="M66.9 68.7c.3 8.2 1.3 17.5 1.1 25.8-.1 4.9-1.1 40.3-1.1 38.7-.2-6.3-2.7-51.6-3.8-57.9-.8-4.6-3.7-7.4-6.9-10.3 1.2.2 2.3.5 3.5.8 1.6.4 7.1 1.8 7.2 2.9z"/></defs><clipPath id="SVGID_62_"><use xlink:href="#SVGID_61_" overflow="visible"/></clipPath><g clip-path="url(#SVGID_62_)"><defs><path id="SVGID_63_" d="M20 20h200v200H20z"/></defs><clipPath id="SVGID_64_"><use xlink:href="#SVGID_63_" overflow="visible"/></clipPath><path clip-path="url(#SVGID_64_)" fill="#dfe8ee" d="M51.2 60H73v78.2H51.2z"/></g></g><g class="st3"><defs><path id="SVGID_65_" d="M142.5 71s3 5.1 3.3 6.1c.4 1.2 1.2 3.2 1.7 4.4-.1.7 1.5-1.3 2-3 .7-2.4.2-4.9-.4-5.3-.6-.5-6.6-2.2-6.6-2.2z"/></defs><clipPath id="SVGID_66_"><use xlink:href="#SVGID_65_" overflow="visible"/></clipPath><g clip-path="url(#SVGID_66_)"><defs><path id="SVGID_67_" d="M20 20h200v200H20z"/></defs><clipPath id="SVGID_68_"><use xlink:href="#SVGID_67_" overflow="visible"/></clipPath><path clip-path="url(#SVGID_68_)" fill="#dfe8ee" d="M137.5 66h17.3v20.6h-17.3z"/></g></g><g class="st3"><defs><path id="SVGID_69_" d="M62.8 179.9c-2.9.6-6.1.6-9 1.1-5.3.8-10.6.1-16 .6-9.4.8-17.9 0-28.5-.5-2.5-.1-1.9 2.8 0 3 10 1 20.1 1.9 30.2 1 4.6-.4 9.1-.3 13.7-1 4.2-.6 8.8-.5 12.8-2 1-.4 1.2-1.6.8-2.3h-.1c-1.3.2-2.6.4-3.9.1z"/></defs><clipPath id="SVGID_70_"><use xlink:href="#SVGID_69_" overflow="visible"/></clipPath><g clip-path="url(#SVGID_70_)"><defs><path id="SVGID_71_" d="M20 20h200v200H20z"/></defs><clipPath id="SVGID_72_"><use xlink:href="#SVGID_71_" overflow="visible"/></clipPath><path clip-path="url(#SVGID_72_)" fill="#dfe8ee" d="M2.7 174.8H72v15.6H2.7z"/></g></g><g class="st3"><defs><path id="SVGID_73_" d="M115.1 182.9c-15.6.3-31.7-.3-47.3-3.3-2.3-.4-3 2.1-1.1 2.6 15.1 3.7 32.8 4.9 48.4 4.7 9.4-.2 40.3-1.5 47.9-3.2 1.9-.4 1.1-3.3-.8-2.9-9 .7-31.7 1.7-47.1 2.1z"/></defs><clipPath id="SVGID_74_"><use xlink:href="#SVGID_73_" overflow="visible"/></clipPath><g clip-path="url(#SVGID_74_)"><defs><path id="SVGID_75_" d="M20 20h200v200H20z"/></defs><clipPath id="SVGID_76_"><use xlink:href="#SVGID_75_" overflow="visible"/></clipPath><path clip-path="url(#SVGID_76_)" fill="#dfe8ee" d="M60.6 174.5H169v17.3H60.6z"/></g></g><g class="st3"><defs><path id="SVGID_77_" d="M54.3 155.3c-1.2-.9-1.7-2.1-2.6-2.7-.1-.3-.3-.5-.7-.6-3.2-.6-6.3-.5-9.4-.9-1.1-.1-8.9-.4-10.4-.5-.4.4-.8.7-1.3 1.1-.3.2-2.1 2.9-2.1 2.9s1.2.3 1.8.4c.6.1 1.3.2 1.6 0 2.1 1.4 6.4.4 8.3.7 2.6.3 6.9.6 10.5 1.3 2.9.6 5.2 1.5 6.7 1.9 1 .3-1.3-3.2-2-3.8"/></defs><clipPath id="SVGID_78_"><use xlink:href="#SVGID_77_" overflow="visible"/></clipPath><g clip-path="url(#SVGID_78_)"><defs><path id="SVGID_79_" d="M20 20h200v200H20z"/></defs><clipPath id="SVGID_80_"><use xlink:href="#SVGID_79_" overflow="visible"/></clipPath><path clip-path="url(#SVGID_80_)" fill="#c9a18d" d="M22.9 145.5h39v18.3h-39z"/></g></g><g class="st3"><defs><path id="SVGID_81_" d="M126.4 161.7c-.3.1-.5.2-.8.2-7.6 2.3-13-1.3-16.7-7.4 0-.1-3.3-5.1-4.7-7.7-1.5-3-3.5-5.6-5.2-8.4 1.5 2.9 4.1 9.4 4.1 9.6.6 1.3 8 13.7 8.4 13.9.9.6 1.2 1.5 2 2.1 2.9 3.2 7 3.3 11.1 1.8 1.8-.3 3.7-1 5.4-1.5 2.7-.9 6-2.3 9.1-4 1.8-1 4-1.8 4.9-3.3.6-.9-2.6-3.2-3.4-2.9-3.3 1.5-8.6 5.3-14.2 7.6z"/></defs><clipPath id="SVGID_82_"><use xlink:href="#SVGID_81_" overflow="visible"/></clipPath><g clip-path="url(#SVGID_82_)"><defs><path id="SVGID_83_" d="M20 20h200v200H20z"/></defs><clipPath id="SVGID_84_"><use xlink:href="#SVGID_83_" overflow="visible"/></clipPath><path clip-path="url(#SVGID_84_)" fill="#ffdec5" d="M94 133.4h55.1v38.4H94z"/></g></g><g class="st3"><defs><path id="SVGID_85_" d="M139.6 131.9c-1.4.7-2.5 1.9-3.4 3.1-1.2 1.5-1.7 3.9-1.9 5.7-.2 1.3 1.5 0 1.9 0 .8 0 3.4-.4 3.7-1 0 0 .1-1.9 1-3.4.9-1.6 2.5-2.8 2.5-2.8.1-.1-2.1-2.1-2.9-1.6"/></defs><clipPath id="SVGID_86_"><use xlink:href="#SVGID_85_" overflow="visible"/></clipPath><g clip-path="url(#SVGID_86_)"><defs><path id="SVGID_87_" d="M20 20h200v200H20z"/></defs><clipPath id="SVGID_88_"><use xlink:href="#SVGID_87_" overflow="visible"/></clipPath><path clip-path="url(#SVGID_88_)" fill="#ffdec5" d="M129.3 126.8h19.1v19.4h-19.1z"/></g></g><g class="st3"><defs><path id="SVGID_89_" d="M162.5 110.5c-3.5 1.5-5.4 3.7-7.7 6.7s-4.1 6.2-6.7 9c-2.2 2.3-4.9 3.4-7.7 4.8-.8.4 0 1.3.8 1.5 3.9.8 8.8 3.2 12.7 1.3.3-.2.6-2.4.6-2.7 0-1.2.5-1.3.8-2.5.3-.1-.4-.8-.5-.9-1-1-1.4-2.9-1.3-4 .2-2.4 1.2-3.1 3.4-3.7.1-.2 2.6-.4 2.7-.5 0 0 2.9-5.1 4.8-6.4.4-.3 1.5-2 1.2-2.1"/></defs><clipPath id="SVGID_90_"><use xlink:href="#SVGID_89_" overflow="visible"/></clipPath><g clip-path="url(#SVGID_90_)"><defs><path id="SVGID_91_" d="M20 20h200v200H20z"/></defs><clipPath id="SVGID_92_"><use xlink:href="#SVGID_91_" overflow="visible"/></clipPath><path clip-path="url(#SVGID_92_)" fill="#ffdec5" d="M135.1 105.5h35.6v34h-35.6z"/></g></g><g class="st3"><defs><path id="SVGID_93_" d="M67.3 160.8c-4.3-1.1-7.6-4.6-10.5-7.9-4.7-5.5-7.9-10.8-12.5-16.4-3.6-4.5-6.7-.1-9.7 3.4-3 3.4-5.5 7.2-8.5 10.6-2.2 2.5-5 5.8-6.4 8.9-.7 1.5 1.5 3.3 2.8 2 0 0 1.5-1.7 1.6-2 1.5-3 3.3-5 5.5-7.5 2.7-3 5.1-6.4 7.7-9.5.9-1.1 4.2-5.1 4.9-3.9.9.9 1.1 1.3 1.8 2.3 2.4 3.2 4.2 5.6 6.6 8.9 3.2 4.3 7.4 10.8 12 13.7 6 3.8 13.3 3.4 20 2.4.3-1.5.3-3.7.8-5.1-4.9.7-11.5 1.3-16.1.1z"/></defs><clipPath id="SVGID_94_"><use xlink:href="#SVGID_93_" overflow="visible"/></clipPath><g clip-path="url(#SVGID_94_)"><defs><path id="SVGID_95_" d="M20 20h200v200H20z"/></defs><clipPath id="SVGID_96_"><use xlink:href="#SVGID_95_" overflow="visible"/></clipPath><path clip-path="url(#SVGID_96_)" fill="#c8a28d" d="M14.5 129.7h73.7v41.8H14.5z"/></g></g><g class="st3"><defs><path id="SVGID_97_" d="M167.1 178.6c-.2 0-.3-.1-.4-.2-.2-.2-.1-.5.1-.7 5.1-3.5 8.7-9.5 12-14.8.6-.9 1.1-1.8 1.7-2.7 1.8-2.9 3.6-5.5 6.3-7.2 2.6-1.6 5.3-1.6 8-1.7 1.3 0 2.7 0 4.1-.3 3.4-.5 4.3-1.4 5.6-4.5 1.7-3.8 3.2-9.4 1.2-14.5-1.4-3.5-4.2-6.3-8-7.7-4.1-1.6-8.9-1.4-12.8.5-.2.1-.5 0-.7-.2-.1-.2 0-.5.2-.7 4.1-2 9.2-2.2 13.6-.5 4 1.5 7 4.5 8.6 8.3 2.1 5.4.5 11.3-1.2 15.3-1.4 3.3-2.5 4.5-6.3 5.1-1.4.2-2.8.2-4.2.3-2.6 0-5.1.1-7.5 1.5-2.5 1.6-4.2 4-6 6.9-.5.9-1.1 1.8-1.7 2.7-3.3 5.4-7 11.5-12.2 15.1h-.4"/></defs><clipPath id="SVGID_98_"><use xlink:href="#SVGID_97_" overflow="visible"/></clipPath><g clip-path="url(#SVGID_98_)"><defs><path id="SVGID_99_" d="M20 20h200v200H20z"/></defs><clipPath id="SVGID_100_"><use xlink:href="#SVGID_99_" overflow="visible"/></clipPath><path clip-path="url(#SVGID_100_)" fill="#a5b2ba" d="M161.6 117.3h50.9v66.3h-50.9z"/></g></g><g class="st3"><defs><path id="SVGID_101_" d="M162.8 166.4c-.3 0-.5-.2-.5-.5 0-4.8.4-10.6 3-16.5.1-.3.4-.4.7-.3.3.1.4.4.3.7-2.5 5.8-2.9 11.4-2.9 16.1-.2.2-.4.5-.6.5"/></defs><clipPath id="SVGID_102_"><use xlink:href="#SVGID_101_" overflow="visible"/></clipPath><g clip-path="url(#SVGID_102_)"><defs><path id="SVGID_103_" d="M20 20h200v200H20z"/></defs><clipPath id="SVGID_104_"><use xlink:href="#SVGID_103_" overflow="visible"/></clipPath><path clip-path="url(#SVGID_104_)" fill="#a5b2ba" d="M157.2 144h13.9v27.3h-13.9z"/></g></g><g class="st3"><defs><path id="SVGID_105_" d="M186.3 225.6c-.1 0-.2 0-.3-.1-.2-.2-.2-.5-.1-.7.1-.1 10.6-13.3 15.9-36.5 3.7-16.3 1-38.1 1-38.3 0-.3.2-.5.4-.6.3 0 .5.2.6.4 0 .2 2.7 22.2-1 38.7-5.3 23.5-16 36.8-16.1 36.9-.2.1-.3.2-.4.2"/></defs><clipPath id="SVGID_106_"><use xlink:href="#SVGID_105_" overflow="visible"/></clipPath><g clip-path="url(#SVGID_106_)"><defs><path id="SVGID_107_" d="M20 20h200v200H20z"/></defs><clipPath id="SVGID_108_"><use xlink:href="#SVGID_107_" overflow="visible"/></clipPath><path clip-path="url(#SVGID_108_)" fill="#a5b2ba" d="M180.8 144.4h29v86.2h-29z"/></g></g><g class="st3"><defs><path id="SVGID_109_" d="M195.8 123.7h-.1l-9.1-2.8c-.3-.1-.4-.4-.3-.6.1-.3.4-.4.6-.3l9.1 2.8c.3.1.4.4.3.6-.1.1-.3.3-.5.3"/></defs><clipPath id="SVGID_110_"><use xlink:href="#SVGID_109_" overflow="visible"/></clipPath><g clip-path="url(#SVGID_110_)"><defs><path id="SVGID_111_" d="M20 20h200v200H20z"/></defs><clipPath id="SVGID_112_"><use xlink:href="#SVGID_111_" overflow="visible"/></clipPath><path clip-path="url(#SVGID_112_)" fill="#a5b2ba" d="M181.1 114.8h20.1v13.8h-20.1z"/></g></g><g class="st3"><defs><path id="SVGID_113_" d="M146.8 80.4c-.2 0-.4-.1-.5-.3-1.9-5.9-4.8-10.2-7.9-11.7-4.7-2.3-19.7-5.7-34.2-5.7-22 0-37.5 5.6-37.7 5.7-.3.1-.5 0-.6-.3-.1-.3 0-.5.3-.6.2-.1 15.8-5.7 38-5.7 14.9 0 29.7 3.3 34.7 5.8 3.3 1.6 6.4 6.1 8.4 12.3.1.3-.1.5-.3.6-.1-.1-.2-.1-.2-.1"/></defs><clipPath id="SVGID_114_"><use xlink:href="#SVGID_113_" overflow="visible"/></clipPath><g clip-path="url(#SVGID_114_)"><defs><path id="SVGID_115_" d="M20 20h200v200H20z"/></defs><clipPath id="SVGID_116_"><use xlink:href="#SVGID_115_" overflow="visible"/></clipPath><path clip-path="url(#SVGID_116_)" fill="#a5b2ba" d="M60.8 56.7h91.4v28.7H60.8z"/></g></g><g class="st3"><defs><path id="SVGID_117_" d="M157 80.3c-.1 0-.3-.1-.4-.2-4.6-4.8-9.5-8-14.7-9.3-.3-.1-.4-.3-.4-.6.1-.3.3-.4.6-.4 5.3 1.4 10.4 4.6 15.1 9.6.2.2.2.5 0 .7.1.2 0 .2-.2.2"/></defs><clipPath id="SVGID_118_"><use xlink:href="#SVGID_117_" overflow="visible"/></clipPath><g clip-path="url(#SVGID_118_)"><defs><path id="SVGID_119_" d="M20 20h200v200H20z"/></defs><clipPath id="SVGID_120_"><use xlink:href="#SVGID_119_" overflow="visible"/></clipPath><path clip-path="url(#SVGID_120_)" fill="#a5b2ba" d="M136.6 64.9h25.9v20.4h-25.9z"/></g></g><g class="st3"><defs><path id="SVGID_121_" d="M66.4 141.8c-.1 0-.1 0 0 0-.4-.1-.5-.3-.5-.6 1.5-9.1 3-49.6 0-73.2 0-.3.2-.5.4-.6.3 0 .5.2.6.4 3 24.2 1.6 64.1 0 73.5-.1.3-.3.5-.5.5"/></defs><clipPath id="SVGID_122_"><use xlink:href="#SVGID_121_" overflow="visible"/></clipPath><g clip-path="url(#SVGID_122_)"><defs><path id="SVGID_123_" d="M20 20h200v200H20z"/></defs><clipPath id="SVGID_124_"><use xlink:href="#SVGID_123_" overflow="visible"/></clipPath><path clip-path="url(#SVGID_124_)" fill="#a5b2ba" d="M60.9 62.4h12.8v84.4H60.9z"/></g></g><g class="st3"><defs><path id="SVGID_125_" d="M66.3 68.4h-.2c-5.2-2.3-21.6-5.7-37.6-5.7-24.1 0-40.5 5.6-40.6 5.7-.3.1-.5 0-.6-.3-.1-.3 0-.5.3-.6.2-.1 16.6-5.7 41-5.7 16.4 0 32.6 3.3 38 5.8.3.1.4.4.3.7-.2 0-.4.1-.6.1"/></defs><clipPath id="SVGID_126_"><use xlink:href="#SVGID_125_" overflow="visible"/></clipPath><g clip-path="url(#SVGID_126_)"><defs><path id="SVGID_127_" d="M20 20h200v200H20z"/></defs><clipPath id="SVGID_128_"><use xlink:href="#SVGID_127_" overflow="visible"/></clipPath><path clip-path="url(#SVGID_128_)" fill="#a5b2ba" d="M-17.8 56.7h89.7v16.7h-89.7z"/></g></g><g class="st3"><defs><path id="SVGID_129_" d="M162.7 166.9s-.1 0 0 0c-.6 0-1.6-.1-2.9-.2-6.1-.5-18.8-1.6-31-.9-.3 0-.5-.2-.5-.5s.2-.5.5-.5c12.2-.7 25 .4 31.1.9 1.3.1 2.3.2 2.9.2.3 0 .5.2.5.5-.1.2-.4.5-.6.5"/></defs><clipPath id="SVGID_130_"><use xlink:href="#SVGID_129_" overflow="visible"/></clipPath><g clip-path="url(#SVGID_130_)"><defs><path id="SVGID_131_" d="M20 20h200v200H20z"/></defs><clipPath id="SVGID_132_"><use xlink:href="#SVGID_131_" overflow="visible"/></clipPath><path clip-path="url(#SVGID_132_)" fill="#a5b2ba" d="M123.3 159.5h44.9v12.4h-44.9z"/></g></g><g class="st3"><defs><path id="SVGID_133_" d="M114.2 183.4c-28 0-47.3-3.3-47.5-3.3-.2 0-.4-.2-.4-.5v-10.2c0-.3.2-.5.5-.5s.5.2.5.5v9.8c2.9.5 21.2 3.3 46.9 3.3 35.2 0 49.5-2.9 49.7-2.9.3-.1.5.1.6.4.1.3-.1.5-.4.6-.1-.2-14.5 2.8-49.9 2.8"/></defs><clipPath id="SVGID_134_"><use xlink:href="#SVGID_133_" overflow="visible"/></clipPath><g clip-path="url(#SVGID_134_)"><defs><path id="SVGID_135_" d="M20 20h200v200H20z"/></defs><clipPath id="SVGID_136_"><use xlink:href="#SVGID_135_" overflow="visible"/></clipPath><path clip-path="url(#SVGID_136_)" fill="#a5b2ba" d="M61.4 163.8h108.1v24.6H61.4z"/></g></g><g class="st3"><defs><path id="SVGID_137_" d="M164.1 225.4c-.3 0-.5-.3-.5-.5 0-.3 2-30.3.1-45.5 0-.3.2-.5.4-.6.3 0 .5.2.6.4 1.9 15.2-.1 45.4-.1 45.7 0 .3-.2.5-.5.5"/></defs><clipPath id="SVGID_138_"><use xlink:href="#SVGID_137_" overflow="visible"/></clipPath><g clip-path="url(#SVGID_138_)"><defs><path id="SVGID_139_" d="M20 20h200v200H20z"/></defs><clipPath id="SVGID_140_"><use xlink:href="#SVGID_139_" overflow="visible"/></clipPath><path clip-path="url(#SVGID_140_)" fill="#a5b2ba" d="M158.6 173.8h11.9v56.6h-11.9z"/></g></g><g class="st3"><defs><path id="SVGID_141_" d="M91.5 211.8c-27.9 0-55.8-.3-83.4-.8-.3 0-.5-.2-.5-.5s.2-.5.5-.5c51.9 1 104.7 1 156.9.2.3 0 .5.2.5.5s-.2.5-.5.5c-24.5.4-49 .6-73.5.6"/></defs><clipPath id="SVGID_142_"><use xlink:href="#SVGID_141_" overflow="visible"/></clipPath><g clip-path="url(#SVGID_142_)"><defs><path id="SVGID_143_" d="M20 20h200v200H20z"/></defs><clipPath id="SVGID_144_"><use xlink:href="#SVGID_143_" overflow="visible"/></clipPath><path clip-path="url(#SVGID_144_)" fill="#a5b2ba" d="M2.6 205h167.9v11.8H2.6z"/></g></g><g class="st3"><defs><path id="SVGID_145_" d="M164.2 179.7c-.3 0-.5-.2-.5-.5 0-.1-.3-8.9-1.3-12.8-.8-3.1-9.5-8.8-12.8-10.7-.2-.1-.3-.4-.2-.7.1-.2.4-.3.7-.2.5.3 12.2 7.2 13.2 11.3 1 4 1.3 12.7 1.3 13 .1.4-.1.6-.4.6z"/></defs><clipPath id="SVGID_146_"><use xlink:href="#SVGID_145_" overflow="visible"/></clipPath><g clip-path="url(#SVGID_146_)"><defs><path id="SVGID_147_" d="M20 20h200v200H20z"/></defs><clipPath id="SVGID_148_"><use xlink:href="#SVGID_147_" overflow="visible"/></clipPath><path clip-path="url(#SVGID_148_)" fill="#a5b2ba" d="M144.4 149.8h25.3v34.9h-25.3z"/></g></g><g class="st3"><defs><path id="SVGID_149_" d="M63.8 167c-.1 0-.1 0 0 0-21.8-2.8-39.8-1.9-40-1.9-.3 0-.5-.2-.5-.5s.2-.5.5-.5c.2 0 18.3-1 40.1 1.9.3 0 .5.3.4.6-.1.2-.3.4-.5.4"/></defs><clipPath id="SVGID_150_"><use xlink:href="#SVGID_149_" overflow="visible"/></clipPath><g clip-path="url(#SVGID_150_)"><defs><path id="SVGID_151_" d="M20 20h200v200H20z"/></defs><clipPath id="SVGID_152_"><use xlink:href="#SVGID_151_" overflow="visible"/></clipPath><path clip-path="url(#SVGID_152_)" fill="#a5b2ba" d="M18.3 159h51v13h-51z"/></g></g><g class="st3"><defs><path id="SVGID_153_" d="M32.3 181.9c-7.5 0-15.3-.2-23.2-.7-.3 0-.5-.3-.5-.5 0-.3.3-.5.5-.5 20.7 1.2 40.7.8 57.6-1.2.3 0 .5.2.6.4 0 .3-.2.5-.4.6-10.5 1.3-22.2 1.9-34.6 1.9"/></defs><clipPath id="SVGID_154_"><use xlink:href="#SVGID_153_" overflow="visible"/></clipPath><g clip-path="url(#SVGID_154_)"><defs><path id="SVGID_155_" d="M20 20h200v200H20z"/></defs><clipPath id="SVGID_156_"><use xlink:href="#SVGID_155_" overflow="visible"/></clipPath><path clip-path="url(#SVGID_156_)" fill="#a5b2ba" d="M3.7 174h68.7v12.9H3.7z"/></g></g><g class="st3"><defs><path id="SVGID_157_" d="M150.3 134.8c-5.1 0-10.1-1.7-14.2-5-9.7-7.8-11.3-22.1-3.5-31.8 1.3-1.7 2.9-3.2 4.7-4.4.2-.2.5-.1.7.1.2.2.1.5-.1.7-1.7 1.2-3.2 2.6-4.5 4.2-7.5 9.3-5.9 23 3.4 30.4 4.8 3.8 11 5.4 17.1 4.4.3 0 .5.1.6.4 0 .3-.1.5-.4.6-1.3.3-2.6.4-3.8.4"/></defs><clipPath id="SVGID_158_"><use xlink:href="#SVGID_157_" overflow="visible"/></clipPath><g clip-path="url(#SVGID_158_)"><defs><path id="SVGID_159_" d="M20 20h200v200H20z"/></defs><clipPath id="SVGID_160_"><use xlink:href="#SVGID_159_" overflow="visible"/></clipPath><path clip-path="url(#SVGID_160_)" fill="#3c515b" d="M122.7 88.5h36.8v51.3h-36.8z"/></g></g><g class="st3"><defs><path id="SVGID_161_" d="M148.2 108.6c-.4.5-1.1.7-1.6.3-.5-.4-.7-1.1-.3-1.6.4-.5 1.1-.7 1.6-.3.5.3.7 1.1.3 1.6"/></defs><clipPath id="SVGID_162_"><use xlink:href="#SVGID_161_" overflow="visible"/></clipPath><g clip-path="url(#SVGID_162_)"><defs><path id="SVGID_163_" d="M20 20h200v200H20z"/></defs><clipPath id="SVGID_164_"><use xlink:href="#SVGID_163_" overflow="visible"/></clipPath><path clip-path="url(#SVGID_164_)" fill="#3c515b" d="M141.1 101.8h12.3v12.3h-12.3z"/></g></g><g class="st3"><defs><path id="SVGID_165_" d="M136.3 103.8c-.4.5-1.1.7-1.6.3-.5-.4-.7-1.1-.3-1.6.4-.5 1.1-.7 1.6-.3.6.4.7 1.1.3 1.6"/></defs><clipPath id="SVGID_166_"><use xlink:href="#SVGID_165_" overflow="visible"/></clipPath><g clip-path="url(#SVGID_166_)"><defs><path id="SVGID_167_" d="M20 20h200v200H20z"/></defs><clipPath id="SVGID_168_"><use xlink:href="#SVGID_167_" overflow="visible"/></clipPath><path clip-path="url(#SVGID_168_)" fill="#3c515b" d="M129.2 97h12.3v12.3h-12.3z"/></g></g><g class="st3"><defs><path id="SVGID_169_" d="M158.1 129.9c-.7 0-1.5-.2-2.2-.5-1.3-.6-2.4-1.6-2.9-3-.1-.3 0-.5.3-.6.3-.1.5 0 .6.3.9 2.3 3.5 3.4 5.8 2.5 1.1-.4 2-1.3 2.4-2.4.5-1.1.5-2.3.1-3.4s-1.3-2-2.4-2.4c-1.1-.5-2.3-.5-3.4-.1-.3.1-.5 0-.6-.3-.1-.3 0-.5.3-.6 1.4-.5 2.8-.5 4.2.1 1.3.6 2.4 1.6 2.9 3s.5 2.8-.1 4.2c-.6 1.3-1.6 2.4-3 2.9-.6.2-1.3.3-2 .3"/></defs><clipPath id="SVGID_170_"><use xlink:href="#SVGID_169_" overflow="visible"/></clipPath><g clip-path="url(#SVGID_170_)"><defs><path id="SVGID_171_" d="M20 20h200v200H20z"/></defs><clipPath id="SVGID_172_"><use xlink:href="#SVGID_171_" overflow="visible"/></clipPath><path clip-path="url(#SVGID_172_)" fill="#3c515b" d="M148 114h20.5v20.9H148z"/></g></g><g class="st3"><defs><path id="SVGID_173_" d="M156.1 125.9h-.2c-.3-.1-.4-.4-.3-.6.4-1.2 1-1.9 1.8-2.3 1.1-.4 2.2.1 2.6.3.2.1.3.4.2.7-.1.2-.4.3-.7.2-.2-.1-1-.5-1.8-.2-.5.2-.9.8-1.2 1.6.1.2-.1.3-.4.3"/></defs><clipPath id="SVGID_174_"><use xlink:href="#SVGID_173_" overflow="visible"/></clipPath><g clip-path="url(#SVGID_174_)"><defs><path id="SVGID_175_" d="M20 20h200v200H20z"/></defs><clipPath id="SVGID_176_"><use xlink:href="#SVGID_175_" overflow="visible"/></clipPath><path clip-path="url(#SVGID_176_)" fill="#3c515b" d="M150.6 117.9h14.7V131h-14.7z"/></g></g><g class="st3"><defs><path id="SVGID_177_" d="M158.7 125.9c-.1 0-.3-.1-.4-.2l-.1-.1c-.2-.2-.6-.7-1.6-.3-.3.1-.5 0-.7-.3-.1-.3 0-.5.3-.7 1.1-.5 2.1-.3 2.8.6.2.2.2.5 0 .7 0 .3-.2.3-.3.3"/></defs><clipPath id="SVGID_178_"><use xlink:href="#SVGID_177_" overflow="visible"/></clipPath><g clip-path="url(#SVGID_178_)"><defs><path id="SVGID_179_" d="M20 20h200v200H20z"/></defs><clipPath id="SVGID_180_"><use xlink:href="#SVGID_179_" overflow="visible"/></clipPath><path clip-path="url(#SVGID_180_)" fill="#3c515b" d="M151 119.2h13.2v11.7H151z"/></g></g><g class="st3"><defs><path id="SVGID_181_" d="M169.5 112c-.4 0-10.2-.5-13.7-4.2-1.6-1.7-2.7-3.5-3.8-5.2-1.8-2.8-3.3-5.2-6.3-6.5-5.7-2.4-10.8-1.4-10.9-1.4-.3.1-.5-.1-.6-.4-.1-.3.1-.5.4-.6.2 0 5.5-1.1 11.5 1.4 3.3 1.4 5 4.1 6.8 6.9 1.1 1.7 2.2 3.4 3.7 5.1 3.2 3.4 12.9 3.9 13 3.9.3 0 .5.2.5.5-.1.3-.3.5-.6.5"/></defs><clipPath id="SVGID_182_"><use xlink:href="#SVGID_181_" overflow="visible"/></clipPath><g clip-path="url(#SVGID_182_)"><defs><path id="SVGID_183_" d="M20 20h200v200H20z"/></defs><clipPath id="SVGID_184_"><use xlink:href="#SVGID_183_" overflow="visible"/></clipPath><path clip-path="url(#SVGID_184_)" fill="#3c515b" d="M129.2 88.5H175v28.6h-45.8z"/></g></g><g class="st3"><defs><path id="SVGID_185_" d="M169.5 148.3h-.1c-10-.1-14.8-4.8-15-5-.9-.9-1.6-2.5-1.5-3.8 0-.1.1-3.1 1.1-8.9 0-.3.3-.5.6-.4.3 0 .5.3.4.6-1 5.7-1.1 8.8-1.1 8.8 0 1 .5 2.4 1.2 3 0 0 4.8 4.6 14.4 4.7h.1c3.9 0 9-1.7 9-1.7.8-.3 1.2-1.1 1-1.9-.1-.2-1.8-6-.5-11.7.7-2.9 1.9-5.7 3-8.4 1.8-4.1 3.4-8 3.2-11.9-.5-8.7-6.7-10.4-6.9-10.4-.3-.1-.4-.3-.4-.6.1-.3.3-.4.6-.4.1 0 7.2 1.9 7.7 11.3.2 4.2-1.5 8.2-3.3 12.4-1.1 2.7-2.3 5.4-3 8.2-1.3 5.5.4 11.1.5 11.2.4 1.3-.3 2.7-1.6 3.2-.3 0-5.4 1.7-9.4 1.7"/></defs><clipPath id="SVGID_186_"><use xlink:href="#SVGID_185_" overflow="visible"/></clipPath><g clip-path="url(#SVGID_186_)"><defs><path id="SVGID_187_" d="M20 20h200v200H20z"/></defs><clipPath id="SVGID_188_"><use xlink:href="#SVGID_187_" overflow="visible"/></clipPath><path clip-path="url(#SVGID_188_)" fill="#3c515b" d="M147.8 95.2h43.5v58.1h-43.5z"/></g></g><g class="st3"><defs><path id="SVGID_189_" d="M159.5 119.9c-.1 0-.2 0-.3-.1-.2-.1-.3-.5-.2-.7 2.9-4.5 6.6-8.1 6.6-8.2.2-.2.5-.2.7 0 .2.2.2.5 0 .7 0 0-3.7 3.6-6.5 8 0 .2-.1.3-.3.3"/></defs><clipPath id="SVGID_190_"><use xlink:href="#SVGID_189_" overflow="visible"/></clipPath><g clip-path="url(#SVGID_190_)"><defs><path id="SVGID_191_" d="M20 20h200v200H20z"/></defs><clipPath id="SVGID_192_"><use xlink:href="#SVGID_191_" overflow="visible"/></clipPath><path clip-path="url(#SVGID_192_)" fill="#3c515b" d="M154 105.8h17.6v19.1H154z"/></g></g><g class="st3"><defs><path id="SVGID_193_" d="M129.6 130.5h-.1c-9.6-3-14.9-12.9-15.1-13.3-.3-.6-.4-1.3-.1-1.8.3-.6.8-1 1.4-1.1 0 0 2.9-.7 6.1-3.6 3.9-3.5 5.6-7.5 7.2-11.4.8-2 1.6-3.9 2.7-5.8 6.1-10.1 19.1-14.1 31.7-9.8 14.3 4.9 16.7 17.1 16.7 17.3 0 .3-.1.5-.4.6-.3 0-.5-.1-.6-.4 0-.1-2.3-11.8-16-16.5-12.2-4.1-24.7-.3-30.5 9.4-1.1 1.8-1.8 3.6-2.7 5.6-1.7 4-3.4 8.1-7.4 11.7-3.4 3.1-6.4 3.8-6.5 3.8-.4.1-.6.3-.8.6-.1.3-.1.6.1.9.1.1 5.3 10 14.5 12.9.3.1.4.4.3.6-.1.2-.3.3-.5.3"/></defs><clipPath id="SVGID_194_"><use xlink:href="#SVGID_193_" overflow="visible"/></clipPath><g clip-path="url(#SVGID_194_)"><defs><path id="SVGID_195_" d="M20 20h200v200H20z"/></defs><clipPath id="SVGID_196_"><use xlink:href="#SVGID_195_" overflow="visible"/></clipPath><path clip-path="url(#SVGID_196_)" fill="#3c515b" d="M109.1 77h76v58.5h-76z"/></g></g><g class="st3"><defs><path id="SVGID_197_" d="M129.7 142.2c-2.5 0-4.3-.5-5.2-1.3-.6-.5-.9-1.3-.9-2.2 0-1.7 1.2-3.7 2.9-5.1.2-.2.5-.2.7.1.2.2.2.5-.1.7-1.5 1.3-2.5 3-2.5 4.4 0 .6.2 1.1.6 1.4 1.8 1.6 7.6 1.7 15.4-1.2.3-.1.5 0 .6.3.1.3 0 .5-.3.6-4.6 1.7-8.4 2.3-11.2 2.3"/></defs><clipPath id="SVGID_198_"><use xlink:href="#SVGID_197_" overflow="visible"/></clipPath><g clip-path="url(#SVGID_198_)"><defs><path id="SVGID_199_" d="M20 20h200v200H20z"/></defs><clipPath id="SVGID_200_"><use xlink:href="#SVGID_199_" overflow="visible"/></clipPath><path clip-path="url(#SVGID_200_)" fill="#3c515b" d="M118.6 128.5h27.7v18.8h-27.7z"/></g></g><g class="st3"><defs><path id="SVGID_201_" d="M140 139.8c-.3 0-.5-.2-.5-.5 0-.1 0-3.7 3.3-6.1.2-.2.5-.1.7.1.2.2.1.5-.1.7-2.8 2.1-2.9 5.2-2.9 5.3 0 .3-.2.5-.5.5"/></defs><clipPath id="SVGID_202_"><use xlink:href="#SVGID_201_" overflow="visible"/></clipPath><g clip-path="url(#SVGID_202_)"><defs><path id="SVGID_203_" d="M20 20h200v200H20z"/></defs><clipPath id="SVGID_204_"><use xlink:href="#SVGID_203_" overflow="visible"/></clipPath><path clip-path="url(#SVGID_204_)" fill="#3c515b" d="M134.5 128.1h14.1v16.7h-14.1z"/></g></g><g class="st3"><defs><path id="SVGID_205_" d="M126.4 135.3c-.2 0-.5-.2-.5-.4 0-.3.2-.5.4-.6 1.7-.2 4.8-2.2 7.8-6.1.2-.2.5-.3.7-.1.2.2.3.5.1.7-2.7 3.7-6 6.3-8.5 6.5.1 0 .1 0 0 0"/></defs><clipPath id="SVGID_206_"><use xlink:href="#SVGID_205_" overflow="visible"/></clipPath><g clip-path="url(#SVGID_206_)"><defs><path id="SVGID_207_" d="M20 20h200v200H20z"/></defs><clipPath id="SVGID_208_"><use xlink:href="#SVGID_207_" overflow="visible"/></clipPath><path clip-path="url(#SVGID_208_)" fill="#3c515b" d="M120.9 123H140v17.3h-19.1z"/></g></g><g class="st3"><defs><path id="SVGID_209_" d="M136.3 117.3c-.5 0-.9-.1-1.4-.3-2.4-1.2-2.1-4.3-1.6-5.7 0-.1.2-.3.3-.3.1-.1.3 0 .4.1 0 0 2.3 1.5 5.9 2.9.1.1.2.1.3.3.1.1.1.3 0 .4-.5 1.1-1.4 2.1-2.6 2.5-.5 0-.9.1-1.3.1m-2.2-5.1c-.2 1-.4 3.1 1.3 3.9.5.3 1.2.3 1.9 0s1.3-.8 1.8-1.5c-2.4-1-4.2-1.9-5-2.4"/></defs><clipPath id="SVGID_210_"><use xlink:href="#SVGID_209_" overflow="visible"/></clipPath><g clip-path="url(#SVGID_210_)"><defs><path id="SVGID_211_" d="M20 20h200v200H20z"/></defs><clipPath id="SVGID_212_"><use xlink:href="#SVGID_211_" overflow="visible"/></clipPath><path clip-path="url(#SVGID_212_)" fill="#3c515b" d="M127.9 105.9h17.2v16.4h-17.2z"/></g></g><g class="st3"><defs><path id="SVGID_213_" d="M129.3 145c-2.9 0-5.9-.6-7.7-2.5-.8-.9-1.2-2-1.1-3.4.2-3.3 3.2-7 4.1-7.7 1.3-1 4.3.8 4.9 1.2.2.2.3.5.1.7-.2.2-.5.3-.7.1-1.4-.9-3.2-1.6-3.7-1.3-.7.5-3.5 4-3.7 7-.1 1.1.2 1.9.8 2.6 2.6 2.7 7.8 2.3 10.7 1.9 5.2-.8 9.6-2.7 10-3.5.1-.1.1-.3 0-.4-.3-.7-1.7-1.5-2.6-1.8-.3-.1-.4-.4-.3-.6.1-.3.4-.4.6-.3.3.1 2.7 1.1 3.2 2.4.2.4.1.8-.1 1.2-.7 1.4-5.9 3.3-10.7 4-1.1.2-2.5.4-3.8.4"/></defs><clipPath id="SVGID_214_"><use xlink:href="#SVGID_213_" overflow="visible"/></clipPath><g clip-path="url(#SVGID_214_)"><defs><path id="SVGID_215_" d="M20 20h200v200H20z"/></defs><clipPath id="SVGID_216_"><use xlink:href="#SVGID_215_" overflow="visible"/></clipPath><path clip-path="url(#SVGID_216_)" fill="#3c515b" d="M115.5 126.1h33.6V150h-33.6z"/></g></g><g class="st3"><defs><path id="SVGID_217_" d="M12.4 167.3c-1.8 0-3.7-.1-5.2-.2-.3 0-.5-.3-.5-.5 0-.3.3-.5.5-.5 5.2.5 11.9 0 12.6-.4.6-.4 1.4-1.6 1.5-2.5 0-.3 0-.6-.1-.9-.2-.2-.1-.5.1-.7.2-.2.5-.1.7.1.3.4.4 1 .3 1.6-.2 1.3-1.1 2.6-1.9 3.2-.6.6-4.3.8-8 .8"/></defs><clipPath id="SVGID_218_"><use xlink:href="#SVGID_217_" overflow="visible"/></clipPath><g clip-path="url(#SVGID_218_)"><defs><path id="SVGID_219_" d="M20 20h200v200H20z"/></defs><clipPath id="SVGID_220_"><use xlink:href="#SVGID_219_" overflow="visible"/></clipPath><path clip-path="url(#SVGID_220_)" fill="#3c515b" d="M1.8 156.5h25.7v15.8H1.8z"/></g></g><g class="st3"><defs><path id="SVGID_221_" d="M73.7 167.1c-3 0-6.2-.3-8.5-1.2-6.6-2.6-13.9-13.4-18.7-20.5-2.1-3.1-4.3-6.3-5-6.6-1.7.8-12.4 14.7-18.9 23.3-.1.1-.3.2-.5.2-4.5-.6-8.7-4.4-8.8-4.6-.2-.2-.2-.4-.1-.6.8-1.2 18.9-31.1 27.9-31.1 5.1 0 12.6 7.3 19.9 14.3 5.8 5.7 11.4 11 14.2 11 .3 0 .5.2.5.5s-.2.5-.5.5c-3.3 0-8.7-5.2-14.9-11.3-6.8-6.6-14.5-14.1-19.2-14.1-3.5 0-9.2 5.3-16.7 15.2-5 6.7-9.2 13.4-10.2 15 1 .8 4.3 3.4 7.7 4 6.7-8.9 17.9-23.5 19.6-23.5 1 .1 2.5 2.2 5.8 7.1 4.8 7 11.9 17.6 18.3 20.1 5.4 2.2 16.4.5 16.5.5.3 0 .5.1.6.4 0 .3-.1.5-.4.6-.3.2-4.3.8-8.6.8"/></defs><clipPath id="SVGID_222_"><use xlink:href="#SVGID_221_" overflow="visible"/></clipPath><g clip-path="url(#SVGID_222_)"><defs><path id="SVGID_223_" d="M20 20h200v200H20z"/></defs><clipPath id="SVGID_224_"><use xlink:href="#SVGID_223_" overflow="visible"/></clipPath><path clip-path="url(#SVGID_224_)" fill="#3c515b" d="M8.1 121h79.5v51H8.1z"/></g></g><g class="st3"><defs><path id="SVGID_225_" d="M82.1 167.1c-.1 0-.2 0-.3-.1-.2-.1-.3-.5-.2-.7 1.8-2.9 1.2-9.2 0-14-1.7-6.8-4.4-7.6-4.4-7.6-.3-.1-.4-.3-.4-.6.1-.3.3-.4.6-.4.1 0 3.3.8 5.1 8.4.6 2.4 2.4 10.7-.2 14.8.1.2-.1.2-.2.2"/></defs><clipPath id="SVGID_226_"><use xlink:href="#SVGID_225_" overflow="visible"/></clipPath><g clip-path="url(#SVGID_226_)"><defs><path id="SVGID_227_" d="M20 20h200v200H20z"/></defs><clipPath id="SVGID_228_"><use xlink:href="#SVGID_227_" overflow="visible"/></clipPath><path clip-path="url(#SVGID_228_)" fill="#3c515b" d="M71.9 138.8h16.9v33.4H71.9z"/></g></g><g class="st3"><defs><path id="SVGID_229_" d="M91.6 169.8c-7 0-11-.8-12.2-2.4-.4-.6-.3-1.1-.2-1.2.1-.3.4-.4.6-.3.2.1.4.4.3.6 0 0 0 .2.2.3.5.6 2.7 2 11.7 1.9 8.2 0 16.8-2 22.6-3.7.3-.1.5.1.6.3.1.3-.1.5-.3.6-5.9 1.7-14.6 3.7-22.9 3.7-.1.2-.2.2-.4.2"/></defs><clipPath id="SVGID_230_"><use xlink:href="#SVGID_229_" overflow="visible"/></clipPath><g clip-path="url(#SVGID_230_)"><defs><path id="SVGID_231_" d="M20 20h200v200H20z"/></defs><clipPath id="SVGID_232_"><use xlink:href="#SVGID_231_" overflow="visible"/></clipPath><path clip-path="url(#SVGID_232_)" fill="#3c515b" d="M74.2 160.1h46.1v14.7H74.2z"/></g></g><g class="st3"><defs><path id="SVGID_233_" d="M55.1 158.8h-.2s-2.8-1.3-6.4-1.8c-5.8-.8-19-1.7-19.2-1.7-.3 0-.5-.3-.5-.5 0-.3.3-.5.5-.5.1 0 13.4.9 19.2 1.7 3.7.5 6.5 1.8 6.6 1.9.2.1.4.4.2.7.2.1 0 .2-.2.2"/></defs><clipPath id="SVGID_234_"><use xlink:href="#SVGID_233_" overflow="visible"/></clipPath><g clip-path="url(#SVGID_234_)"><defs><path id="SVGID_235_" d="M20 20h200v200H20z"/></defs><clipPath id="SVGID_236_"><use xlink:href="#SVGID_235_" overflow="visible"/></clipPath><path clip-path="url(#SVGID_236_)" fill="#3c515b" d="M23.9 149.3h36.7v14.5H23.9z"/></g></g><g class="st3"><defs><path id="SVGID_237_" d="M77.9 145.3c-1.4-.1-3.4-.1-5.4-.2-2-.1-4.1-.1-5.4-.2-.3 0-.5-.2-.5-.5s.2-.5.5-.5c1.4.1 3.4.1 5.4.2 2 .1 4 .1 5.4.2.3 0 .5.2.5.5s-.3.5-.5.5"/></defs><clipPath id="SVGID_238_"><use xlink:href="#SVGID_237_" overflow="visible"/></clipPath><g clip-path="url(#SVGID_238_)"><defs><path id="SVGID_239_" d="M20 20h200v200H20z"/></defs><clipPath id="SVGID_240_"><use xlink:href="#SVGID_239_" overflow="visible"/></clipPath><path clip-path="url(#SVGID_240_)" fill="#3c515b" d="M61.5 138.9h21.8v11.4H61.5z"/></g></g><g class="st3"><defs><path id="SVGID_241_" d="M43.4 143.4c-1.4-.1-2.8-.1-4.1-.2-.3 0-.5-.2-.5-.5s.3-.5.5-.5c1.4.1 2.7.1 4.1.2.3 0 .5.2.5.5s-.2.5-.5.5"/></defs><clipPath id="SVGID_242_"><use xlink:href="#SVGID_241_" overflow="visible"/></clipPath><g clip-path="url(#SVGID_242_)"><defs><path id="SVGID_243_" d="M20 20h200v200H20z"/></defs><clipPath id="SVGID_244_"><use xlink:href="#SVGID_243_" overflow="visible"/></clipPath><path clip-path="url(#SVGID_244_)" fill="#3c515b" d="M33.8 137.2h15.1v11.2H33.8z"/></g></g><g class="st3"><defs><path id="SVGID_245_" d="M21.3 142.6l-4.9-.1c-.3 0-.5-.2-.5-.5s.3-.5.5-.5l4.8.1c.3 0 .5.2.5.5.1.3-.2.5-.4.5"/></defs><clipPath id="SVGID_246_"><use xlink:href="#SVGID_245_" overflow="visible"/></clipPath><g clip-path="url(#SVGID_246_)"><defs><path id="SVGID_247_" d="M20 20h200v200H20z"/></defs><clipPath id="SVGID_248_"><use xlink:href="#SVGID_247_" overflow="visible"/></clipPath><path clip-path="url(#SVGID_248_)" fill="#3c515b" d="M10.9 136.4h15.8v11.1H10.9z"/></g></g><g class="st3"><defs><path id="SVGID_249_" d="M76.1 145c-.2 0-.4-.2-.5-.4 0-.1-.2-1.2.4-1.9.2-.2.6-.5 1.3-.5.5 0 1.2.2 2.2.4 2.7.7 7.3 1.7 12.7 1 6.2-.8 7.9-1.8 7.9-1.8.2-.1.5-.1.7.2.1.2.1.5-.2.7-.1 0-1.8 1.1-8.3 1.9-5.6.7-10.3-.4-13.1-1.1-.9-.2-1.6-.4-2-.4-.4 0-.5.1-.5.2-.2.3-.2.9-.2 1 .1.4-.1.6-.4.7"/></defs><clipPath id="SVGID_250_"><use xlink:href="#SVGID_249_" overflow="visible"/></clipPath><g clip-path="url(#SVGID_250_)"><defs><path id="SVGID_251_" d="M20 20h200v200H20z"/></defs><clipPath id="SVGID_252_"><use xlink:href="#SVGID_251_" overflow="visible"/></clipPath><path clip-path="url(#SVGID_252_)" fill="#3c515b" d="M70.5 136.8h35.3V150H70.5z"/></g></g><g class="st3"><defs><path id="SVGID_253_" d="M23.9 159.9c-.1 0-.1 0 0 0-4.8-.8-8.5-4.7-8.7-4.9-.2-.2-.2-.5 0-.7.2-.2.5-.2.7 0 0 0 3.6 3.8 8 4.6.3 0 .5.3.4.6 0 .2-.2.4-.4.4"/></defs><clipPath id="SVGID_254_"><use xlink:href="#SVGID_253_" overflow="visible"/></clipPath><g clip-path="url(#SVGID_254_)"><defs><path id="SVGID_255_" d="M20 20h200v200H20z"/></defs><clipPath id="SVGID_256_"><use xlink:href="#SVGID_255_" overflow="visible"/></clipPath><path clip-path="url(#SVGID_256_)" fill="#3c515b" d="M10.1 149.2h19.3v15.7H10.1z"/></g></g><g class="st3"><defs><path id="SVGID_257_" d="M103.6 130.1c-.1 0-.3-.1-.4-.2-.1-.1-2.3-2.6-2.3-6.9 0-.7 0-2.7-.6-3.2-.1-.1-.3-.2-.6-.1-.3 0-.5.2-.8.6-.6 1-.9 3.4.3 7.1.1.3-.1.5-.3.6-.3.1-.5-.1-.6-.3-1.1-3.4-1.2-6.3-.2-7.9.4-.6.9-1 1.5-1 .5-.1 1 0 1.4.4.9.7 1 2.3 1 3.9 0 3.8 2.1 6.2 2.1 6.2.2.2.2.5 0 .7-.3.1-.4.1-.5.1"/></defs><clipPath id="SVGID_258_"><use xlink:href="#SVGID_257_" overflow="visible"/></clipPath><g clip-path="url(#SVGID_258_)"><defs><path id="SVGID_259_" d="M20 20h200v200H20z"/></defs><clipPath id="SVGID_260_"><use xlink:href="#SVGID_259_" overflow="visible"/></clipPath><path clip-path="url(#SVGID_260_)" fill="#3c515b" d="M92.3 113.8H109v21.4H92.3z"/></g></g><g class="st3"><defs><path id="SVGID_261_" d="M96.1 129c-.2 0-.4-.1-.5-.4 0-.1-1-3.4-.7-5.8.3-2.2 2-2.8 2.9-2.9.3 0 .5.2.5.5s-.2.5-.5.5c-.2 0-1.6.1-1.9 2-.3 2.1.7 5.3.7 5.3.1.3-.1.5-.3.6-.1.2-.2.2-.2.2"/></defs><clipPath id="SVGID_262_"><use xlink:href="#SVGID_261_" overflow="visible"/></clipPath><g clip-path="url(#SVGID_262_)"><defs><path id="SVGID_263_" d="M20 20h200v200H20z"/></defs><clipPath id="SVGID_264_"><use xlink:href="#SVGID_263_" overflow="visible"/></clipPath><path clip-path="url(#SVGID_264_)" fill="#3c515b" d="M89.8 115h13.4v19H89.8z"/></g></g><g class="st3"><defs><path id="SVGID_265_" d="M120 167c-1.3 0-2.4-.1-3.5-.4-6.3-1.7-13-16.4-16.6-24.3-1-2.1-1.7-3.8-2.1-4.4l-.2-.3c-1.8-2.5-4.4-6.3-5.1-10.3-.8-4.4 2.4-5.1 2.4-5.1.3-.1.5.1.6.4.1.3-.1.5-.4.6-.1 0-2.2.6-1.6 4 .6 3.7 3.2 7.4 4.9 9.9l.2.3c.4.6 1.1 2.1 2.2 4.5 3.3 7.2 10.1 22.2 15.9 23.8 7.2 2 21.2-4.1 27.3-9 .2-.2.5-.1.7.1.2.2.1.5-.1.7-5.4 4.4-16.7 9.5-24.6 9.5"/></defs><clipPath id="SVGID_266_"><use xlink:href="#SVGID_265_" overflow="visible"/></clipPath><g clip-path="url(#SVGID_266_)"><defs><path id="SVGID_267_" d="M20 20h200v200H20z"/></defs><clipPath id="SVGID_268_"><use xlink:href="#SVGID_267_" overflow="visible"/></clipPath><path clip-path="url(#SVGID_268_)" fill="#3c515b" d="M87.5 117.2h62.4V172H87.5z"/></g></g><g class="st3"><defs><path id="SVGID_269_" d="M120.6 157.2c-.6 0-1.1-.1-1.4-.3-3.9-2.2-14.1-21.7-14.2-21.9-.3-.9-.2-2.2-.2-3.8.1-1.7.2-3.7-.1-5.4-.1-.3.1-.5.4-.6.3-.1.5.1.6.4.4 1.8.3 3.9.2 5.7-.1 1.4-.2 2.7.1 3.3 3.3 6.3 11 19.9 13.8 21.4 1 .6 4.1.2 12.8-4.9.2-.1.5-.1.7.2.1.2.1.5-.2.7-6.2 3.4-10.2 5.2-12.5 5.2"/></defs><clipPath id="SVGID_270_"><use xlink:href="#SVGID_269_" overflow="visible"/></clipPath><g clip-path="url(#SVGID_270_)"><defs><path id="SVGID_271_" d="M20 20h200v200H20z"/></defs><clipPath id="SVGID_272_"><use xlink:href="#SVGID_271_" overflow="visible"/></clipPath><path clip-path="url(#SVGID_272_)" fill="#3c515b" d="M99.6 120.1h38.6v42H99.6z"/></g></g><g class="st3"><defs><path id="SVGID_273_" d="M78 104.3c-.2 0-.4-.1-.5-.4-.1-.3.1-.5.3-.6.6-.2 1-.5 1-.8 0-.3-.2-.7-.7-1-1.5-.9-3.3-.7-4.4-.2-1 .5-1.7 1.3-1.8 2.1 0 .3-.3.5-.6.4-.3 0-.5-.3-.4-.6.2-1.2 1.1-2.2 2.4-2.9 1.7-.8 3.7-.7 5.3.2.8.5 1.3 1.2 1.2 2-.1.8-.7 1.4-1.7 1.7 0 .1-.1.1-.1.1"/></defs><clipPath id="SVGID_274_"><use xlink:href="#SVGID_273_" overflow="visible"/></clipPath><g clip-path="url(#SVGID_274_)"><defs><path id="SVGID_275_" d="M20 20h200v200H20z"/></defs><clipPath id="SVGID_276_"><use xlink:href="#SVGID_275_" overflow="visible"/></clipPath><path clip-path="url(#SVGID_276_)" fill="#3c515b" d="M65.9 94.9h18.9v14.4H65.9z"/></g></g><g class="st3"><defs><path id="SVGID_277_" d="M70.6 106.9c-.3 0-.5-.2-.5-.5.1-1.3.5-2.3 1.2-3 .9-.8 2.2-1.1 4.1-1 1.8.1 3.3 1.1 3.6 2.4.2.8-.3 1.5-1.2 2-.2.1-.5 0-.7-.2-.1-.2 0-.5.2-.7.5-.2.7-.5.6-.9-.1-.7-1.2-1.5-2.7-1.6-1.5-.1-2.6.1-3.3.7-.6.5-.8 1.2-.9 2.3.1.3-.2.5-.4.5"/></defs><clipPath id="SVGID_278_"><use xlink:href="#SVGID_277_" overflow="visible"/></clipPath><g clip-path="url(#SVGID_278_)"><defs><path id="SVGID_279_" d="M20 20h200v200H20z"/></defs><clipPath id="SVGID_280_"><use xlink:href="#SVGID_279_" overflow="visible"/></clipPath><path clip-path="url(#SVGID_280_)" fill="#3c515b" d="M65.1 97.4H84v14.5H65.1z"/></g></g><g class="st3"><defs><path id="SVGID_281_" d="M71.8 111.4c-.1 0-.2 0-.2-.1-1.4-.7-2.2-1.6-2.3-2.7-.2-1.1.4-2.1 1.1-2.8 1.1-1.1 4-1.5 5.9-.9 1.1.4 1.8 1 1.9 1.9.2 1.1-.2 1.6-.6 2-.8.7-2.2.7-3.3.3-1.4-.4-1.6-.3-2.2.2-.2.2-.5.1-.7-.1-.2-.2-.1-.5.1-.7.9-.8 1.5-.8 3.1-.4 1 .3 1.9.2 2.3-.1.1-.1.4-.3.2-1.1-.1-.6-.7-.9-1.2-1.1-1.6-.5-4.1-.2-4.9.7-.4.4-.9 1.2-.8 1.9.1.7.7 1.4 1.8 1.9.2.1.3.4.2.7 0 .3-.2.4-.4.4"/></defs><clipPath id="SVGID_282_"><use xlink:href="#SVGID_281_" overflow="visible"/></clipPath><g clip-path="url(#SVGID_282_)"><defs><path id="SVGID_283_" d="M20 20h200v200H20z"/></defs><clipPath id="SVGID_284_"><use xlink:href="#SVGID_283_" overflow="visible"/></clipPath><path clip-path="url(#SVGID_284_)" fill="#3c515b" d="M64.3 99.8h19v16.7h-19z"/></g></g><g class="st3"><defs><path id="SVGID_285_" d="M92.9 127.8c-.1 0-.2 0-.3-.1l-19.8-14.8c-1.1-.8-1.5-2.4-1.1-3.6l.2-.6c.1-.3.4-.4.6-.3.3.1.4.4.3.6l-.2.6c-.3.8 0 2 .7 2.5l19.8 14.8c.2.2.3.5.1.7 0 .1-.2.2-.3.2"/></defs><clipPath id="SVGID_286_"><use xlink:href="#SVGID_285_" overflow="visible"/></clipPath><g clip-path="url(#SVGID_286_)"><defs><path id="SVGID_287_" d="M20 20h200v200H20z"/></defs><clipPath id="SVGID_288_"><use xlink:href="#SVGID_287_" overflow="visible"/></clipPath><path clip-path="url(#SVGID_288_)" fill="#3c515b" d="M66.5 103.3h31.8v29.4H66.5z"/></g></g><g class="st3"><defs><path id="SVGID_289_" d="M102.4 127.8h-.2c-.3-.1-.4-.4-.3-.7l10.8-25.1c.3-.8 0-1.7-.8-2L82.6 86.4c-.4-.2-.7-.2-1.1 0-.3.1-.6.4-.7.8l-4.7 13c-.1.3-.4.4-.6.3-.3-.1-.4-.4-.3-.6l4.7-13c.2-.6.7-1.1 1.3-1.4.6-.3 1.3-.2 1.9 0l29.4 13.6c1.2.6 1.8 2.1 1.3 3.3L103 127.5c-.2.2-.4.3-.6.3"/></defs><clipPath id="SVGID_290_"><use xlink:href="#SVGID_289_" overflow="visible"/></clipPath><g clip-path="url(#SVGID_290_)"><defs><path id="SVGID_291_" d="M20 20h200v200H20z"/></defs><clipPath id="SVGID_292_"><use xlink:href="#SVGID_291_" overflow="visible"/></clipPath><path clip-path="url(#SVGID_292_)" fill="#3c515b" d="M70.1 80.3h48.8v52.5H70.1z"/></g></g><g class="st3"><defs><path id="SVGID_293_" d="M103.4 129.6h-.2c-.3-.1-.4-.4-.3-.7l11.5-26.1c.3-.8 0-1.7-.8-2l-3.2-1.5c-.2-.1-.4-.4-.2-.7.1-.3.4-.4.7-.2l3.2 1.5c1.2.6 1.8 2.1 1.3 3.3l-11.5 26.1c-.1.1-.3.3-.5.3"/></defs><clipPath id="SVGID_294_"><use xlink:href="#SVGID_293_" overflow="visible"/></clipPath><g clip-path="url(#SVGID_294_)"><defs><path id="SVGID_295_" d="M20 20h200v200H20z"/></defs><clipPath id="SVGID_296_"><use xlink:href="#SVGID_295_" overflow="visible"/></clipPath><path clip-path="url(#SVGID_296_)" fill="#3c515b" d="M97.9 93.3h22.7v41.2H97.9z"/></g></g><g class="st3"><defs><path id="SVGID_297_" d="M89.1 108.2c-.3 0-.5 0-.8-.1-.8-.3-1.5-.9-1.8-1.8-.3-.9-.3-1.9 0-2.9s.9-1.8 1.7-2.4c.8-.6 1.7-.7 2.6-.5.8.3 1.5.9 1.8 1.8.3.9.3 1.9 0 2.9-.1.3-.4.4-.6.3-.3-.1-.4-.4-.3-.6.2-.8.2-1.6 0-2.3-.2-.6-.7-1.1-1.2-1.2-.5-.2-1.1-.1-1.7.3-.6.4-1.1 1.1-1.3 1.8s-.2 1.6 0 2.3c.2.6.7 1.1 1.2 1.2.6.2 1.2 0 1.8-.4.2-.2.5-.1.7.1.2.2.1.5-.1.7-.7.6-1.4.8-2 .8"/></defs><clipPath id="SVGID_298_"><use xlink:href="#SVGID_297_" overflow="visible"/></clipPath><g clip-path="url(#SVGID_298_)"><defs><path id="SVGID_299_" d="M20 20h200v200H20z"/></defs><clipPath id="SVGID_300_"><use xlink:href="#SVGID_299_" overflow="visible"/></clipPath><path clip-path="url(#SVGID_300_)" fill="#3c515b" d="M81.2 95.4h16.5v17.8H81.2z"/></g></g><g class="st3"><defs><path id="SVGID_301_" d="M97.8 141.5c-.1 0-.2 0-.2-.1-.5-.3-11.7-6.6-13.2-8-1.8-1.7-8.9-17.3-9.7-19-.1-.3 0-.5.2-.7.3-.1.5 0 .7.2 2.2 4.8 8.1 17.4 9.5 18.7 1.2 1.1 9.8 6 13 7.8.2.1.3.4.2.7-.2.3-.4.4-.5.4"/></defs><clipPath id="SVGID_302_"><use xlink:href="#SVGID_301_" overflow="visible"/></clipPath><g clip-path="url(#SVGID_302_)"><defs><path id="SVGID_303_" d="M20 20h200v200H20z"/></defs><clipPath id="SVGID_304_"><use xlink:href="#SVGID_303_" overflow="visible"/></clipPath><path clip-path="url(#SVGID_304_)" fill="#3c515b" d="M69.5 108.7h33.8v37.8H69.5z"/></g></g><g class="st3"><defs><path id="SVGID_305_" d="M109 141.3c-.2 0-.4-.1-.5-.4-.1-.3.1-.5.3-.6 0 0 5-1.5 6.8-3 .2-.2.5-.1.7.1.2.2.1.5-.1.7-2 1.5-6.9 3.1-7.1 3.1 0 .1-.1.1-.1.1"/></defs><clipPath id="SVGID_306_"><use xlink:href="#SVGID_305_" overflow="visible"/></clipPath><g clip-path="url(#SVGID_306_)"><defs><path id="SVGID_307_" d="M20 20h200v200H20z"/></defs><clipPath id="SVGID_308_"><use xlink:href="#SVGID_307_" overflow="visible"/></clipPath><path clip-path="url(#SVGID_308_)" fill="#3c515b" d="M103.5 132.3h18v14h-18z"/></g></g><g class="st3"><defs><path id="SVGID_309_" d="M109.3 132.6c-1.5 0-2.5-.1-2.5-.1-.3 0-.5-.3-.4-.6 0-.3.3-.5.6-.4 0 0 2.9.3 7-.2.3 0 .5.2.6.4 0 .3-.2.5-.4.6-2.1.2-3.7.3-4.9.3"/></defs><clipPath id="SVGID_310_"><use xlink:href="#SVGID_309_" overflow="visible"/></clipPath><g clip-path="url(#SVGID_310_)"><defs><path id="SVGID_311_" d="M20 20h200v200H20z"/></defs><clipPath id="SVGID_312_"><use xlink:href="#SVGID_311_" overflow="visible"/></clipPath><path clip-path="url(#SVGID_312_)" fill="#3c515b" d="M101.3 126.2h18.1v11.3h-18.1z"/></g></g><g class="st3"><defs><path id="SVGID_313_" d="M144.9 158.2c-.1 0-.3-.1-.4-.2-4.3-5.7-12.4-6.1-12.5-6.1-.3 0-.5-.2-.5-.5s.2-.5.5-.5c.4 0 8.7.5 13.3 6.5.2.2.1.5-.1.7-.1.1-.2.1-.3.1"/></defs><clipPath id="SVGID_314_"><use xlink:href="#SVGID_313_" overflow="visible"/></clipPath><g clip-path="url(#SVGID_314_)"><defs><path id="SVGID_315_" d="M20 20h200v200H20z"/></defs><clipPath id="SVGID_316_"><use xlink:href="#SVGID_315_" overflow="visible"/></clipPath><path clip-path="url(#SVGID_316_)" fill="#3c515b" d="M126.5 145.9h23.9v17.3h-23.9z"/></g></g><g class="st3"><defs><path id="SVGID_317_" d="M144.9 159.5c-1.2 0-2.1-.8-2.2-.8-.2-.2-.2-.5 0-.7.2-.2.5-.2.7 0 0 0 .8.7 1.8.6.7-.1 1.3-.6 1.8-1.5 1.9-3.4 1.6-7.9 1.6-7.9 0-1.9-.7-3.5-2.1-4.9-1.4-1.4-3.7-2.6-3.7-2.7-.2-.1-.3-.4-.2-.7.1-.2.4-.3.7-.2.1.1 2.4 1.3 3.9 2.8 1.5 1.6 2.3 3.5 2.3 5.6 0 .2.3 4.8-1.8 8.5-.7 1.2-1.5 1.9-2.5 2 0-.1-.2-.1-.3-.1"/></defs><clipPath id="SVGID_318_"><use xlink:href="#SVGID_317_" overflow="visible"/></clipPath><g clip-path="url(#SVGID_318_)"><defs><path id="SVGID_319_" d="M20 20h200v200H20z"/></defs><clipPath id="SVGID_320_"><use xlink:href="#SVGID_319_" overflow="visible"/></clipPath><path clip-path="url(#SVGID_320_)" fill="#3c515b" d="M137.6 135.5h17v29h-17z"/></g></g><g class="st3"><defs><path id="SVGID_321_" d="M114.4 139.2c-.4-.1-.5-.3-.5-.6.9-4.8-1-7.5-1-7.5-.2-.2-.1-.5.1-.7.2-.2.5-.1.7.1.1.1 2.1 3.1 1.1 8.3.1.2-.1.4-.4.4"/></defs><clipPath id="SVGID_322_"><use xlink:href="#SVGID_321_" overflow="visible"/></clipPath><g clip-path="url(#SVGID_322_)"><defs><path id="SVGID_323_" d="M20 20h200v200H20z"/></defs><clipPath id="SVGID_324_"><use xlink:href="#SVGID_323_" overflow="visible"/></clipPath><path clip-path="url(#SVGID_324_)" fill="#3c515b" d="M107.9 125.3h12.3v18.9h-12.3z"/></g></g><g class="st3"><defs><path id="SVGID_325_" d="M111.9 132.4c-.2 0-.4-.1-.5-.4 0-.1-.4-1.4.3-2.4.4-.6 1.1-1 2.1-1.1 2.6-.2 8 0 11.4 2.4.2.2.3.5.1.7-.2.2-.5.3-.7.1-3.2-2.2-8.2-2.4-10.8-2.2-.7.1-1.1.3-1.4.6-.4.6-.2 1.6-.2 1.6.1.3-.1.5-.3.6.1.1.1.1 0 .1"/></defs><clipPath id="SVGID_326_"><use xlink:href="#SVGID_325_" overflow="visible"/></clipPath><g clip-path="url(#SVGID_326_)"><defs><path id="SVGID_327_" d="M20 20h200v200H20z"/></defs><clipPath id="SVGID_328_"><use xlink:href="#SVGID_327_" overflow="visible"/></clipPath><path clip-path="url(#SVGID_328_)" fill="#3c515b" d="M106.3 123.5h24.1v13.9h-24.1z"/></g></g><g class="st3"><defs><path id="SVGID_329_" d="M138.2 110.4c-1 0-2-.7-2.1-1.8-.2-1.2.6-2.3 1.7-2.6.8-.1 1.5.1 2.1.7.2.2.2.5 0 .7-.2.2-.5.2-.7 0-.3-.3-.7-.5-1.1-.4-.6.1-1.1.7-.9 1.4.1.6.7 1.1 1.4.9.3 0 .5.1.6.4.1.3-.1.5-.4.6-.3.1-.4.1-.6.1"/></defs><clipPath id="SVGID_330_"><use xlink:href="#SVGID_329_" overflow="visible"/></clipPath><g clip-path="url(#SVGID_330_)"><defs><path id="SVGID_331_" d="M20 20h200v200H20z"/></defs><clipPath id="SVGID_332_"><use xlink:href="#SVGID_331_" overflow="visible"/></clipPath><path clip-path="url(#SVGID_332_)" fill="#3c515b" d="M131 101.1h14v14.4h-14z"/></g></g><g class="st3"><defs><circle id="SVGID_333_" cx="120" cy="120" r="100"/></defs><clipPath id="SVGID_334_"><use xlink:href="#SVGID_333_" overflow="visible"/></clipPath><g clip-path="url(#SVGID_334_)"><defs><path id="SVGID_335_" d="M20 20h200v200H20z"/></defs><clipPath id="SVGID_336_"><use xlink:href="#SVGID_335_" overflow="visible"/></clipPath><circle cx="120" cy="120" r="100" clip-path="url(#SVGID_336_)" fill="none" stroke="#a5b2ba" stroke-width="2" stroke-miterlimit="10"/></g></g></g></g><defs><path id="SVGID_337_" d="M103.6 74.8l-.4-.5c-.1-.1-.2-.2-.3-.4-.3-.3-.5-.7-.8-1.1-.9-1.1-1.7-2.3-2.5-3.5-.5-.8-1-1.5-1.4-2.2-.9-1.6-1.6-3-1.8-4-1.1-4.6 1.9-8.6 6.6-7.6 2.2.5 3.5 1.5 4.2 3.1 1.3-1.2 2.9-1.6 5.1-1.1 4.6 1 5.6 5.8 3 9.6-.7 1-1.9 2-3.6 3.2-.6.4-1.3.8-2 1.3-1.2.7-2.4 1.5-3.7 2.1-.4.2-.8.5-1.2.6-.2.1-.4.2-.5.2l-.7.3z"/></defs><clipPath id="SVGID_338_"><use xlink:href="#SVGID_337_" overflow="visible"/></clipPath><g clip-path="url(#SVGID_338_)"><defs><path id="SVGID_339_" d="M0 0h240v240H0z"/></defs><clipPath id="SVGID_340_"><use xlink:href="#SVGID_339_" overflow="visible"/></clipPath><path transform="rotate(-78 105.499 65.624)" clip-path="url(#SVGID_340_)" fill="#fd4974" d="M91.1 50.3h28.8V81H91.1z"/></g><defs><path id="SVGID_341_" d="M114.6 64.2c.7-2.3-.2-4.6-2.5-5.1-.2 0-.5.1-.5.3 0 .2.1.5.3.5 1.8.4 2.4 2.1 1.9 4-.1.2.1.5.3.5.2.2.5.1.5-.2z"/></defs><clipPath id="SVGID_342_"><use xlink:href="#SVGID_341_" overflow="visible"/></clipPath><g clip-path="url(#SVGID_342_)"><defs><path id="SVGID_343_" d="M0 0h240v240H0z"/></defs><clipPath id="SVGID_344_"><use xlink:href="#SVGID_343_" overflow="visible"/></clipPath><path transform="rotate(-78 113.161 61.869)" clip-path="url(#SVGID_344_)" fill="#fff" d="M105.8 54.9h14.8v13.9h-14.8z"/></g><defs><path id="SVGID_345_" d="M113.3 91.4l-.3-.4s-.1-.1-.2-.3c-.2-.2-.3-.4-.5-.7-.5-.7-1.1-1.5-1.6-2.2-.3-.5-.6-.9-.9-1.4-.6-1-1-1.9-1.1-2.5-.7-2.9 1.2-5.4 4.2-4.8 1.4.3 2.2.9 2.6 1.9.8-.8 1.8-1 3.2-.7 2.9.6 3.5 3.7 1.9 6-.4.6-1.2 1.3-2.3 2-.4.3-.8.5-1.2.8-.7.5-1.5.9-2.3 1.3-.3.1-.5.3-.8.4-.1.1-.2.1-.3.1l-.4.5z"/></defs><clipPath id="SVGID_346_"><use xlink:href="#SVGID_345_" overflow="visible"/></clipPath><g clip-path="url(#SVGID_346_)"><defs><path id="SVGID_347_" d="M0 0h240v240H0z"/></defs><clipPath id="SVGID_348_"><use xlink:href="#SVGID_347_" overflow="visible"/></clipPath><path transform="rotate(-78 114.501 85.58)" clip-path="url(#SVGID_348_)" fill="#fd4974" d="M103.6 74.1h21.8v23h-21.8z"/></g><g><defs><path id="SVGID_349_" d="M120.3 84.7c.4-1.4-.1-2.9-1.6-3.2-.1 0-.3.1-.3.2s.1.3.2.3c1.1.2 1.5 1.3 1.2 2.5 0 .1 0 .3.2.3.1.1.2.1.3-.1z"/></defs><clipPath id="SVGID_350_"><use xlink:href="#SVGID_349_" overflow="visible"/></clipPath><g clip-path="url(#SVGID_350_)"><defs><path id="SVGID_351_" d="M0 0h240v240H0z"/></defs><clipPath id="SVGID_352_"><use xlink:href="#SVGID_351_" overflow="visible"/></clipPath><path transform="rotate(-78 119.326 83.216)" clip-path="url(#SVGID_352_)" fill="#fff" d="M112.8 77h13v12.5h-13z"/></g></g><g><defs><path id="SVGID_353_" d="M129.1 64.1l-.5-.6c-.1-.1-.2-.2-.4-.5-.3-.4-.7-.8-1-1.3-1.1-1.3-2.2-2.7-3.1-4.1-.6-.9-1.2-1.7-1.7-2.6-1.2-1.8-2-3.4-2.3-4.7-1.5-5.4 1.9-10.2 7.5-9.2 2.6.5 4.2 1.6 5.1 3.5 1.4-1.5 3.4-2 6-1.5 5.5 1 6.9 6.6 3.9 11.2-.7 1.2-2.2 2.5-4.2 4-.7.5-1.5 1.1-2.3 1.6-1.4.9-2.8 1.8-4.3 2.7-.5.3-1 .6-1.4.8-.3.1-.4.2-.5.3l-.8.4z"/></defs><clipPath id="SVGID_354_"><use xlink:href="#SVGID_353_" overflow="visible"/></clipPath><g clip-path="url(#SVGID_354_)"><defs><path id="SVGID_355_" d="M0 0h240v240H0z"/></defs><clipPath id="SVGID_356_"><use xlink:href="#SVGID_355_" overflow="visible"/></clipPath><path transform="rotate(-80.003 130.993 53.147)" clip-path="url(#SVGID_356_)" fill="#fd4974" d="M114.9 35.9h32.3v34.5h-32.3z"/></g></g><g><defs><path id="SVGID_357_" d="M141.8 51.1c.7-2.7-.4-5.4-3.2-5.9-.3 0-.5.1-.6.4 0 .3.1.5.4.6 2.1.4 3 2.4 2.4 4.6-.1.3.1.5.4.6s.5 0 .6-.3z"/></defs><clipPath id="SVGID_358_"><use xlink:href="#SVGID_357_" overflow="visible"/></clipPath><g clip-path="url(#SVGID_358_)"><defs><path id="SVGID_359_" d="M0 0h240v240H0z"/></defs><clipPath id="SVGID_360_"><use xlink:href="#SVGID_359_" overflow="visible"/></clipPath><path transform="rotate(-80.003 139.913 48.382)" clip-path="url(#SVGID_360_)" fill="#fff" d="M132.1 41h15.7v14.7h-15.7z"/></g></g><g><defs><path id="SVGID_361_" d="M149.1 32.8l-.5-.8c-.1-.1-.2-.3-.4-.6-.3-.5-.6-1-.9-1.6-1-1.7-1.9-3.5-2.8-5.3-.6-1.1-1-2.2-1.5-3.3-1-2.3-1.6-4.3-1.7-5.8-.6-6.5 4.2-11.3 10.4-9 2.8 1 4.5 2.7 5.1 5 1.9-1.4 4.3-1.6 7.1-.5 6.1 2.2 6.5 8.9 2.2 13.6-1.1 1.2-3 2.4-5.5 3.7-.9.5-1.9.9-2.9 1.4-1.7.8-3.6 1.5-5.4 2.2-.6.2-1.2.5-1.8.6-.3.1-.5.2-.7.2l-.7.2z"/></defs><clipPath id="SVGID_362_"><use xlink:href="#SVGID_361_" overflow="visible"/></clipPath><g clip-path="url(#SVGID_362_)"><defs><path id="SVGID_363_" d="M0 0h240v240H0z"/></defs><clipPath id="SVGID_364_"><use xlink:href="#SVGID_363_" overflow="visible"/></clipPath><path transform="rotate(-70.001 153.466 20.664)" clip-path="url(#SVGID_364_)" fill="#fd4974" d="M135.6 1.5h35.8v38.4h-35.8z"/></g></g><g><defs><path id="SVGID_365_" d="M166.1 20.5c1.4-3 .7-6.2-2.4-7.3-.3-.1-.6 0-.7.3-.1.3 0 .6.3.7 2.4.9 2.9 3.3 1.8 5.8-.1.3 0 .6.3.8.3.2.6 0 .7-.3z"/></defs><clipPath id="SVGID_366_"><use xlink:href="#SVGID_365_" overflow="visible"/></clipPath><g clip-path="url(#SVGID_366_)"><defs><path id="SVGID_367_" d="M0 0h240v240H0z"/></defs><clipPath id="SVGID_368_"><use xlink:href="#SVGID_367_" overflow="visible"/></clipPath><path transform="rotate(-70.001 164.579 17.03)" clip-path="url(#SVGID_368_)" fill="#fff" d="M156.3 9.3h16.6v15.4h-16.6z"/></g></g><g><defs><path id="SVGID_369_" d="M115.2 37.6l-.6-.7c-.1-.1-.2-.3-.4-.5-.3-.4-.7-.9-1.1-1.4-1.2-1.5-2.3-3-3.4-4.5-.7-1-1.3-1.9-1.9-2.8-1.2-2-2.1-3.8-2.5-5.2-1.5-6 2.3-11.2 8.4-10 2.8.5 4.6 1.8 5.5 3.9 1.6-1.6 3.7-2.1 6.6-1.5 6 1.2 7.4 7.4 4.1 12.3-.8 1.2-2.4 2.7-4.6 4.3-.8.6-1.6 1.1-2.5 1.7-1.5 1-3.1 1.9-4.7 2.9-.6.3-1.1.6-1.5.9-.3.2-.5.3-.6.3l-.8.3z"/></defs><clipPath id="SVGID_370_"><use xlink:href="#SVGID_369_" overflow="visible"/></clipPath><g clip-path="url(#SVGID_370_)"><defs><path id="SVGID_371_" d="M0 0h240v240H0z"/></defs><clipPath id="SVGID_372_"><use xlink:href="#SVGID_371_" overflow="visible"/></clipPath><path transform="rotate(-79 117.497 25.657)" clip-path="url(#SVGID_372_)" fill="#fd4974" d="M100.3 7.2h34.4V44h-34.4z"/></g></g><g><defs><path id="SVGID_373_" d="M129.3 23.7c.9-3-.3-5.9-3.4-6.5-.3-.1-.6.1-.6.4-.1.3.1.6.4.6 2.3.5 3.2 2.7 2.5 5.1-.1.3.1.6.4.7.3.1.6 0 .7-.3z"/></defs><clipPath id="SVGID_374_"><use xlink:href="#SVGID_373_" overflow="visible"/></clipPath><g clip-path="url(#SVGID_374_)"><defs><path id="SVGID_375_" d="M0 0h240v240H0z"/></defs><clipPath id="SVGID_376_"><use xlink:href="#SVGID_375_" overflow="visible"/></clipPath><path transform="rotate(-79 127.343 20.617)" clip-path="url(#SVGID_376_)" fill="#fff" d="M119.2 13.1h16.2v15.1h-16.2z"/></g></g></svg>