<svg width="209" height="163" viewBox="0 0 209 163" xmlns="http://www.w3.org/2000/svg"><title>Illustration</title><g fill="none" fill-rule="evenodd"><path d="M88.03 119.518c-.143-.713-.64-1.044-1.187-1.08-.878-.64-2.455-.263-2.426 1.145.082 4.03.292 7.96.297 11.916-.322 2.457-.562 4.897-.293 7.272l-.003.06h.01c.016.133.024.267.043.4.256 1.79 2.803 1.157 2.947-.4.188-2.048.264-4.07.285-6.083.132-.932.26-1.84.313-2.667.225-3.414.69-7.183.015-10.565M172.65 157.027c-1.858-3.3-13.668-3.21-25.482-1.728-7.54.944-33.002 3.115-42.02 3.227-10.124.125-29.672-1.51-40.5-2.625-8.5-.875-26.124-2.625-24.666 1.583 1.906 5.5 46.045 4.213 58.816 4.094 13.375-.126 28.042-.21 41.042.54 9.355.54 35.06-1.093 32.81-5.093M76.55 61.24s2.104 5.69 8.45 4.593c6.654-1.15 5.487-6.272 5.487-6.272s2.265 6.11-1.6 8.817c-2.403 1.684-8.012 1.16-8.512 1.155-.5-.006-2.983-1.534-3.228-1.953-.246-.42-2.527-5.113-2.527-5.113l1.93-1.228" fill="#DFE8EE"/><path d="M85.96 47.176s3.023 1.923 1.782 4.52c-1.11 2.322-3.448 2.712-6.267 1.43-3.314-1.506-8.53-4.68-14.39-2.494-6.148 2.293-4.034 13.53-5.955 18.35-2.315 5.81-10.77 1.63-10.77 1.63s4.028 5.046 8.793 3.766c4.764-1.28 6.415-7.262 6.42-7.845.008-.584.736-6.076.736-6.076l2.13-4.393 2.773-1.886s8.064 1.757 8.396 1.844c.332.088 6.565 1.574 7.827.505 1.263-1.07 3.115-2.8 3.457-3.545.342-.746.29-3.58.29-3.58l-1.39-2.433-3.835.206M111.243 94.35c-1.227.768-2.395.857-3.805.733-1.937-.17-2.944-1.22-4.315-2.435-.582-.516-1.273-.474-1.798-.163-4.17-4.667-6.145-12.55-10.515-16.337-1.454-1.26-3.585.852-2.12 2.12 6.487 5.624 7.69 19.415 17.81 20.128 1.65.116 4.774-.528 6.257-1.455 1.636-1.022.132-3.618-1.514-2.59M77.625 74.958c-5.382.152-7.54 5.08-10.123 9.118-2.127 3.326-4.37 6.69-6.94 9.685-2.51 2.926-5.724 3.964-9.21 5.127-1.827.61-1.044 3.506.797 2.893 5.385-1.795 8.925-3.702 12.49-8.292 1.648-2.125 3.11-4.412 4.622-6.636 2.007-2.953 4.146-8.775 8.363-8.894 1.93-.054 1.936-3.054 0-3" fill="#DFE8EE"/><path d="M75.4 61.56c-.05 4.59 3.63 8.353 8.22 8.404 4.59.05 8.354-3.628 8.405-8.22.008-.663-.063-1.31-.203-1.93m-4.893-13.69s3.624-.02 4.324 4.487c.7 4.51-4.042 7.435-9.698 6.455-5.656-.98-9.864-4.735-14.19.03-3.286 3.62-.163 12.873-5.453 16.397C56.61 77.026 51.15 74.54 50.02 71.36" stroke="#A5B2BA" stroke-linecap="round" stroke-linejoin="round"/><path d="M88.63 87.092s-1.43 10.54-1.804 18.428c-.352 7.396.155 13.675.155 13.675l5.215-.518s-.627-9.07-.926-14.75c-.3-5.678-2.64-16.835-2.64-16.835M70.36 118.015s3.143-9.915 3.955-17.27c.937-8.473.732-15.612.732-15.612l-7.072 24.827-2.468 6.246 4.853 1.81" fill="#DFE8EE"/><path d="M86 139.875c1.75-8.75 1.64-20.82 1.64-20.82s2.732.506 4.826-.59c-2.578-8.488-2.775-26.584-2.365-31.36m-13.39 32.49s2.97.297 4.52.176c0 0 .27 6.855-.48 12.48m9.84-45.488s3.673 7.64 8.983 11.818c2.032 1.6 3.243 2.288 5.114 2.628 2.063.375 7.5.063 8.376-3.25.874-3.312-1.73-2.708-1.73-2.708-1.87.28-5.088.912-8.554-2.305-3.82-3.546-4.756-8.464-6.965-12.138-2.785-4.634-6.904-5.68-6.904-5.68s-2.447 3.578-5.37 5.04c-4.75-1.22-5.68-6.33-5.68-6.33s-4.5-.25-7.178 3.938c-2.514 3.933-5.39 10.275-9.405 14.085-4.955 4.703-12.957 5.54-11.18 9.328 1.466 3.12 7.86.945 12.287-2.203 4.16-2.96 10.29-10.948 11.454-13.997-.505 6.747-5.142 26.285-8.81 31.303 3.157 1.79 5.32 2.173 5.32 2.173M83.54 80.166s.04 7.55-1.096 17.294c-.817 7.002-2.76 17.05-2.76 17.05" stroke="#A5B2BA" stroke-linecap="round" stroke-linejoin="round"/><path d="M119.933 119.035c-.617-3.058-6.376-.532-7.266-1.04-.997-.566-3.283-4.428-7.157-4.154-5.19.367-5.547 2.68-6.065 5.118-5.054 5.625.56 9.58 2.918 10.287-2.744 1.643-19.53 12.386-14.142 26.337-4.294-.19-5.398-2.986-5.075-6.78.61-7.144-2.226-13.558-4.572-12.426-1.214.586.017 3.326-.398 6.905-.355 3.054-.928 6.713-.29 8.97 1.757 6.214 11.312 5.843 11.312 5.843s10.837 2.546 11.717.14c.668-1.824-2.64-3.04-2.64-3.04s3.814-1.557 4.18-8.7c-.21 4.102 1.51 11.058 3.274 12.45.806.635 4.334 1.23 4.4-.214.088-1.97-1.944-1.607-2.818-3.274-1.166-2.226-1.123-7.33-.873-11.83 1.392-2.157.47-.574 1.813-2.876.125 2.313 1.008 15.61 2.108 17.167.8 1.132 4.994 1.868 5.06.424.088-1.967-1.44-1.96-2.567-3.465-.597-.798-1.14-10.28-.863-16.023.247-5.1.382-10.042 1.027-11.6 4.398-1.82 7.65-4.592 6.92-8.217z" fill="#FD4974"/><path d="M119.933 119.035c-.617-3.058-6.376-.532-7.266-1.04-.997-.566-3.283-4.428-7.157-4.154-5.19.367-5.547 2.68-6.065 5.118-5.054 5.625.56 9.58 2.918 10.287-2.744 1.643-19.53 12.386-14.142 26.337-4.294-.19-5.398-2.986-5.075-6.78.61-7.144-2.226-13.558-4.572-12.426-1.214.586.017 3.326-.398 6.905-.355 3.054-.928 6.713-.29 8.97 1.757 6.214 11.312 5.843 11.312 5.843s10.837 2.546 11.717.14c.668-1.824-2.64-3.04-2.64-3.04s3.814-1.557 4.18-8.7c-.21 4.102 1.51 11.058 3.274 12.45.806.635 4.334 1.23 4.4-.214.088-1.97-1.944-1.607-2.818-3.274-1.166-2.226-1.123-7.33-.873-11.83 1.392-2.157.47-.574 1.813-2.876.125 2.313 1.008 15.61 2.108 17.167.8 1.132 4.994 1.868 5.06.424.088-1.967-1.44-1.96-2.567-3.465-.597-.798-1.14-10.28-.863-16.023.247-5.1.382-10.042 1.027-11.6 4.398-1.82 7.65-4.592 6.92-8.217z" stroke="#FD4974" stroke-linecap="round" stroke-linejoin="round"/><path d="M119.03 90.85c-.237-.882-1.4-1.452-2.204-.895-2.13 1.476-3.565 3.916-5.12 5.952-2.045 2.674-3.977 5.485-6.6 7.616-1 .812-.385 2.014.575 2.373.245.827 1.17 1.416 2.16.9 1.837-.96 3.27-2.705 4.72-4.152 2.206-2.2 4.178-4.69 6.167-7.083.568-.683.417-1.504-.028-2.044.372-.947.543-1.87.33-2.665" fill="#FFF"/><path d="M124.808 71.705c-3.56 1.466-4.93 5.41-6 9.194-.52-.093-1.064.103-1.396.745-1.384 3.044-2.606 5.983-4.052 8.82-.3.098-.58.31-.782.68-2.294 4.22-5.24 7.9-8.083 11.75-.132.18-.21.36-.245.54-.204.272-.4.55-.604.823.173 1.314.214 2.163 1.31 3.06-1.5-1.833 7.584-6.333 11.418-13.083 1.906-3.357 3.39-7.54 4.25-10.75 1.25-4.667 2.01-8.152 5.083-9.417 1.763-.726.89-3.1-.9-2.363M141.095 73.856s7.94 5.957 11.908 11.33c6.905 9.355 6.18 17.07 5.35 22.35 1.04.493 1.95 2.697 2.6 2.588 3.208-.538 2.12-9.176 2.12-9.176l-2.02-7.89s-1.817-5.61-1.96-5.876c-.142-.264-3.758-4.538-3.758-4.538s-2.797-3.192-3.097-3.556c-.3-.363-6.528-4.463-6.528-4.463l-4.615-.77M127.02 84.67s-1.262 10.762-.608 18.943c.55 6.892 2.14 11.082 2.14 11.082l-4.77-.03s-1.686-3.423-1.444-8.673c.243-5.25 4.683-21.322 4.683-21.322M142.643 83.21s-1.284 2.975-.96 12.882c.228 6.963 3.7 16.753 3.7 16.753l4.578-2.415-3.49-8.28-2.92-9.9M128.904 115.397s1.1 20.36 3.708 28.22c2.49 7.5 5.49 11.064 5.49 11.064l-.357 2.897-3.168-.13s-3.93-5.392-3.883-5.89c.047-.498-1.94-9.64-1.94-9.64l-1.096-11.487 1.246-15.033M140.215 113.855s5.275 19.694 9.45 26.85c3.98 6.823 7.652 9.69 7.652 9.69l.25 2.91-3.128.524s-4.958-4.466-5.015-4.962c-.057-.497-3.886-9.034-3.886-9.034l-3.443-11.013-1.882-14.965M128.302 56.693s-.374 7.173 5.534 7.693c6.287.553 8.928-5.033 8.928-5.033s.465 9.364-6.823 8.787c-7.286-.577-8.717-4.198-8.717-4.198s-1.338-3-1.173-3.446c.166-.446 2.252-3.803 2.252-3.803M132.876 46.745s-.866 2.713 1.227 4.528c2.092 1.815 10.923 1.543 10.923 1.543s-5.35 3.186-8.707 2.77c-3.36-.418-6.4-2.854-6.4-2.854s-1.385-2.684-1.327-3.188c.058-.503 2.815-3.81 2.815-3.81l1.468 1.01" fill="#DFE8EE"/><path d="M145.382 112.845c2.113-.22 4.517-1.752 4.517-1.752-.002 0-5.083-10.94-5.852-16.118-.77-5.178-.35-11.416-.35-11.416 9.258 4.803 12.258 12.953 13.323 17.657.828 3.653 1.453 8.59 3.958 8.658 1.133.03 1.953-2.076 2.127-4.822.175-2.746-1.093-12.407-6.417-20.775-5.486-8.623-14.92-11.363-14.92-11.363m-16.468-.21s-2.997.724-5.114 4.543c-2.134 3.848-5.17 12.735-8.083 16.7-4.6 6.256-11.188 9.698-8.73 13.115 2.106 2.927 8.267-1.68 12.394-6.906 5.54-7.014 10.365-15.822 10.365-15.822s-2.315 9.488-3.064 17.457c-.42 4.48-.432 8.162.217 12.826 1.545.48 4.436.23 4.436.23-.974 11.71.828 25.71 2.18 32.7 1.338 6.926 3.972 11.346 6.1 10.785 2.575-.678 2.166-5.237 1.74-6.95-.423-1.714-2.636-8.45-3.4-18.148-.745-9.5-.542-18.256-.542-18.256l4.992-.578m4.394-54.57c.228 4.586-3.304 8.488-7.89 8.716-4.585.228-8.486-3.305-8.714-7.89-.068-1.358.195-2.656.717-3.817m4.482-10.77s-4.41 3.222-1.742 6.53c4.385 5.44 14.966 1.448 14.966 1.448m-6 60.28c1.688 11.63 6.6 24.864 9.49 31.37 2.867 6.446 6.43 10.16 8.376 9.133 2.355-1.24.93-5.59.13-7.163-.8-1.574-4.474-7.64-7.402-16.915-2.868-9.086-4.644-17.664-4.644-17.664" stroke="#A5B2BA" stroke-linecap="round" stroke-linejoin="round"/><path d="M75.15 119.24c0 .002-5.46 17.994-9.72 24.965-4.064 6.648-7.77 9.417-7.77 9.417l-.284 2.85 3.12.555s5.012-4.32 5.074-4.807c.063-.487 3.996-8.818 3.996-8.818l3.576-10.766 2.008-13.395" fill="#DFE8EE"/><path d="M76.356 119.722c-1.83 11.392-6.846 23.05-9.817 29.4-2.945 6.29-6.552 9.89-8.486 8.86-2.34-1.25-.863-5.5-.043-7.035.82-1.535 4.567-7.442 7.608-16.51 2.978-8.882 4.803-16.007 4.803-16.007" stroke="#A5B2BA" stroke-linecap="round" stroke-linejoin="round"/><g><path d="M192.77 74.52l-.478-.65-.362-.504c-.284-.4-.598-.852-.935-1.345-.962-1.41-1.908-2.876-2.773-4.327-.56-.94-1.068-1.844-1.512-2.7-1.008-1.943-1.668-3.59-1.908-4.904-1.012-5.553 2.776-10.03 8.31-8.548 2.526.677 4.08 1.97 4.77 3.893 1.563-1.332 3.548-1.664 6.074-.987 5.393 1.445 6.262 7.215 2.954 11.52-.834 1.084-2.37 2.277-4.493 3.59-.743.46-1.548.927-2.405 1.4-1.45.8-2.978 1.576-4.492 2.3-.53.255-1.02.484-1.46.685l-.557.252-.734.325z" fill="#FD4974"/><path d="M206.495 62.68c.97-2.654.104-5.4-2.65-6.138-.268-.07-.542.087-.613.354-.072.267.087.54.353.612 2.098.562 2.762 2.666 1.97 4.827-.094.26.04.547.3.642.258.095.545-.04.64-.298z" fill="#FFF"/></g><g><path d="M191.708 41.46l-.477-.65c-.066-.093-.19-.264-.36-.505-.285-.4-.6-.852-.936-1.345-.96-1.41-1.908-2.877-2.772-4.327-.56-.94-1.068-1.844-1.513-2.702-1.01-1.94-1.67-3.588-1.908-4.902-1.013-5.55 2.776-10.03 8.31-8.546 2.525.677 4.08 1.97 4.77 3.893 1.562-1.333 3.547-1.665 6.073-.988 5.394 1.446 6.263 7.215 2.954 11.52-.835 1.084-2.37 2.277-4.494 3.59-.742.46-1.547.928-2.405 1.4-1.448.8-2.976 1.577-4.49 2.302-.53.252-1.02.482-1.46.682-.265.122-.455.207-.558.252l-.734.325z" fill="#FD4974"/><path d="M205.435 29.618c.97-2.653.103-5.398-2.652-6.136-.266-.072-.54.086-.612.353-.07.267.088.54.355.613 2.097.562 2.76 2.665 1.97 4.827-.094.26.04.546.298.64.26.096.547-.037.642-.297z" fill="#FFF"/></g><g><path d="M131.595 26.23l-.693-.41c-.098-.06-.278-.168-.53-.323-.418-.258-.884-.55-1.386-.873-1.437-.923-2.88-1.903-4.244-2.9-.883-.647-1.703-1.28-2.448-1.896-1.686-1.394-2.937-2.652-3.67-3.768-3.102-4.714-1.364-10.317 4.31-11.114 2.588-.364 4.524.22 5.91 1.72.918-1.837 2.616-2.918 5.206-3.282 5.53-.777 8.584 4.195 7.22 9.45-.344 1.323-1.29 3.022-2.733 5.06-.503.713-1.062 1.458-1.667 2.23-1.02 1.3-2.125 2.613-3.236 3.872-.388.44-.75.843-1.076 1.2-.196.215-.338.367-.415.45l-.548.585z" fill="#FD4974"/><path d="M139.604 9.968c-.143-2.82-2.014-5.01-4.84-4.613-.272.04-.463.292-.424.565.038.273.29.464.564.426 2.15-.303 3.584 1.374 3.7 3.673.015.275.25.487.526.473.275-.014.488-.25.474-.525z" fill="#FFF"/></g><g><path d="M62.097 23.283l-.63-.504-.48-.394c-.377-.313-.798-.668-1.25-1.058-1.295-1.113-2.59-2.284-3.8-3.462-.784-.763-1.508-1.505-2.16-2.218-1.475-1.615-2.54-3.035-3.11-4.242C48.25 6.306 50.752 1 56.482 1c2.614 0 4.45.847 5.615 2.526C63.26 1.834 65.092 1 67.707 1c5.584 0 7.917 5.348 5.835 10.362-.525 1.264-1.7 2.814-3.41 4.632-.598.636-1.255 1.296-1.96 1.975-1.194 1.145-2.47 2.29-3.745 3.384-.446.382-.86.73-1.233 1.038-.224.186-.385.317-.473.387l-.623.503z" fill="#FD4974"/><path d="M72.29 8.293c.252-2.814-1.296-5.24-4.15-5.24-.275 0-.5.223-.5.5 0 .275.225.5.5.5 2.173 0 3.36 1.86 3.155 4.15-.025.277.178.52.453.544.275.024.518-.18.543-.454z" fill="#FFF"/></g><g><path d="M9.7 64.853l-.52-.614c-.074-.09-.21-.25-.397-.48-.31-.38-.656-.807-1.026-1.276-1.058-1.34-2.105-2.737-3.068-4.123-.626-.898-1.195-1.764-1.698-2.59-1.14-1.866-1.914-3.463-2.245-4.756-1.397-5.468 2.07-10.2 7.694-9.106 2.567.5 4.207 1.68 5.03 3.55 1.466-1.438 3.423-1.907 5.99-1.408 5.482 1.066 6.75 6.76 3.75 11.285-.755 1.14-2.204 2.438-4.23 3.896-.71.51-1.48 1.034-2.302 1.565-1.39.898-2.86 1.78-4.32 2.61-.512.29-.985.552-1.41.783-.255.14-.438.237-.538.29l-.71.375z" fill="#FD4974"/><path d="M22.568 52.084c.783-2.715-.273-5.393-3.073-5.937-.27-.053-.534.124-.586.396-.054.27.123.533.394.586 2.132.413 2.94 2.465 2.303 4.677-.076.265.077.542.342.62.264.075.54-.078.618-.343z" fill="#FFF"/></g><g><path d="M35.213 93.748l-.792-.15c-.11-.02-.318-.062-.608-.122-.48-.1-1.018-.215-1.6-.346-1.666-.376-3.358-.803-4.98-1.274-1.05-.305-2.038-.62-2.948-.944-2.062-.733-3.668-1.488-4.74-2.285-4.526-3.37-4.81-9.228.25-11.918 2.308-1.228 4.327-1.342 6.144-.407.233-2.04 1.46-3.636 3.768-4.864 4.93-2.623 9.5 1.005 10.016 6.408.13 1.363-.18 3.282-.836 5.692-.23.842-.5 1.733-.805 2.663-.513 1.573-1.102 3.184-1.715 4.747-.214.547-.417 1.05-.6 1.496-.112.27-.193.46-.237.564l-.315.738z" fill="#FD4974"/><path d="M37.177 75.727c-1.1-2.603-3.606-4.02-6.125-2.68-.243.13-.336.432-.206.676.13.244.432.336.676.207 1.917-1.02 3.838.066 4.733 2.186.108.254.4.373.656.266.255-.108.374-.4.267-.655z" fill="#FFF"/></g><g><path d="M167.502 23.078l-.654-.47c-.092-.067-.263-.192-.5-.368-.394-.293-.832-.625-1.305-.99-1.35-1.044-2.704-2.147-3.974-3.26-.825-.72-1.587-1.423-2.275-2.1-1.558-1.537-2.695-2.9-3.328-4.074-2.68-4.967-.46-10.397 5.262-10.697 2.61-.137 4.487.612 5.738 2.228 1.074-1.75 2.86-2.68 5.47-2.816 5.578-.292 8.187 4.927 6.37 10.042-.457 1.29-1.55 2.9-3.163 4.805-.564.665-1.185 1.358-1.855 2.073-1.13 1.208-2.345 2.42-3.56 3.576-.427.404-.822.774-1.178 1.1-.214.198-.368.337-.452.412l-.598.536z" fill="#FD4974"/><path d="M176.898 7.575c.103-2.823-1.57-5.166-4.418-5.017-.276.015-.487.25-.473.526.015.275.25.487.526.473 2.168-.114 3.45 1.682 3.366 3.982-.01.275.204.507.48.517.276.01.508-.206.518-.482z" fill="#FFF"/></g><g><path d="M30.417 35.04l-.72-.363c-.1-.05-.29-.148-.55-.285-.436-.227-.92-.487-1.445-.774-1.497-.82-3.006-1.697-4.435-2.596-.926-.584-1.79-1.16-2.574-1.72-1.78-1.274-3.115-2.442-3.925-3.503-3.423-4.488-2.08-10.198 3.524-11.39 2.557-.543 4.53-.096 6.018 1.304.786-1.897 2.404-3.093 4.963-3.637 5.46-1.16 8.855 3.586 7.86 8.922-.25 1.345-1.076 3.105-2.372 5.24-.452.745-.957 1.527-1.506 2.338-.928 1.37-1.938 2.756-2.958 4.09-.357.466-.69.893-.99 1.272-.18.228-.31.39-.382.477l-.507.623z" fill="#FD4974"/><path d="M37.272 18.258c-.34-2.805-2.358-4.857-5.148-4.264-.27.057-.443.323-.385.593.056.27.322.442.592.385 2.124-.452 3.67 1.12 3.947 3.406.033.274.282.47.556.436.274-.033.47-.282.436-.556z" fill="#FFF"/></g><g><path d="M91.72 41.21l-.562-.576c-.08-.082-.226-.234-.43-.45-.335-.356-.71-.76-1.112-1.2-1.148-1.264-2.29-2.584-3.348-3.9-.685-.853-1.314-1.678-1.874-2.465-1.268-1.784-2.15-3.323-2.57-4.59-1.776-5.357 1.353-10.32 7.04-9.62 2.594.318 4.313 1.383 5.265 3.19 1.36-1.537 3.28-2.14 5.875-1.822 5.543.68 7.206 6.273 4.53 10.995-.676 1.19-2.03 2.586-3.95 4.182-.672.558-1.404 1.133-2.187 1.72-1.324.994-2.73 1.976-4.13 2.905-.488.325-.942.62-1.35.88-.244.157-.42.268-.516.327l-.68.424z" fill="#FD4974"/><path d="M103.666 27.575c.592-2.762-.65-5.36-3.48-5.708-.274-.034-.523.16-.557.435-.035.274.16.524.434.558 2.156.264 3.106 2.255 2.624 4.506-.058.27.114.535.384.593.27.057.536-.115.594-.385z" fill="#FFF"/></g><g><path d="M175.77 103.52l-.478-.65-.362-.504c-.284-.4-.598-.852-.935-1.345-.962-1.41-1.908-2.876-2.773-4.327-.56-.94-1.068-1.844-1.512-2.7-1.008-1.943-1.668-3.59-1.908-4.904-1.012-5.553 2.776-10.03 8.31-8.548 2.526.677 4.08 1.97 4.77 3.893 1.563-1.332 3.548-1.664 6.074-.987 5.393 1.445 6.262 7.215 2.954 11.52-.834 1.084-2.37 2.277-4.493 3.59-.743.46-1.548.927-2.405 1.4-1.45.8-2.978 1.576-4.492 2.3-.53.255-1.02.484-1.46.685l-.557.252-.734.325z" fill="#FD4974"/><path d="M189.495 91.68c.97-2.654.104-5.4-2.65-6.138-.268-.07-.542.087-.613.354-.072.267.087.54.353.612 2.098.562 2.762 2.666 1.97 4.827-.094.26.04.547.3.642.258.095.545-.04.64-.298z" fill="#FFF"/></g></g></svg>
