<svg width="88" height="94" viewBox="0 0 88 94" xmlns="http://www.w3.org/2000/svg" xmlns:xlink="http://www.w3.org/1999/xlink"><use xlink:href="#a" fill="#FD4974"/><use xlink:href="#b" transform="rotate(45 -13.558 67.134)" fill="#FFF"/><defs><path id="a" d="M0 44.266c0-4.508 1.902-8.806 5.237-11.84L38.62 2.08c3.05-2.773 7.71-2.773 10.76 0l33.383 30.347C86.098 35.46 88 39.757 88 44.267v40.92c0 4.42-3.582 8-8 8H8c-4.418 0-8-3.58-8-8v-40.92z"/><path id="b" fill-rule="evenodd" d="M0 30.92c17.076 0 30.92-13.844 30.92-30.92h10C40.92 22.6 22.6 40.92 0 40.92v-10z"/></defs></svg>
