<svg width="142" height="35" xmlns="http://www.w3.org/2000/svg"><g fill="none" fill-rule="evenodd"><path d="M51.751 27.56h-4.727v-8.685c0-2.05-.797-3.218-2.534-3.218-1.794 0-2.648 1.054-2.648 3.018v8.884h-4.727V6.49h4.727v6.776c.683-1.281 2.221-2.05 4.1-2.05 3.617 0 5.81 2.278 5.81 6.407v9.937zm19.31-7.974c0 4.955-3.758 8.457-8.514 8.457-4.812 0-8.513-3.559-8.513-8.4 0-4.897 3.787-8.4 8.513-8.4 4.756 0 8.514 3.56 8.514 8.343zm-8.514 4.044c2.221 0 3.788-1.88 3.788-3.987s-1.595-3.986-3.816-3.986c-2.079 0-3.759 1.822-3.759 3.986s1.652 3.987 3.787 3.987zm35.114 3.93h-4.727v-8.515c0-2.477-.797-3.388-2.42-3.388-1.794 0-2.62 1.082-2.62 3.16v8.742h-4.727v-8.713c0-2.05-.74-3.19-2.363-3.19-1.85 0-2.677 1.197-2.677 3.39v8.513h-4.726V11.756h4.413v1.68h.057c.826-1.48 2.335-2.221 4.357-2.221 2.05 0 3.559 1.025 4.556 2.819 1.139-1.794 2.847-2.82 5.011-2.82 3.531 0 5.866 2.165 5.866 6.579v9.766zm18.655-6.464h-11.845c.256 1.793 1.765 2.99 3.701 2.99 1.282 0 2.108-.485 2.876-1.481h4.841c-1.51 3.445-4.385 5.467-7.717 5.467-4.556 0-8.371-3.673-8.371-8.372 0-4.556 3.645-8.485 8.286-8.485 4.727 0 8.343 3.73 8.343 8.628 0 .455-.028.825-.114 1.253zm-11.788-3.19h7.175c-.37-1.623-1.794-2.705-3.616-2.705-1.708 0-3.19 1.025-3.56 2.705zm18.911 9.653h-4.727V6.49h4.727v21.07zm9.771 5.268H128.2l2.506-6.065-5.866-15.006h5.04l3.16 9.169h.057l3.019-9.17h5.011l-7.916 21.072z" fill="#FFF" fill-rule="nonzero"/><path d="M1 17.653c0-1.492.641-2.915 1.765-3.919L14.017 3.69a2.733 2.733 0 013.627 0l11.252 10.045a5.254 5.254 0 011.765 3.92v13.545c0 1.463-1.207 2.648-2.696 2.648H3.696C2.207 33.847 1 32.662 1 31.2V17.653z" fill="#FD4974" fill-rule="nonzero"/><path d="M7.229 21.39c2.472 2.373 5.339 3.56 8.602 3.56 3.262 0 6.13-1.187 8.601-3.56" stroke="#FFF" stroke-width="3.559"/></g></svg>