<svg id="Layer_1" xmlns="http://www.w3.org/2000/svg" viewBox="-92 259 535 203"><style>.st0{fill:#DFE8EE;} .st1{fill:none;stroke:#A5B2BA;stroke-linecap:round;stroke-linejoin:round;} .st2{fill:#FD4974;} .st3{fill:none;stroke:#FD4974;stroke-linecap:round;stroke-linejoin:round;} .st4{fill:#FFFFFF;} .st5{fill:none;stroke:#A5B2BA;stroke-linecap:round;stroke-linejoin:round;stroke-miterlimit:10;} .st6{fill:#FD4974;stroke:#FD4974;stroke-linecap:round;stroke-linejoin:round;stroke-miterlimit:10;}</style><path class="st0" d="M205.2 315.4s14.6.8 31.8-.2l-.1-2.2-.2-1.5-31.1.2-.4 3.7zM147.7 315.4s14.6.8 31.8-.2l-.1-2.2-.2-1.5-31.1.2-.4 3.7z"/><path id="Fill-19_2_" class="st0" d="M260.3 386.2c-2.5 1.6-6.8 1.6-9.5 1.4-1.8-.2-5.6-.1-7.4-.5-4.2-.2-5.7-3.2-5.1-2.1-1.2-1.9.9-4.2-.7-3.6-2.3.7-4 3.2-2.4 5.9 2.3 3.7 7.8 4.5 11.8 4.9 5.2.5 11.7 1.6 16.3-1.4 3.6-2.3 1.6-7.4-1.7-7.7-.8-.1-1.6.1-2.5.6"/><path id="Fill-21_2_" class="st0" d="M145.7 385.9c-2.4 1.8-9.1 1.6-11.9 1.6-1.8 0-3.7-.2-5.5-.5-1-.2-5.2-2-4.4-1-1.3-1.8.4-4.8-1.2-4.1-2.2.9-3.8 3.5-2 6 2.6 3.6 8.1 4 12.2 4.1 5.2.2 11.8.8 16.2-2.5 3.4-2.5 1.1-7.4-2.1-7.6-.8-.1.5 1.5-.3 2.2"/><path id="Fill-2_7_" class="st0" d="M134.4 342.8c-9.7 6.9-12.2 9.9-12.4 11.4-1.2 7.8.2 18.1.5 26.8.2 5.3 4.6 7.9 5.7 2.6-.3-11-7.5-29 6.2-34.1 4.8-2.3 4.7-5.6.7-6.8"/><path id="Fill-2_6_" class="st0" d="M249.6 342.7c-4 1.2-4.1 4.5.7 6.8 13.7 5.1 6.5 23.1 6.2 34.1 1.1 5.2 5.6 2.6 5.7-2.6.3-8.7 1.7-19 .5-26.8-.2-1.4-2.7-4.5-12.4-11.4"/><path id="Fill-19_1_" class="st0" d="M260.3 328.5c-2.5 1.6-6.8 1.6-9.5 1.4-1.8-.2-5.6-.1-7.4-.5-4.2-.2-5.7-3.2-5.1-2.1-1.2-1.9.9-4.2-.7-3.6-2.3.7-4 3.2-2.4 5.9 2.3 3.7 7.8 4.5 11.8 4.9 5.2.5 11.7 1.6 16.3-1.4 3.6-2.3 1.6-7.4-1.7-7.7-.8-.1-1.6.1-2.5.6"/><path id="Fill-20_1_" class="st0" d="M203.3 328.3c-2.4 1.8-7 1.7-9.7 1.7-1.8 0-7.5-.6-9.3-.8-1-.2-4.3-3.2-3.6-2.2-1.3-1.8.8-4.1-.8-3.4-2.1 1-3.6 3.5-1.8 5.9 2.6 3.6 8.1 4 12.2 4.1 5.2.2 11.8.8 16.2-2.5 3.4-2.5 1.1-7.3-2.1-7.6-.8-.1-1.7.2-2.6.8"/><path id="Fill-21_1_" class="st0" d="M145.7 328.2c-2.4 1.8-9.1 1.6-11.9 1.6-1.8 0-3.7-.2-5.5-.5-1-.2-5.2-2-4.4-1-1.3-1.8.4-4.8-1.2-4.1-2.2.9-3.8 3.5-2 6 2.6 3.6 8.1 4 12.2 4.1 5.2.2 11.8.8 16.2-2.5 3.4-2.5 1.1-7.4-2.1-7.6-.8-.1.5 1.5-.3 2.2"/><title>Illustration</title><g id="Homebuyer"><path id="Fill-1" class="st0" d="M-43.3 398.6c-.1-.7.7-.7.1-.8-.9-.6-2.4-.8-2.4.6.1 3.5-.1 6.9-.1 10.3 0 1-.1 2-.2 2.9-.2 2-.4 4.1-.2 6v.5c.3 1.8 1.3 1.3 1.4-.3.2-2 .7-4.3.7-6.4.1-.9.2-2.2.2-3 .2-3.4.7-6.3.1-9.6"/><path id="Fill-2" class="st0" d="M41.6 436c-1.9-3.3-13.7-3.2-25.5-1.7-7.5.9-33 3.1-42 3.2-10.1.1-29.7-1.5-40.5-2.6-8.5-.9-26.1-2.6-24.7 1.6 1.9 5.5 46 4.2 58.8 4.1 13.4-.1 28-.2 41 .5 9.5.6 35.2-1.1 32.9-5.1"/><path id="Fill-3" class="st0" d="M-55.2 340.2s2.9 5.7 9.2 4.6c6.7-1.1 6.4-6 6.4-6s1.4 5.9-2.5 8.6c-2.4 1.7-8 1.2-8.5 1.2s-2.6-1.7-2.9-2.1c-.2-.4-2.2-5.2-2.2-5.2l.5-1.1"/><path id="Fill-4" class="st0" d="M-44.4 325.5s2.4 2.6 1.2 5.2c-1.1 2.3-3.4 2.7-6.3 1.4-3.3-1.5-8.5-4.7-14.4-2.5-6.1 2.3-4 13.5-6 18.4-2.3 5.8-11 2-11 2s1.3 5.4 9 3.4c4.8-1.3 6.4-7.3 6.4-7.8 0-.6.7-6.1.7-6.1l.5-2.9 4.5-3s8.3 2.2 8.6 2.3c.3.1 6.2.7 7.4-.4 1.3-1.1 3.1-2.8 3.5-3.5.3-.7.3-3.6.3-3.6l-1.4-2.4-3.1-.5"/><path id="Fill-5" class="st0" d="M-19.9 374.1c-1.2.8-2.2.1-3.6 0-1.9-.2-4-1.5-5.4-2.7-.6-.5-3.4-6.8-3.9-6.5-2.4-3.5.2-4.5-8.1-10.2-.8-.7-1.3-.4-1.7 0-.4.3-.9.5-.3 1.1 6.9 3 8.6 19.9 18.7 20.7 1.6.1 4.5.4 6-.5 1.6-1 .1-3.6-1.5-2.6"/><path id="Fill-6" class="st0" d="M-53.6 352.5c-5.4.2-7.3 6.5-9.9 10.6-2.1 3.3-4.8 5.9-7.3 8.9-4.5 2.9-6.7 3.9-9.2 5.6-1.8.6-1.4 3.3.5 2.6 5.4-1.8 9.5-4.3 13-8.9 1.6-2.1 3.1-4.4 4.6-6.6 2-3 4.1-9.5 8.3-9.6 1.9-.1.9-2.2-1.1-2.2"/><path id="Stroke-7" class="st1" d="M-55.6 340.6c-.1 4.6 3.6 8.4 8.2 8.4 4.6.1 8.4-3.6 8.4-8.2 0-.7-.1-1.3-.2-1.9m-4.9-13.8s3.6 0 4.3 4.5c.7 4.5-4 7.4-9.7 6.5s-9.9-4.7-14.2 0c-3.3 3.6-.2 12.9-5.5 16.4-5.3 3.5-10.8 1-11.9-2.1"/><path id="Fill-8" class="st0" d="M-41.3 366s-1.6 10.4-2 18.3c-.4 7.4 1.2 13.9 1.2 13.9l3.3-.5s-1.6-9.3-1.9-14.9c-.3-5.7-.6-16.8-.6-16.8"/><path id="Fill-9" class="st0" d="M-61.5 397.5s3.4-11.2 4.3-18.6c.9-8.5.5-15.1.5-15.1L-63 389l-2.5 6.2 4 2.3"/><path id="Stroke-10" class="st1" d="M-45 418.9c1.8-8.8 1.6-20.8 1.6-20.8s2.7.5 4.8-.6c-2.6-8.5-2.8-26.6-2.4-31.4m-13.3 32.5s3 .3 4.5.2c0 0 .3 6.9-.5 12.5m9.9-45.5s3.7 7.6 9 11.8c2 1.6 3.2 2.3 5.1 2.6 2.1.4 7.5.1 8.4-3.2.9-3.3-1.7-2.7-1.7-2.7-1.9.3-5.1.9-8.6-2.3-3.8-3.5-4.8-8.5-7-12.1-2.8-4.6-6.9-5.7-6.9-5.7s-2.4 3.6-5.4 5c-4.7-1.2-5.7-6.3-5.7-6.3s-4.5-.2-7.2 3.9c-2.5 3.9-5.4 10.3-9.4 14.1-5 4.7-13 5.5-11.2 9.3 1.5 3.1 7.9.9 12.3-2.2 4.2-3 10.3-10.9 11.5-14-.5 6.7-5.1 26.3-8.8 31.3 3.2 1.8 5.3 2.2 5.3 2.2m13.2-38.3s0 7.6-1.1 17.3c-.8 7-2.8 17-2.8 17"/><path id="Fill-11" class="st2" d="M-11.1 398c-.6-3.1-6.4-.5-7.3-1-1-.6-3.3-4.4-7.2-4.2-5.2.4-5.5 2.7-6.1 5.1-5.1 5.6.6 9.6 2.9 10.3-2.7 1.6-19.5 12.4-14.1 26.3-4.3-.2-5.4-3-5.1-6.8.6-7.1-2.2-13.6-4.6-12.4-1.2.6 0 3.3-.4 6.9-.4 3.1-.9 6.7-.3 9 1.8 6.2 11.3 5.8 11.3 5.8s10.8 2.5 11.7.1c.7-1.8-2.6-3-2.6-3s3.8-1.6 4.2-8.7c-.2 4.1 1.5 11.1 3.3 12.5.8.6 4.3 1.2 4.4-.2.1-2-1.9-1.6-2.8-3.3-1.2-2.2-1.1-7.3-.9-11.8 1.4-2.2.5-.6 1.8-2.9.1 2.3 1 15.6 2.1 17.2.8 1.1 5 1.9 5.1.4.1-2-1.4-2-2.6-3.5-.6-.8-1.1-10.3-.9-16 .2-5.1.4-10 1-11.6 4.6-1.8 7.9-4.5 7.1-8.2z"/><path id="Stroke-12" class="st3" d="M-11.1 398c-.6-3.1-6.4-.5-7.3-1-1-.6-3.3-4.4-7.2-4.2-5.2.4-5.5 2.7-6.1 5.1-5.1 5.6.6 9.6 2.9 10.3-2.7 1.6-19.5 12.4-14.1 26.3-4.3-.2-5.4-3-5.1-6.8.6-7.1-2.2-13.6-4.6-12.4-1.2.6 0 3.3-.4 6.9-.4 3.1-.9 6.7-.3 9 1.8 6.2 11.3 5.8 11.3 5.8s10.8 2.5 11.7.1c.7-1.8-2.6-3-2.6-3s3.8-1.6 4.2-8.7c-.2 4.1 1.5 11.1 3.3 12.5.8.6 4.3 1.2 4.4-.2.1-2-1.9-1.6-2.8-3.3-1.2-2.2-1.1-7.3-.9-11.8 1.4-2.2.5-.6 1.8-2.9.1 2.3 1 15.6 2.1 17.2.8 1.1 5 1.9 5.1.4.1-2-1.4-2-2.6-3.5-.6-.8-1.1-10.3-.9-16 .2-5.1.4-10 1-11.6 4.6-1.8 7.9-4.5 7.1-8.2z"/><path id="Fill-13" class="st4" d="M-12 369.9c-.2-.9-1.4-1.5-2.2-.9-2.1 1.5-3.6 3.9-5.1 6-2 2.7-4 5.5-6.6 7.6-1 .8-.4 2 .6 2.4.2.8 1.2 1.4 2.2.9 1.8-1 3.3-2.7 4.7-4.2 2.2-2.2 4.2-4.7 6.2-7.1.6-.7.4-1.5 0-2 .3-1 .4-2 .2-2.7"/><path id="Fill-14" class="st0" d="M-7.4 352.6c-3.6 1.5-3.7 3.5-4.8 7.3-.5-.1-1.5 2.9-1.8 3.5-1.4 3-1.9 4.1-3.4 6.9-.3.1-.8 1.4-1 1.8-2.3 4.2-5.7 5.8-8.5 9.7-.1.2-.4.6-.4.8-.2.3-.5 1-.7 1.3.2 1.3.2 2.3 1.3 3.2-1.5-1.8 8.2-7 12.1-13.7 1.9-3.4 3.4-7.5 4.2-10.8 1.3-4.7 2-8.2 5.1-9.4 1.8-.7.8-2.4-1-1.7"/><path id="Fill-15" class="st0" d="M10.3 352.2s7.7 6.6 11.7 12c6.9 9.4 6.2 17.1 5.3 22.3 1 .5 2 2.7 2.6 2.6 3.2-.5 2.1-9.2 2.1-9.2l-2-7.9s-2-5-2.1-5.2c-.1-.3-3.6-5.2-3.6-5.2s-2.8-3.2-3.1-3.6c-.3-.4-6.5-4.5-6.5-4.5l-4.3-1.5"/><path id="Fill-16" class="st0" d="M-4.4 363.3s-1.3 10.7-.7 19.3c.6 6.9.9 11.2.9 11.2l-3.1-.1s-1.7-3.4-1.4-8.7c.2-5.3 4.1-21.6 4.1-21.6"/><path id="Fill-17" class="st0" d="M12.3 362.3s-2 2.9-1.7 12.8c.2 7 3.7 16.8 3.7 16.8l4.3-1.7-3.2-9-1.6-3.8"/><path id="Fill-20" class="st0" d="M-2.9 393.9s1.9 20.9 4.5 28.7c2.5 7.5 5.5 11.1 5.5 11.1l-.4 2.9H2.8s-3.2-5.5-3.2-6-1.9-9.6-1.9-9.6l-1.1-11.5.4-15.5"/><path id="Fill-21" class="st0" d="M8.4 393.1s6.1 19.4 10.2 26.6c4 6.8 7.7 9.7 7.7 9.7l1.1 1.1-1 3-1.9.4-1.1-1.1s-5-4.5-5-5c-.1-.5-3.9-9-3.9-9l-3.4-11-3-14.4"/><path id="Fill-22" class="st0" d="M-3.2 335.8s.2 7.1 6.1 7.6c6.3.6 8.9-4.7 8.9-4.7s-.2 9.5-7.5 8.9c-7.3-.6-8-4.6-8-4.6s-1.3-3-1.2-3.4c.1-.6 1.7-3.8 1.7-3.8"/><path id="Fill-23" class="st0" d="M1.2 325.1s-.2 3.3 1.9 5.1c2.1 1.8 10.8 2.3 10.8 2.3s-5.2 2.4-8.6 2c-3.4-.4-6.4-2.9-6.4-2.9s-.5-3.4-.5-3.9c.1-.5 2-3.1 2-3.1v.9"/><path id="Stroke-24" class="st1" d="M14.4 391.8c2.1-.2 4.5-1.8 4.5-1.8s-5.1-10.9-5.9-16.1c-.8-5.2-.3-11.4-.3-11.4 9.3 4.8 12.3 13 13.3 17.7.8 3.7 1.5 8.6 4 8.7 1.1 0 2-2.1 2.1-4.8.2-2.7-1.1-12.4-6.4-20.8-5.5-8.6-14.9-11.4-14.9-11.4m-16.5-.2s-3 .7-5.1 4.5c-2.1 3.8-5.2 12.7-8.1 16.7-4.6 6.3-11.2 9.7-8.7 13.1 2.1 2.9 8.3-1.7 12.4-6.9 5.5-7 10.4-15.8 10.4-15.8s-2.3 9.5-3.1 17.5c-.4 4.5-.4 8.2.2 12.8 1.5.5 4.4.2 4.4.2-1 11.7.8 25.7 2.2 32.7 1.3 6.9 4 11.3 6.1 10.8 2.6-.7 2.2-5.2 1.7-7-.4-1.7-2.6-8.5-3.4-18.1-.7-9.5-.5-18.2-.5-18.2l5-.6m4.4-54.6c.2 4.6-3.3 8.5-7.9 8.7-4.6.2-8.5-3.3-8.7-7.9-.1-1.4.2-2.7.7-3.8m4.5-10.7s-4.4 3.2-1.7 6.5c4.4 5.4 15 1.4 15 1.4M8 393.3c1.7 11.6 6.6 24.9 9.5 31.4 2.9 6.4 6.4 10.2 8.4 9.1 2.4-1.2.9-5.6.1-7.2-.8-1.6-4.5-7.6-7.4-16.9C15.7 400.6 14 392 14 392"/><path id="Fill-25" class="st0" d="M-55.1 398.6s-6.2 17.7-10.5 24.6c-4.1 6.6-8.5 10.6-8.5 10.6l.4 1.7 4.4.3s4-5.4 4-5.9c.1-.5 3.8-7.5 3.8-7.5l3.6-10.8 2.9-13"/><path id="Stroke-26" class="st1" d="M-54.6 398.7c-1.8 11.4-6.8 23-9.8 29.4-2.9 6.3-6.6 9.9-8.5 8.9-2.3-1.2-.9-5.5 0-7 .8-1.5 4.6-7.4 7.6-16.5 3-8.9 4.8-16 4.8-16"/></g><path id="Fill-1_1_" class="st0" d="M415 353.5c-.9-1-.4-2 1.1-1.4 6.6 3.4 13.6 8.9 16.6 15.2 2.3 4.6-.2 7.7-4.9 11.2-.6.4-1.9 1.8-2.4 1.5-1.6.9-3.2.8-5.3.8-1.9 0-2.1-1.8-.2-1.8 4 0 8.6-4.4 9.7-6.8 1.7-3.9-1.6-6.5-4.2-9.3-2.8-3.3-7.4-6.2-10.4-9.4"/><path id="Fill-2_1_" class="st0" d="M406.8 435.2c1.5.1 22.8-.7 24.7 1.8 1.6 2-16.2 2.6-24.5 2.8-8.5.2-30.2.3-28.5-2 2.2-3 20.6-2.9 28.3-2.6"/><path id="Fill-3_1_" class="st0" d="M398.9 361.9s1.6 11.8 1 19.8c-.5 7.6-1.8 15.9-1.8 15.9l-5.2-1.2s2.8-10.6 3.8-16.3c.9-5.7 2.2-18.2 2.2-18.2"/><path id="Fill-4_1_" class="st0" d="M415.2 398.5s-2-12.5-1.9-20.1c.1-8.8 1.9-16 1.9-16l3.5 28.1 1.8 6.7-5.3 1.3"/><path id="Fill-5_1_" class="st0" d="M417.2 338.6s-3.3 5.2-9.5 3.5c-6.5-1.8-5.8-6.5-5.8-6.5s-1.9 5.7 1.6 8.7c2.2 1.9 7.9 1.9 8.4 2 .5 0 2.4-1.2 2.7-1.6.3-.4 2.9-5.2 2.9-5.2l-.2-.8"/><path id="Fill-6_1_" class="st0" d="M407.9 322.7s-2.6 2.4-1.6 5.1c.9 2.4 3.2 3 6.1 2 3.4-1.2 8.9-3.9 14.6-1.1 5.9 2.9 2.7 13.9 4.2 18.8 1.8 6 10.6 3 10.6 3s-.3 4.7-9 3.2c-4.6-1.7-5.8-8.5-5.8-9 0-.6.4-7.7.4-7.7l-2.2-3-1.9-1.4s-8.4.7-8.8.8c-.3.1-7.2.5-8.3-.7-1.2-1.2-2.8-3.1-3.1-3.9-.3-.8 0-3.6 0-3.6l1.6-2.3 3.1-.3"/><path id="Fill-7" class="st0" d="M401.3 436.3c.7-.4 1.6-.4 2.4-.1.3-.4.4-1 .1-1.6-3.7-8.2-4.9-22.2-5.2-36.7 0-1.9-1.3-1.9-1.5 0-.2 13.3-.8 35.1 4.1 38.2 0 .1.1.2.1.2"/><path id="Fill-8_1_" class="st0" d="M415.7 435.8c.5-.3 1-.4 1.7-.4.6 0 1.1.2 1.5.5 0-.2-.1-.3-.2-.5-4.4-7.9-6.9-21.7-8.5-36.1-.2-1.9-2.1-1.2-2.1.7.9 4.7 1.4 25.8 6.5 35.3.1-.1 1 .6 1.1.5"/><path id="Stroke-9" class="st1" d="M408.5 399.4s.3 8 1.9 19.6c1.4 10.2 3.5 18.9 7.4 17 3.3-1.6-.5-10-1.8-24-.6-6.2-1.3-13-1.3-13m-17.3-1.6s-.8 9.5-.3 21.3c.4 10.3 1.5 19.1 5.7 17.6 3.4-1.2.5-10 .7-24.1.1-6.2.4-13.3.4-13.3m11.2 0s2.2-.1 5.7-1.6c-3.1-5.6-5.5-28-5.1-35m-11.8 36.6c1.6.3 4.6.4 4.6.4m7.3-37.2s10.6 4.3 10.2 7.9c-.3 2.8-2.5 3.3-5.4 5.5-2.4 1.8-2.6 4.5-.3 5.2 3.5 1.1 13.3-4 13.2-10.7-.1-4.9-12.2-17.1-18.3-17.7m2.4-13.6c-.4 4.6-4.4 8-9 7.6-4.6-.4-8-4.4-7.6-9 .1-.7.2-1.3.4-1.9m6.2-13.1s-3.6-.4-4.7 4.1c-1.1 4.4 3.3 7.8 9 7.3 5.7-.4 10.3-3.8 14.1 1.4 2.9 3.9-1.1 12.8 3.9 16.8 4.9 4 10.6 2.1 12-1"/><path id="Fill-10" class="st2" d="M403.5 352.7c-.7 1.1 2.9 4.6 4.1 4.7 1.4.1 4.5-3 4.2-4.2-.3-1.1-2.2-.3-4.2-.5-1.8-.1-3.5-1-4.1 0z"/><path id="Stroke-11" class="st3" d="M403.5 352.7c-.7 1.1 2.9 4.6 4.1 4.7 1.4.1 4.5-3 4.2-4.2-.3-1.1-2.2-.3-4.2-.5-1.8-.1-3.5-1-4.1 0z"/><path id="Fill-12" class="st2" d="M407.4 356.6s-4.8 11.8-4.7 19.2c0 .9 3.2 6.2 4.4 6.1 1.2-.1 3.9-6.5 3.6-7.5-1.8-5.5-3.1-13.1-2.5-17.7"/><path id="Stroke-13" class="st3" d="M407.4 356.6s-4.8 11.8-4.7 19.2c0 .9 3.2 6.2 4.4 6.1 1.2-.1 3.9-6.5 3.6-7.5-1.8-5.5-3.1-13.1-2.5-17.7"/><path id="Fill-2_2_" class="st0" d="M134.4 285.1c-9.7 6.9-12.2 9.9-12.4 11.4-1.2 7.8.2 18.1.5 26.8.2 5.3 4.6 7.9 5.7 2.6-.3-11-7.5-29 6.2-34.1 4.8-2.3 4.7-5.6.7-6.8"/><path id="Fill-2_5_" class="st0" d="M249.6 285c-4 1.2-4.1 4.5.7 6.8 13.7 5.1 6.5 23.1 6.2 34.1 1.1 5.2 5.6 2.6 5.7-2.6.3-8.7 1.7-19 .5-26.8-.2-1.4-2.7-4.5-12.4-11.4"/><path id="Fill-2_3_" class="st0" d="M191.9 285.1c-9.7 6.9-12.2 9.9-12.4 11.4-1.2 7.8.2 18.1.5 26.8.2 5.3 4.6 7.9 5.7 2.6-.3-11-7.5-29 6.2-34.1 4.8-2.3 4.7-5.6.7-6.8"/><path id="Fill-2_4_" class="st0" d="M192.2 285c-4 1.2-4.1 4.5.7 6.8 13.7 5.1 6.5 23.1 6.2 34.1 1.1 5.2 5.6 2.6 5.7-2.6.3-8.7 1.7-19 .5-26.8-.2-1.4-2.7-4.5-12.4-11.4"/><path id="Fill-2_9_" class="st0" d="M191.8 342.4c-12.4 8.7-15.5 9.4-15.8 11.2-1.5 9.9-.7 46.2-.4 57.3.2 6.7 4.9 10 6.3 3.4-.4-14-9.5-56.8 7.9-63.3 6.1-2.9 8-7.1 2.9-8.6"/><path id="Fill-2_8_" class="st0" d="M192.1 342.3c-5.1 1.5-3.2 5.8 2.9 8.6 17.5 6.5 8.3 49.3 7.9 63.3 1.4 6.6 5.7 3.3 5.9-3.4.3-11.1 1.5-47.1 0-57-.3-1.8-3.5-2.8-15.8-11.5"/><path id="Fill-8_2_" class="st0" d="M121.7 306.3c-3.1.2-15.5-.7-18.7-.4-6.5.6-6.3-4-6.3-8.8 0-7.3.6-23.6 3.3-30.5 1.9-4.9-3.8-7.3-4.7.8-.6 5.4-2.1 13.5-2.6 18.6-.6 5.8-1.6 17-.4 22.8 1.1.5 11 2.3 20.6 1.7 5.2-.3 11.4 2.1 8.9-2.5"/><path id="Fill-9_1_" class="st0" d="M286.3 262.7c-30.2-2.4-78.7-2.4-88.9-2.5-47.2-.2-53.3-.7-96.3 1.3-5.3.1-4.7 6.2.6 6.1 26.9-2.1 59-3.2 94.2-2.6 16.4.3 43.3.8 59.7 1.5 5.6.2 13.4.7 19 .6 13.2-.3 14.5 28.9 13.7 36.3-.5 5.3 4.6 6.6 5.1 1.4-.3-13-2.5-32.5-6.5-41.5"/><path id="Fill-10_1_" class="st0" d="M118.7 310.8c-2.7-.5-8.8-.1-11.5-.6-1.3.1-2.6-.9-2.1 1.7-.2 8.3-.1 29.3.2 40.7.7 24.3.7 38.2 2.1 61.5.4 1.2 1.8 2.5 3.4 2.5 1.5 0 3.3-1.8 2.8-2.4-4-17.4-3.8-46.3-4.1-64.1-.1-7.6-.1-15.3-.3-22.9-.6-14 2.6-12.9 12.8-12.9 5.4 0 2.9-3-2.2-3.7"/><path id="Fill-14_1_" class="st0" d="M263.8 310.5c-5.3.3-3.1 5.4 2.2 5.1 2.7-.2 7.9-.3 10.6-.4-.5 30.9-2.4 67.3-2.4 98.2 0 5.3 5.7 5.3 6.1 0 1.5-16.5 1-34.6 1.2-52.1s-.4-34.1-.2-50.2c0-2.2-4-.7-6.2-.7"/><path id="Stroke-22" class="st1" d="M280 415.9c2.7-3.8 1.4-104.1 1.4-104.1m-176.4 0s0 99.8 2.7 103.2m14.4-118.8s-.8 29.5 1.8 31.7c2.6 2.2 20 3.2 22.2.2s2.1-32 2.1-32m-33.1 6.6s16.8-17.6 19.8-17.8c3.1-.2 20.3 18.1 20.3 18.1m24.3-6.8s-.8 29.5 1.8 31.7c2.6 2.2 20 3.2 22.2.2s2.1-32 2.1-32m-33.1 6.6s16.8-17.6 19.8-17.8c3.1-.2 20.3 18.1 20.3 18.1m24.3-6.8s-.8 29.5 1.8 31.7c2.6 2.2 20 3.2 22.2.2s2.1-32 2.1-32m-33 6.6s16.8-17.6 19.8-17.8c3.1-.2 20.3 18.1 20.3 18.1m-148 50.6s-.8 29.5 1.8 31.7c2.6 2.2 20 3.2 22.2.2 2.2-3.1 2.1-32 2.1-32m-33.1 6.7s16.8-17.6 19.8-17.8c3.1-.2 20.3 18.1 20.3 18.1m52.7 55.4c2.8-3.2 1.1-62.4 1.1-62.4m-33 .1s-2.4 59.7.8 62m-9.6-55.4s21.2-17.6 25.1-17.8c3.9-.2 25.8 18.1 25.8 18.1m18.8-6.9s-.8 29.5 1.8 31.7c2.6 2.2 20 3.2 22.2.2 2.2-3.1 2.1-32 2.1-32m-33 6.7s16.8-17.6 19.8-17.8c3.1-.2 20.3 18.1 20.3 18.1m-6.4-49.8c16.6-.4 27.7-1 28.5-1.8 3.1-3.3-1.8-44.2-5.9-46.3-4.1-2.1-185.4-4.9-189.7 0-1.8 2.1-6.9 43.2-4.1 46.3.7.7 12.2 1.3 29.3 1.7m84.1.8c10.7 0 21.1-.1 30.9-.2m-88.7-.1c9.8.1 20.4.2 31.2.2m-72.7 90.3s50.8-.9 68 .3m34.7-.2s53.7-.9 72 .3M79.9 384.1h10.8m-28.8 12.8h20m-20.5 12.8h10.8m41 34.9h20.5m-34.8 11.8h16.4m49.2-13.8h10.8m100.5-2.1h16.9m8.2 8.7h19.5M275.8 461h9.7m-43.1-16.4h8.7m-22 15.9h9.2M208.1 442h9.7M148 455.9h20.2m156.3-28.7h16.4m-12.8-15.9h8.2m1-11.3h9.2"/><path class="st0" d="M377.6 372.6c8.8 4.4 10.5-4.4 13.7-10.5 2.3-4.4 3.1-7.2 7.1-10.4 2.9-2.4 4.1.6 1.3 2.1-10 5.2-6.5 28-25.8 20.4-1.8-.8 2-2.5 3.7-1.6z"/><path class="st5" d="M400.9 351s-4.5-.4-8.1 7.1c-2 4.2-5.8 16.6-11.8 15.5-4.2-.8-5.1-2-6.8-1-2 1.2-1.2 3 1.8 5.3 5 4 11.4 1.1 15.1-3.2 4.4-5.2 7.8-12.8 7.8-12.8-.2 4.9-2.6 25.8-6.2 34.2 2 1.4 4.8 1.2 4.8 1.2"/><path class="st6" d="M374.1 334.3c.7.1 2.6 2.4 2.7 3.3.1.8.3 19.9.3 19.9s-4.8.4-5.3-.4c-.6-.7-.2-4.5-.2-4.5s2-.2 2-1.3c0-1.4-1.9-.9-2-2.1-.1-1.1 2.1-.8 2.1-2.1 0-.7-2-.8-2.1-1.7-.1-.8 2-1.3 2-2.2 0-1.2-2-1-2-1.7s2-1.3 2-2.1c0-1.3-2.2-1.2-2.2-2.1s1.9-3.1 2.7-3z"/><path class="st6" d="M365.6 364.1c0 4.8 3.9 8.7 8.7 8.7 4.8 0 8.7-3.9 8.7-8.7 0-4.8-3.9-8.7-8.7-8.7-4.8 0-8.7 3.9-8.7 8.7zm5.3 3.7c0-1.9 1.5-3.4 3.4-3.4s3.4 1.5 3.4 3.4-1.5 3.4-3.4 3.4-3.4-1.5-3.4-3.4z"/></svg>
