<svg xmlns="http://www.w3.org/2000/svg" viewBox="0 0 82 82"><path fill="#DFE8EF" d="M35.1 24.6c-1.3.9-2.6 1-4.1.9-.6 0-.9-.1-1.5-.2-.9-.2-.3-.3-.5.6.2-.9-1-1.8-1.7-1-.9 1-2.1 2.4-2 3.8.2 1.3 2.2 1.3 2 0-.1-.5.4-1.2.8-1.7.3.1.7.2 1 .3 2.5.5 4.8.6 6.9-.9 1.1-.8.1-2.5-.9-1.8zM42.3 13.9c-.8-1-2.5 0-1.7 1 1.2 1.6 0 3.7-.3 5.4-.2 1.3 1.7 1.8 1.9.5.3-2.2 1.6-4.8.1-6.9zM48.4 33.9c2.9-2.4 4.6-4.9 4.8-8.8.1-2-.7-3.9-1.5-5.7-1.3-2.9-2.7-3.5 1-5.6 1.1-.6.1-2.4-1-1.7-1.1.6-5.5 3.1-4.2 5 1.3 1.9 2.6 3.3 3.4 5.5 1.5 4.4-1.2 7.9-4.5 10.5-.4.3-.4 1.1 0 1.4 1 1 1.6 2.3 2.6 3.2 1 .9 2.4-.5 1.4-1.4-.8-.7-1.4-1.6-2-2.4z"/><path fill="#DFE8EF" d="M80.4 16.8c0-1.3-2-1.3-2 0 0 4.1-.1 24.4-7.6 22.4-6.6-1.8-13.8-1.4-20.5-3.2-1.3-.3-1.8 1.6-.5 1.9 4.5 1.2 8.8 1.8 13.4 2.2 3.4.3 8.4 2.4 11.8 1.1 2.7-1 3.3-6.5 3.8-8.7 1.1-5.1 1.6-10.2 1.6-15.7 0 .1 0 .1 0 0zM34.8 31.8c.2-.4-.1-.9-.5-1.1-2.1-1.5-4.6-1.8-6.6-3.8-.9-.9-2.3.5-1.4 1.4 1.7 1.7 3.6 2.4 5.8 3.4.8.4-.9 2-1 2.6-.3.9 1.1 3.3.8 3.6-.8.7-.3 1.8 0 2.5 1 2.2-1.9 2.4-1.9 4.1 0 .8 1.6 3.2 1.6 3.3-.5 1-.9 1.8-.2 2.7.8 1 2.5 0 1.7-1-.1-.1.7-1.9.7-2.3.1-.9-1.1-1.9-1.7-2.4.9.8 1.8-2.6 2-2.9.3-.5.1-1.4-.1-1.8-.5-1 .1-1.3.2-2.3.2-1-1.6-2.5-.9-3.3.6-.8 1.1-1.8 1.5-2.7zM32.7 54.6c-.1-.3-.3-.9-.6-1.2l-.2-.2c1-.4.4-2-.8-1.8-.8.1-1.4.3-1.9.9-.2.3-.2.8 0 1 .5.7 1.9 1.3 1.2 2.5-.4.7-.3 1.9-.4 2.7-.2 3-.9 6.1-.9 9.1 0 1.3 2 1.3 2 0 0-1.5.4-3 .5-4.5.2-2.1-.1-5.1.9-7 .2-.5.4-1.1.2-1.5zM38.4 34.3c-1.4 11.9-2.6 24-4.7 35.8-.2 1.3 1.7 1.8 1.9.5 2.1-12.1 3.4-24.2 4.8-36.3.2-1.2-1.8-1.2-2 0zM38.2 9.7c-4.4-6.2-10.7-7.5-17.9-5-7.1 2.4-4.9 10.9-1.6 15.3.8 1 2.5 0 1.7-1-3-4-4.4-10.7 1.5-12.7 5.7-1.9 11.1-.4 14.5 4.5.8.9 2.5-.1 1.8-1.1z"/><path fill="#DFE8EF" d="M19.3 20.9c-.2.6-1.2.7-1.6 1.2-.3.4-.3.8-.2 1.2.6 1.3.4.5-.2 1.6-.2.3-.3 2.7-.6 2.9-.4.3-.8.7-.8 1.2-.5 4.1.5 1.6-1.5 1.9-.3 0-.6.4-.7.7-.6 2 1 2.7-.9 4.2-.3.2-.3.6-.3 1 .2 1.2-1.2 1.1-1.9 1.7-.4.3-.6.7-.5 1.1.6 1.9-.2 3.1-1.1 4.6-.2.3-.2.7 0 1 .2.2-3.3 7.4-3.6 8.2-.2.6.3 1.3 1 1.3h.1c.6 0 .9-.5 1-1 1-2.8 2-5.7 3.6-8.2.2-.3.2-.7 0-1 0 .1 1.6-2.1 1.6-2.8-.1-1.9-.5-1.6.4-2.1 2.1-1.1 1.1-2.5 2.8-3.5.3-.2.5-.5.5-.9 0-.8-.1-2-1.1-2.4.6.2 1 .4 1.6.1.3-.1.6-.3.7-.7.2-1.1 1.6-6 2.4-6.8.4-.4.7-1.5.3-2-1-1.4-.5-.2.5-.8.4-.3.5-.8.7-1.2.2-1.2-1.8-1.7-2.2-.5zM24.3 23.8c-3.1 5.5-5.8 11.3-8.7 17-2.6 5-5.6 10.1-7.4 15.4-.4 1.2 1.5 1.7 1.9.5 1.9-5.6 5.2-11 7.9-16.3 2.7-5.2 5.1-10.5 8-15.6.7-1.1-1.1-2.1-1.7-1zM34.9 19.4c-1.2 1.1-3.6 2.4-5.3 1.3-1.1-.7-2.1 1-1 1.7 1.1.8 2.7.6 4 .4 1.6-.3 2.6-1 3.7-2 1-.8-.4-2.2-1.4-1.4zM36.9 16.5c-1.3 0-1.3 2 0 2s1.3-2 0-2zM48.2 22.6c-.4-1.2-2.4-.7-1.9.5.3.9.6 1.6.1 2.5-.6 1.1 1.1 2.1 1.7 1 .8-1.3.6-2.6.1-4z"/><path fill="#A5B2BB" d="M27.2 15.4c-.3 0-.5-.2-.5-.5-.2-3 1.1-9.1 4.8-12.3C33.7.7 36.3 0 39.3.6c2.6.5 4.3 1.8 5.2 3.9 1.4 3 .5 7.4-1.1 10-.1.2-.4.3-.7.2-.2-.1-.3-.4-.2-.7 1.2-2 2.4-6.1 1.1-9.1-.6-1.8-2.2-2.9-4.4-3.3-2.7-.5-5 .1-7 1.8-3.4 3-4.7 8.7-4.5 11.5.1.2-.1.5-.5.5.1 0 .1 0 0 0z"/><path fill="#A5B2BB" d="M29.5 16.4c-1.7 0-3.7-1.4-4.9-2.8-.5-.6-1.1-1.5-1-2.2.2-1.6 2.9-2.6 4.6-2.6.8 0 1.4.2 1.8.5.9.7 1.9 2.5 1.9 4.1 0 .9-.2 1.7-.8 2.3-.3.5-.9.7-1.6.7zm-1.3-6.6c-1.6 0-3.5.9-3.6 1.7 0 .2.2.7.7 1.4 1 1.2 2.8 2.4 4.2 2.4.4 0 .8-.1 1-.4.3-.3.5-.8.5-1.5-.1-1.3-.9-2.8-1.6-3.4-.2 0-.6-.2-1.2-.2z"/><path fill="#A5B2BB" d="M7.7 59.5c-1 0-1.3-.6-1.4-.8-.3-1-.7-3.2-.7-3.8-.6-.7-2-2.4-2-3.3 0-.9.9-1.6 1.5-2.2.1-.1.2-.2.3-.2 0-.1-.1-.3-.2-.5-.2-.5-.4-1.1-.2-1.7.3-.6 1.1-.6 1.4-.6h.9c.2-.3 1.5-2.7 2.6-5.1-.4-.5-1-1.4-1-2.3 0-.4.2-.7.4-.9.6-.6 1.4-.7 2.1-.8.3-.1.7-.1.8-.2 0-.1-.1-.4-.1-.5-.1-.4-.4-1 0-1.6.3-.4.6-.6.9-.8.3-.1.4-.2.6-.5 0-.1-.2-.6-.3-.8-.4-.7-.8-1.5-.3-2.4.5-.8 1.3-.9 1.8-1 .3 0 .5-.1.6-.2.1-.2.1-.5.1-.8 0-.5 0-1.2.5-1.7.2-.2.3-.4.3-.6.1-.3.1-.6.5-.9 0-.2-.1-.5-.1-.8-.1-.6-.3-1.4 0-1.9.4-.7 1.4-1.6 2.1-2.1-1.6-1.4-6.4-6.3-4.3-11.4 1.7-4 6.3-6.8 11.6-6.8 2.5 0 5 .6 7.2 1.8 3.9 2 7 6.7 7.5 11.4.4 3.2-.5 5.9-2.5 7.6-2 1.7-4.3 2.5-6.8 2.5-1.8 0-3.2-.4-3.8-.7-3.1 6.3-16.1 32.3-16.9 33.1-.6.8-2 1.5-3.1 1.5zM6.5 47.4c-.4 0-.5.1-.5.1-.1.1 0 .5.1.8.2.5.5 1.1 0 1.5l-.4.4c-.4.4-1.2 1-1.2 1.4 0 .3.9 1.6 1.9 2.8.1.1.1.2.1.3 0 0 .4 2.7.7 3.8 0 .1.3.1.4.1.8 0 2-.6 2.4-1 .7-.9 10.5-20.4 16.9-33.3.1-.2.4-.3.7-.2 0 0 1.7.7 3.9.7 2.3 0 4.4-.8 6.2-2.3 1.7-1.4 2.5-3.8 2.2-6.7-.5-4.4-3.4-8.8-7-10.6-2.1-1.1-4.4-1.6-6.8-1.6-4.9 0-9.2 2.5-10.7 6.1-2.2 5.3 4.5 10.6 4.5 10.7.1.1.2.2.2.4s-.1.3-.2.4c-.5.4-1.9 1.5-2.3 2.1-.1.2 0 .8.1 1.2.1.7.3 1.4-.2 1.8-.1 0-.1.1-.1.3-.1.3-.2.7-.6 1.1-.2.2-.2.4-.2.9s0 1-.3 1.4c-.4.5-.9.5-1.3.6-.5.1-.8.1-1.1.5-.2.3 0 .8.3 1.4.3.6.7 1.2.3 1.8-.3.5-.7.7-1 .9-.2.1-.4.2-.5.4-.1.1 0 .4.1.7.2.5.4 1.1-.1 1.5-.3.3-.8.4-1.4.5-.6.1-1.2.2-1.6.6 0 0-.1.1-.1.2 0 .5.6 1.5 1 1.8.1.2.2.4.1.6-.8 1.6-2.6 5.2-3 5.6-.3.3-.7.3-1.1.3h-.4z"/><path fill="#A5B2BB" d="M16.4 34.2c-.1 0-.1 0-.2-.1-.2-.1-.3-.4-.2-.7l5.5-11.1c.1-.2.4-.3.7-.2.2.1.3.4.2.7l-5.5 11.1c-.1.2-.3.3-.5.3zM9.1 49c-.1 0-.1 0-.2-.1-.2-.1-.3-.4-.2-.7l5.8-11.7c.1-.2.4-.3.7-.2.2.1.3.4.2.7L9.6 48.7c-.1.2-.3.3-.5.3zM6.1 55.2c-.1 0-.1 0-.2-.1-.2-.1-.3-.4-.2-.7l1.5-3.1c.1-.2.4-.3.7-.2s.3.4.2.7l-1.5 3.1c-.2.2-.3.3-.5.3zM21.7 29.5c-.1 0-.1 0-.2-.1-.2-.1-.3-.4-.2-.7l2.5-5.1c.1-.2.4-.3.7-.2.2.1.3.4.2.7l-2.5 5.1c-.2.2-.3.3-.5.3zM14.5 43.9c-.1 0-.1 0-.2-.1-.2-.1-.3-.4-.2-.7l2-3.9c1.3-2.6 2.5-5.1 3.8-7.7.1-.2.4-.3.7-.2.2.1.3.4.2.7-1.3 2.6-2.5 5.1-3.8 7.7l-2 3.9c-.1.2-.3.3-.5.3zM7.9 57.4h-.2c-.2-.1-.4-.4-.2-.7 1.7-3.5 3.4-7 5.1-10.4.1-.2.4-.3.7-.2.2.1.3.4.2.7-1.7 3.5-3.4 6.9-5.1 10.4-.1.1-.3.2-.5.2zM38.4 25.6c-.9 0-1.9-.2-2.9-.6-.3-.1-.4-.4-.3-.6.1-.3.4-.4.6-.3 1.7.7 3.9.8 4.5-.3.3-.7 0-1.7-.8-2.8-.2-.2-.1-.5.1-.7.2-.2.5-.1.7.1 1.1 1.4 1.5 2.8 1 3.9-.5.9-1.6 1.3-2.9 1.3z"/><path fill="#A5B2BB" d="M33.4 73.4c-.4 0-.7-.2-.9-.5-.6-.8-1.7-2.8-2-3.3-.8-.4-2.7-1.6-3-2.4-.3-.8.3-1.8.7-2.6.1-.1.1-.2.2-.3-.1-.1-.2-.3-.3-.4-.4-.4-.8-.8-.7-1.5.1-.7.8-1 1.4-1.2.2-.1.5-.2.6-.3.1-.3.5-3.1.8-5.7-.5-.3-1.5-1-1.7-1.8-.1-.4-.1-.7.1-1 .4-.7 1.1-1.1 1.7-1.5.3-.2.6-.4.7-.5 0-.1-.2-.3-.3-.4-.3-.4-.7-.8-.5-1.5.1-.5.4-.8.6-1 .2-.2.3-.3.4-.6 0-.1-.4-.5-.6-.6-.6-.5-1.3-1.2-1.1-2.1.2-.9.9-1.3 1.4-1.5.3-.1.5-.2.5-.4.1-.2 0-.5-.2-.8-.2-.5-.4-1.1-.1-1.7.1-.3.1-.5.1-.7 0-.3-.1-.6.2-1 0-.2-.2-.5-.4-.7-.3-.6-.7-1.2-.6-1.8.1-.8.8-2 1.2-2.7-1.3-.5-4.2-1.9-6.2-4.3-.4-.1-.4-.4-.2-.6.2-.2.5-.1.7.1 2.3 2.8 6.3 4.2 6.3 4.2.1.1.3.2.3.3 0 .1 0 .3-.1.4-.4.5-1.3 2-1.4 2.8 0 .2.3.8.5 1.1.4.6.8 1.2.4 1.8v.3c0 .3.1.8-.2 1.3-.1.2 0 .5.1.9.2.4.3.9.2 1.5-.2.6-.7.8-1.1 1-.5.2-.7.4-.8.8-.1.4.3.7.8 1.2.5.4 1 .9.9 1.5-.1.6-.4.9-.6 1.2-.2.2-.3.3-.4.5 0 .1.2.4.4.6.3.4.7.9.4 1.5-.2.4-.6.7-1.1 1-.5.3-1 .6-1.3 1.1 0 .1-.1.1 0 .3.2.5 1.1 1.1 1.5 1.4.2.1.3.3.3.5-.2 1.7-.6 5.8-.9 6.3-.2.4-.7.6-1.2.8-.2.1-.7.2-.7.3 0 .1.3.5.5.7.4.4.8.9.5 1.4-.1.1-.1.3-.3.5-.3.5-.8 1.4-.6 1.8.1.3 1.4 1.2 2.7 1.9.1 0 .2.1.2.2 0 0 1.3 2.4 2 3.3 0 0 .1.1.2.1.7-.1 1.8-1.1 2.2-1.8.4-1.1 2.9-22.8 4.6-37.1 0-.3.3-.5.5-.4.2 0 5.9.4 8.9-4.8 1.1-1.8 1-4.2-.1-6.7-1.8-3.9-5.8-7.1-9.7-7.8-.3-.1-.4-.3-.4-.6.1-.3.3-.4.6-.4 4.3.8 8.6 4.3 10.5 8.4 1.3 2.8 1.3 5.5 0 7.6-2.9 4.9-7.8 5.3-9.4 5.3-.8 7-4.1 35.8-4.6 36.9-.4.9-1.8 2.3-3 2.4 0-.2 0-.2-.1-.2z"/><path fill="#A5B2BB" d="M33.5 46.6c-.1 0-.1 0 0 0-.3 0-.5-.3-.5-.6l1.4-12.3c0-.3.3-.5.6-.4.3 0 .5.3.4.6L34 46.2c-.1.2-.3.4-.5.4zM31.6 63c-.3 0-.5-.3-.5-.6l1.4-13c0-.3.3-.5.6-.4.3 0 .5.3.4.6l-1.4 13c0 .2-.2.4-.5.4zM30.9 69.8s-.1 0 0 0c-.3 0-.5-.3-.5-.6l.4-3.4c0-.3.3-.5.6-.4.3 0 .5.3.4.6l-.4 3.4c-.1.2-.3.4-.5.4zM36.8 40.4c-.3 0-.5-.3-.5-.6l.6-5.6c0-.3.3-.5.6-.4.3 0 .5.3.4.6l-.6 5.6c0 .2-.2.4-.5.4zM35 56.4c-.3 0-.5-.3-.5-.6l.5-4.3c.3-2.9.6-5.7 1-8.6 0-.3.3-.5.6-.4.3 0 .5.3.4.6-.3 2.9-.6 5.7-1 8.6l-.5 4.3c0 .2-.2.4-.5.4zM33.4 71.3c-.3 0-.5-.3-.5-.6.4-3.9.8-7.7 1.2-11.6 0-.3.3-.5.6-.4.3 0 .5.3.4.6-.4 3.8-.8 7.7-1.2 11.5 0 .3-.3.5-.5.5zM75 42.2c-6.2 0-25.2-2.6-26.3-3.9-.8-.9-4.1-4.8-4.3-4.9-.2-.2-.2-.5.1-.7.2-.2.5-.2.7.1 0 0 3.4 4 4.2 4.9 1.4.9 24.9 4.4 26.9 3.5 1.1-.5 3.3-9.7 4-18 .4-4.9 0-6.5-.3-6.7-1.4-1-26.8-4.2-28.3-4.1-.9 0-3.4 2.4-4.9 4-.2.2-.5.2-.7 0-.2-.2-.2-.5 0-.7.6-.7 4-4.2 5.6-4.3h.1c2.1 0 27 2.9 28.8 4.3.3.3 1.4 1 .5 9-.6 5.7-2.5 16.6-4.5 17.4-.2.1-.8.1-1.6.1z"/><path fill="#A5B2BB" d="M76.3 20.5h-.1c-3.4-.7-6.9-1.2-10.4-1.6l-1.5-.2c-.3 0-.5-.3-.4-.6 0-.3.3-.5.6-.4l1.5.2c3.4.4 7 .8 10.5 1.6.3.1.4.3.4.6-.1.2-.4.4-.6.4zM61.1 18.3c-.1 0-.1 0 0 0-1.5-.2-2.9-.3-4.3-.5-.3 0-.5-.3-.4-.5 0-.3.3-.5.5-.4 1.4.2 2.8.3 4.2.5.3 0 .5.3.4.6 0 .2-.2.3-.4.3zM75.8 25.7h-.1c-4.6-1-19.3-2.6-19.4-2.6-.3 0-.5-.3-.4-.5 0-.3.3-.5.5-.4.6.1 14.9 1.6 19.6 2.6.3.1.4.3.4.6-.2.2-.4.3-.6.3zM75.1 31H75c-1.7-.4-3.5-.6-5.4-.9-.3 0-.5-.3-.4-.6s.3-.5.6-.4c1.9.3 3.7.5 5.4.9.3.1.4.3.4.6-.1.2-.3.4-.5.4zM66.8 29.7c-3.6-.5-7.3-.9-11.3-1.3-.3 0-.5-.3-.4-.5 0-.3.3-.5.5-.4 4 .4 7.7.9 11.3 1.3.3 0 .5.3.4.6 0 .1-.2.3-.5.3z"/><g><path fill="#A5B2BB" d="M73.6 36.2h-.1c-3.7-.8-7.5-1.2-11.2-1.7l-1.8-.2c-.3 0-.5-.3-.4-.6 0-.3.3-.5.6-.4l1.8.2c3.7.4 7.6.9 11.3 1.7.3.1.4.3.4.6-.2.2-.4.4-.6.4z"/></g><g><path fill="#A5B2BB" d="M57.7 34s-.1 0 0 0c-1.2-.1-2.4-.3-3.6-.4-.3 0-.5-.3-.4-.6 0-.3.3-.5.6-.4 1.2.1 2.4.3 3.6.4.3 0 .5.3.4.6-.1.2-.4.4-.6.4z"/></g><g><path fill="#A5B2BB" d="M31.2 77h-8.7c-.3 0-.5-.2-.5-.5s.2-.5.5-.5h8.7c.3 0 .5.2.5.5s-.2.5-.5.5z"/></g><g><path fill="#A5B2BB" d="M37.3 80.8h-7.5c-.3 0-.5-.2-.5-.5s.2-.5.5-.5h7.5c.3 0 .5.2.5.5s-.2.5-.5.5z"/></g><g><path fill="#A5B2BB" d="M38.5 77.5h-2.3c-.3 0-.5-.2-.5-.5s.2-.5.5-.5h2.3c.3 0 .5.2.5.5s-.2.5-.5.5z"/></g><g><path fill="#A5B2BB" d="M47.8 78.7h-3.5c-.3 0-.5-.2-.5-.5s.2-.5.5-.5h3.5c.3 0 .5.2.5.5s-.2.5-.5.5z"/></g><g><path fill="#A5B2BB" d="M4.8 78.9H1.1c-.3 0-.5-.2-.5-.5s.2-.5.5-.5h3.7c.3 0 .5.2.5.5s-.3.5-.5.5z"/></g><g><path fill="#A5B2BB" d="M13.4 77.5h-5c-.3 0-.5-.2-.5-.5s.2-.5.5-.5h5c.3 0 .5.2.5.5s-.2.5-.5.5z"/></g><g><path fill="#A5B2BB" d="M20.2 81.2H13c-.3 0-.5-.2-.5-.5s.2-.5.5-.5h7.2c.3 0 .5.2.5.5s-.2.5-.5.5z"/></g><g><path fill="#A5B2BB" d="M19.8 78h-2.3c-.3 0-.5-.2-.5-.5s.2-.5.5-.5h2.3c.3 0 .5.2.5.5s-.3.5-.5.5z"/></g><g><path fill="#A5B2BB" d="M58.8 76.6h-6c-.3 0-.5-.2-.5-.5s.2-.5.5-.5h6c.3 0 .5.2.5.5s-.2.5-.5.5z"/></g><g><path fill="#A5B2BB" d="M58.5 79.5h-2.7c-.3 0-.5-.2-.5-.5s.2-.5.5-.5h2.7c.3 0 .5.2.5.5s-.2.5-.5.5z"/></g><g><path fill="#A5B2BB" d="M69.5 80h-5.8c-.3 0-.5-.2-.5-.5s.2-.5.5-.5h5.8c.3 0 .5.2.5.5s-.2.5-.5.5z"/></g><g><path fill="#A5B2BB" d="M73.7 77.8H71c-.3 0-.5-.2-.5-.5s.2-.5.5-.5h2.7c.3 0 .5.2.5.5s-.3.5-.5.5z"/></g></svg>