<svg xmlns="http://www.w3.org/2000/svg" viewBox="0 0 78 81"><path fill="#DFE8EF" d="M38 8.2c-.6 1.3-1.5 2.1-2.4 3.1 0-.1 0-.2.1-.3 0-.3-.2-.6-.3-.9-.3-.6-1.1-.6-1.6-.2-.5.5-.9 1-1.3 1.5-.1-.2-.2-.5-.2-.7-.2-.7-1.2-1-1.7-.4s-.9 1.3-1.2 2c-.4-.5-.7-1-1.1-1.5-.5-.8-1.9-.5-1.9.5 0 .4.1.9.1 1.3-1.5-.9-3-2-3.2-3.6-.2-1.3-2.1-.7-1.9.5.4 2.7 3.7 4.5 5.9 5.8.5.3 1.2 0 1.4-.5.1.1.1.2.2.3.2.3.7.4 1 .3.8-.3 1.1-1 1.3-1.7.1.2.2.4.3.5.2.2.7.4 1 .3.7-.3 1.1-.9 1.6-1.5.2.5.5 1 1.2 1 1.8 0 3.8-3.4 4.4-4.7C40.3 8 38.5 7 38 8.2z"/><path fill="#DFE8EF" d="M26.2 14.8c-12.2 7.6-19.9 18.3-20 33 0 1.3 2 1.3 2 0 .1-14 7.5-24.1 19.1-31.3 1-.6 0-2.4-1.1-1.7z"/><path fill="#DFE8EF" d="M26.6 15c-1.9.3-3.7 2.9-4.8 4.4-1.9 2.6-3 5.8-3.7 8.9-.3 1.3 1.6 1.8 1.9.5.6-2.5 1.4-4.8 2.7-7 .7-1.3 2.7-4.6 4.5-4.9 1.2-.1.6-2.1-.6-1.9z"/><path fill="#DFE8EF" d="M30.6 14.1c-.4.1-.8.4-1.2.7.1-.7-.7-1.5-1.5-1-1.6.9-2.3 3.4-3 5-.9 2-1.4 4.3-1.9 6.5-.2 1.1 1.3 1.8 1.8.8 1-1.9 2-3.8 3.1-5.6.3-.5.8-1.5 1.3-2.4-.2 1.4-.4 2.8-.5 4.2-.1 1.3 1.9 1.3 2 0 .2-1.6.3-3.2.6-4.7.1-.8.6-1.6.5-2.4 0-.8-.5-1.3-1.2-1.1zM37 19.9c-.7-1.9-1.6-3.6-2.8-5.3-.7-1.1-2.4-.1-1.7 1 1 1.5 2 3.1 2.6 4.8.4 1.2 2.3.7 1.9-.5z"/><path fill="#DFE8EF" d="M41.6 19c-.9-1.2-1.9-2.3-2.9-3.4-.9-.9-2.3-2.1-3.5-2.4-1.3-.2-1.8 1.7-.5 1.9 1.1.2 2.2 1.4 2.9 2.2.9 1 1.8 2 2.6 3.1s2.2-.4 1.4-1.4z"/><path fill="#DFE8EF" d="M65.6 35.1c-2.6-6.7-5.1-11.3-11.1-15.4-5.3-3.6-10.7-6.9-17.3-7.6-1.3-.1-1.3 1.9 0 2 5.6.6 10.7 3.5 15.3 6.7 5.8 4.1 8.6 8.3 11.1 14.8.6 1.2 2.5.7 2-.5zM23.6 61.3v-.4c0-.1-.1-.3-.1-.4-.2-.9-1.3-.9-1.8-.3L20.6 58c-.5-1.2-2.4-.7-1.9.5.4 1 .4 2.5.6 3.6 0 .2.1.3.1.5-1.6-1.8-3.2-3.8-4.5-5.7-.7-1.1-2.2-.2-1.7 1 .9 2.2 2 4.2 3.3 6.2l.9 1.2c-3.1-1.3-6.1-3-7.9-5.5-.7-1-2.5 0-1.7 1 3 4.1 8.5 6.3 13.1 8 .9.3 1.5-.8 1.1-1.5.5-.2.8-.6.6-1.2-.3-.9-.6-1.7-.9-2.5.1.1.2.2.3.2.7.5 1.4-.2 1.5-.9.2-.5.2-1 .1-1.6zM67.7 41.9c-.4-1.2-2.3-.7-1.9.5 1.8 5.7 2.6 10.5-.4 16.1-.5 1-1.2 1.9-2 2.7C66.6 57 67 49.9 65.7 45c-.1-.3-.2-.6-.2-.9-.4-1.2-2.3-.7-1.9.5 1.1 3.2 0 6.8-1 9.9-.2.5-.5 1.2-.8 2 0-.8-.1-1.7-.3-2.5.2-1.5.3-3 .1-3.9-.1-1.2-1.5-1.3-2-.3-.4.8-.3 1.9-.1 2.9-.3 2.6-1 6.1-2.4 7 .1.1.2.3.2.5.2 1.1.1 2.2-.1 3.3.2.1.4.1.6.1-.3.3-.6.6-.8.9l-.3.6c-.2.3-.3.7-.3 1.2 0 .4.3.9.7 1 4 .9 8.2-4.8 10-7.6 3.6-5.7 2.5-11.9.6-17.8zM43.8 62.8c0-1-1.4-1.4-1.9-.5-.1.1-.1.3-.2.5-.6-1.3-1-2.6-1.8-3.8-.4-.6-1.3-.7-1.7 0-.2.4-.3.8-.4 1.2-1.1-2.6-1.9-5.4-2-7.8-.1-1.3-2.1-1.3-2 0 .2 3.5 1.6 7.9 3.5 11.4-.3.2-.5.5-.6.8-.1.5-.1.9-.3 1.3-.1 1.6-1 3-2.5 3.5l.3.3c2.3 1.2 3.9 1 6.3.2.1 0 .2-.1.3-.1.6.6 1.7.3 1.7-.7 0-1.1-.2-2 .1-2.9.3-.1.5-.3.5-.6v-.3l.1-.1c.7-.6.6-1.5.6-2.4zM73.8 68.5c-1.4-1.1-3.2-1.1-4.9-1.1-2.1 0-4.3 0-6.3 1-1.1.6-.1 2.3 1 1.7 1.4-.7 3.1-.7 4.6-.7 1.1 0 3.2-.2 4.2.5 1 .8 2.4-.6 1.4-1.4zM55.5 58.9c-3.1 1-6.5 1.5-9.6.2-1.2-.5-1.7 1.5-.5 1.9 3.5 1.4 7.2.9 10.7-.2 1.1-.4.6-2.3-.6-1.9zM54 65.6c-1.1.8-2.4.4-3.7.3-1.5-.1-3.4-.2-4.7-1-1.1-.7-2.1 1-1 1.7 1.4.9 3.4 1.1 5.1 1.3 1.8.2 3.8.6 5.4-.5.9-.8-.1-2.5-1.1-1.8zM31.7 69.8c-1.2.3-2.9 0-4.2-.2-1.3-.2-2.6-.5-3.8-1-1.2-.5-1.7 1.5-.5 1.9 1.4.6 3.1.9 4.6 1.1 1.4.2 3 .5 4.4.1 1.3-.3.8-2.2-.5-1.9z"/><path fill="#A5B2BB" d="M30 67.2c-1.8 0-3.6-.2-4.8-.5-2.4-.6-2.9-1.6-2.8-2.2.2-3 6.6-2.8 7.4-2.8.3 0 .5.2.5.5s-.2.5-.5.5c-1.6-.1-6.2.2-6.3 1.9 0 .3.5.8 2.1 1.2 3.8 1 9.5.4 10.1-1 .3-.6.1-.9 0-1-.5-.8-2.7-1.1-3.4-1.1-.3 0-.5-.2-.5-.5s.2-.5.5-.5 3.4.1 4.3 1.6c.2.4.4 1 0 1.9-.8 1.4-3.8 2-6.6 2z"/><path fill="#A5B2BB" d="M30.7 70.6h-.8c-3.6-.1-6-1.1-7-1.9-.9-.7-.7-3.5-.6-4.3 0-.3.3-.5.5-.4.3 0 .5.3.4.5-.2 1.6 0 3.2.2 3.4.8.7 3 1.6 6.4 1.7 3.6.1 4.8-.6 5.5-1.8.3-.5.4-2.5.3-3.7 0-.3.2-.5.5-.5s.5.2.5.5c0 .5.2 3.3-.4 4.3-.9 1.5-2.6 2.2-5.5 2.2z"/><path fill="#A5B2BB" d="M26 69.8c-.3 0-.5-.2-.5-.5v-2.5c0-.3.2-.5.5-.5s.5.2.5.5v2.5c0 .3-.3.5-.5.5zM29.6 70.1c-.3 0-.5-.2-.5-.5v-2.7c0-.3.2-.5.5-.5s.5.2.5.5v2.7c0 .2-.3.5-.5.5zM33.2 70.1c-.3 0-.5-.2-.5-.5v-2.7c0-.3.2-.5.5-.5s.5.2.5.5v2.7c0 .2-.3.5-.5.5z"/><path fill="#A5B2BB" d="M27.5 73.4c-1.8 0-3.6-.2-4.8-.5-2.4-.6-2.9-1.6-2.8-2.2.1-1.2 1.1-2 3.1-2.5.3-.1.5.1.6.4.1.3-.1.5-.4.6-1 .2-2.3.7-2.4 1.5 0 .3.5.8 2.1 1.2 3.8 1 9.5.4 10.1-1 .2-.4.2-.7.1-.9-.1-.2 0-.5.2-.7.2-.1.5 0 .7.2.3.5.3 1.1-.1 1.8-.6 1.5-3.6 2.1-6.4 2.1z"/><path fill="#A5B2BB" d="M28.2 76.8h-.8c-3.6-.1-6-1.1-7-1.9-.9-.7-.7-3.5-.6-4.3 0-.3.3-.5.5-.4.3 0 .5.3.4.5-.2 1.6 0 3.2.2 3.4.8.7 3 1.6 6.4 1.7 3.6.1 4.8-.6 5.5-1.8.3-.5.4-2.5.3-3.7 0-.3.2-.5.5-.5s.5.2.5.5c0 .5.2 3.3-.4 4.3-.9 1.5-2.6 2.2-5.5 2.2z"/><path fill="#A5B2BB" d="M23.5 75.9c-.3 0-.5-.2-.5-.5v-2.3c0-.3.2-.5.5-.5s.5.2.5.5v2.3c0 .3-.3.5-.5.5zM27.1 76.3c-.3 0-.5-.2-.5-.5v-2.7c0-.3.2-.5.5-.5s.5.2.5.5v2.7c0 .3-.3.5-.5.5zM30.7 76.3c-.3 0-.5-.2-.5-.5v-2.7c0-.3.2-.5.5-.5s.5.2.5.5v2.7c0 .3-.3.5-.5.5zM50.5 57c-1.8 0-3.6-.2-4.8-.5-2.4-.6-2.9-1.6-2.8-2.2.2-3 6.6-2.8 7.4-2.8.3 0 .5.2.5.5s-.3.5-.5.5c-1.6-.1-6.2.2-6.3 1.9 0 .3.5.8 2.1 1.2 3.8 1 9.5.4 10.1-1 .3-.6.1-.9 0-1-.5-.8-2.4-1.1-3.4-1.1-.3 0-.5-.2-.5-.5s.2-.5.5-.5 3.4.1 4.3 1.6c.2.4.4 1 0 1.9-.8 1.5-3.7 2-6.6 2z"/><path fill="#A5B2BB" d="M51.3 60.5h-.8c-3.6-.1-6-1.1-7-1.9-.9-.7-.7-3.5-.6-4.3 0-.3.3-.5.5-.4.3 0 .5.3.4.5-.2 1.6 0 3.2.2 3.4.8.7 3 1.6 6.4 1.7 3.6.1 4.8-.6 5.5-1.8.3-.5.4-2.5.3-3.7 0-.3.2-.5.5-.5s.5.2.5.5c0 .5.2 3.3-.4 4.3-.9 1.5-2.6 2.2-5.5 2.2z"/><path fill="#A5B2BB" d="M46.5 59.8c-.3 0-.5-.2-.5-.5v-2.5c0-.3.2-.5.5-.5s.5.2.5.5v2.5c0 .2-.2.5-.5.5zM50.1 60c-.3 0-.5-.2-.5-.5v-2.7c0-.3.2-.5.5-.5s.5.2.5.5v2.7c0 .2-.2.5-.5.5zM53.8 60c-.3 0-.5-.2-.5-.5v-2.7c0-.3.2-.5.5-.5s.5.2.5.5v2.7c-.1.2-.3.5-.5.5z"/><path fill="#A5B2BB" d="M51.1 63.2c-1.8 0-3.6-.2-4.8-.5-2.4-.6-2.9-1.6-2.8-2.2 0-.5.3-1.2 1.2-1.7.2-.1.5-.1.7.2s.1.5-.2.7c-.5.3-.7.6-.7 1 0 .3.5.8 2.1 1.2 3.8 1 9.5.4 10.1-1 .2-.3.2-.6.1-.8-.1-.4-.6-.6-1-.7-.3-.1-.4-.4-.3-.6.1-.3.4-.4.6-.3.8.3 1.3.8 1.5 1.3.2.5.2 1-.1 1.6-.6 1.2-3.5 1.8-6.4 1.8z"/><path fill="#A5B2BB" d="M51.8 66.6H51c-3.6-.1-6-1.1-7-1.9-.9-.7-.7-3.5-.6-4.3 0-.3.3-.5.5-.4.3 0 .5.3.4.5-.2 1.6 0 3.2.2 3.4.8.7 3 1.6 6.4 1.7 3.6.1 4.8-.6 5.5-1.8.3-.5.4-2.5.3-3.7 0-.3.2-.5.5-.5s.5.2.5.5c0 .5.2 3.3-.4 4.3-.9 1.6-2.5 2.2-5.5 2.2z"/><path fill="#A5B2BB" d="M47.1 65.9c-.3 0-.5-.2-.5-.5v-2.5c0-.3.2-.5.5-.5s.5.2.5.5v2.5c0 .3-.2.5-.5.5zM50.7 66.1c-.3 0-.5-.2-.5-.5v-2.7c0-.3.2-.5.5-.5s.5.2.5.5v2.7c0 .3-.2.5-.5.5zM54.3 66.1c-.3 0-.5-.2-.5-.5v-2.7c0-.3.2-.5.5-.5s.5.2.5.5v2.7c0 .3-.2.5-.5.5zM67.9 72.6c-1.8 0-3.6-.2-4.8-.5-2.4-.6-2.9-1.6-2.8-2.2.2-3 6.6-2.8 7.4-2.8.3 0 .5.2.5.5s-.2.5-.5.5c-1.6-.1-6.2.2-6.3 1.9 0 .3.5.8 2.1 1.2 3.8 1 9.5.4 10.1-1 .3-.6.1-.9 0-1-.5-.8-2.7-1.1-3.4-1.1-.3 0-.5-.2-.5-.5s.2-.5.5-.5 3.4.1 4.3 1.6c.2.4.4 1 0 1.9-.8 1.5-3.7 2-6.6 2z"/><path fill="#A5B2BB" d="M68.7 76.1h-.8c-3.6-.1-6-1.1-7-1.9-.9-.7-.7-3.5-.6-4.3 0-.3.3-.5.5-.4.3 0 .5.3.4.5-.2 1.6 0 3.2.2 3.4.8.7 3 1.6 6.4 1.7 3.6.1 4.8-.6 5.5-1.8.3-.5.4-2.5.3-3.7 0-.3.2-.5.5-.5s.5.2.5.5c0 .5.2 3.3-.4 4.3-.9 1.5-2.6 2.2-5.5 2.2z"/><path fill="#A5B2BB" d="M63.9 75.3c-.3 0-.5-.2-.5-.5v-2.5c0-.3.2-.5.5-.5s.5.2.5.5v2.5c0 .3-.2.5-.5.5zM67.5 75.5c-.3 0-.5-.2-.5-.5v-2.7c0-.3.2-.5.5-.5s.5.2.5.5V75c0 .3-.2.5-.5.5zM71.1 75.5c-.3 0-.5-.2-.5-.5v-2.7c0-.3.2-.5.5-.5s.5.2.5.5V75c0 .3-.2.5-.5.5zM49.9 69.5c-1.8 0-3.6-.2-4.8-.5-2.4-.6-2.9-1.6-2.8-2.2.1-1.1 1-1.9 2.7-2.4.3-.1.5.1.6.4.1.3-.1.5-.4.6-.9.2-1.9.7-2 1.4 0 .3.5.8 2.1 1.2 3.8 1 9.5.4 10.1-1 .3-.7.1-1-.2-1.2-.2-.2-.2-.5-.1-.7.2-.2.5-.2.7-.1.7.6.9 1.5.4 2.4-.5 1.6-3.4 2.1-6.3 2.1z"/><path fill="#A5B2BB" d="M50.6 72.9h-.8c-3.6-.1-6-1.1-7-1.9-.9-.7-.7-3.5-.6-4.3 0-.3.3-.5.5-.4.3 0 .5.3.4.5-.2 1.6 0 3.2.2 3.4.8.7 3 1.6 6.4 1.7 3.6.1 4.8-.6 5.5-1.8.3-.5.4-2.5.3-3.7 0-.3.2-.5.5-.5s.5.2.5.5c0 .5.2 3.3-.4 4.3-.9 1.6-2.5 2.2-5.5 2.2z"/><path fill="#A5B2BB" d="M45.9 72.2c-.3 0-.5-.2-.5-.5v-2.5c0-.3.2-.5.5-.5s.5.2.5.5v2.5c0 .2-.2.5-.5.5zM49.5 72.4c-.3 0-.5-.2-.5-.5v-2.7c0-.3.2-.5.5-.5s.5.2.5.5v2.7c0 .3-.2.5-.5.5zM53.1 72.4c-.3 0-.5-.2-.5-.5v-2.7c0-.3.2-.5.5-.5s.5.2.5.5v2.7c0 .3-.2.5-.5.5zM23.1 69.1s-.1 0 0 0c-.5 0-11.3-1.2-15.6-7.7-4.1-6.1-4.1-16.3.1-27.3C11.3 24 24.4 14.7 25 14.3c.2-.2.5-.1.7.1.2.2.1.5-.1.7-.1.1-13.4 9.5-17.1 19.3-4 10.7-4.1 20.6-.2 26.4 4.1 6.1 14.7 7.3 14.8 7.3.3 0 .5.3.4.5.1.3-.2.5-.4.5zM56.6 68.2c-.2 0-.4-.1-.5-.3-.1-.3.1-.5.3-.6.1 0 5.9-2 8.9-6.1 7.3-9.9 2.4-23.3-1.2-30.4-7.4-14.7-25.8-18.2-26-18.2-.3 0-.5-.3-.4-.6 0-.3.3-.5.6-.4.2 0 19.1 3.6 26.7 18.8 8.6 17 4.4 27 1.1 31.4-3.2 4.3-9.2 6.3-9.4 6.4h-.1zM36.9 70.9c-1 0-2 0-3.2-.1-.3 0-.5-.3-.5-.5 0-.3.3-.5.5-.5 5 .4 8.6-.3 8.6-.3.3 0 .5.1.6.4.1.3-.1.5-.4.6-.1 0-2.3.4-5.6.4z"/><path fill="#A5B2BB" d="M26.2 15.2H26c-2.9-1.3-7.3-5.1-7.2-7.3.1-1.3.5-2.3 1.2-2.9.6-.5 1.4-.7 2.2-.6.8.1 1.5.4 2.2.9-.5-1.1-.8-2.4-.4-3.3.2-.6.8-1.2 2.2-1.3 2.4-.1 4.6 2.3 6.4 7.4.1.3 0 .5-.3.6-.3.1-.5 0-.6-.3-1.6-4.5-3.5-6.9-5.4-6.7-1 .1-1.2.5-1.3.7-.5 1.3 1 4 1.9 5 .1.1.1.4-.1.6-.2.2-.5.2-.7 0-.2-.2-.4-.3-.6-.5-1-.9-2.3-2.1-3.5-2.2-.4 0-1 0-1.4.4-.5.4-.8 1.2-.8 2.2-.1 1.4 3.6 4.9 6.6 6.3.3.1.4.4.2.7 0 .2-.2.3-.4.3z"/><path fill="#A5B2BB" d="M38.2 12.6c-.1 0-.2 0-.3-.1-.2-.2-.2-.5 0-.7 1.3-1.4 5.2-5.8 3-8.1-.8-.8-2.6-1.1-3.8-.3-.6.4-1.1 1.8-1.5 2.8l-.2.4c-.1.2-.3.4-.6.3-.2 0-.4-.2-.4-.5 0-1.9-.6-3.3-1.7-3.7-.4-.2-.8.1-1 .3-.5.5-.7 1.2-.6 1.7.1.3-.1.5-.3.6-.3.1-.5 0-.6-.3-.3-.8.1-2 .8-2.7.6-.6 1.4-.8 2-.5 1 .4 1.7 1.3 2.1 2.6.5-.6.9-1.4 1.4-1.7 1.6-1.2 4-.8 5.1.4 2.8 3-1.6 7.8-3 9.4-.1.1-.2.1-.4.1z"/><path fill="#A5B2BB" d="M28.4 15.5c-2.9 0-4.8-.7-5-.7-.3-.1-.4-.4-.3-.6.1-.3.4-.4.6-.3.1 0 7 2.4 14.2-2.1.2-.1.5-.1.7.2.1.2.1.5-.2.7-3.6 2.2-7.2 2.8-10 2.8zM45.4 13.4c-1.4 0-2.7-.1-3.9-.3-.2 0-2.2-.5-2.4-1.4-.2-.2-.2-.4-.1-.6 1.5-2.5 3.6-4.5 6.5-6.2l.1-.1c.9-.5 2.8-1.7 3.9-.7.7.6.7 1.4-.1 2.3-.5.7-1.2 1.2-2 1.7 2.2-.6 4.5-.9 6.4 0 1.3.5 1.9 1.2 1.8 2-.3 1.8-4.7 2.9-5.9 3-1.4.2-2.9.3-4.3.3zm-5.2-1.8c.3.2 1.1.5 1.4.6 2.3.3 5 .3 8 0 1.7-.2 4.9-1.4 5-2.2 0-.2-.3-.5-1.2-.9-2.8-1.1-6.4.2-9.6 1.4-1.2.4-2.5.8-3.6 1.1zm8.3-6.9c-.7 0-1.8.7-2.3.9l-.2.1c-2.2 1.3-3.9 2.7-5.2 4.4.8-.4 1.7-.8 2.5-1.1 2.2-.9 4.2-1.8 5.3-3.2.6-.7.4-.8.2-.9 0-.1-.1-.2-.3-.2z"/><path fill="#A5B2BB" d="M52.7 14.2c-5.2 0-10-.9-10.4-.9-.3-.1-.5-.3-.4-.6 0-.3.3-.5.6-.4.1 0 13.8 2.5 19.9-.8.2-.1.5 0 .7.2.1.2 0 .5-.2.7-2.7 1.4-6.5 1.8-10.2 1.8z"/><path fill="#A5B2BB" d="M55.4 16.8c-5.7 0-12.3-3-12.6-3.1-.3-.1-.4-.4-.2-.7.1-.3.4-.4.7-.2.1 0 7.9 3.6 13.6 3 .3 0 .5.2.5.4s-.2.5-.4.5c-.6.1-1.1.1-1.6.1zM22.2 34.1c-.3 0-.5-.2-.5-.5-.2-4.7.9-9.5 3.2-14.3l.3-.5c.7-1.4 1.4-2.9 2.6-3.9.2-.2.5-.1.7.1.2.2.1.5-.1.7-1 .8-1.7 2.3-2.3 3.6l-.3.5c-2.3 4.7-3.3 9.4-3.1 13.9.1.2-.2.4-.5.4.1 0 .1 0 0 0zM28.4 21.8h-.1c-.3-.1-.4-.3-.4-.6.1-.4.2-.8.3-1.3.5-1.7.9-3.4 1.1-4.9 0-.3.3-.5.6-.4.3 0 .5.3.4.6-.2 1.6-.7 3.4-1.2 5.1l-.3 1.2c0 .1-.2.3-.4.3zM31.1 19.6c-.3 0-.5-.2-.5-.5v-3.8c0-.3.2-.5.5-.5s.5.2.5.5v3.8c0 .3-.2.5-.5.5zM52.4 26.6c-.2 0-.3-.1-.4-.2-5.1-7.2-10.1-11.5-15.1-12.9-.3-.1-.4-.3-.4-.6.1-.3.3-.4.6-.4 5.2 1.4 10.4 5.9 15.7 13.3.2.2.1.5-.1.7-.1.1-.2.1-.3.1zM43.6 25.1c-.2 0-.4-.1-.5-.4-1-3.4-2.7-6.3-4.7-8.3-.7-.7-2.7-2.1-3.3-2.1-.3 0-.5-.3-.5-.5 0-.3.2-.5.5-.5 1.1.1 3.4 1.9 3.9 2.4 2.7 2.7 4.2 6.2 5 8.7.1.3-.1.5-.3.6 0 .1 0 .1-.1.1z"/><path fill="#A5B2BB" d="M36.5 18.5c-.2 0-.3-.1-.4-.2-.2-.3-.3-.6-.4-.8-.4-.8-.9-1.8-2-2.9-.2-.2-.2-.5 0-.7s.5-.2.7 0c1.2 1.2 1.7 2.2 2.2 3.1.1.3.3.5.4.8.1.2.1.5-.2.7h-.3z"/><g><path fill="#A5B2BB" d="M37.7 21.6c-.2 0-.5-.2-.5-.4s-.1-.4-.3-.6c-.2-.3-.3-.6-.4-1 0-.3.2-.5.5-.5s.5.2.5.5c0 .2.1.4.2.6.1.3.3.6.4 1 .2.1 0 .4-.4.4.1 0 .1 0 0 0z"/></g><g><path fill="#A5B2BB" d="M22.6 68.6c-1.5 0-3.9-2.4-4.4-2.9-2.9-3-4.7-8.6-4.4-13.4 0-.3.2-.5.5-.5s.5.3.5.5c-.3 4.6 1.4 9.8 4.2 12.7 1.5 1.5 3.3 2.8 3.7 2.6.2-.1.5 0 .7.2.1.2 0 .5-.2.7-.3 0-.4.1-.6.1z"/></g><g><path fill="#A5B2BB" d="M20.5 64.5c-.1 0-.3-.1-.4-.2-1.1-1.3-1.4-3.2-1.7-4.8-.1-.3-.1-.6-.2-.9-.1-.3.1-.5.4-.6.3 0 .5.1.6.4.1.3.1.6.2 1 .3 1.6.5 3.2 1.5 4.3.2.2.1.5-.1.7-.1.1-.2.1-.3.1z"/></g><g><path fill="#A5B2BB" d="M61 62.4c-.2 0-.3-.1-.4-.2-.2-.2-.1-.5.1-.7 4.8-3.7 4.6-10.8 3.8-16.5 0-.3.2-.5.4-.6.3 0 .5.2.6.4.8 6 1.1 13.5-4.2 17.5-.1 0-.2.1-.3.1z"/></g><g><path fill="#A5B2BB" d="M61 58.5h-.2c-.3-.1-.4-.4-.3-.6 1-2.6 1.4-4.7.7-7.3-.1-.3.1-.5.4-.6.3-.1.5.1.6.4.8 2.9.3 5.2-.8 7.9 0 .1-.2.2-.4.2z"/></g><g><path fill="#A5B2BB" d="M39.9 62.6c-2.3 0-3.5-4.1-4.2-7.6l-.1-.5c-.3-1.4-.4-2.7-.4-4.3 0-.3.2-.5.5-.5s.5.2.5.5c0 1.4.1 2.7.4 4l.1.5c1 4.6 2.2 7 3.3 6.9.3 0 .5.2.5.5s-.2.5-.5.5h-.1z"/></g><g><path fill="#A5B2BB" d="M38.9 55.8c-.1 0-.3-.1-.4-.2-.7-.8-.8-2-.8-2.6 0-.3.3-.5.5-.5.3 0 .5.2.5.5 0 .8.1 1.5.5 1.9.2.2.2.5 0 .7-.1.1-.2.2-.3.2z"/></g><g><path fill="#A5B2BB" d="M28.6 15.6c-.1 0-.3-.1-.4-.2l-.1-.1c-1.3-1.4-2.1-2.3-2.4-4.6 0-.3.2-.5.4-.5.3 0 .5.2.5.4.2 1.9.8 2.6 2.1 4l.1.1c.2.2.2.5 0 .7 0 .1-.1.2-.2.2z"/></g><g><path fill="#A5B2BB" d="M29.6 15.3c-.2 0-.3-.1-.4-.2l-.2-.4c-.4-.7-.9-1.4-1.1-2.4-.1-.3.1-.5.3-.6.3-.1.5.1.6.3.3.8.6 1.4 1 2.2l.2.4c.1.2.1.5-.2.7h-.2z"/></g><g><path fill="#A5B2BB" d="M34 14.5h-.2c-.3-.1-.4-.4-.3-.7.5-1.1.5-2.6 0-3.7-.1-.3 0-.5.3-.7.3-.1.5 0 .7.3.6 1.3.6 3.1 0 4.5-.1.2-.3.3-.5.3z"/></g><g><path fill="#A5B2BB" d="M35.1 13.9c-.1 0-.2 0-.3-.1-.2-.2-.3-.5-.1-.7.5-.7.5-2 .5-2.8 0-.3.2-.5.5-.5s.5.2.5.5c0 1.2 0 2.5-.7 3.4-.1.1-.2.2-.4.2z"/></g><g><path fill="#A5B2BB" d="M10.8 70H4.2c-.3 0-.5-.2-.5-.5s.3-.5.5-.5h6.5c.3 0 .5.2.5.5s-.2.5-.4.5z"/></g><g><path fill="#A5B2BB" d="M4.5 67.2H2c-.3 0-.5-.2-.5-.5s.2-.5.5-.5h2.5c.3 0 .5.2.5.5s-.2.5-.5.5z"/></g><g><path fill="#A5B2BB" d="M3.5 62.8h-3c-.3 0-.5-.2-.5-.5s.2-.5.5-.5h3c.3 0 .5.2.5.4s-.2.6-.5.6z"/></g><g><path fill="#A5B2BB" d="M16.5 73.2h-3.8c-.3 0-.5-.2-.5-.5s.2-.5.5-.5h3.8c.3 0 .5.2.5.5s-.2.5-.5.5z"/></g><g><path fill="#A5B2BB" d="M14.5 77.2H9.2c-.3 0-.5-.2-.5-.5s.2-.5.5-.5h5.2c.3 0 .5.2.5.5s-.1.5-.4.5z"/></g><g><path fill="#A5B2BB" d="M25.7 79.8h-3.8c-.3 0-.5-.2-.5-.5s.2-.5.5-.5h3.8c.3 0 .5.2.5.5s-.3.5-.5.5z"/></g><g><path fill="#A5B2BB" d="M44 77h-6c-.3 0-.5-.2-.5-.5s.2-.5.5-.5h6c.3 0 .5.2.5.5s-.2.5-.5.5z"/></g><g><path fill="#A5B2BB" d="M54.5 77.2h-3c-.3 0-.5-.2-.5-.5s.2-.5.5-.5h3c.3 0 .5.2.5.5s-.2.5-.5.5z"/></g><g><path fill="#A5B2BB" d="M61.8 81H54c-.3 0-.5-.2-.5-.5s.2-.5.5-.5h7.8c.3 0 .5.2.5.5s-.3.5-.5.5z"/></g><g><path fill="#A5B2BB" d="M73.5 64.5h-4c-.3 0-.5-.2-.5-.5s.2-.5.5-.5h4c.3 0 .5.2.5.5s-.2.5-.5.5z"/></g><g><path fill="#A5B2BB" d="M77.2 60.8H73c-.3 0-.5-.2-.5-.5s.2-.5.5-.5h4.2c.3 0 .5.2.5.5s-.2.5-.5.5z"/></g><g><path fill="#A5B2BB" d="M34 79.3h-3c-.3 0-.5-.2-.5-.5s.2-.5.5-.5h3c.3 0 .5.2.5.5s-.2.5-.5.5z"/></g><g><path fill="#A5B2BB" d="M41.7 73.8h-2.5c-.3 0-.5-.2-.5-.5s.2-.5.5-.5h2.5c.3 0 .5.2.5.5s-.3.5-.5.5z"/></g></svg>