<svg width="75" height="75" viewBox="0 0 75 75" xmlns="http://www.w3.org/2000/svg" xmlns:xlink="http://www.w3.org/1999/xlink"><title>D/Icon/Default Office 75</title><defs><path id="a" d="M74.877 37.544c0 20.57-16.674 37.243-37.243 37.243C17.064 74.787.39 58.113.39 37.544.39 16.976 17.066.3 37.635.3c20.57 0 37.243 16.676 37.243 37.244"/></defs><g fill="none" fill-rule="evenodd"><path d="M74.877 37.544c0 20.57-16.674 37.243-37.243 37.243C17.064 74.787.39 58.113.39 37.544.39 16.976 17.066.3 37.635.3c20.57 0 37.243 16.676 37.243 37.244" fill="#BFCCD6"/><g><mask id="b" fill="#fff"><use xlink:href="#a"/></mask><path d="M65.624 29.628c-9.21 1.5-27.332 1.2-27.332 1.2h-.967s-18.122.3-27.333-1.2c0 0-.89 34.963 0 39.916 1.092 4.04 19.39 5.984 26.524 6.562l-.007.192s.473-.03 1.298-.092c.826.062 1.3.092 1.3.092l-.007-.192c7.136-.578 24.84-2.52 25.93-6.562.89-4.953.594-39.916.594-39.916" fill="#ECF1F6" mask="url(#b)"/><path d="M37.635 33.895l-5.248.006c-23.665 0-24.397-.705-25.172-1.452-.683-.66-.874-1.69-.662-3.56.366-3.213 2.524-13.746 5.045-15.292 1.28-.786 5.374-1.59 26.037-1.59 20.662 0 24.756.804 26.036 1.59 2.522 1.547 4.68 12.08 5.045 15.293.213 1.868.02 2.9-.662 3.558-.774.747-1.51 1.453-25.17 1.453l-5.248-.005" fill="#BFCCD6" mask="url(#b)"/><path d="M61.724 15.01c-2.093-1.305-17.715-1.352-24.09-1.352-6.374 0-21.997.047-24.09 1.35-2.093 1.305-6.26 15.415-5.118 16.533 1.142 1.118 23.166.98 29.208.98 6.042 0 28.067.138 29.208-.98 1.142-1.117-3.025-15.227-5.118-16.53" fill="#ECF1F6" mask="url(#b)"/><path d="M52.1 27.817s-.35 9.42.177 10.076c.526.658 7.19 1.07 7.716.083.526-.987.175-10.24.175-10.24l-4.423-2.385-3.644 2.467" fill="#BFCCD6" mask="url(#b)"/><path d="M49.826 28.48c-.36-.562 5.42-5.796 6.22-5.84.8-.042 6.454 4.848 6.414 5.45-.04.605-.772 1.462-1.443 1.462-.95 0-4.672-.122-4.672-.122s-4.46.214-5.4.214c-.52 0-1.12-1.165-1.12-1.165M33.6 27.817s-.35 9.42.176 10.076c.526.658 7.19 1.07 7.716.083.526-.987.176-10.24.176-10.24l-4.424-2.385-3.643 2.467" fill="#BFCCD6" mask="url(#b)"/><path d="M31.325 28.48c-.36-.562 5.42-5.796 6.22-5.84.8-.042 6.454 4.848 6.414 5.45-.04.605-.773 1.462-1.444 1.462-.95 0-4.672-.122-4.672-.122s-4.46.214-5.4.214c-.52 0-1.12-1.165-1.12-1.165M15.1 27.817s-.35 9.42.175 10.076c.526.658 7.19 1.07 7.717.083.526-.987.175-10.24.175-10.24l-4.424-2.385-3.643 2.467" fill="#BFCCD6" mask="url(#b)"/><path d="M12.824 28.48c-.36-.562 5.42-5.796 6.22-5.84.8-.042 6.454 4.848 6.414 5.45-.04.605-.772 1.462-1.443 1.462-.95 0-4.672-.122-4.672-.122s-4.46.214-5.4.214c-.52 0-1.12-1.165-1.12-1.165M52.1 48.365s-.35 9.42.177 10.076c.526.66 7.19 1.07 7.716.084.526-.987.175-10.24.175-10.24l-4.423-2.385-3.644 2.465" fill="#BFCCD6" mask="url(#b)"/><path d="M49.826 49.027c-.36-.56 5.42-5.795 6.22-5.838.8-.044 6.454 4.845 6.414 5.45-.04.603-.772 1.46-1.443 1.46-.95 0-4.672-.122-4.672-.122s-4.46.214-5.4.214c-.52 0-1.12-1.165-1.12-1.165M33.6 48.365s-.35 14.042.176 14.7c.526.657 7.19 1.068 7.716.082.526-.986.176-14.864.176-14.864L37.244 45.9 33.6 48.364" fill="#BFCCD6" mask="url(#b)"/><path d="M31.325 49.027c-.36-.56 5.42-5.795 6.22-5.838.8-.044 6.454 4.845 6.414 5.45-.04.603-.773 1.46-1.444 1.46-.95 0-4.672-.122-4.672-.122s-4.46.214-5.4.214c-.52 0-1.12-1.165-1.12-1.165M15.1 48.365s-.35 9.42.175 10.076c.526.66 7.19 1.07 7.717.084.526-.987.175-10.24.175-10.24l-4.424-2.385-3.643 2.465" fill="#BFCCD6" mask="url(#b)"/><path d="M12.824 49.027c-.36-.56 5.42-5.795 6.22-5.838.8-.044 6.454 4.845 6.414 5.45-.04.603-.772 1.46-1.443 1.46-.95 0-4.672-.122-4.672-.122s-4.46.214-5.4.214c-.52 0-1.12-1.165-1.12-1.165M67.08 60.726c-.01.56-.084.95-.238 1.102-1.14 1.118-23.166.978-29.208.978-6.042 0-28.066.14-29.208-.978-.154-.15-.228-.543-.24-1.102H6.482c.04.935.272 1.562.735 2.01.775.746 1.506 1.452 25.172 1.452l5.248-.005 5.25.005c23.66 0 24.394-.706 25.168-1.453.464-.447.696-1.074.734-2.01H67.08" fill="#BFCCD6" mask="url(#b)"/><path d="M39.14 68.73c-8.89 0-9.65-1.053-9.937-1.45-.374-.508-.57-1.178-.53-3.247.02-1.012.3-1.737.357-1.872.046-.108.103-.212.173-.308.403-.56.86-1.192 7.4-1.192 8.776 0 9.305 1.098 9.655 1.825.22.456.408 1.104.322 2.785-.064 1.266-.195 1.632-.313 1.876-.432.897-1.23 1.584-7.126 1.584" fill="#ECF1F6" mask="url(#b)"/><path d="M44.87 63.154c-.574-1.192-13.844-1.195-14.418-.4 0 0-.225.54-.24 1.308-.037 1.977.173 2.224.24 2.316.574.795 13.853 1.292 14.427.1.065-.138.126-.596.16-1.286.08-1.546-.104-1.9-.17-2.038" fill="#BFCCD6" mask="url(#b)"/><path d="M46.97 65.984c-.74-1.397-17.863-1.4-18.604-.468 0 0-.29.63-.31 1.532-.048 2.316.224 2.605.31 2.714.74.93 17.876 1.513 18.617.116.085-.16.164-.698.21-1.506.1-1.81-.137-2.227-.222-2.388" fill="#ECF1F6" mask="url(#b)"/><path d="M46.97 66.677c-.74-1.192-17.863-1.195-18.604-.4 0 0-.29.54-.31 1.308-.048 1.976.224 2.223.31 2.316.74.796 17.876 1.292 18.617.1.085-.138.164-.595.21-1.285.1-1.546-.137-1.9-.222-2.038" fill="#BFCCD6" mask="url(#b)"/><path d="M49.854 69.576c-.97-1.376-23.382-1.38-24.35-.46 0 0-.38.62-.405 1.51-.064 2.28.29 2.565.403 2.672.97.918 23.398 1.49 24.367.115.112-.16.215-.687.274-1.484.134-1.785-.178-2.195-.29-2.354" fill="#ECF1F6" mask="url(#b)"/><path d="M49.854 70.2c-.97-1.193-23.382-1.195-24.35-.4 0 0-.38.538-.405 1.308-.064 1.976.29 2.223.403 2.315.97.796 23.398 1.292 24.367.1.112-.138.215-.595.274-1.285.134-1.546-.178-1.9-.29-2.04" fill="#BFCCD6" mask="url(#b)"/><path d="M27.232 72.323h20.804v2.464H27.232v-2.464z" fill="#BFCCD6" mask="url(#b)"/></g></g></svg>