<svg xmlns="http://www.w3.org/2000/svg" viewBox="0 0 82 78"><path fill="#A5B2BB" d="M23 73.3c-.1 0-.2 0-.3-.1-.1-.1-.2-.2-.2-.3-1.8-9.1-3.3-19.1-4.3-25.9-.6-4.1-1.5-8.5-2.5-13.1-2-9.3-4-18.9-3.8-27.3 0-.3.2-.5.5-.5.2 0 16.1-1.4 25.8-2.5 4.7-.5 9.1-1.6 12.2-2.4 3.8-1 6-1.5 6.7-.7.6.6.7 1.8.9 3.5.3 2.3.6 5.1 2 6.2.5.4 1.1.5 2.1.5 1.3 0 2.8-.3 4.2-.7 2.1-.5 3.7-.7 4.3-.1.6.7 1 4.3 1.9 13 .6 6.4 1.3 13.6 2.2 18.3 1.9 9.5 4.8 21.8 4.9 21.9 0 .1 0 .3-.1.4s-.2.2-.3.2c-13.2 1.8-17.1 2.4-22 3.2-1.6.3-3.4.5-5.6.9-13 2-28.2 5.3-28.3 5.3-.2.2-.3.2-.3.2zM12.8 7.1c-.1 8.2 1.9 17.6 3.8 26.6 1 4.7 1.9 9.1 2.5 13.2 1 6.6 2.5 16.3 4.2 25.3 2.7-.6 16.2-3.5 27.9-5.2 2.2-.3 4-.6 5.6-.9 4.9-.8 8.7-1.4 21.5-3.1-.6-2.5-3.1-13-4.8-21.4-.9-4.8-1.6-12-2.3-18.4-.5-5.5-1.1-11.8-1.6-12.5 0 0-.1-.1-.5-.1-.7 0-1.7.2-2.8.5-1.4.3-3 .7-4.4.7-1.2 0-2-.2-2.7-.7-1.8-1.3-2.1-4.4-2.4-6.8-.1-1.2-.3-2.6-.6-3 0 0-.1-.1-.5-.1-1 0-2.9.5-5.3 1.1-3 .7-7.4 1.8-12.2 2.3-8.8 1-22.7 2.3-25.4 2.5z"/><path fill="#A5B2BB" d="M69.9 10.5h-.1C65 9.4 56.7 1.6 56.4 1.3c-.2-.2-.2-.5 0-.7.2-.2.5-.2.7 0 .1.1 8.4 7.9 13 9 .3.1.4.3.4.6-.2.1-.4.3-.6.3zM17.2 76.1c-.1 0-.2 0-.3-.1-.1-.1-.2-.2-.2-.4 0-.1 0-11-1.7-24.8-1.8-14.2-6.1-32-8.2-38-.1-.2 0-.4.1-.5 1.1-1.1 4.6-1.6 5-1.6.3 0 .5.2.6.4 0 .3-.2.5-.4.6-1.2.2-3.4.6-4.2 1.2 2.2 6.4 6.4 23.9 8.2 37.9 1.5 12 1.7 21.8 1.7 24.3 2.8-.6 15.2-3 24.9-2.6 10.9.4 29-1.6 33.4-3.3-1.2-2.7-1.4-4.8-1.5-4.9 0-.3.2-.5.4-.5.3 0 .5.2.5.4 0 0 .3 2.3 1.6 5.1.1.2 0 .5-.2.7-3.8 1.9-23.7 3.9-34.3 3.5-10.8-.4-25.1 2.7-25.3 2.7 0-.1 0-.1-.1-.1z"/><path fill="#A5B2BB" d="M17.1 70.7c-.3 0-.5-.2-.5-.5-2.3-23.7-8.4-37.5-11.1-43.4-.3-.7-.6-1.3-.8-1.8-.1-.2 0-.5.2-.6 1.7-.9 4.7-1.8 4.9-1.8.3-.1.5.1.6.3.1.3-.1.5-.3.6 0 0-2.6.7-4.2 1.5.2.4.4.8.6 1.3 2.4 5.4 8.8 19.9 11.1 43.7 0 .4-.2.6-.5.7zM22.2 39.9c-.2 0-.4-.2-.5-.4 0-.2-3.7-19-4.3-28.4 0-.1 0-.3.1-.4.1-.1.2-.2.4-.2C32 11 54.8 6.1 55 6.1c.3-.1.5.1.6.4.1.3-.1.5-.4.6-.2 0-22.5 4.8-36.7 4.5.7 8.6 3.7 24.5 4.2 27.3 2.1-.2 11-1 21.2-2.7 11.3-1.9 21.1-4.5 23.3-5.1l-2.5-17.7c0-.3.2-.5.4-.6.3 0 .5.2.6.4l2.6 18.1c0 .2-.1.5-.4.6-.1 0-11.1 3.1-23.8 5.3-11.8 1.9-21.7 2.7-21.9 2.7.1 0 .1 0 0 0z"/><path fill="#A5B2BB" d="M31.8 38.4c-.2 0-.4-.2-.5-.4-1.2-6.4-4.1-21.3-3.6-22.3.1-.1.2-.3.3-.3 1.4-.3 16-3.3 17.7-3 .1 0 .2.1.3.2.9 1 3.7 17.5 4.5 22.5 0 .3-.1.5-.4.6-.3 0-.5-.1-.6-.4-1.2-7.7-3.4-20.1-4.1-21.9-2.1 0-13.5 2.2-16.7 2.9 0 2 2.3 14 3.7 21.5 0 .3-.2.6-.6.6.1 0 .1 0 0 0z"/><path fill="#A5B2BB" d="M47.5 20.7c-.2 0-.5-.2-.5-.4 0-.3.1-.5.4-.6 4.2-.7 10.9-1.9 12.4-2.3-.3-.6-1.3-2-1.9-2.2-.6-.2-6.2.6-11.2 1.5-.3.1-.5-.1-.6-.4 0-.3.1-.5.4-.6 3.2-.6 10.9-1.8 11.8-1.4 1 .4 2.7 2.7 2.6 3.5 0 .3-.1.7-13.4 2.9.1 0 0 0 0 0z"/><path fill="#A5B2BB" d="M61.4 33.2c-.2 0-.4-.2-.5-.4 0-.1-2.1-8.5-2.9-14.3 0-.3.2-.5.4-.6.3 0 .5.2.6.4.7 5.7 2.8 14.1 2.9 14.2.1.3-.1.5-.4.6 0 .1-.1.1-.1.1zM28 39.2c-.2 0-.4-.2-.5-.4-.4-1.6-3.6-15.4-3.4-17.2 0-.1 0-.2.1-.2.7-.9 4.2-1.6 4.3-1.6.3 0 .5.2.5.5s-.2.5-.5.5c-.6.1-2.9.7-3.5 1.1 0 1.8 2 10.8 3.4 16.7.1.3-.1.5-.4.6.1 0 0 0 0 0zM32.6 21.9c-.5 0-1-.1-1.2-.3-.6-.5-.9-3.2-.5-3.7.1-.2.4-.4.8-.5.3-.1.5 0 .6.3.1.3 0 .5-.3.6-.3.1-.3.2-.4.2-.1.3.1 2.1.3 2.4.4.2 3-.2 3.5-.5.1-.5 0-2.1-.2-2.6-.2 0-.7 0-1.9.3-.3.1-.5-.1-.6-.4s.1-.5.4-.6c2.1-.4 2.5-.3 2.7-.1.6.5.7 3.2.5 3.8-.1.3-.5.6-1.3.8-.3.1-1.5.3-2.4.3zM40.8 20.2c-.5 0-1-.1-1.2-.3-.6-.5-.9-3.2-.5-3.7.1-.2.4-.4.8-.5.3-.1.5 0 .6.3s0 .5-.3.6c-.3.1-.3.2-.4.2-.1.3.1 2.1.3 2.4.4.2 3-.2 3.5-.5.1-.5 0-2.1-.2-2.6-.2 0-.7 0-1.9.3-.3.1-.5-.1-.6-.4-.1-.3.1-.5.4-.6 2.1-.4 2.5-.3 2.7-.1.6.5.7 3.2.5 3.8-.1.3-.5.6-1.3.8-.3.1-1.5.3-2.4.3zM33.8 28.5c-.5 0-1-.1-1.2-.3-.6-.5-.9-3.2-.5-3.7.1-.2.4-.4.8-.5.3-.1.5 0 .6.3.1.3 0 .5-.3.6-.3.1-.3.2-.4.2-.1.3.1 2.1.3 2.4.4.2 3-.2 3.5-.5.1-.5 0-2.1-.2-2.6-.2 0-.7 0-1.9.3-.3.1-.5-.1-.6-.4-.1-.3.1-.5.4-.6 2.1-.4 2.5-.3 2.7-.1.6.5.7 3.2.5 3.8-.1.3-.5.6-1.3.8-.3.1-1.5.3-2.4.3zM42 26.8c-.5 0-1-.1-1.2-.3-.6-.5-.9-3.2-.5-3.7.1-.2.4-.4.8-.5.3-.1.5 0 .6.3.1.3 0 .5-.3.6-.3.1-.3.2-.4.2-.1.3.1 2.1.3 2.4.4.2 3-.2 3.5-.5.1-.5 0-2.1-.2-2.6-.2 0-.7 0-1.9.3-.3.1-.5-.1-.6-.4-.1-.3.1-.5.4-.6 2.1-.4 2.5-.3 2.7-.1.6.5.7 3.2.5 3.8-.1.3-.5.6-1.3.8-.3.1-1.5.3-2.4.3zM35 35.4c-.5 0-1-.1-1.2-.3-.6-.5-.9-3.2-.5-3.7.1-.2.4-.4.8-.5.3-.1.5 0 .6.3.1.3 0 .5-.3.6-.3.1-.3.2-.4.2-.1.3.1 2.1.3 2.4.4.2 3-.2 3.5-.5.1-.5 0-2.1-.2-2.6-.2 0-.7 0-1.9.3-.3.1-.5-.1-.6-.4-.1-.3.1-.5.4-.6 2.1-.4 2.5-.3 2.7-.1.6.5.7 3.2.5 3.8-.1.3-.5.6-1.3.8-.3.1-1.4.3-2.4.3zM43.2 33.7c-.5 0-1-.1-1.2-.3-.6-.5-.9-3.2-.5-3.7.1-.2.4-.4.8-.5.3-.1.5 0 .6.3.1.3 0 .5-.3.6-.3.1-.3.2-.3.2-.1.3.1 2.1.3 2.4.4.2 3-.2 3.5-.5.1-.5 0-2.1-.2-2.6-.2 0-.7 0-1.9.3-.3.1-.5-.1-.6-.4-.1-.3.1-.5.4-.6 2.1-.4 2.5-.3 2.7-.1.6.5.7 3.2.5 3.8-.1.3-.5.6-1.3.8-.4.1-1.5.3-2.5.3zM52.6 25.7c-.5 0-1-.1-1.2-.3-.6-.5-.9-3.2-.5-3.7.1-.2.4-.4.8-.5.3-.1.5 0 .6.3.1.3 0 .5-.3.6-.3.1-.3.2-.4.2-.1.3.1 2.1.3 2.4.4.2 3-.2 3.5-.5.1-.5 0-2.1-.2-2.6-.2 0-.7 0-1.9.3-.3.1-.5-.1-.6-.4-.1-.3.1-.5.4-.6 2.1-.4 2.5-.3 2.7-.1.6.5.7 3.2.5 3.8-.1.3-.5.6-1.3.8-.3.1-1.5.3-2.4.3zM53.8 32c-.5 0-1-.1-1.2-.3-.6-.5-.9-3.2-.5-3.7.1-.2.4-.4.8-.5.3-.1.5 0 .6.3.1.3 0 .5-.3.6-.3.1-.3.2-.4.2-.1.3.1 2.1.3 2.4.4.2 3-.2 3.5-.5.1-.5 0-2.1-.2-2.6-.2 0-.7 0-1.9.3-.3.1-.5-.1-.6-.4-.1-.3.1-.5.4-.6 2.1-.4 2.5-.3 2.7-.1.6.5.7 3.2.5 3.8-.1.3-.5.6-1.3.8-.3.1-1.4.3-2.4.3zM36.8 43.6c-.2 0-.5-.2-.5-.4 0-.3.2-.5.4-.6 9.6-1.3 20.5-2.7 30.8-6.5.3-.1.5 0 .6.3.1.3 0 .5-.3.6-10.3 3.9-21.3 5.4-31 6.6zM23.7 45.3c-.2 0-.5-.2-.5-.4 0-.3.2-.5.4-.6 3.3-.4 6.7-.9 10-1.3.3 0 .5.2.6.4 0 .3-.2.5-.4.6-3.3.5-6.7.9-10.1 1.3.1 0 .1 0 0 0zM61.4 44.4c-.2 0-.4-.1-.5-.4-.1-.3.1-.5.3-.6 2.5-.7 4.6-1.4 6.6-2.2.3-.1.5 0 .6.3s0 .5-.3.6c-2 .8-4.1 1.5-6.6 2.2 0 .1-.1.1-.1.1zM49.3 47.1c-.2 0-.5-.2-.5-.4 0-.3.1-.5.4-.6 3.3-.5 6.2-1.2 9-1.9.3-.1.5.1.6.4.1.3-.1.5-.4.6-2.8.7-5.7 1.4-9.1 1.9.1 0 0 0 0 0zM25.1 50.2c-.2 0-.5-.2-.5-.4 0-.3.2-.5.4-.6 2.8-.4 5.7-.7 8.5-1 4.1-.5 8.3-.9 12.4-1.6.3 0 .5.1.6.4 0 .3-.1.5-.4.6-4.1.6-8.4 1.1-12.5 1.6-2.7.3-5.6.6-8.5 1zM51.2 51.7c-.2 0-.5-.2-.5-.4 0-.3.1-.5.4-.6 7.2-1.2 12.9-2.6 18.1-4.6.3-.1.5 0 .6.3.1.3 0 .5-.3.6-5.1 2-10.9 3.5-18.3 4.7.1 0 .1 0 0 0zM35.8 53.8c-.2 0-.5-.2-.5-.4 0-.3.2-.5.4-.6l2.9-.4c3-.4 6.2-.8 9.3-1.2.3 0 .5.1.6.4 0 .3-.1.5-.4.6-3.1.5-6.2.8-9.3 1.2l-3 .4c.1 0 .1 0 0 0zM25.8 55.1c-.2 0-.5-.2-.5-.4 0-.3.2-.5.4-.6l5.2-.7c.3 0 .5.2.6.4 0 .3-.2.5-.4.6l-5.3.7c.1 0 .1 0 0 0zM65.4 53.9c-.2 0-.4-.1-.5-.4-.1-.3.1-.5.3-.6 1.7-.5 3.4-1 5-1.6.3-.1.5 0 .6.3.1.3 0 .5-.3.6-1.6.6-3.3 1.1-5 1.6 0 .1-.1.1-.1.1zM37.7 58.7c-.2 0-.5-.2-.5-.4 0-.3.2-.5.4-.6 1.2-.2 2.3-.3 3.5-.5 6.7-.9 13.7-1.8 20.4-3.3.3-.1.5.1.6.4.1.3-.1.5-.4.6-6.7 1.5-13.7 2.4-20.5 3.3-1.1.1-2.3.3-3.5.5zM26.8 60.1c-.2 0-.5-.2-.5-.4 0-.3.2-.5.4-.6l7.1-.9c.3 0 .5.2.6.4s-.2.5-.4.6l-7.2.9c.1 0 .1 0 0 0zM51.7 61.6c-.2 0-.5-.2-.5-.4 0-.3.1-.5.4-.6 7.9-1.3 14.2-2.9 20-5 .3-.1.5 0 .6.3.1.3 0 .5-.3.6-5.8 2.2-12.2 3.8-20.2 5.1zM44.6 62.6c-.2 0-.5-.2-.5-.4 0-.3.2-.5.4-.6 1.3-.2 2.6-.3 3.9-.5.3 0 .5.1.6.4 0 .3-.1.5-.4.6-1.3.2-2.6.4-4 .5zM27.8 64.8c-.2 0-.5-.2-.5-.4 0-.3.2-.5.4-.6 4.5-.6 9-1.2 13.6-1.8.3 0 .5.2.6.4 0 .3-.2.5-.4.6-4.6.6-9.1 1.2-13.7 1.8.1 0 .1 0 0 0zM6 34.5H4.2c-.3 0-.5-.2-.5-.5s.2-.5.5-.5H6c.3 0 .5.2.5.5s-.2.5-.5.5zM4 37.5H.5c-.3 0-.5-.2-.5-.5s.2-.5.5-.5H4c.3 0 .5.2.5.5s-.2.5-.5.5zM7.4 41.4H4.9c-.3 0-.5-.2-.5-.5s.2-.5.5-.5h2.5c.3 0 .5.2.5.5s-.2.5-.5.5zM8 46H4.2c-.3 0-.5-.2-.5-.5s.2-.5.5-.5H8c.3 0 .5.2.5.5s-.2.5-.5.5zM10.5 51.7H8.3c-.3 0-.5-.2-.5-.5s.2-.5.5-.5h2.2c.3 0 .5.2.5.5s-.2.5-.5.5zM12 55.7H8.3c-.3 0-.5-.2-.5-.5s.2-.5.5-.5H12c.3 0 .5.2.5.5s-.2.5-.5.5zM12.7 60.7h-2.2c-.3 0-.5-.2-.5-.5s.2-.5.5-.5h2.2c.3 0 .5.2.5.5s-.3.5-.5.5zM12.8 65.8h-2c-.3 0-.5-.2-.5-.5s.2-.5.5-.5h2c.3 0 .5.2.5.5s-.2.5-.5.5zM13.8 71.7h-3.5c-.3 0-.5-.2-.5-.5s.2-.5.5-.5h3.5c.3 0 .5.2.5.5s-.2.5-.5.5zM34.3 78H29c-.3 0-.5-.2-.5-.5s.2-.5.5-.5h5.3c.3 0 .5.2.5.5s-.2.5-.5.5zM40.1 75.8h-2.8c-.3 0-.5-.2-.5-.5s.2-.5.5-.5h2.8c.3 0 .5.2.5.5s-.2.5-.5.5zM45.3 77.1h-2c-.3 0-.5-.2-.5-.5s.2-.5.5-.5h2c.3 0 .5.2.5.5s-.2.5-.5.5zM78.5 21h-3.2c-.3 0-.5-.2-.5-.5s.2-.5.5-.5h3.2c.3 0 .5.2.5.5s-.3.5-.5.5zM78.8 24.5h-2.5c-.3 0-.5-.2-.5-.5s.2-.5.5-.5h2.5c.3 0 .5.2.5.5s-.2.5-.5.5zM81.5 28.3h-2.2c-.3 0-.5-.2-.5-.5s.2-.5.5-.5h2.2c.3 0 .5.2.5.5s-.3.5-.5.5zM79.6 31.5h-3.5c-.3 0-.5-.2-.5-.5s.2-.5.5-.5h3.5c.3 0 .5.2.5.5s-.2.5-.5.5zM81 36h-4.2c-.3 0-.5-.2-.5-.5s.2-.5.5-.5H81c.3 0 .5.2.5.5s-.3.5-.5.5zM80.1 42h-2.5c-.3 0-.5-.2-.5-.5s.2-.5.5-.5h2.5c.3 0 .5.2.5.5s-.2.5-.5.5zM80.1 47.7H79c-.3 0-.5-.2-.5-.5s.2-.5.5-.5h1.2c.3 0 .5.2.5.5s-.3.5-.6.5zM81.1 52.3h-1c-.3 0-.5-.2-.5-.5s.2-.5.5-.5h1c.3 0 .5.2.5.5s-.2.5-.5.5z"/></svg>