<svg width="22" height="18" viewBox="0 0 22 18" xmlns="http://www.w3.org/2000/svg" xmlns:xlink="http://www.w3.org/1999/xlink"><title>school</title><defs><path d="M6 10l5.553 2.776c.28.14.613.14.894 0L18 10v5c-2 2-4 3-6 3s-4-1-6-3v-5z" id="a"/><path d="M12.447.224l9.764 4.882c.495.247.695.847.448 1.34-.096.195-.253.352-.447.448l-9.763 4.882c-.28.14-.613.14-.894 0L1.79 6.894c-.495-.247-.695-.847-.448-1.34.096-.195.253-.352.447-.448L11.552.224c.28-.14.613-.14.894 0z" id="b"/></defs><g fill="none" fill-rule="evenodd"><g transform="translate(-1)"><use fill="#FDB82C" xlink:href="#a"/><path stroke="#E19805" d="M6.5 10.81v3.98c1.863 1.817 3.695 2.71 5.5 2.71 1.805 0 3.637-.893 5.5-2.71v-3.98l-4.83 2.414c-.42.21-.92.21-1.34 0L6.5 10.81z"/></g><g transform="translate(-1)"><use fill="#FDB82C" xlink:href="#b"/><path stroke="#E19805" d="M12.224.67c-.14-.07-.307-.07-.448 0L2.012 5.554c-.096.048-.175.127-.223.223-.125.247-.025.548.222.67l9.764 4.883c.14.07.307.07.448 0l9.764-4.883c.096-.048.175-.127.223-.223.125-.247.025-.548-.222-.67L12.224.67z"/></g><path stroke="#E19805" stroke-linecap="round" d="M11 5l8 3v6"/></g></svg>