<svg xmlns="http://www.w3.org/2000/svg" viewBox="0 0 79 80"><path fill="#DFE8EF" d="M43.1 61.7c-1-7.8-2.2-15.7-2.9-23.6 0-.4-.4-2.7-.6-3.2.6-.2 1.3 0 1.9-.2 1.3-.3.7-2.2-.5-1.9-.4.1-2-.1-1.4.2-.4-.2-.9-.2-1.2.2l.1-.1c-.3 0-.7.4-.7.7-.6 4.2 1 9.5 1.6 13.7.6 4.8 1.1 9.7 1.7 14.5.2 1.2 2 1.3 2 0v-.1-.2zM37.1 4.2c-.3 0-.6.1-.9.2 0-.3-.1-.6-.1-.8-.1-.6-.3-1.2-.3-1.8 0-1.3-2-1.3-2 0 0 .6.2 1.2.3 1.8.1.6.1 1.3.2 1.9.1.6.6 1 1.1 1 .6.1 1.1-.2 1.6-.2 1.4-.1 1.4-2.1.1-2.1zM18.3 31.1c-.7-2.3-.7-5.1-1-7.5-.4-3.5-.8-7-1-10.5-.1-1.3-2.1-1.3-2 0 .2 3.9.7 7.8 1.1 11.6.2 2.2.3 4.7.9 6.9.4 1.2 2.4.7 2-.5z"/><path fill="#DFE8EF" d="M59.6 27.1c.6-.3 1.1-.5 1.8-.5-.4-5.2-.9-10.4-1.8-15.6-.6-3.5-1.3-4.9-4.8-3.9-3.2.9-6.7.9-9.9 1.3-3.8.5-7.4 1.4-11.2 1.8-4 .4-8.1 1-12.2 1.6-.2-.2-.5-.3-.9-.3-1.6.2-3.3.4-5 .5-.9 0-1.2 1.1-.8 1.6 0 .6.5 1.3 1.2 1.2 9.7-1.9 19.6-2.9 29.3-4.5 2.3-.4 4.6-.4 6.9-.8 3.1-.5 4.6-1.9 5.3 1.9 1 4.9 1.3 10 1.6 15.1.2.3.3.5.5.6z"/><path fill="#DFE8EF" d="M59.6 24.3c-6.5.9-13.1 2.1-19.6 3.1-7.2 1.1-14.7 1-21.8 2.4-1.3.3-.7 2.2.5 1.9 6.6-1.3 13.6-.8 20.3-2.2 6.9-1.4 14.1-2.4 21.1-3.4 1.3 0 .7-2-.5-1.8zM20.7 59.9c-1 1-1.9 1.5-3.4 1.5-.5 0-4.4-.2-4.1-1.5.3-1.2-1.6-1.8-1.9-.5-.6 2.4 1.8 3.3 3.7 3.8 2.8.7 5.1.2 7.1-1.8.9-1.1-.6-2.5-1.4-1.5z"/><path fill="#A5B2BB" d="M16.9 64.1c-2.3 0-5.3-.7-6.1-2.6-.4-1-.2-2.2.5-3.3 1-1.5 2.6-2.3 4.5-2.3.3 0 .6 0 1 .1 1.5.2 4.9 1.6 5.8 3.6.4.8.3 1.7-.2 2.4-1 1.6-3.5 2.1-5.5 2.1zm-1.1-7.2c-1.6 0-2.9.7-3.7 1.9-.5.8-.7 1.7-.4 2.4.5 1.2 2.6 2 5.2 2 2.2 0 4.1-.6 4.7-1.6.3-.5.4-1 .1-1.5-.7-1.6-3.7-2.9-5.1-3.1-.2-.1-.5-.1-.8-.1z"/><path fill="#DFE8EF" d="M74.2 70.2c-1 1-1.9 1.2-3.3 1.2-1.3 0-4.1.2-4.6-1.5-.3-1.2-2.3-.7-1.9.5.6 2.2 2.4 2.6 4.4 2.8 2.7.2 4.9.4 6.8-1.7.9-.8-.5-2.2-1.4-1.3z"/><path fill="#DFE8EF" d="M63.5 68.5c-.6.2-1.2.3-1.9.2-.4 0-1.2 0-1.5-.3-.9-.9-2.3.5-1.4 1.4 1.3 1.2 3.8 1.1 5.3.6 1.3-.4.8-2.3-.5-1.9z"/><path fill="#A5B2BB" d="M69.7 74.4c-2.1 0-4.7-.6-5.6-2.3-.5-1-.3-2.3.4-3.5 1.1-1.7 3-2.6 5.3-2.4 1.6.1 5 1.4 6 3.3.4.8.4 1.6-.1 2.4-.9 1.9-3.8 2.5-6 2.5zm-.5-7.2c-1.7 0-3.1.7-3.9 2-.5.8-.6 1.8-.3 2.4.5 1 2.4 1.7 4.7 1.7 2.4 0 4.6-.8 5.2-1.9.3-.5.3-1 0-1.5-.8-1.5-3.9-2.7-5.2-2.8-.1.1-.3.1-.5.1z"/><path fill="#A5B2BB" d="M62.5 71.5c-1.8 0-4-.3-4.4-1.5-.2-.6-.1-1.2.3-1.9.8-1.2 2.5-2.2 3.7-2.3 2.1-.2 3.5.9 4.2 1.5.2.2.2.5 0 .7-.2.2-.5.2-.7 0-.5-.5-1.6-1.4-3.3-1.2-.9.1-2.3.9-2.9 1.9-.2.4-.3.7-.2 1 .2.6 2.7 1 5.3.7.3 0 .5.2.6.4 0 .3-.2.5-.4.6-.7.1-1.4.1-2.2.1z"/><path fill="#DFE8EF" d="M10.6 70.9c-1.3.5-2.9.5-4.2-.1-1.1-.6-2.2 1.2-1 1.7 1.8.9 3.9 1 5.7.4 1.2-.5.7-2.5-.5-2z"/><path fill="#A5B2BB" d="M8.3 73.9c-1.3 0-3.4-.2-3.8-1.3-.2-.5-.1-1.1.3-1.7.7-1.1 2.2-1.9 3.2-2 2.1-.2 3.5 1 4.2 2.1.2.3.6 1.1.3 1.7-.7 1.2-3.6 1.2-4.2 1.2zm.1-3.9H8c-.7.1-1.9.8-2.4 1.5-.2.3-.2.6-.2.8.1.2 1 .6 2.9.6s3.1-.4 3.2-.6c0-.1-.1-.6-.6-1.2-.4-.4-1.2-1.1-2.5-1.1zM32.8 67.9c-.1 0-.2 0-.3-.1-.2-.1-.3-.5-.2-.7.2-.3.4-.6.5-.9-.7.3-1.4.6-2.3.8-.3.1-.5-.1-.6-.3-.1-.4-.2-.7-.2-1-.3.3-.5.7-.4 1.1 0 .2-.1.4-.2.5-.2.1-.4.1-.6 0-.3-.3-.7-.5-1-.8-.1-.1-.2-.1-.2-.2 0 .3 0 .8-.2 1.3-.1.3-.3.4-.6.4-.3-.1-.4-.3-.4-.6.2-.8.1-1.2.1-1.6v-.6c0-.2.1-.3.3-.4.2-.1.4 0 .5.1.4.3.7.6 1.1.9l.3.3c.3-.7.9-1.4 1.7-1.7.2-.1.4-.1.5.1.1.1.2.3.2.5-.1.5-.1.8-.1 1.2 1-.2 1.7-.6 2.4-1.1.2-.1.3-.1.5 0s.3.3.3.4c0 1-.5 2-.8 2.5.1-.2-.1-.1-.3-.1zM55.5 58.3c-.2 0-.3-.1-.4-.2-.3-.5-.8-1.5-.8-2.5 0-.2.1-.3.3-.4.2-.1.4-.1.5 0 .8.5 1.5.8 2.4 1.1.1-.4 0-.7-.1-1.2 0-.2.1-.4.2-.5.1-.1.3-.1.5-.1.8.4 1.4 1 1.7 1.7.1-.1.2-.2.3-.2.4-.3.7-.6 1.1-.9.1-.1.3-.1.5-.1.2.1.3.2.3.4v.6c0 .4-.1.8.1 1.6.1.3-.1.5-.4.6-.3.1-.5-.1-.6-.4-.1-.6-.2-1-.2-1.3-.1.1-.2.1-.2.2-.3.3-.7.5-1 .8-.2.1-.4.1-.6 0-.2-.1-.3-.3-.2-.5.1-.4-.1-.8-.4-1.1 0 .3-.1.6-.2 1-.1.2-.3.4-.6.3-.9-.2-1.6-.4-2.3-.8.1.3.3.6.5.9.1.2.1.5-.2.7 0 .3-.1.3-.2.3zM45.5 63.3c-.2 0-.5-.2-.5-.4L41.3 33l-3 .4L42 62.6c0 .3-.2.5-.4.6-.3 0-.5-.2-.6-.4L37.2 33c0-.3.2-.5.4-.6l4-.5c.1 0 .3 0 .4.1s.2.2.2.3L46 62.7c.1.3-.1.5-.5.6.1 0 0 0 0 0zM34.4 7.2c-.2 0-.5-.2-.5-.4l-.7-5.5c0-.1 0-.3.1-.4.1-.1.2-.2.3-.2l4-.5c.3 0 .5.2.6.4l.7 5.5c0 .1 0 .3-.1.4-.1.1-.2.2-.3.2l-4.1.5c.1 0 0 0 0 0zm-.1-5.6l.6 4.5 3-.4-.6-4.5-3 .4z"/><path fill="#A5B2BB" d="M16.6 36.1c-1.7 0-3.1-1.3-3.3-2.9l-2.6-20.6c-.2-1.8 1.1-3.5 2.9-3.7l45.5-5.7c1.8-.2 3.5 1.1 3.7 2.9l2.6 20.6c.2 1.8-1.1 3.5-2.9 3.7L17 36.1h-.4zM59.5 4h-.3L13.7 9.8c-1.3.2-2.2 1.3-2 2.6L14.3 33c.2 1.3 1.3 2.2 2.6 2l45.5-5.7c1.3-.2 2.2-1.3 2-2.6L61.8 6.1C61.7 4.9 60.7 4 59.5 4z"/><path fill="#A5B2BB" d="M16.9 32.9c-.2 0-.5-.2-.5-.4l-2.5-20c0-.1 0-.3.1-.4.1-.1.2-.2.3-.2l44.9-5.7c.3 0 .5.2.6.4l2.5 20c0 .1 0 .3-.1.4-.1.1-.2.2-.3.2l-45 5.7zm-2-20.1l2.4 19 43.9-5.5-2.4-19-43.9 5.5z"/><circle fill="#A5B2BB" cx="46.1" cy="13.4" r="1.2"/><circle fill="#A5B2BB" cx="28.5" cy="15.6" r="1.2"/><path fill="#A5B2BB" d="M37.8 26.7c-3.3 0-6.3-2-7.7-5.4-.1-.3 0-.5.3-.7.3-.1.5 0 .7.3 1.4 3.3 4.5 5.2 7.7 4.7 3.3-.4 5.8-3 6.3-6.5 0-.3.3-.5.6-.4.3 0 .5.3.4.6-.6 4-3.4 6.9-7.2 7.3-.4 0-.8.1-1.1.1zM34.8 56.8H28c-.3 0-.5-.2-.5-.5s.2-.5.5-.5h6.8c.3 0 .5.2.5.5s-.3.5-.5.5zM4.5 65.4H1c-.3 0-.5-.2-.5-.5s.2-.5.5-.5h3.5c.3 0 .5.2.5.5s-.2.5-.5.5z"/><g><path fill="#A5B2BB" d="M33.8 79.5h-9.5c-.3 0-.5-.2-.5-.5s.2-.5.5-.5h9.5c.3 0 .5.2.5.5s-.3.5-.5.5z"/></g><g><path fill="#A5B2BB" d="M23 74.2h-4.2c-.3 0-.5-.2-.5-.5s.2-.5.5-.5H23c.3 0 .5.2.5.5s-.2.5-.5.5z"/></g><g><path fill="#A5B2BB" d="M48.2 75.2h-4.8c-.3 0-.5-.2-.5-.5s.2-.5.5-.5h4.8c.3 0 .5.2.5.5s-.2.5-.5.5z"/></g><g><path fill="#A5B2BB" d="M78 58.5h-7.8c-.3 0-.5-.2-.5-.5s.2-.5.5-.5H78c.3 0 .5.2.5.5s-.2.5-.5.5z"/></g><g><path fill="#A5B2BB" d="M50.2 71h-2.8c-.3 0-.5-.2-.5-.5s.2-.5.5-.5h2.8c.3 0 .5.2.5.5s-.2.5-.5.5z"/></g><g><path fill="#A5B2BB" d="M65.8 80h-8.5c-.3 0-.5-.2-.5-.5s.2-.5.4-.5h8.5c.3 0 .5.2.5.5s-.2.5-.4.5z"/></g><g><path fill="#A5B2BB" d="M69.3 52h-4c-.3 0-.5-.2-.5-.5s.2-.5.5-.5h4c.3 0 .5.2.5.5s-.2.5-.5.5z"/></g><g><path fill="#A5B2BB" d="M52.4 63.3h-14c-.3 0-.5-.2-.5-.5s.2-.5.5-.5h14c.3 0 .5.2.5.5s-.2.5-.5.5z"/></g></svg>