<svg xmlns="http://www.w3.org/2000/svg" viewBox="0 0 72 81"><path fill="#A5B2BB" d="M65.4 28.8c-.2 0-.4-.2-.5-.4-.7-3.4-2.9-12.1-5.5-13.2-1.6-.6-4.3.6-8.2 2.4-3.7 1.7-8.4 3.8-14.1 5.2C26.9 25.2 8 28 6.5 24.8c-.2-.4-.2-.9 0-1.4 1-2.5 7.1-5.3 7.8-5.7.2-.1.5 0 .7.3.1.3 0 .5-.3.7-1.7.8-6.5 3.3-7.2 5.1-.1.3-.1.5 0 .6.8 1.9 16.5.5 29.4-2.7 5.7-1.4 10.3-3.4 14-5.1 4.1-1.8 7-3.2 9-2.4 3.5 1.4 5.8 12.6 6.1 13.9-.1.3-.3.6-.6.7 0-.1 0 0 0 0z"/><path fill="#A5B2BB" d="M61.3 41.3c-1.8 0-3.3-.8-4.3-2.3-1.2-1.9-1.3-4.7-.3-6.8 1.1-2.3 4.1-2.8 6.8-3.4 1.7-.3 3.4-.6 3.8-1.3.1-.2.2-.5.1-.7v-.1-.1c-.4-.9-2.1-1.7-2.7-2-.3-.1-.4-.4-.3-.6.1-.3.4-.4.6-.3.3.1 2.7 1 3.3 2.5 0 .1.1.2.1.2.4 1.1.8 2.3 1.1 3.3 1 2.9 1.9 5.4 1.6 6.9-.5 2.2-5.4 4.5-9.6 4.6l-.2.1zm6.6-13c-.8.8-2.4 1.1-4.2 1.5-2.4.5-5.2 1-6 2.8-.9 1.9-.8 4.2.2 5.9.8 1.2 2 1.9 3.5 1.9 4.3-.1 8.4-2.4 8.7-3.8.3-1.2-.6-3.7-1.5-6.3-.3-.8-.5-1.4-.7-2z"/><path fill="#A5B2BB" d="M61.9 37.6c-.7 0-1.3-.2-1.7-.6-.3-.4-.7-1.1-.5-2.3.2-.8.6-1.2.9-1.4.8-.4 1.7-.1 1.8-.1.3.1.4.4.3.6s-.4.4-.6.3c-.2-.1-.6-.2-1 0-.2.1-.3.4-.4.7-.1.5-.1 1.1.2 1.4.2.3.7.4 1.2.3.4 0 .8-.3.9-.5.1-.3 0-.6-.1-.7-.1-.2-.1-.5.2-.7.2-.1.5-.1.7.2.4.6.4 1.2.2 1.7-.3.6-.9 1-1.7 1.1h-.4z"/><path fill="#A5B2BB" d="M20.2 68.2c-.5 0-.8 0-.9-.1-1.5-.9-6.2-10.4-8.6-18.5C7.2 38 6.3 24.5 6.3 24.4c0-.3.2-.5.5-.5s.5.2.5.5c0 .1.8 13.5 4.3 24.9 2.7 8.9 7.2 17.4 8.2 18 1.6.5 28.5-4.1 39.1-8.2 7.6-3 11.4-6.2 11.8-10.1.2-2.4-2.2-10-2.2-10-.1-.3.1-.5.3-.6.3-.1.5.1.6.3.1.3 2.5 7.9 2.3 10.5-.4 4.2-4.5 7.8-12.4 10.9-9.3 3.4-33.9 8.1-39.1 8.1zM59.8 28.2c-.2 0-.4-.1-.5-.4-.3-.9-.4-1.7-.5-2.5-.3-2.3-.6-3.5-2.7-3.6-1.5-.1-2.9.5-4.5 1.3-1.7.8-3.6 1.6-5.8 1.8-.3 0-.5-.2-.5-.5s.2-.5.5-.5c2.1-.2 3.8-.9 5.5-1.7 1.7-.8 3.3-1.5 5-1.4 3.1.2 3.4 2.4 3.7 4.5.1.8.2 1.6.5 2.4.1.3-.1.5-.3.6h-.4z"/><path fill="#A5B2BB" d="M21.5 30c-.3 0-.5-.2-.5-.5s.2-.5.5-.5c7-.5 14-2.4 20.7-4.2h.2c.3-.1.5.1.6.4.1.3-.1.5-.4.6h-.2c-6.7 1.8-13.8 3.7-20.9 4.2zM13.2 30.2c-1.1 0-2.3-.1-3.6-.4-.3-.1-.4-.3-.4-.6.1-.3.3-.4.6-.4 1.9.4 3.5.4 5.3.3.8 0 1.6-.1 2.4-.1.3 0 .5.2.5.5s-.2.5-.5.5h-.2c-.8 0-1.5 0-2.2.1-.6.1-1.2.1-1.9.1zM21.7 63.5c-.3 0-.5-.2-.5-.5s.2-.5.4-.5c4.4-.4 8.9-1 13.3-1.7.3 0 .5.1.6.4s-.1.5-.4.6c-4.5.7-9 1.3-13.4 1.7zM38.3 61.3c-.2 0-.4-.2-.5-.4 0-.3.1-.5.4-.6 7.1-1.2 13.6-3.2 19.6-5.7.3-.1.5 0 .7.3.1.3 0 .5-.3.7-6.1 2.5-12.7 4.4-19.9 5.7zM61.4 54c-.2 0-.4-.1-.5-.3-.1-.3 0-.5.3-.7 2.2-1 3.5-2.1 3.9-3.5.5-1.5 0-3.4-1.6-6-.1-.2-.1-.5.2-.7.2-.1.5-.1.7.2 1.7 2.9 2.2 5 1.7 6.9-.5 1.7-2 3-4.4 4.1h-.3zM11.5 23.8c-.1 0-.3-.1-.4-.2-.2-.2-.2-.5.1-.7 1.9-1.6 4.6-3.7 7.5-6 4-3.2 8.1-6.4 10.3-8.4 5.3-5 10-8.2 10.1-8.2.1-.1.3-.1.5 0s.3.2.3.4c0 0 .5 3.7 1.3 5.3.1.2 0 .5-.2.7-.2.1-.5 0-.7-.2-.7-1.3-1.1-3.6-1.3-4.9-1.5 1.1-5.2 3.8-9.3 7.6-2.2 2-6.3 5.3-10.3 8.4-2.9 2.3-5.6 4.4-7.5 6-.2.1-.3.2-.4.2z"/><path fill="#A5B2BB" d="M9.8 26.1c-.2 0-.3-.1-.4-.3-.1-.2 0-.5.2-.7.1-.1 13-7.3 21.4-12.8 8.9-5.8 14.7-9.7 16-10.9.1-.1.3-.1.4-.1.1 0 .3.1.4.3 1.4 2.5 1.5 5.8 1.7 9.1.1 2.3.3 4.6.8 6.4.1.3-.1.5-.3.6-.3.1-.5-.1-.6-.3-.6-1.9-.7-4.2-.9-6.6-.2-2.9-.3-5.8-1.3-8.1-2 1.5-7.3 5-15.6 10.6-8.5 5.4-21.4 12.6-21.5 12.7-.1.1-.2.1-.3.1z"/><path fill="#A5B2BB" d="M15.4 26.1c-.2 0-.4-.1-.4-.3-.1-.2 0-.5.2-.7.2-.1 21.9-11.2 26.9-15.9.1-.1.4-.2.5-.1s.3.3.3.5c0 .8.4 1.5.9 1.8.4.2.8.1 1.3-.2.1-.1.3-.1.5-.1.2.1.3.2.3.4.4 2.6 1.3 5.6 1.3 5.6.1.3-.1.5-.3.6-.3.1-.5-.1-.6-.3 0-.1-.8-2.6-1.2-5-.5.2-1.1.2-1.6-.1-.6-.3-1.1-1-1.3-1.7-6.2 5-25.7 15-26.5 15.4-.1 0-.2.1-.3.1zM12.9 21c-.1 0-.2 0-.3-.1-.2-.2-.2-.5-.1-.7C17.9 13.7 23.4 7.5 29 1.9c.1-.1.2-.1.4-.1.1 0 .3.1.4.2 1.1 1.2 1.3 3.2 1.4 4.8v.4c0 .3-.2.5-.5.5s-.5-.2-.5-.5v-.4c-.1-1.2-.3-2.8-.9-3.8-5.4 5.5-10.8 11.5-16.1 17.8 0 .1-.2.2-.3.2zM8.8 80H.7c-.3 0-.5-.2-.5-.5s.2-.5.5-.5h8.2c.3 0 .5.2.5.5s-.3.5-.6.5zM15.8 76.8H11c-.3 0-.5-.2-.5-.5s.2-.5.5-.5h4.8c.3 0 .5.2.5.5s-.2.5-.5.5zM18.2 79.5h-2.5c-.3 0-.5-.2-.5-.5s.2-.5.5-.5h2.5c.3 0 .5.2.5.5s-.3.5-.5.5zM24.6 77.3h-4.2c-.3 0-.5-.2-.5-.5s.2-.5.5-.5h4.2c.3 0 .5.2.5.5s-.2.5-.5.5zM31.8 80.7h-7.2c-.3 0-.5-.2-.5-.5s.2-.5.5-.5h7.2c.3 0 .5.2.5.5s-.2.5-.5.5zM35.5 78.2h-3.2c-.3 0-.5-.2-.5-.5s.2-.5.5-.5h3.2c.3 0 .5.2.5.5s-.2.5-.5.5zM63.3 80.2H57c-.3 0-.5-.2-.5-.5s.2-.5.5-.5h6.3c.3 0 .5.2.5.5s-.2.5-.5.5zM51.8 80H49c-.3 0-.5-.2-.5-.5s.2-.5.5-.5h2.8c.3 0 .5.2.5.5s-.2.5-.5.5zM48.3 77.7h-3.2c-.3 0-.5-.2-.5-.5s.2-.5.5-.5h3.2c.3 0 .5.2.5.5s-.2.5-.5.5zM43.5 80.5h-4.2c-.3 0-.5-.2-.5-.5s.2-.5.5-.5h4.2c.3 0 .5.2.5.5s-.2.5-.5.5zM35 75.3h-7.2c-.3 0-.5-.2-.5-.5s.2-.5.5-.5H35c.3 0 .5.2.5.5s-.2.5-.5.5z"/></svg>