<svg width="246" height="143" xmlns="http://www.w3.org/2000/svg"><path d="M62.6.8c39.6 0 61.8 25.4 61.8 71 0 45.8-22.2 71.2-61.8 71.2-40 0-62.2-25.4-62.2-71.2C.4 26.2 22.6.8 62.6.8zm0 26c-18 0-25.6 13-25.6 45S44.6 117 62.6 117C80.2 117 88 103.8 88 71.8s-7.8-45-25.4-45zM194 .4c27.8 0 47.8 14.4 47.8 36.6 0 15.2-11.2 31-26.4 46.6L187 113.8h59V142H141.2v-23l50-53c7.8-8.2 13.4-17.6 13.4-24 0-8-5.8-12.8-15.8-12.8-11.4 0-25.4 6.8-38.2 17.8l-13.4-25.6C154.8 8.2 174 .4 194 .4z" fill="#0887F8" fill-rule="nonzero" opacity=".103"/></svg>