<svg width="239" height="144" xmlns="http://www.w3.org/2000/svg"><path d="M62.8.8c39.6 0 61.8 25.4 61.8 71 0 45.8-22.2 71.2-61.8 71.2-40 0-62.2-25.4-62.2-71.2C.6 26.2 22.8.8 62.8.8zm0 26c-18 0-25.6 13-25.6 45S44.8 117 62.8 117c17.6 0 25.4-13.2 25.4-45.2s-7.8-45-25.4-45zm134.2 32l6.6 1C224 63 238.4 76.4 238.4 98c0 26.8-21 45.6-53.6 45.6-19.2 0-39.4-6.8-52.2-17l14.4-27c10.4 11.2 22.4 17 35 17 14 0 21.6-6.8 21.6-18.2 0-11.8-7.8-17.6-21.8-17.6h-22.4v-19l31.2-32.4h-51V2.2H232v20.2l-35 36.4z" fill="#0887F8" fill-rule="nonzero" opacity=".103"/></svg>