<svg width="78" height="57" xmlns="http://www.w3.org/2000/svg"><defs><linearGradient x1="74.879%" y1="0%" x2="-16.169%" y2="120.65%" id="a"><stop stop-color="#FDD364" offset="0%"/><stop stop-color="#FF6F13" offset="100%"/><stop stop-color="#FF0053" offset="100%"/></linearGradient></defs><g transform="translate(-18 -13)" fill="none" fill-rule="evenodd"><path d="M0 0h135v70H0z"/><path d="M40 40.076c0-2.757 1.21-5.387 3.333-7.241l21.242-18.562c1.942-1.697 4.908-1.697 6.85 0l21.242 18.562C94.79 34.689 96 37.319 96 40.076v25.03C96 67.81 93.72 70 90.91 70H45.09C42.28 70 40 67.81 40 65.107v-25.03z" fill="url(#a)"/><rect fill="#F74FBD" x="28" y="32" width="30" height="4" rx="2"/><rect fill="#F74FBD" x="18" y="32" width="6" height="4" rx="2"/><rect fill="#F74FBD" x="26" y="44" width="24" height="4" rx="2"/><rect fill="#F74FBD" x="35" y="56" width="12" height="4" rx="2"/></g></svg>