<svg width="27" height="35" xmlns="http://www.w3.org/2000/svg"><defs><linearGradient x1="64.535%" y1="0%" x2="11.341%" y2="120.65%" id="a"><stop stop-color="#FE92AC" offset="0%"/><stop stop-color="#FF2268" offset="100%"/><stop stop-color="#FF0053" offset="100%"/></linearGradient><linearGradient x1="100%" y1="50%" x2="0%" y2="50%" id="b"><stop stop-color="#FE92AC" offset="0%"/><stop stop-color="#FF3FDD" offset="100%"/></linearGradient></defs><path d="M433.639 1218.569l-.024-.322c-.377-4.902-2.662-7.975-4.678-10.685-1.867-2.51-3.48-4.678-3.48-7.876a.686.686 0 00-1.085-.557c-3.028 2.164-5.554 5.812-6.437 9.292-.613 2.423-.694 5.147-.705 6.946-2.797-.597-3.43-4.775-3.437-4.82a.688.688 0 00-.978-.52c-.147.071-3.6 1.823-3.8 8.82-.014.233-.015.466-.015.699 0 6.797 5.537 12.327 12.343 12.327 6.805 0 12.343-5.53 12.343-12.327 0-.341-.024-.66-.047-.977zm-12.296 11.934c-2.269 0-4.114-1.963-4.114-4.377 0-.082-.001-.165.005-.267.027-1.018.22-1.712.433-2.175.398.854 1.11 1.638 2.264 1.638a.685.685 0 00.686-.685c0-.975.02-2.1.263-3.115.217-.9.733-1.858 1.388-2.625.292.996.86 1.803 1.414 2.59.794 1.126 1.614 2.29 1.758 4.276.009.118.017.236.017.363 0 2.414-1.845 4.377-4.114 4.377zm4.333-.895a5.864 5.864 0 001.153-3.482c0-.161-.01-.31-.03-.591-.163-2.236-1.136-3.618-1.995-4.837-.732-1.038-1.364-1.934-1.364-3.206a.685.685 0 00-1.099-.547c-1.315.993-2.412 2.663-2.795 4.258-.195.818-.264 1.703-.288 2.43-.475-.51-.622-1.457-.624-1.47a.686.686 0 00-.992-.517c-.173.088-1.691.958-1.778 4.156a5.863 5.863 0 001.145 3.807c-3.9-1.682-6.637-5.558-6.637-10.063 0-.205-.001-.41.013-.638.118-4.105 1.433-6.14 2.291-7.039.6 2.14 2.167 4.938 5.238 4.938a.685.685 0 00.686-.685c0-2.292.052-4.94.665-7.365.697-2.748 2.604-5.714 4.907-7.723.383 2.934 1.982 5.084 3.664 7.344 1.999 2.687 4.065 5.466 4.412 9.966l.023.327c.021.285.043.57.043.875 0 4.505-2.738 8.38-6.638 10.062z" transform="translate(-408 -1198)" fill="url(#a)" fill-rule="nonzero" stroke="url(#b)"/></svg>