<svg width="509" height="395" xmlns="http://www.w3.org/2000/svg" xmlns:xlink="http://www.w3.org/1999/xlink"><defs><linearGradient x1="86.469%" y1="50.985%" x2="-4.538%" y2="49.05%" id="a"><stop stop-color="#2DBDDF" stop-opacity=".4" offset="0%"/><stop stop-color="#4A259A" stop-opacity=".79" offset="50.49%"/><stop stop-color="#FF4773" offset="100%"/></linearGradient><linearGradient x1="12.618%" y1="56.625%" x2="96.76%" y2="50%" id="b"><stop stop-color="#E87C22" offset="0%"/><stop stop-color="#FE9135" offset="100%"/></linearGradient><linearGradient x1="36.356%" y1="39.911%" x2="73.882%" y2="90.227%" id="c"><stop stop-color="#BD6DC0" offset="0%"/><stop stop-color="#BD6DC0" stop-opacity="0" offset="100%"/></linearGradient><linearGradient x1="47.155%" y1="7.806%" x2="62.404%" y2="144.591%" id="d"><stop stop-color="#7146BE" offset="0%"/><stop stop-color="#7146BE" stop-opacity="0" offset="100%"/></linearGradient><linearGradient x1="28.874%" y1="39.824%" x2="81.544%" y2="63.818%" id="e"><stop stop-color="#4A259A" offset="0%"/><stop stop-color="#774CC4" offset="100%"/></linearGradient><linearGradient x1="15.689%" y1="50.436%" x2="50%" y2="53.345%" id="f"><stop stop-color="#4A259A" offset="0%"/><stop stop-color="#7E61BE" offset="100%"/></linearGradient><linearGradient x1="53.123%" y1="3.912%" x2="52.937%" y2="96.133%" id="g"><stop stop-color="#6E34E7" offset="0%"/><stop stop-color="#FF4773" stop-opacity=".51" offset="100%"/></linearGradient><linearGradient x1="46.303%" y1="37.95%" x2="50%" y2="66.445%" id="h"><stop stop-color="#360E8A" offset="0%"/><stop stop-color="#A461AE" stop-opacity="0" offset="100%"/></linearGradient><linearGradient x1="50%" y1="46.701%" x2="72.193%" y2="79.454%" id="i"><stop stop-color="#4A259A" offset="0%"/><stop stop-color="#311079" offset="100%"/></linearGradient><linearGradient x1="64.12%" y1="122.202%" x2="31.77%" y2="-24.738%" id="j"><stop stop-color="#FFF" offset="0%"/><stop stop-color="#D1A8F2" stop-opacity="0" offset="100%"/></linearGradient><linearGradient x1="140.251%" y1="50.018%" x2="12.429%" y2="51.886%" id="m"><stop stop-color="#FFF" offset="0%"/><stop stop-color="#FFF" stop-opacity="0" offset="100%"/></linearGradient><linearGradient x1="24.359%" y1="52.783%" x2="108.218%" y2="48.78%" id="n"><stop stop-color="#DA628C" offset="0%"/><stop stop-color="#B452AC" stop-opacity="0" offset="100%"/></linearGradient><linearGradient x1="-78.98%" y1="34.576%" x2="50%" y2="100%" id="o"><stop stop-color="#8240D6" offset="0%"/><stop stop-color="#8240D6" stop-opacity="0" offset="100%"/></linearGradient><linearGradient x1="58.932%" y1="75.573%" x2="23.648%" y2="73.526%" id="r"><stop stop-color="#4A259A" offset="0%"/><stop stop-color="#5B58CE" offset="100%"/></linearGradient><linearGradient x1="56.113%" y1="63.59%" x2="28.066%" y2="61.868%" id="s"><stop stop-color="#4A259A" offset="0%"/><stop stop-color="#5B58CE" offset="100%"/></linearGradient><linearGradient x1="50%" y1="0%" x2="50%" y2="100%" id="t"><stop stop-color="#4391EA" offset="0%"/><stop stop-color="#4391EA" stop-opacity="0" offset="100%"/></linearGradient><linearGradient x1="97.692%" y1="-42.031%" x2="81.692%" y2="47.035%" id="u"><stop stop-color="#05357A" offset="0%"/><stop stop-color="#4391EA" offset="100%"/></linearGradient><linearGradient x1="45.423%" y1="13.428%" x2="50%" y2="100%" id="x"><stop stop-color="#AA70BC" offset="0%"/><stop stop-color="#AA51B0" stop-opacity="0" offset="100%"/></linearGradient><linearGradient x1="57.842%" y1="-24.884%" x2="51.584%" y2="81.765%" id="y"><stop stop-color="#9466D4" stop-opacity="0" offset="0%"/><stop stop-color="#5E35B5" offset="100%"/></linearGradient><linearGradient x1="50.999%" y1="-33.673%" x2="50.324%" y2="76.998%" id="z"><stop stop-color="#9466D4" stop-opacity="0" offset="0%"/><stop stop-color="#5E35B5" offset="100%"/></linearGradient><linearGradient x1="52.739%" y1="-31.793%" x2="51.579%" y2="76.977%" id="A"><stop stop-color="#9466D4" stop-opacity="0" offset="0%"/><stop stop-color="#5E35B5" offset="100%"/></linearGradient><linearGradient x1="47.538%" y1="2.56%" x2="50%" y2="62.773%" id="C"><stop stop-color="#C43A85" offset="0%"/><stop stop-color="#9664D1" stop-opacity=".72" offset="100%"/></linearGradient><linearGradient x1="45.977%" y1="41.2%" x2="38.196%" y2="63.106%" id="F"><stop stop-color="#DA628C" offset="0%"/><stop stop-color="#8441D4" stop-opacity="0" offset="100%"/></linearGradient><linearGradient x1="50%" y1="0%" x2="50%" y2="100%" id="H"><stop stop-color="#F8E1DE" offset="0%"/><stop stop-color="#F8E1DE" stop-opacity="0" offset="100%"/></linearGradient><linearGradient x1="53.82%" y1="42.535%" x2="49.72%" y2="60.757%" id="I"><stop stop-color="#DCFFFD" offset="0%"/><stop stop-color="#DCFFFD" stop-opacity="0" offset="100%"/></linearGradient><linearGradient x1="7.144%" y1="-22.836%" x2="112.529%" y2="100.516%" id="J"><stop stop-color="#643ABD" offset="0%"/><stop stop-color="#41A8FA" stop-opacity="0" offset="100%"/></linearGradient><linearGradient x1="86.688%" y1="92.498%" x2="-7.199%" y2="-66.623%" id="K"><stop stop-color="#643ABD" offset="0%"/><stop stop-color="#41A8FA" stop-opacity="0" offset="100%"/></linearGradient><linearGradient x1="8.065%" y1="0%" x2="159.479%" y2="192.435%" id="L"><stop stop-color="#643ABD" offset="0%"/><stop stop-color="#41A8FA" stop-opacity="0" offset="100%"/></linearGradient><linearGradient x1="63.74%" y1="-285.973%" x2="119.09%" y2="-154.94%" id="M"><stop stop-color="#643ABD" offset="0%"/><stop stop-color="#41A8FA" stop-opacity=".07" offset="100%"/></linearGradient><linearGradient x1="68.94%" y1="129.15%" x2="-16.594%" y2="17.782%" id="N"><stop stop-color="#643ABD" offset="0%"/><stop stop-color="#41A8FA" stop-opacity="0" offset="100%"/></linearGradient><linearGradient x1="-29.449%" y1="-43.493%" x2="62.67%" y2="76.738%" id="Q"><stop stop-color="#C53983" offset="69.062%"/><stop stop-color="#9664D0" stop-opacity=".67" offset="100%"/></linearGradient><linearGradient x1="26.296%" y1="78.776%" x2="88.161%" y2="70.357%" id="R"><stop stop-color="#B47AD4" stop-opacity=".16" offset="0%"/><stop stop-color="#B479D2" offset="100%"/></linearGradient><linearGradient x1="51.991%" y1="62.881%" x2="52.195%" y2="72.331%" id="S"><stop stop-color="#4A259A" offset="0%"/><stop stop-color="#5C2A9B" offset="100%"/></linearGradient><linearGradient x1="91.259%" y1="-27.306%" x2="33.267%" y2="125.823%" id="T"><stop stop-color="#4D269C" offset="0%"/><stop stop-color="#3C148F" offset="100%"/></linearGradient><linearGradient x1="78.271%" y1="-28.116%" x2="50%" y2="87.821%" id="V"><stop stop-color="#CF3A80" offset="0%"/><stop stop-color="#FF3F6E" offset=".01%"/><stop stop-color="#4A259A" offset="100%"/></linearGradient><linearGradient x1="46.557%" y1="-1.197%" x2="51.086%" y2="151.543%" id="X"><stop stop-color="#9466D4" offset="0%"/><stop stop-color="#9466D4" stop-opacity="0" offset="100%"/></linearGradient><linearGradient x1="43.807%" y1="-3.063%" x2="93.872%" y2="117.757%" id="Y"><stop stop-color="#9466D4" offset="0%"/><stop stop-color="#9466D4" stop-opacity="0" offset="100%"/></linearGradient><linearGradient x1="40.826%" y1="33.595%" x2="53.698%" y2="63.574%" id="Z"><stop stop-color="#5D37AE" offset="0%"/><stop stop-color="#9466D4" stop-opacity="0" offset="100%"/></linearGradient><linearGradient x1="47.995%" y1=".265%" x2="52.53%" y2="98.164%" id="aa"><stop stop-color="#FFF" offset="0%"/><stop stop-color="#FFF" stop-opacity="0" offset="100%"/></linearGradient><linearGradient x1="66.495%" y1="21.978%" x2="85.487%" y2="85.076%" id="ab"><stop stop-color="#B4489E" offset="0%"/><stop stop-color="#A457B9" offset="100%"/></linearGradient><linearGradient x1="57.168%" y1="131.641%" x2="45.478%" y2="18.845%" id="ac"><stop stop-color="#9466D4" offset="0%"/><stop stop-color="#C53983" offset="100%"/></linearGradient><linearGradient x1="50.002%" y1="0%" x2="50.002%" y2="132.752%" id="ad"><stop stop-color="#B04CA6" offset="0%"/><stop stop-color="#B04CA6" stop-opacity="0" offset="100%"/></linearGradient><linearGradient x1="59.852%" y1="26.858%" x2="40.148%" y2="89.697%" id="ae"><stop stop-color="#FCFAFF" offset="0%"/><stop stop-color="#FCFAFF" stop-opacity="0" offset="100%"/></linearGradient><linearGradient x1="49.999%" y1="0%" x2="49.999%" y2="100.001%" id="af"><stop stop-color="#9466D4" offset="0%"/><stop stop-color="#9466D4" stop-opacity="0" offset="100%"/></linearGradient><linearGradient x1="49.999%" y1="0%" x2="49.999%" y2="100.001%" id="ag"><stop stop-color="#FFF" offset="0%"/><stop stop-color="#FFF" stop-opacity="0" offset="100%"/></linearGradient><linearGradient x1="40.12%" y1="35.766%" x2="88.464%" y2="64.778%" id="ai"><stop stop-color="#4A259A" offset="0%"/><stop stop-color="#7F61BE" offset="100%"/></linearGradient><linearGradient x1="21.463%" y1="55.505%" x2="91.969%" y2="69.589%" id="ak"><stop stop-color="#4A259A" offset="0%"/><stop stop-color="#311079" offset="100%"/></linearGradient><linearGradient x1="19.952%" y1="50.22%" x2="-2.266%" y2="49.216%" id="am"><stop stop-color="#FFF" offset="0%"/><stop stop-color="#EDE0FF" stop-opacity="0" offset="100%"/></linearGradient><linearGradient x1="52.286%" y1="69.379%" x2="52.913%" y2="54.201%" id="as"><stop stop-color="#692D9C" offset="0%"/><stop stop-color="#4A259A" offset="100%"/></linearGradient><linearGradient x1="46.02%" y1="0%" x2="46.02%" y2="100%" id="at"><stop stop-color="#502698" offset="0%"/><stop stop-color="#8C3D9F" stop-opacity="0" offset="100%"/></linearGradient><linearGradient x1="45.208%" y1="-17.382%" x2="63.519%" y2="161.724%" id="au"><stop stop-color="#FFF" offset="0%"/><stop stop-color="#5F2B9D" stop-opacity="0" offset="100%"/></linearGradient><linearGradient x1="50%" y1="0%" x2="50%" y2="100%" id="av"><stop stop-color="#360E8A" offset="0%"/><stop stop-color="#4A259A" offset="100%"/></linearGradient><linearGradient x1="49.999%" y1="20.841%" x2="49.999%" y2="123.696%" id="aw"><stop stop-color="#260669" offset="0%"/><stop stop-color="#4A20A0" offset="100%"/></linearGradient><linearGradient x1="50.001%" y1="39.738%" x2="13.973%" y2="59.174%" id="ax"><stop stop-color="#360E8A" offset="0%"/><stop stop-color="#260669" offset="100%"/></linearGradient><linearGradient x1="69.798%" y1="-3.295%" x2="-7.338%" y2="162.006%" id="ay"><stop stop-color="#4A259A" offset="0%"/><stop stop-color="#4A259A" stop-opacity="0" offset="100%"/></linearGradient><linearGradient x1="55.915%" y1="26.894%" x2="46.551%" y2="110.14%" id="az"><stop stop-color="#682A94" offset="0%"/><stop stop-color="#682A94" stop-opacity="0" offset="100%"/></linearGradient><linearGradient x1="49.999%" y1="0%" x2="49.999%" y2="100%" id="aA"><stop stop-color="#F8E1DE" offset="0%"/><stop stop-color="#F8E1DE" stop-opacity="0" offset="100%"/></linearGradient><path d="M12.716 63.649C7.272 57.54-2.64 43.524 1.267 36.317c4.885-9.009 9.923-20.613 16.487-24.125C24.318 8.68 47.216-1.244 49.66.435c1.377.947 2.553 6.73 3.344 11.757.35 2.226-8.503 22.496-8.5 34.05l8.897 9.626s3.526-36.212 6.486-36.57c2.19-.264 5.042-.427 6.422.486 2.337 1.546 5.231 6.24 12.202 7.983 4.275 1.068 12.183 1.29 22.593 5.802 4.58 1.984 27.33 1.836 37.095.99 37.39-3.24 62.102-4.193 67-5.981 2.225-.811 6.122-1.117 10.854 4.075 4.732 5.19 9.16 9.314 4.58 13.589s-12.06 10.536-29.616 17.407c-17.555 6.87-66.099 23.36-94.798 17.406-28.7-5.955-28.088-7.482-36.332-7.176-8.243.305-46.107-9.004-47.17-10.23z" id="k"/><path d="M31.831 133.87C26.022 129.907 8.727 112.74.805 104.65c-6.66-6.71 31.026-58.105 37.628-65.533 6.6-7.428 18.484-24.596 26.735-34.004 8.252-9.41 32.677-2.642 29.046 0-3.63 2.64-1.32 12.38 1.485 22.284 2.806 9.904 13.698 15.186 19.804 21.294 4.885 4.886 7.427 4.127 8.087 3.136 1.98 8.75-11.882 21.79-14.193 26.412-2.31 4.622-5.446 6.108-10.397 10.564-4.951 4.457 1.98 10.73-6.106 4.622-8.087-6.107-17.659-5.777-22.115-7.262-4.456-1.486-28.055 11.06-30.036 25.915-1.98 14.857.825 16.177.825 17.498 0 1.32 2.31 8.419 5.446 9.904 3.136 1.486 12.708 3.302 17.329 7.264 4.621 3.961-3.631.495-10.067 1.816-6.437 1.32-2.64-1.486-11.552-4.622-8.912-3.137-3.631-5.118-10.893-10.07z" id="p"/><path d="M10.455 28.191c1.174-6.84 8.03-21.276 11.312-27.639 10.95-3.97 24.755 14.968 30.289 24.933l-8.09 16.65c-2.299 3.008-6.98 9.72-7.312 12.5-.415 3.476-.363 4.41-1.244 6.329-.706 1.535.12 3.44.622 4.201 1.089 1.47 3.547 5.903 4.667 11.878 1.4 7.469 9.23 20.851 15.453 25 6.224 4.15 10.631 22.045 13.224 29.722s2.178 9.337 1.867 17.687c-.311 8.351 6.949 16.391 4.667 19.088-1.825 2.158-6.534-1.833-8.66-4.097-.329.743-1.027 3.06-1.193 6.38-.207 4.149-.674 4.823-3.526 6.068-2.852 1.245-4.641-.856-7.001-3.216-2.36-2.36-.726-.985-3.89-1.244-2.53-.208-4.718-3.303-5.496-4.824-4.77-1.577-6.265-6.018-6.415-8.042-3.212 0-4.36-1.04-5.354-6.046-3.597-18.106 2.207-13.16 2.936-28.676.864-18.397-7.6-15.979-18.394-26.171C8.123 88.48 2.251 75.352 1.387 72.415.524 69.478-.512 59.199.351 57.04c.864-2.16 2.505-7.86 2.591-9.155.086-1.296 6.045-11.142 7.513-19.694z" id="v"/><path d="M54.272 28.223c5.431-1.258 13.91-.524 17.47 0L61.122.126l-26.143 1.74L.171 20.995l13.137 67.727 50.615 39.226c1.61-3.446 1.934-13.7-9.651-27.15C39.79 83.99 37.215 77.337 35.559 75.929c-3.49-2.967-11.027-14.936 2.152-20.29 7.949-3.23 10.268-7.869 9.44-16.648-.828-8.779.33-9.193 7.12-10.767z" id="B"/><path d="M31.577 6.593C25.42 6.079 21.851 2.03 20.836.07l-12.33 14.6L18.783 27.16.078 42.813l52.18-21.421c1.461-1.247 3.506-5.285 0-7.85-4.382-3.208-1.923-2.62-2.618-6.308-.695-3.688-10.367 0-18.063-.641z" id="E"/><path d="M4.125 20.412c2.076-3.722.388-15.323 0-19.2 2.505-5.996 49.572 19.162 48.32 20.235-1.253 1.074-1.61 6.622-1.969 11.811-.357 5.19-2.773 10.737-5.188 13.958-2.415 3.221-10.556 18.97-16.996 21.385-6.441 2.416-10.109-4.295-18.965-12.258C.47 48.379 1.187 36.032.56 31.827c-.626-4.206.971-6.762 3.565-11.415z" id="O"/><path d="M28.829 106.858c4.019 1.838 5.502.096 5.741-1.005.626-3.695.756 1.005 2.203-1.04 1.447-2.046.723-5.395-1.447-7.697-2.17-2.302 3.354-1.456 3.814-4.21.46-2.754-.131-1.053 2.565-2.04 2.697-.986 3.617-.723 2.828-3.223-.63-2 2.412-1.841 4.012-1.512 18.612-.11 55.994.197 56.625 2.302.79 2.631 1.381.855 3.683 0 2.302-.855 1.315.855 1.447 2.434.131 1.579.263 2.829 4.209 3.223 3.946.395 3.157-.132 1.71-3.223-1.447-3.092 7.957-.658 9.404-1.119 1.447-.46 5.722-1.644 3.42-3.617-2.302-1.974 2.63-4.145 2.302-5.329-.329-1.184-1.315-2.5-.986-5.591.328-3.092 1.446-2.368-.33-4.145-1.775-1.776-1.38-3.091 2.368-5.657 3.749-2.565 1.579-2.762.592-6.71-.986-3.946-3.946-1.315-4.34-2.96-.395-1.644.131-2.762-1.119-4.604-1.249-1.843-1.907-.527-1.446-3.618.46-3.092-3.355-.198 0-5.526 3.354-5.328-1.579-4.802-.46-6.841 1.117-2.04-1.842-.855-2.895-4.21-1.052-3.355-2.433-.46-5.327-1.448-2.893-.986-1.578-2.696-.657-1.973.92.724 3.88-1.184 3.551-1.908-.329-.723-.526-1.841-3.551-2.236-3.026-.395-3.026-1.579-1.71-3.487 1.315-1.907-1.447-1.644-5.13-1.447-3.683.198-6.116-1.25-6.05-3.88.065-2.632-3.157-4.803-5.328-5.855-2.17-1.053-4.274 1.447-6.05-.395-1.775-1.842 2.17-3.487-1.381-3.487s-4.077.79-5.524-1.776C84.125.483 79.192-.635 76.562.812c-2.631 1.447-1.645 2.763-3.75 1.315C70.709.68 69.723 1.47 66.237.812c-3.486-.658.395 5.065-3.288 4.012-3.683-1.052-.198 7.105-5.196 3.487-4.998-3.618-5.787 1.381-6.905-.395-1.118-1.776-2.5 3.618-5.92 2.237-3.419-1.382-.788 2.763-2.301.855-1.513-1.908-3.091 1.513-4.801 1.908-1.71.394-.329 1.841.592 4.275.92 2.434 0 4.342-2.894 2.697-2.894-1.644-2.039.527-2.499 2.763-.46 2.237-2.96 2.237-4.472.724-1.513-1.513-4.538-1.184-4.472 1.513.066 2.697.329 6.841-.92 4.604-1.25-2.236-5.065.198-4.378 2.237.686 2.04-1.016 3.092-3.844 4.736-2.828 1.645-.789 3.29-2.696 5.197-1.907 1.908 1.776 5.197-.592 6.71s-2.039-2.697-4.735-2.763c-2.697-.066 2.104 3.42-.46 5.526-2.565 2.105.723 2.63 0 2.894-.724.263-1.842 2.763-1.974 4.342-.13 1.579 1.316 1.118 1.316 4.276 0 3.157-1.842 3.42-2.236 3.749-.395.329 2.236 5.394 2.894 5.328.657-.066.854.921-.658 3.487-1.513 2.565-2.236-.724-3.354-.46-1.118.263-1.842 2.17-2.04 2.828-.196.658.922.855 3.158 1.381 2.236.526.197 1.381-.592 3.618-.79 2.237 1.907 1.119 2.828.46.92-.657 2.499.921 2.499 2.105 0 1.185-.263 1.711 0 2.5.263.79 1.381 1.513 3.354 1.645 1.973.131.92 2.302-.592 2.565-1.513.263.403 3.52 2.27 3.807 1.865.287 2.009 1.292 2.87 1.867.86.574 0 2.01-2.87 3.014-2.871 1.005.143 2.728 2.87 5.312 2.727 2.585 0 2.297 2.584 4.738 2.067 1.952 4.88-.814 6.028-2.44-.335-1.197 0-3.13 4.019-1.293z" id="U"/><path d="M.354 14.78C4.93 13.303 15.977 9.05 23.537 3.85c9.45-6.498 18.606-4.578 31.453 8.567 12.847 13.146 4.577 4.874 31.896 9.01 21.856 3.308 22.69 24.223 20.375 34.266-.638 5.071-5.609 14.297-20.375 10.634-13.046-3.236-.186-3.614 5.977-3.401-3.171-2.33 3.937-13.83 4.328-20.728.443-7.829-64.049-20.202-67.298-23.747-2.598-2.836-26.439.563-29.54-3.67z" id="ah"/><path d="M4.706.25C2.722.184.944 1.545.28 2.443c.17.077.687.22 1.4.17.89-.064.826.466 3.327.508 1.624.028 3.024-.642 3.803-1.17.24-.164.233-.498-.02-.641C7.916.815 6.345.307 4.707.25z" id="ao"/><path d="M3.294.195C2.595.165 1.882.27 1.216.446-.16.812-.031 2.498 1.354 2.821c.562.131 1.2.238 1.94.298 1.858.151 3.673-.757 4.343-.757.67 0 .713-.584.41-.584-.302 0-2.29-1.475-4.753-1.583z" id="aq"/><radialGradient cx="49.936%" cy="43.092%" fx="49.936%" fy="43.092%" r="676.569%" gradientTransform="matrix(0 1 -.33696 0 .645 -.068)" id="al"><stop stop-color="#FFF" offset="0%"/><stop stop-color="#BEA9EA" offset="100%"/></radialGradient><radialGradient cx="47.675%" cy="43.093%" fx="47.675%" fy="43.093%" r="550.101%" gradientTransform="matrix(0 1 -.31284 0 .612 -.046)" id="an"><stop stop-color="#FFF" offset="0%"/><stop stop-color="#9164F2" offset="100%"/></radialGradient></defs><g fill="none" fill-rule="evenodd"><path d="M61 178.607c0-18.189 7.996-35.534 22.02-47.768L223.374 8.394c12.83-11.192 32.423-11.192 45.252 0L408.98 130.84c14.025 12.234 22.02 29.58 22.02 47.768v165.114C431 361.548 415.94 376 397.364 376H94.636C76.06 376 61 361.548 61 343.721V178.607z" fill="#FFF" fill-rule="nonzero"/><g transform="translate(0 44)"><path d="M44.865 326.129c-46.524 3.218-41.327 15.099-8.909 16.336 32.849 1.254 55.688.952 86.614-3.712 31.182-4.703-28.21 17.821 154.916 10.148 27.205-1.14 88.594 0 105.422 0 16.828 0 27.964-15.842 47.761-6.436 19.798 9.406 52.457 12.77 73.003 0 25.488-15.842-53.947-16.336-67.806-24.257-11.086-6.337-55.103 2.64-75.725 7.92-46.03-1.732-147.69-5.742-186.097-7.92-48.01-2.723-54.69 13.366-67.806 13.861-13.116.495-14.848-9.159-61.373-5.94z" fill="url(#a)" fill-rule="nonzero"/><path d="M297.253 106.182c-.034-.95-1.667-4.466-2.48-6.106l-5.02 4.606 2.73 1.375c1.603.437 4.803 1.075 4.77.125z" fill="#AEAEE0" fill-rule="nonzero"/><path d="M276.527 230.324c2.73 2.79 3.882 8.187 4.118 10.536l-5.49 3.043-5.527-.928c1.162-5.38 4.17-15.441 6.899-12.651z" fill="#0C50B1" fill-rule="nonzero"/><path d="M392.663 339.47c-10.834 3.465-27.451 1.24-34.406-.306 9.862-6.712 30.453-19.854 33.918-18.732 4.33 1.404 7.403 1.891 10.423 6.261 1.495 2.163 3.607 8.444-9.935 12.776z" fill="#FD6489" fill-rule="nonzero"/><ellipse fill="url(#b)" fill-rule="nonzero" cx="48.641" cy="287.578" rx="48.32" ry="48.331"/><path d="M37.495 240.539c.514 5.562 2.051 11.884 5.727 14.948 6.571 5.476 6.223 5.571-7.755 9.398-.958.263-1.98.542-3.069.843-16.967 4.682-28.083 23.7-16.382 37.453 5.79 6.804 16.449 8.308 25.458 9.579 9.2 1.298 16.68 2.353 15.497 8.562-.727 3.82 1.598 8.205 5.745 12.505a48.307 48.307 0 01-14.075 2.082c-26.686 0-48.32-21.638-48.32-48.33 0-22.856 15.86-42.007 37.174-47.04z" fill="url(#c)"/><path d="M51.31 239.32c4.942 9.196 14.257 24.202 22.395 29.68 11.488 7.735 11.71 15.248 7.29 22.099l-.084.13c-4.404 6.828-9.806 15.201-1.683 28.157a140.677 140.677 0 002.322 3.582c9.481-8.824 15.411-21.414 15.411-35.39 0-25.797-20.206-46.873-45.651-48.259z" fill="url(#d)" opacity=".4"/><path d="M15.72 252.2c14.817-3.922 49.848 17.337 66.067 41.248l4.735-8.009c-2.812-3.617-9.178-16.466-11.107-27.214.775-5.914 2.24-15.175 1.894-4.91-.344 10.266 7.29 26.613 9.989 30.488l7.146-8.612-.603 16.621-6.543-4.306-4.478 8.01 4.478 7.922 3.271 1.723-1.98 5.081-7.233-13.607-6.371 9.043c4.073 6.236 3.657 13.057-7.167 26.275-.992.43-2.002.827-3.028 1.191 9.557-10.599 13.434-19.015 8.731-26.002-20.146 15.31-32.273 23.359-52.804 19.884a48.704 48.704 0 01-2.975-2.288l-.359-.372c19.803 5.253 34.806-2.996 55.191-19.205l-4.047-3.962c-3.917-3.834-14.542-4.338-32.076-5.17l-1.762-.083c-9.04-.43-26.174-3.617-34.354-7.665h-.01a49.288 49.288 0 01.01-1.895c.53.353 1.128.726 1.808 1.12 7.24 4.197 23.22 5.43 39.841 6.713 6.56.506 13.22 1.02 19.483 1.727 5.224.59 10.648 5.483 12.485 7.492l6.543-7.923c-18.556-26.188-56.291-47.205-67.58-40.48a48.652 48.652 0 012.805-2.836z" fill="url(#e)"/><path d="M410.643 286.27c-7.56 5.2-18.605 9.453-23.183 10.93 3.101 4.233 3.48 15.527 6.078 18.363 3.25 3.545 5.324-5.925 4.881 1.903-.443 7.829 21.232 15.624 28.32 15.182 7.088-.444 28.795 11.52 47.253 16.098 14.767 3.664 19.738-5.563 20.376-10.634 2.314-10.043 1.48-30.957-20.376-34.266-27.318-4.136-19.049 4.136-31.896-9.01-12.847-13.145-22.001-15.065-31.453-8.566z" fill="#FD6489" fill-rule="nonzero"/><path d="M401.98 335.337c1.368-.76 1.896-3.572 1.916-4.502-.738.914-1.367 1.13-3.002 1.678-1.38.462-.636-4.686-7.216-3.04-7.342 1.362-5.589 5.787-7.849 5.864-7.32.25-12.265-1.136-16.875-1.63l-15.167 3.65s1.693 2.223 16.087 4.251c17.994 2.535 30.395-5.32 32.106-6.27z" fill="url(#f)" fill-rule="nonzero"/><path d="M281.99 215.001c-2.498 10.442-7.441 21.255-9.46 26.642-22.253 4.386-28.629-29.774-29.035-47.402l17.869-64.842 47.601 16.492c8.754 2.355 25.855 9.937 24.224 21.417-2.038 14.35 5.096 56.77 8.545 79.824 3.45 23.053 6.978 32.306 8.153 36.854 1.176 4.548-9.486-.392-16.62 6.116-7.133 6.508-7.604 3.685-9.642 3.136-2.038-.548-3.841-7.84-7.134-10.977-3.292-3.137-.235-2.431-7.526-19.447-7.29-17.015-12.211-24.63-15.088-36.838-2.699-11.454-5.06-26.048-6.784-35.144-1.675-8.838-4.26 20.646-5.103 24.17z" fill="#DB8D85" fill-rule="nonzero"/><path d="M328.239 251.434c-9.668 1.967-19.733 1.64-23.557 1.23.547 1.297 2.172 5.203 4.302 10.448 2.13 5.246 5.219 12.091 6.229 18.645 2.048 2.937 5.447 9.18 5.447 10.654 0 1.476 5.052 2.664 7.579 3.073l5.735-3.073 15.363-10.654-7.169-34.216c-.615.478-4.261 1.926-13.93 3.893z" fill="#FFEAEA" fill-rule="nonzero"/><path d="M311.1 288.868c1.895-3.791 2.375-6.221 3.142-7.729 3.678-.69 7.16 11.882 11.912 12.801 4.752.92 9.546-11.204 16.903-2.772 5.886 6.746 9.912 8.279 11.19 8.202-14.562 3.628-43.929 9.842-44.91 5.672-1.226-5.212-.23-12.188 1.763-16.174z" fill="#4A259A" fill-rule="nonzero"/><path d="M309.496 292.105c.976-3.843 2.638-5.85 3.404-7.357 3.678-.69 8.503 12.22 13.254 13.14 4.752.92 9.546-11.204 16.903-2.772 5.886 6.745 9.912 8.278 11.19 8.202-14.562 3.628-43.929 9.842-44.91 5.672-1.226-5.212-.938-12.565.159-16.885z" fill="#FD6489" fill-rule="nonzero"/><path d="M279.488 223.561c.942-2.802 1.812-5.695 2.498-8.56.233-.976.6-3.947 1.045-7.543 1.16-9.38 2.846-23.015 4.057-16.626.481 2.536 1.012 5.5 1.585 8.704 1.483 8.286 3.253 18.18 5.2 26.44 1.94 8.234 4.81 14.38 8.711 22.73 1.882 4.028 4.004 8.57 6.377 14.108 3.872 9.037 4.825 13.076 5.361 15.346.473 2.004.62 2.63 2.165 4.1 1.716 1.636 3.178 4.113 4.445 6.258 1.162 1.969 2.16 3.658 3.037 4.16.285.163.536.382.789.602.433.378.872.762 1.504.88 3.007-3.213 6.249-8.205 5.921-13.661-.284-4.743-5.75-9.388-11.289-14.098-5.36-4.556-10.789-9.17-11.66-13.99-.495-2.731-.819-6.1-1.165-9.697-.895-9.302-1.936-20.124-6.444-25.373-6.25-7.278-5.359-14.665 7.142-21.943 8.343-4.857 18.218-16.027 24.079-23.497.043-1.74.153-3.284.339-4.594.014-.103.028-.207.04-.31-4.027-1.47-9.455-3.325-10.837-3.325-.275 0-1.07-.928-2.377-2.45-3.608-4.207-11.112-12.955-22.29-19.226l-19.085-6.611c-5.818-.849-12.191-.773-19.108.658l-10.997 39.905c-1.804 7.517-3.53 15.166-4.877 22.02.262 4.12.817 8.81 1.758 13.555 4.672-9.205 12.155-21.905 16.73-22.196 1.777-.113 3.549-.296 5.23-.469 6.574-.677 11.756-1.212 10.48 3.13-1.873 6.366-.715 11.423.473 16.611 1.044 4.561 2.111 9.223 1.163 14.962z" fill="url(#g)" opacity=".89"/><path d="M281.944 145.55c2.577-.804 14.544.808 20.206 1.715l1.171-2.26c-2.287-.32-7.078-1.046-7.948-1.38-1.088-.419-6.526-2.427-7.405-2.511-.702-.067-7.07-.586-10.165-.837-.684-.126-2.561-.193-4.602.544-2.553.92-3.473 2.26-4.268 3.222-.794.962-4.978 4.393-8.157 7.448-3.18 3.055-7.74 8.536-8.158 9.457-.334.736 3.626 5.858 5.648 8.327.906.126 2.794-.611 3.095-4.561.377-4.938 11.589-10 14.643-11.926 3.053-1.925 2.719-6.234 5.94-7.239z" fill="url(#h)" fill-rule="nonzero" opacity=".7"/><path d="M284.398 187.298c22.195.707 41.57-11.041 48.482-17.003l-78.808 14.622c.86.5 8.132 1.674 30.326 2.38z" fill="#4C025A" fill-rule="nonzero" opacity=".2"/><path d="M356.286 286.914c-.706-2.294-3.332-1.985-4.558-1.544l-6.994 3.095 9.114 20.485c6.192-2.737 17.413-8.793 12.767-11.117-5.808-2.904-9.447-8.051-10.329-10.919z" fill="#4A259A" fill-rule="nonzero"/><path d="M357.816 289.56c-1.071-2.148-3.77-2.104-4.995-1.663l-6.994 3.095 11.022 20.006c6.191-2.738 16.707-9.783 12.061-12.106-5.807-2.905-10.322-7.78-11.094-9.332z" fill="#FD6489" fill-rule="nonzero"/><path d="M334.598 282.866c-1.017 2.113.084 4.847-.41 6.657 3.343-2.4 7.315-.905 9.538 2.836 2.44 4.102 6.446 7.233 6.94 7.233.493 0 10.829 6.788 12.408 6.886 1.58.1 11.846-6.121 4.541-7.207-7.305-1.086-8.588-6.813-13.03-8.985-4.442-2.173.296-6.418-2.961-9.38-3.258-2.962-16.125.09-17.026 1.96z" fill="url(#i)" fill-rule="nonzero"/><path d="M70.76 165.252c-3.053-3.431-4.94-8.74-4.811-10.956l35.073 28.52c2.015 1.386 5.805 4.554 4.844 6.132-.96 1.578-5.13.792-6.589.606l-24.282-19.476c-.6-.185-1.182-1.395-4.234-4.826z" fill="#039CBE" fill-rule="nonzero"/><path d="M343.618 296.083l.276-.155m5.1 7.975l7.732-10.663-6.43-.905-6.402 3.593m0 0l19.108 2.195v4.802" stroke="#260669" stroke-width="1.905"/><path d="M365.78 298.791l-1.65-2.72c-.139-.228-.411-.3-.612-.153-1.489 1.085-3.699 3.078-2.873 4.066.804.961 3.385.187 4.947-.471.26-.109.347-.46.188-.722zM341.24 298.338l-.726-3.098c-.06-.26.084-.502.33-.538 1.823-.267 4.796-.392 4.897.892.099 1.25-2.286 2.505-3.862 3.128-.261.104-.57-.085-.639-.384z" fill="#FFE0E8" fill-rule="nonzero"/><path d="M341.95 297.613l-.494-2.11c-.06-.26.084-.502.33-.536 1.394-.192 3.548-.258 3.623.694.073.92-1.624 1.844-2.82 2.334-.26.106-.569-.083-.639-.382z" fill="#FF4774" fill-rule="nonzero"/><path d="M163.925 300.566c-7.893 1.974-21.745 1.56-27.685 1.107l8.356-8.357 14.95-3.373 16.912 5.538c-.889.873-4.64 3.111-12.533 5.085z" fill="#C5C5E6" fill-rule="nonzero"/><path d="M332.838 296.938c2.164-3.734 13.129-4.867 17.868-4.836-4.202 2.244-9.526 3.082-14.835 7.965-1.874 1.723-4.93.142-3.033-3.13z" stroke="#260669" stroke-width="1.905"/><path d="M364.765 298.771l-1.124-1.853c-.138-.228-.411-.3-.61-.151-1.13.838-2.715 2.299-2.102 3.032.592.708 2.45.18 3.647-.309.26-.106.348-.457.19-.719z" fill="#FF4774" fill-rule="nonzero"/><path d="M191.25 302.543c-3.908 7.208 6.004 21.224 11.449 27.332 1.062 1.227 38.926 10.535 47.17 10.23 8.243-.306 7.632 1.221 36.331 7.176 28.7 5.955 77.244-10.535 94.799-17.406 17.555-6.871 29.115-6.003 33.695-10.278 4.58-4.276-3.928-15.527-8.66-20.718-4.732-5.192-8.91-4.982-13.124-3.254-3.843 1.574-55.265 3.786-64.73 5.16-9.464 1.374-32.515.995-37.095-.99-10.41-4.512-18.318-4.734-22.592-5.802-4.275-1.069-6.081-1.886-8.735-4.733-3.893-4.177-9.737-6.519-9.89-7.435-.152-.916-7.785-13.484-10.227-15.164-2.443-1.679-25.34 8.246-31.905 11.758-6.564 3.512-11.601 15.116-16.487 24.124z" fill="#DB8D85" fill-rule="nonzero"/><path d="M256.839 319.169c-2.95 5.633 3.464 15.648 7.04 19.951H256l-11.398-11.4-20.618-1.678 6.705-45.1c0 .726.537 4.224 2.682 12.406 2.672 10.19 16.492 11.725 22.562 12.4l.067.007c6.035.671 4.527 6.372.839 13.414z" fill="url(#j)" fill-rule="nonzero" opacity=".54"/><path d="M378.674 318.848c-.91-10.99-10.011-16.666-14.661-20.912l27.398-1.838 2.73-1.213s2.363-.494 4.396-.365c4.283.272 10.919 4.157 10.919 4.157l4.094 9.707h-2.123l-5.307 14.408c-11.044 2.09-17.256 3.999-28.356 8.493l.012-.055c.365-1.719 1.383-6.52.898-12.382z" fill="#FFEAEA" fill-rule="nonzero"/><g transform="translate(189.982 266.227)"><mask id="l" fill="#fff"><use xlink:href="#k"/></mask><g mask="url(#l)" fill-rule="nonzero"><path d="M209.258 19.396c3.448-1.308 9.264-.545 11.741 0v-4.014l-66.484 5.43-63.264-5.43-6.392-13.379c-3.963.743-10.347 8.87-7.017 11.46 7.414 5.769 6.423 5.933 13.409 5.933 6.985 0 18.875 7.433 26.603 7.433 7.729 0 36.314-2.248 51.177-.316 14.862 1.933 35.917-5.482 40.227-7.117z" fill="url(#m)" transform="translate(-5.714 11.43)"/><path d="M16.362 4.584c3.96.69 14.353-4.215 25.51-4.215 16.673 0-6.854 27.207 10.389 42.37 8.069 7.096 12.139-2.247 12.913 6.794.775 9.042 7.49 11.883 13.947 10.334 6.457-1.55 32.8 12.399 47.78 6.2 14.98-6.2 28.15-10.592 50.879-11.367 10.248-.35 18.735-2.357 24.915-4.55l9.95-4.75c-1.765 1.24-5.166 3.05-9.95 4.75l-69.08 32.966H52.262L10.938 64C6.978 52.978-.736 30.262.09 27.576c.827-2.687 11.192-16.447 16.272-22.992z" fill="url(#n)" transform="translate(-5.714 11.43)"/><path d="M25.126 2.926c-.518.414-9.738 22.072-6.113 32.33 3.627 10.259 21.03 10.466 26.004 20 2.154 4.128 6.49 6.54 10.842 7.873l9.774 1.452c-2.391.032-6.088-.323-9.774-1.452l-32.08-4.765-10.153-9.015-9.013-26.32 15.54-19.274 4.973-.829z" fill="url(#o)" transform="translate(-5.714 11.43)"/></g></g><path d="M188.046 322.691c-3.144-6.29-22.191-21.354-30.113-29.443-6.66-6.71 31.026-58.105 37.628-65.533 6.601-7.428 18.484-24.596 26.735-34.004 8.252-9.41 32.677-2.642 29.046 0-3.63 2.64-1.32 12.38 1.485 22.284 2.806 9.904 13.698 15.186 19.805 21.294 4.884 4.886 7.426 4.127 8.086 3.136 1.98 8.75-11.882 21.79-14.193 26.412-2.31 4.622-5.446 6.108-10.397 10.564-4.951 4.457 1.98 10.73-6.106 4.622-8.087-6.107-21.101-7.125-25.798-7.125-11.048 0-24.372 10.922-26.353 25.779-.798 5.989-1.206 27.675 8.433 29.86 16.458 3.729 1.553 3.384-6.452 1.999-4.863-.842-8.591-3.415-11.806-9.845z" fill="#41A8FA" fill-rule="nonzero"/><g transform="translate(157.128 188.597)"><mask id="q" fill="#fff"><use xlink:href="#p"/></mask><g mask="url(#q)" fill-rule="nonzero"><path d="M33.963 95.633c6.087-5.831 20.774-9.512-6.822-5.831-14.02 1.87-20.591 6.575-10.916 0 9.675-6.576 21.213-9.017 19.672-10.7-1.542-1.681-17.22 5.464-19.87 7.019-2.65 1.555-9.503 6.608.99-3.216 10.492-9.823 16.946-11.184 15.65-13.287-1.872-3.038-25.119 20.037-26.426 18.87-1.307-1.166-.07-1.66 4.487-7.703 4.558-6.042 19.007-21.52 7.878-14.453-8.35 5.303-26.935 32.643-14.251 11.199 5.807-9.818 18.88-24.945 17.996-27.383-.679-1.875-6.859-9.783-9.164-11.94-.427.164-.693.152-.774-.066-.261-.71.082-.582.774.066 5.587-2.138 38.63-34.174 41.354-23.833 2.932 11.13 20.572 31.023 26.111 36.798 5.267 5.49 10.287 19.848 5.588 23.77-4.7 3.923-33.513 23.2-25.803 28.44 6.169 4.192-15.08-3.42-26.474-7.75z" fill="url(#r)" opacity=".3" transform="translate(39.044 -5.239)"/><path d="M43.28 85.62c-32.324 5.81-20.998 3.77-10.535-1.463 11.12-5.562 13.828-9.76 12.286-11.442-1.542-1.683-18.222 7.088-20.87 8.643-2.65 1.555-4.746 2.609 5.747-7.215 10.493-9.823 14.667-9.074 13.372-11.177-1.872-3.04-22.008 12.343-23.315 11.177-1.307-1.166-.363-.975 4.195-7.018 4.557-6.042 19.496-23.736 8.585-16.338C18.209 60.642 3.086 84.41 15.77 62.966c5.807-9.817 22.63-22.358 21.746-24.796-.679-1.875-6.859-9.783-9.164-11.94-.427.164-.694.153-.774-.065-.261-.711.082-.582.774.066 5.587-2.14 38.63-34.174 41.353-23.834C72.64 13.528 90.28 33.42 95.818 39.195c5.266 5.492 10.286 19.849 5.588 23.77-31.923 26.65-33.386 38.928-25.345 43.975 67.54-7.82 15.687 9.847 0 0a751.349 751.349 0 00-13.636 1.716c-8.577 1.153-7.511-25.127-19.145-23.035z" fill="url(#s)" opacity=".1" transform="translate(39.044 -5.239)"/></g></g><path d="M169.27 303.709c8.035 7.155 16.74 14.908 18.776 18.981 3.215 6.43 6.943 9.003 11.806 9.844 7.714 1.336 21.837 1.704 8.122-1.61-2.334 2.838-4.297.623-6.679-2.063-1.95-2.2-4.18-4.716-7.122-5.032-3.753-.402-8.302-7.908-9.62-17.53-.969-7.072-8.078-8.172-13.033-8.94-1.787-.275-3.293-.509-4.131-.963-2.53-1.37 2.02-6.019 4.612-8.172h-14.508c-.552 2.357-.47 4.107.44 5.023 2.792 2.85 6.965 6.568 11.338 10.462z" fill="url(#t)"/><path d="M249.643 196.734c-.02 2.218.082 7.132.645 9.054.702 2.403-1.67 7.15-4.541 7.442-2.87.294-16.35 2.512-19.378 9.086-3.028 6.576-9.6 12.458-16.002 19.898-1.4 1.63-4.487 7.904-8.082 12.617-8.357 10.957-4.419 13.08-19.997 29.174-16.09 11.24-26.96 4.697-31.406 9.046-2.38 2.328-5.16 2.066-6.18 3.206l-.104.131c.033-.045.068-.089.105-.13l47.76-59.754c9.948-8.997 29.928-27.078 30.273-27.424.346-.346 11.562-7.296 17.126-10.728l9.78-1.618z" fill="url(#u)" fill-rule="nonzero"/><path d="M60.926 188.69c2.664-6.41 8.031-21.277 11.312-27.64 10.95-3.97 24.755 14.968 30.29 24.933l-8.09 16.65c-2.3 3.008-6.98 9.72-7.312 12.5-.415 3.476-.363 4.41-1.245 6.328-.705 1.536.121 3.44.622 4.202 1.09 1.47 3.548 5.903 4.668 11.878 1.4 7.469 9.23 20.851 15.453 25 6.223 4.15 10.63 22.045 13.224 29.722 2.592 7.677 2.178 9.336 1.866 17.687-.31 8.351 6.95 16.39 4.668 19.088-1.826 2.158-6.534-1.833-8.66-4.097-.329.743-1.027 3.06-1.193 6.38-.208 4.149-.674 4.823-3.527 6.068-2.852 1.245-4.64-.856-7-3.216-2.36-2.36-.726-.985-3.89-1.244-2.53-.208-4.719-3.303-5.496-4.824-4.771-1.577-6.265-6.018-6.416-8.042-3.212 0-4.359-1.04-5.354-6.046-3.596-18.106 2.208-13.16 2.936-28.676.864-18.397-7.599-15.979-18.393-26.171s-16.666-23.32-17.53-26.257c-.863-2.937-2.01-13.756-1.147-15.915.864-2.16 2.313-7.376 2.702-8.615 2.36-7.524 4.193-11.705 7.512-19.694z" fill="#DB8D85" fill-rule="nonzero"/><g transform="translate(50.471 160.498)"><mask id="w" fill="#fff"><use xlink:href="#v"/></mask><g mask="url(#w)" fill-rule="nonzero"><path d="M18.683 69.35l-6.694-5.163L.149 84.923l7.716 25.03 11.899 8.944 13.341 7.934c5.36-1.491 14.64-4.443 8.87-4.328-7.212.144-9.303-.866-5.553-13.272 3.75-12.406-1.803-4.616-3.75 0s-4.398 4.4-3.678.721c.722-3.679.433-2.524-1.226-6.42-1.658-3.894-.922-4.616-2.235-4.616-1.875 0-.822 2.362-3.557 2.778-3.318.505-1.13-3.715-4.231-3.787-3.101-.072-4.471.865-6.85-2.741-2.38-3.607 1.73-10.387 4.182-13.272 2.451-2.885 3.034-3.954 1.298-7.934-1.298-2.977 1.431-3.07 2.308-4.61z" fill="url(#x)" transform="translate(24.283 52.864)"/><path d="M28.621 58.337c2.934 1.056 8.012 6.34 10.285 8.346.978-4.573 2.347-13.702 0-13.644-2.933.073.456 4.615-8.874 3.594-8.097-.885-5.078.383-1.41 1.704z" fill="#BD67BA" opacity=".5"/><path d="M48.535 98.974c-.47-2.587-2.613-9.377-3.625-12.448 5.618 6.763 16.071 19.545 12.935 16.565-3.92-3.724-8.722-.882-9.31-4.117z" fill="#FFF" opacity=".6"/><path d="M68.535 158.148c-2.059-.072-1.636 5.437-1.167 8.2-.3 3.802 15.739 10.416 7.87 3.293-7.87-7.123-4.13-11.403-6.703-11.493z" fill="#C67B9A"/><path d="M15.148 102.507c-.496 1.918-2.587 3.469-3.018 3.777.513 4.23.607 10.238 3.018 1.694 2.895-10.258.592-7.762 0-5.471z" fill="url(#y)" transform="translate(24.283 52.864)"/><path d="M24.63 105.289c-.867 1.646-.555 12.172-1.342 13.205-1.59 3.954-1.26 6.274-1.379-2.603-.142-10.658 3.266-11.639 2.721-10.602z" fill="url(#z)" transform="translate(24.283 52.864)"/><path d="M34.173 108.306c-1.24 2.438-1.992 9.982-1.24 14.188-1.592 3.954-3.399 6.094-3.184-2.78.217-9.019 4.9-12.342 4.424-11.408z" fill="url(#A)" transform="translate(24.283 52.864)"/></g></g><g transform="translate(29.521 154.783)"><mask id="D" fill="#fff"><use xlink:href="#B"/></mask><path d="M31.406 33.907c2.696-6.396 8.03-21.277 11.312-27.64C53.667 2.296 67.472 21.234 73.007 31.2l-8.09 16.65c-2.3 3.008-6.98 9.72-7.312 12.5-.415 3.475-.363 4.41-1.245 6.328-.705 1.536.12 3.441.622 4.202 1.09 1.47 3.548 5.902 4.667 11.878 1.4 7.469 9.231 20.851 15.454 25 6.223 4.15 10.63 22.045 13.224 29.722 2.592 7.676 2.178 9.336 1.867 17.687-.312 8.351 6.949 16.391 4.666 19.088-1.825 2.158-6.533-1.833-8.66-4.098-.328.744-1.026 3.06-1.192 6.38-.208 4.15-.674 4.824-3.526 6.07-2.853 1.244-4.642-.857-7.001-3.217-2.36-2.36-.726-.985-3.89-1.245-2.53-.207-4.719-3.302-5.496-4.823-4.771-1.577-6.265-6.018-6.416-8.042-3.212 0-4.359-1.04-5.354-6.046-3.597-18.107 2.208-13.16 2.936-28.676.864-18.398-7.599-15.98-18.393-26.171-10.794-10.192-16.666-23.32-17.53-26.257-.863-2.937-1.424-11.211-1.424-13.537 0-2.405 1.869-7.447 2.979-10.993 2.458-7.856 4.222-11.89 7.513-19.693z" fill="url(#C)" fill-rule="nonzero" mask="url(#D)"/></g><path d="M301.24 145.803c-6.469-.747-17.727-2.903-22.547-3.889.519-13.685-8.013-39.315 2.282-39.315 20.264 0 44.717 15.1 54.202 21.32 11.199 7.345 13.093 13.097 17.66 17.995 5.546 5.947-3.958 15.755-8.83 19.773-8.863 7.31-15.486 15.475-50.573 21.597-6.689 1.167-32.485 2.739-42.85 1.547-4.043-4.873-3.185-16.514 9.857-20.175 15.683-4.402 19.613-7.424 30.27-12.632 8.385-4.099 14.09-5.81 10.528-6.221z" fill="#DB8D85" fill-rule="nonzero"/><g transform="translate(261.88 124.779)"><mask id="G" fill="#fff"><use xlink:href="#E"/></mask><path d="M39.358 21.024c-6.468-.746-17.725-2.903-22.545-3.888.518-13.686 4.073-40.53 14.149-38.415C43.556-18.635 67.035.34 76.52 6.561c9.485 6.22 6.22 4.043 7.93 8.397 1.71 4.355 2.177 8.088 0 12.287-2.177 4.199-2.022 5.91-10.885 13.22-8.862 7.31-33.615 16.796-42.011 18.04-6.718.995-32.486 2.739-42.852 1.547-4.042-4.873-8.393-17.846 5.041-19.587 15.84-2.055 24.43-8.012 35.086-13.22 8.386-4.099 14.09-5.81 10.53-6.221z" fill="url(#F)" fill-rule="nonzero" mask="url(#G)"/></g><path d="M289.138 103.327c1.266 4.202 4.484 8.987 11.434 9.914 12.132 1.618 36.799 12.539 36.395 18.808-.189 2.92 3.226 5.924 6.394 8.71 3.634 3.195 6.944 6.106 4.12 8.278-2.01 1.547-3.251 4.252-4.586 7.16-2.15 4.687-4.543 9.902-10.78 11.649-3.33.932-7.504 4.421-11.255 8.486 10.686-4.023 15.777-8.373 20.654-12.54.828-.708 1.65-1.41 2.493-2.106 4.872-4.017 14.376-13.825 8.83-19.772-1.318-1.414-2.415-2.9-3.577-4.476-2.86-3.878-6.12-8.295-14.083-13.519-8.239-5.403-27.77-17.505-46.04-20.592z" fill="url(#H)"/><path d="M97.011 110.867c6.68-7.923 15.898-10.968 22.28-16.191 0-8.532 68.723-11.348 103.084-11.689 5.92 1.481 18.6 5.117 21.977 7.81 4.22 3.367 10.367 3.879 15.887 3.879s14.002 6.625 22.214 7.029c8.212.404 15.9-4.175 10.65 0-5.251 4.175-10.183 41.226-12.959 41.226-11.67 0-7.912 5.075-12.09 7.695-15.166 9.512-9.182 16.166-11.216 25.835-4.243 20.173-9.73 24.98-16.707 28.817-3.671 2.02-16.46 4.696-17.756 10.071-1.294 5.375-1.942 6.088-8.287 14.96-6.345 8.872-18.258 31.408-21.43 36.784-3.173 5.375-17.223 21.24-30.172 24.479-12.949 3.238-15.345 6.54-22.66 9.325-7.317 2.785-1.154.756-8.676-18.91-3.451-9.02-3.497-12.239-4.403-30.178-.906-17.938-5.763-11.916-6.669-23.96-.906-12.046-5.096-28.402-6.872-33.288-2.52-6.933-2.667-6.078-6.44-7.424-.776 5.18-4.806-1.166-7.795-3.909-1.366-1.253-21.454-18.39-28.417-23.09-6.962-4.7-5.57-6.964 0-10.794s3.307-9.228 6.963-11.665c3.655-2.438 6.44-8.357 10.27-12.013 3.829-3.657 7.176-12.37 9.224-14.8z" fill="#F0F0F0" fill-rule="nonzero"/><path d="M222.833 83.102c1.027 3.674 2.534 10.71 1.372 13.352a247.88 247.88 0 01-1.123 2.489c-1.679 3.692-7.85 17.523-7.418 17.523.682 0 6.662-9.906 8.541-13.35 2.171-3.977 3.985-9.968 5.28-10.414 2.014-.695 4.274 1.32 3.718 3.752-.23 1.01-.903 3.535-1.801 4.919-.834 1.284-8.535 16.427-8.32 16.618.21.186 9.588-14.023 10.866-15.39 2.168-2.32 5.455-5.902 7.552-6.147 1.992-.232 2.071.449 3.717 1.733 1.798 1.403 3.56 2.778 5.664 2.089 4.03-1.32 6.253-1.598 7.711-.417.565.457-3.272 4.903-5.465 9.7-2.34 5.116-3.38 14.048-2.584 14.362.287.113 1.597-7.398 3.876-11.369 3.318-5.783 8.393-12.26 9.73-12.693 1.274-.413-.607 3.706-2.104 6.986-.922 2.018-3.254 10.516-3.064 10.65.495.349 3.477-8.97 4.976-11.622 1.606-2.84 3.63-5.827 4.35-5.597.854.273-2.404 7.054-4.656 12.276-1.406 3.261-1.808 15.891-1.606 15.974.43.179 3.204-12.512 5.292-16.433 2.635-4.95 4.399-10.01 5.714-10.388 1.199-.345 2.092-.16 2.891.51.8.67 2.054 1.796 5.581 1.88 5.905.138 12.793-4.132 12.793-4.132l-6.433 1.397c-1.682.268-3.542.438-5.43.345-4.394-.216-8.865-2.213-12.918-4.024-3.523-1.573-6.73-3.005-9.296-3.005-5.52 0-11.666-.512-15.887-3.878-3.292-2.627-15.428-6.148-21.519-7.696z" fill="url(#I)" fill-rule="nonzero" opacity=".5"/><path d="M107.126 185.703c.156-.297.346-.642.56-1.03 1.36-2.472 3.69-6.704 4.44-11.65.99-6.513 1.13-11.372 1.282-16.57.023-.796.046-1.6.073-2.418.201-6.168-5.965-27.89-5.63-8.917.14 7.928.926 13.012 1.475 16.561.765 4.946 1.07 6.915-1.475 9.451-2.563 2.556-2.397 1.377-2.078-.887.225-1.598.527-3.735 0-5.482-.13-.427-.268-.873-.412-1.336-1.28-4.112-2.979-9.572-1.881-15.357 1.22-6.436 1.757-11.464-.455-11.062-1.315.239-1.35 2.432-1.389 4.742-.026 1.577-.053 3.208-.488 4.308-1.073 2.715-2.882 12.94 1.072 21.79 3.955 8.849-3.82-.351-5.228-5.297-.745-2.62-.682-6.528-.627-9.924.048-3.013.09-5.623-.445-6.569-.794-1.401.007-5.343.701-8.76.303-1.487.585-2.874.707-3.91.402-3.42-1.34-9.297-3.553-1.464-.526 1.861-1.1 3.666-1.658 5.417-1.788 5.617-3.398 10.672-2.632 15.22.887 5.264-.294 3.798-2.78.71-.333-.413-.688-.855-1.065-1.313-1.114-1.353-1.993-3.13-2.743-4.643-1.404-2.836-2.353-4.753-3.533-1.257-1.208 3.583 1.66 7.136 3.812 9.8 1.07 1.323 1.961 2.428 2.086 3.207.378 2.347-.737 2.816-6.3-3.084s-9.987 1.877-6.703 5.028c.179.171.292.354.348.545a154.13 154.13 0 00-2.053-1.414c-6.962-4.701-5.57-6.964 0-10.794 3.072-2.114 3.761-4.703 4.376-7.01.498-1.874.948-3.562 2.587-4.655 2.04-1.361 3.81-3.807 5.64-6.339 1.45-2.003 2.938-4.06 4.63-5.674 2.34-2.234 4.5-6.357 6.293-9.78 1.142-2.18 2.135-4.074 2.931-5.02 4.164-4.937 9.314-7.981 14.15-10.838 2.92-1.727 5.727-3.385 8.13-5.352 0-2.282 4.912-4.154 12.765-5.68 17.184 2.084 32.59 4.23 27.473 6.316-8.128 3.314-9.034 22.308-7.364 22.472.98.096.506.152-.838.314-5.254.632-23.815 2.864-20.955 15.288 3.996 17.361 6.352 23.26 6.352 23.26s5.603 9.745 9.538 13.544c3.935 3.798 1.464-4.623-1.19-12.586-2.623-7.873-2.85-9.933-3.28-13.824l-.014-.135c-.31-2.814.26-1.373 1.842 2.626.297.748.627 1.584.995 2.5 1.13 2.813 4.64 7.75 8.282 12.873 3.882 5.462 7.916 11.136 9.38 14.678.796 1.928 1.647 4.663 2.58 7.664 2.39 7.689 5.324 17.123 9.283 19.195.586.307 1.333.678 2.204 1.111 7.316 3.638 23.418 11.645 26.813 22.398 3.04 9.627-2.11 3.062-5.065-1.425-5.435-4.064-19.06-13.648-30.078-19.475-9.831-5.2-14.263-13.075-18.174-20.027-1.568-2.787-3.052-5.425-4.767-7.683-2.562-3.372-4.285-7.31-5.778-10.725-2.003-4.578-3.593-8.215-6.242-8.292-3.765-.11-2.51 4.18-1.589 7.333.21.721.404 1.382.517 1.919l.085.406c.585 2.76 1.18 5.573-1.694 5.829-1.052.093-1.175 2.224-1.292 4.265-.219 3.81-.42 7.311-6.617-3.327-2.108-3.617-1.468-5.823-.767-8.24.375-1.29.767-2.64.767-4.297 0-4.76-3.956-2.644-5.43 5.364-1.184 6.434-6.815 14.925-9.238 17.722a10.285 10.285 0 00-.669-.334z" fill="url(#J)" opacity=".6"/><path d="M250.628 195.232c1.147-.918 3.155-7.332 4.016-10.424-1.594-1.084-5.03-3.271-6.024-3.348-.994-.076-19.027-3.283-27.92-4.877l-20.556-6.217c-.542 3.188-1.473 10.54-.86 14.442.764 4.877 7.361-1.244 19.313 0 11.952 1.243 8.415 5.164 16.063 5.642 7.65.478 14.534 5.93 15.968 4.782z" fill="#DAD9EB" fill-rule="nonzero"/><path d="M211.529 234.134c-2.079-1.045-3.992-1.295-4.94.348-1.64 2.846-5.536.198-9.645-2.596-2.277-1.548-4.62-3.14-6.68-3.868-2.833-1-6.236 0-9.71 1.02-3.62 1.063-7.319 2.15-10.53 1.021-3.674-1.291-7.738-6.388-12.346-12.168-3.285-4.118-6.845-8.583-10.737-12.264-5.72-5.41-5.1-4.202-2.664.534 1.547 3.007 3.827 7.438 5.679 12.5.261.715.476 1.41.688 2.097 1.717 5.572 3.28 10.646 28.564 21.55 12.438 5.363 18.288 9.128 20.777 11.637 3.707-6.665 8.042-14.317 11.544-19.811zm-14.636 25.395c-1.866 3.376-3.373 6.103-4.235 7.564-2.975 5.04-15.515 19.305-27.742 23.733.671-3.7.387-8.063-3.735-8.373-.947-.07-1.788-.092-2.563-.112-4.787-.123-6.997-.18-15.635-11.455-5.048-6.59-7.846-9.855-7.453-10.3.388-.438 3.89 1.874 11.41 6.453 6.704 4.08 14.751 8.78 23.085 3.847 5.295-3.135 6.058-1.461 6.565-.348.291.638.498 1.092 1.428.348 2.55-2.042-.16-5.187-7.133-8.079-6.973-2.892-4.87-3.513 8.323.423 7.966 2.378 14.144-1.473 17.685-3.701z" fill="url(#K)" opacity=".2"/><path d="M160.483 149.443c-1.065-5.81-7.704-18.8-10.89-24.569l44.043-5.81c-.322 6.455-1.645 20.236-4.356 23.722-3.387 4.357-.847 10.65-1.694 14.281-.847 3.631-8.954 2.784-7.26 10.166 1.695 7.383.968 11.377-2.783 11.377-3.75 0-5.444-8.593-8.711-14.765-3.267-6.173-7.018-7.14-8.35-14.402z" fill="url(#L)" fill-rule="nonzero" opacity=".4"/><path d="M202.55 103.15c1.204-6.282-1.435-17.032-2.905-21.622 0-5.916 11.616 1.398 12.476 5.917.86 4.518-8.281 12.263-7.851 25.602.43 13.34-1.72 9.36-3.119 6.347-1.398-3.012-.107-8.39 1.398-16.244z" fill="url(#M)" fill-rule="nonzero" opacity=".6"/><path d="M247.317 118.538c.173-1.63-1.716 2.502-3.144 10.5-.75 4.205-.92 8.133-1.04 10.882-.172 3.99-.238 5.5-1.815 1.781-1.306-3.077-2.56-10.303-3.501-15.716-.691-3.977-1.212-6.976-1.457-6.628-1.205 1.702 1.403 25.15 2.818 27.802 3.89 7.291-2.918 14.746-6.808 17.562-5.432 4.125-13.223 11.723-8.903 15.587 4.321 3.863 19.775.007 27.958-3.212-.592-3.257-.864-10.292 2.782-12.375 4.557-2.604 4.42-10.187 3.1-13.024-3.38-7.275-1.333-23.679-.446-30.789.436-3.499.592-4.747-.317-1.551-9.991 35.1-12.18 27.103-9.227-.82z" fill="url(#N)" opacity=".6"/><path d="M232.024 85.703c5.149 1.605 10.345 3.512 12.328 5.095 2.747 2.19 6.308 3.172 9.982 3.59-1.62 1.369-3.7 2.231-6.966-.382-2.114-1.692-2.489-2.354-2.877-2.362-.381-.008-.776.62-2.858 1.522-4.197 1.819-8.393-.42-8.813-3.918a16.972 16.972 0 00-.796-3.545z" fill="#B0B0E2" opacity=".1"/><path d="M143.051 105.793c-1.858.883-3.763-2.834-4.134-2.834-1.796-.62-5.603-2.091-6.457-3.02-1.069-1.162.139-1.812 1.068-4.787.929-2.973 3.81-5.065 7.619-8.782 3.809-3.717 4.134-2.555 5.76-2.973 1.301-.335 3.763.139 4.832.418.263 2.493.761 7.89.65 9.525-.14 2.045-1.672 1.905-3.345 2.649-1.672.744.604 5.948-.464 6.97-1.069 1.022-2.184-1.162-3.717-1.022-1.533.139.047 2.973-1.812 3.856z" fill="#4A259A" fill-rule="nonzero"/><path d="M149.717 103.023c2.075-3.722 2.51-13.261 2.123-17.138 2.505-5.996 48.51 14.977 47.257 16.05-1.252 1.074-1.61 6.622-1.968 11.811-.357 5.19-2.773 10.738-5.188 13.958-2.415 3.222-10.556 18.97-16.997 21.385-6.44 2.416-10.108-4.295-18.964-12.258-8.857-7.963-8.141-20.31-8.767-24.516-.626-4.206-.09-4.639 2.504-9.292z" fill="#DB8D85" fill-rule="nonzero"/><g transform="translate(146.653 80.487)"><mask id="P" fill="#fff"><use xlink:href="#O"/></mask><g mask="url(#P)" fill-rule="nonzero"><path d="M16.245 45.575c-2.766-2.246-3.783 3.024-3.946 5.94C2.571 47.219.22 29.438.26 21.085L10.286.261l1.16 6.91c8.446 9.03 25.525 27.964 26.274 31.447.935 4.353-1.302 7.2-5.776 6.386-4.474-.813-4.758 2.36-2.074 3.865 2.685 1.505 3.701 3.458-1.87 3.743-5.573.285-8.298-4.231-11.755-7.038z" fill="url(#Q)" transform="translate(-5.238 2.858)"/><path d="M32.994 59.786c-3.65.493-7.248 3.658-8.59 5.18l2.835 7.152 10.193-.575 15.042-17.101 2.672-20.884c-3.33 8.839-17.59 25.611-22.152 26.228z" fill="url(#R)" transform="translate(-5.238 2.858)"/></g></g><path d="M152.262 96.519c-1.908-5.502-.548-9.601-1.908-14.484 18.339-2.476 51.283-5.084 52.538-3.912 1.569 1.464-2.047 16.878-3.197 22.004-1.15 5.126-3.03 7.876-8.58 14.936-5.847 7.436-16.284 3.387-18.486 2.167-7.629-4.227-18.763-16.09-20.367-20.711z" fill="url(#S)" fill-rule="nonzero"/><path d="M131.2 106.858c4.02 1.838 5.502.096 5.741-1.005.626-3.695.756 1.005 2.203-1.04 1.447-2.046.723-5.395-1.447-7.697-2.17-2.302 3.355-1.456 3.815-4.21.46-2.754-.132-1.053 2.565-2.04 2.696-.986 3.617-.723 2.828-3.223-.632-2 2.411-1.841 4.011-1.512 18.612-.11 55.994.197 56.626 2.302.789 2.631 1.38.855 3.682 0s3.303.272 3.434 1.85c.132 1.58 3.051 2.623 2.222 3.807-2.275 3.249 3.157-.132 1.71-3.223-1.447-3.092 7.958-.658 9.405-1.119 1.446-.46 5.721-1.644 3.42-3.617-2.302-1.974 2.63-4.145 2.301-5.329-.328-1.184-1.315-2.5-.986-5.591.329-3.092 1.447-2.368-.329-4.145-1.775-1.776-1.381-3.091 2.368-5.657 3.748-2.565 1.578-2.762.591-6.71-.986-3.946-3.945-1.315-4.34-2.96-.394-1.644.132-2.762-1.118-4.604-1.25-1.843-1.907-.527-1.447-3.618.46-3.092-3.354-.198 0-5.526 3.354-5.328-1.578-4.802-.46-6.841 1.118-2.04-1.842-.855-2.894-4.21s-2.433-.46-5.327-1.448c-2.894-.986-1.579-2.696-.658-1.973.921.724 3.88-1.184 3.552-1.908-.33-.723-.526-1.841-3.552-2.236-3.025-.395-3.025-1.579-1.71-3.487 1.315-1.907-1.447-1.644-5.13-1.447-3.683.198-6.116-1.25-6.05-3.88.066-2.632-3.157-4.803-5.327-5.855-2.17-1.053-4.275 1.447-6.05-.395-1.776-1.842 2.17-3.487-1.382-3.487-3.551 0-4.077.79-5.524-1.776-1.447-2.565-6.38-3.683-9.01-2.236-2.63 1.447-1.644 2.763-3.749 1.315-2.104-1.447-3.091-.657-6.576-1.315-3.486-.658.394 5.065-3.289 4.012-3.683-1.052-.197 7.105-5.195 3.487-4.999-3.618-5.788 1.381-6.906-.395-1.118-1.776-2.499 3.618-5.919 2.237-3.42-1.382-.789 2.763-2.302.855-1.512-1.908-3.09 1.513-4.8 1.908-1.71.394-.33 1.841.591 4.275s0 4.342-2.893 2.697c-2.894-1.644-2.04.527-2.5 2.763-.46 2.237-2.959 2.237-4.472.724-1.512-1.513-4.538-1.184-4.472 1.513.066 2.697.329 6.841-.92 4.604-1.25-2.236-5.065.198-4.378 2.237.686 2.04-1.015 3.092-3.843 4.736-2.828 1.645-.79 3.29-2.697 5.197-1.907 1.908 1.776 5.197-.592 6.71-2.367 1.513-2.039-2.697-4.735-2.763-2.696-.066 2.105 3.42-.46 5.526-2.565 2.105.723 2.63 0 2.894-.724.263-1.842 2.763-1.973 4.342-.132 1.579 1.315 1.118 1.315 4.276 0 3.157-1.841 3.42-2.236 3.749-.395.329.967 4.741 1.625 4.676l.035-.004c.652-.066 1.45-.147-.035 2.373-1.513 2.566-1.625 1.046-2.743 1.31-1.118.263-1.841 2.17-2.039 2.828-.197.658.921.855 3.157 1.381 2.236.526 1.71.314.92 2.55-.789 2.237.396 2.187 1.316 1.528.92-.657 2.5.921 2.5 2.105 0 1.185-.264 1.711 0 2.5.263.79 1.38 1.513 3.353 1.645 1.973.131.921 2.302-.592 2.565-1.512.263.404 3.52 2.27 3.807 1.865.287 2.009 1.292 2.87 1.867.861.574 0 2.01-2.87 3.014-2.871 1.005.143 2.728 2.87 5.312 2.727 2.585 0 2.297 2.584 4.738 2.067 1.952 4.88-.814 6.028-2.44-.335-1.197 0-3.13 4.02-1.293z" fill="#4A259A" fill-rule="nonzero"/><path d="M165.09 13.55c1.994-1.064-1.44-3.38-3.407-4.405-1.44.748-4.62 2.56-5.817 3.823-1.496 1.58-3.24 3.158-4.072 4.322-.83 1.164-2.575 3.657-5.816 7.064-3.24 3.408-6.315 7.148-6.481 8.062-.166.915-.748 3.159-.998 3.824-.249.664-5.733 9.059-7.727 10.555-1.596 1.197 1.55 5.263 3.324 7.148 3.573.25 10.951.598 11.882 0 1.163-.749-1.08-3.49-2.077-3.907-.997-.415-3.102-.382-2.77-2.543.333-2.16 4.598-.449 7.257-1.612 2.659-1.164-.582-1.912 0-3.325.581-1.413 4.653-3.407 5.9-4.072 1.246-.665 1.08-1.496 0-2.91-1.08-1.412-.831-2.077 0-4.072.83-1.995 7.395 1.746 10.802 0 3.407-1.745-2.078-2.078-3.407-4.072-1.33-1.995 1.496-3.657 3.407-5.984 1.91-2.328 0-2.66-1.33-3.74-1.33-1.081-1.163-2.826 1.33-4.156z" fill="url(#T)" fill-rule="nonzero"/><g transform="translate(102.371)"><mask id="W" fill="#fff"><use xlink:href="#U"/></mask><path d="M49.148 26.115c-2.056-.955-.653-5.546 3.121-4.867 4.59.827 2.663-2.847 5.234-3.398 2.57-.55.826-1.469-1.377-2.846-2.204-1.378 1.377-3.673 3.764-5.97 2.387-2.295-2.112-1.285-2.387-1.928-.22-.514-5.05-1.438-7.437-1.836l-8.63 1.836L19.22 17.85 8.202 27.86C3.06 40.073-7.535 64.794-8.783 65.97c-1.249 1.175 6.457 13.1 10.466 18.916 1.01.704 3.58 2.222 5.784 2.663 2.754.551 1.194-2.663 2.295-2.663 1.102 0 1.194-2.663 2.204 0 1.01 2.663 3.58-.459 5.967-3.948 2.387-3.49 2.57-.919 4.866.734 2.295 1.653 5.6-.092 5.325-2.847-.276-2.755 1.836-3.122 3.489-3.122 1.652 0 2.111 1.745 3.58 4.316 1.47 2.571 4.131 2.48 6.886 2.847 2.754.367 0-1.47.734-3.306.735-1.837-2.111-3.03-2.938-3.857-.826-.826-7.436-1.642-4.682-2.653 2.754-1.01 5.165-2.14 4.063-3.61-1.102-1.47.62-2.54 1.446-4.744.826-2.204-.07-2.744-1.446-4.672-1.377-1.928 2.18-2.503 2.823-5.258.643-2.755-3.893-1.165-4.168-2.176-.275-1.01.954-1.589-.79-3.242s-5.05 2.571-5.508 1.653c-.46-.918 2.16-3.007.6-3.65-1.562-.643 0-7.331 7.662-4.064 7.356 3.137 2.204-1.928 0-3.948-2.203-2.02.092-3.398 2.204-3.582 2.112-.183 5.876-2.295 4.866-2.48-1.01-.183-1.194-1.652 2.203-3.58 3.397-1.929 2.571-2.388 0-3.582z" fill="url(#V)" fill-rule="nonzero" mask="url(#W)"/></g><path d="M228.933 126.122a2.856 2.856 0 00-2.92-2.043l-26.078 1.654a2.857 2.857 0 00-2.671 3.031l3.098 49.201c.06.955.595 1.817 1.424 2.296l1.045.603 25.077-2.947a2.858 2.858 0 002.522-2.918l-1.344-48.022a2.859 2.859 0 00-.116-.728l-.037-.127z" fill="#FE96AF" fill-rule="nonzero"/><path d="M229.29 127.909a2.856 2.856 0 00-3.023-2.654l-24.967 1.513a2.857 2.857 0 00-2.679 3.03l3.01 48.602a2.858 2.858 0 003.003 2.677l25.352-1.339a2.857 2.857 0 002.699-3.052l-3.395-48.777z" fill="#FF4774" fill-rule="nonzero"/><path d="M232.162 173.27a2.857 2.857 0 00-3.01-2.522l-24.738 1.5c-1.71.103-2.948 1.695-2.258 3.263.675 1.533 1.748 3.075 3.338 3.112.936.022 10.115 1.56 13.54 1.657 4.858.137 8.813-.196 11.232-.49 1.48-.181 2.477-1.532 2.304-3.012l-.408-3.508z" fill="#FF4774" fill-rule="nonzero"/><path d="M200.745 126.856c-.038 1.381.588 2.899 3.12 2.888 4.352-.018 24.3 2.821 19.698 7.45-3.682 3.704-14.408 1.45-19.31-.14.31 2.29 2.259 7.632 7.565 10.694 5.307 3.06 7.028 9.784 7.224 12.763l12.035-2.685-1.81-29.89a2.857 2.857 0 00-3.025-2.68l-24.946 1.512a2.87 2.87 0 00-.551.088z" fill="#F73B69"/><path d="M252.017 185.146c12.166 1.06 10.493-19.84 8.366-20.47 0 0-7.777 3.28-14.99-.665-2.03-3.108-2.554-8.31-3.077-11.496-.653-3.982-3.394-6.532-5.721-9.524-2.327-2.992-2.833-8.244-3.121-9.927-.288-1.683-.965-2.772-3.63-.328-2.664 2.443-.382 12.37.71 16.95-3.468-3.162-10.953-8.94-11.914-9.688-1.386-1.078-8.463-6.447-10.627-6.88-2.164-.432-3.973 1.356-3.848 3.608.1 1.8 10.09 6.972 13.897 12.41 1.325 1.894 2.63 3.544 2.836 5.195.196 1.57-.792 1.793-1.471 1.982-3.216-.302-9.874-.971-10.782-1.233-1.134-.327-3.02-2.28-5.077-3.117-2.058-.837-1.81-.868-5.07-3.196-3.26-2.329-5.952-.585-6.48.81-.424 1.115 1.765 3.504 2.913 4.56-.298.115-1.006.578-1.452 1.51-.447.93 1.269 3.28 2.182 4.338-.907-.173-2.962-.192-3.924 1.116-1.202 1.635 4.905 6.734 7.924 10.265 3.02 3.53 8.963 4.82 13.878 6.004 4.914 1.183 11.655 6.36 16.397 6.158 4.741-.202 9.915.558 22.081 1.618z" fill="#DB8D85" fill-rule="nonzero"/><path d="M208.864 52.425c-1.319-.577.512-1.486 0-2.349-3.247-5.463-9.967-1.874-10.052-1.847l2.712 14.03c.095 8.357.444 25.07 1.089 25.067.645-.004 2.52.299 3.378.45.837-.477-.629-.862-1.164-1.233-.536-.37.288-1.36.535-1.524.247-.165.742 1.236 2.019 1.153 1.277-.082.947-1.153 1.194-1.648.198-.395-1.208-.55-1.936-.577V82.34c0-.783 1.03-1.524 1.404-2.472.374-.948.82-2.72.532-3.173-.288-.453-1.73-.989-1.936-1.36-.206-.37-1.524-1.977-.535-3.296.989-1.319-.124-1.69-.487-2.184-.362-.495 0-.907-.502-1.648-.503-.742 1.442-2.802 2.554-3.791 1.112-.99.618-.742-.288-1.236-.907-.495.041-.536 0-1.154-.041-.618 1.03-1.978 3.007-3.05 1.977-1.07.618-1.483-.577-2.39-.989-.205-.947-.329-.947-1.236 0-.906 1.277-1.195 1.524-1.813.247-.617-.206-.535-1.524-1.112z" fill="#360E8A" fill-rule="nonzero"/><path d="M158.131 58.679c-1.208-3.224-.503-4.879 0-9.202 0-5.684 18.259 2.893 26.291 2.893 8.033 0 15.424-9.754 18.06-.77 2.635 8.983 1.2 14.373 1.062 15.552-.139 1.18-1.283 2.706-.173 6.14.888 2.747-.223 10.46-.889 13.972-.462 1.889-2.48 2.659-4.28 7.882-1.526 4.424-4.657 1.373-5.253 9.036-.2 2.555-2.9 2.57-4.943 1.889-2.044-.682-6.895.522-11.014 0-3.487-.443-4.937 4.937-8.388-2.81-2.24-5.029-4.31-5.111-12.487-13.73-6.501-6.853-2.644-19.896-1.889-23.926.756-4.03 5.414-2.896 3.903-6.926z" fill="#DB8D85" fill-rule="nonzero"/><path d="M176.273 83.914c-2.334 1.245-3.6 3.934-3.63 4.09 1.254-.135 3.844-.436 4.168-.56.404-.156 1.96-3.05 2.177-3.3.175-.198-.072-3.36-.217-4.916l-2.831-3.951c.871 2.343 2.199 7.641.333 8.637z" fill="#E7A19A" fill-rule="nonzero" opacity=".2"/><path d="M200.066 72.867c-.2.259-1.953 3.073-5.685 3.303-1.464.09-5.737-2.46-8.333 1.085-.523-.392 1.188-3.3 1.614-3.87l7.523-2.614c1.694.612 5.042 1.89 4.881 2.096z" fill="#F6EFFF" fill-rule="nonzero" opacity=".3"/><path d="M172.542 93.718c1.63-.517 7.635-1.425 10.745-.753 2.984-.798 6.638.272 7.564.504 1.85.462 3.314 2.377 2.311 1.975-1.47-.588-4.722-.072-6.471 0-1.4.058-2.628.485-2.932.717-.264-.136-1.058-.372-2.784-.506-1.726-.134-8.696-.14-12.924.284 1.639-.855 2.861-1.702 4.491-2.22z" fill="#360E8A" fill-rule="nonzero"/><path fill="#31C6DB" fill-rule="nonzero" d="M106.78 187.096l.4-1.465.617.386z"/><path d="M176.489 91.61c1.253.387 2.826-.16 3.456-.482l-2.733-1.608-2.934 1.287c.215.107.957.418 2.21.804z" fill="#4A259A" fill-rule="nonzero"/><path d="M174.265 106.75l-.18.092c-1.741.902-3.158 1.635-5.48-3.58-1.39-3.12-2.715-4.336-5.473-6.868-1.109-1.018-2.45-2.249-4.119-3.901l1.517-4.47c.965 3.755 5.083 8.192 7.307 10.588.497.535.9.969 1.15 1.27.462.553.676 1.327.908 2.165.497 1.801 1.076 3.895 4.37 4.703z" fill="#A457B9"/><path d="M187.233 86.522c.25 1.122.598 3.456 0 3.815-.748.45 4.04 1.123 0-3.815z" fill="#EDDFFF" fill-rule="nonzero"/><path d="M190.022 69.334c-2.73 1.09-4.257 3.765-4.571 6.133-.412 3.104-.024 4.321.8 4.15.185-.038-1.41-8.726 8.323-7.267 6.028.904 7.465.91 7.109-.388-.572-2.085-4.318-5.564-11.661-2.628z" fill="#B94496" fill-rule="nonzero"/><path d="M229.49 133.145c-2.06 2.945-.034 11.924 1.02 16.352 2.058 1.926 5.399 4.41 6.514 2.784.626-.914-.263-1.77-1.571-3.03-2.009-1.933-5.004-4.817-5.021-10.32-.01-2.863-.43-4.68-.942-5.786z" fill="url(#X)"/><path d="M208.602 140.746l.184.134c3.17 2.32 7.17 5.247 9.276 8.257.16.23.322.458.48.681 1.146 1.614 2.175 3.064 2.356 4.514.186 1.485-.69 1.764-1.36 1.95l.347.057c3.372.558 4.524.748 5.062-.867.453-1.362-4.459-8.266-10.269-11.564a97.293 97.293 0 00-6.076-3.162z" fill="url(#Y)"/><path d="M192.671 151.577c.655.967 1.62 1.97 2.26 2.56l-.03.011c1.122.941 2.827 2.219 5.157 3.565 4.66 2.692 23.293 10.185 25.324 9.185.762-.374-.744-2.128-4.234-3.475-1.733-.669-3.357-.844-4.923-1.012-2.122-.229-4.133-.445-6.153-1.866-3.508-2.47-6.097-4.062-9.035-4.696-2.198-.476-6.184-2.489-8.366-4.272z" fill="url(#Z)"/><path d="M225.44 127.067l-4.276.384a1.473 1.473 0 10.263 2.936l4.276-.384a1.473 1.473 0 10-.263-2.936z" fill="#FD6489" fill-rule="nonzero"/><path fill="#FFE0E8" fill-rule="nonzero" opacity=".4" d="M459.094 304.662l-5.355 12.142 5.355 2.321 7.052-14.463zM453.614 341.848l-.083-6.305-5.317.28-.085 3.816c1.784.725 3.618 1.469 5.485 2.21zM444.28 338.128l-.002-4.89-5.317.28-.166 2.4c1.783.726 3.618 1.47 5.485 2.21zM435.42 334.647l-.128-3.855-5.317.28-.169 1.883c1.784.726 3.746.952 5.613 1.692zM427.44 332.686l-.191-3.006-5.318.28-.168 1.884c1.784.725 2.255.842 5.677.842zM448.632 303.545l-4.572 10.316 5.356 2.32 6.267-12.636zM438.176 301.526l-4.57 10.316 5.355 2.321 6.267-12.637zM429.14 297.635l-4.57 10.316 5.355 2.321 6.268-12.637z"/><circle fill="#FFF" fill-rule="nonzero" transform="scale(-1 1) rotate(42.512 0 -440.485)" cx="221.495" cy="128.916" r="1"/><path d="M240.316 166.216c.062 4.521-2.513 7.065-3.809 7.772-3.188 1.657-2.894-2.028-.463-3.715 2.43-1.688-.192-6.358-1.57-8.347-3.893-5.616 2.074-8.561 4.087-5.542 2.011 3.02 1.678 4.181 1.755 9.832z" fill="url(#aa)" fill-rule="nonzero" opacity=".7"/><path d="M160.015 78.619c-3.407 2.81-4.99-7.533 1.608-10.318 8.007-3.667 14.495 2.917 13.918 5.314-.577 2.397-3.374 12.981-12.053 8.116-2.367-1.326-1.31-4.897-3.473-3.112z" fill="#B4489E" fill-rule="nonzero"/><path d="M167.048 65.761c-5.644-.678-7.771 2.15-9.286 3.382-.946.77-.813 2.387 0 2.748 3.33 1.48 3.38-1.847 8.6-2.606 5.22-.759 8.38.904 7.795 2.096-.586 1.192 0 1.698.242 2.366.242.669-.109 1.753-1.825 2.349-1.715.596-1.441 1.62-.421 1.656 2.547.092 2.004-2.89 3.962-1.886.936.48 2.887 4.474 2.159 7.061-.73 2.588-3.097 4.373-4.117 4.191-3.18-.568-2.77 6.409 0 4.222 2.769-2.186 4.126-.801 5.547 0 1.42.802 2.125.846 3.393 0 1.268-.845-1.362-8.034-1.89-9.831-.529-1.797 1.268-2.008 1.162-4.017-.106-2.007-1.374-.21-.634-5.6.74-5.39-1.69-2.749-4.438-2.749-2.747 0-7.608-3.065-10.25-3.382z" fill="url(#ab)" fill-rule="nonzero"/><path d="M168.315 57.78c-5.836-4.257-5.167-6.606-4.306-10.001-2.39-.337-4.203-1.173-5.71.731-.716.905-1.4 7.536-.681 9.724 1.193 3.629-2.383 2.805-3.949 5.73-.695 1.299-1.915 5.204-1.672 12.803.4 12.503 4.81 13.79 8.21 16.902 1.376 1.26 2.254-.42-.33-7.566-2.583-7.145 2.417-7.79 0-11.02-4.627-6.187 1.384-7.657 4.559-9.287 2.546-1.306 11.175-2.696 3.88-8.016z" fill="url(#ac)" fill-rule="nonzero"/><path d="M410.45 310.42c-1.01-.644-3.717-1.736-6.467-.941-2.401.694-3.72 7.99-4.232 12.908-.708 1.468-13.635 5.096-13.676 5.681l10.01-2.954 9.502-1.962 4.863-12.731z" fill="#D0A2EC" fill-rule="nonzero" opacity=".2"/><path d="M188.813 99.702c-.55 3.382-2.302 7.778-6.225 7.778-3.922 0-6.113-2.069-8.074-5.299l6.283.636 8.016-3.115z" fill="url(#ad)" fill-rule="nonzero"/><path d="M187.423 63.446c-1.857.501-1.454-3.4-1.02-5.412 1.103-5.121 2.25-5.28 2.812-4.01.349.786 1.093 2.994 1.285 5.532.239 3.172-.755 3.263-3.077 3.89z" fill="url(#ae)" fill-rule="nonzero"/><path d="M185.882 90.07c-.086.724-.786 1.237-1.562 1.145-.776-.093-.356-.401-.27-1.127.087-.724-.194-1.59.582-1.499.776.093 1.336.755 1.25 1.48z" fill="#EDDFFF" fill-rule="nonzero"/><path d="M163.433 81.125c-.61-.37-.868-3.246-.415-3.742.574-.63 2.253-.845 3.266-.477 1.037.376 1.715.907.844 1.285-.465.202-1.34.855-1.847 2.056-.508 1.201-1.085 1.34-1.848.878z" fill="#EDDFFF" fill-rule="nonzero" opacity=".8"/><path d="M200.305 165.488c-1.74-.72-5.91-7.183-5.91-7.183s1.218 1.577 3.33 4.014c2.315 2.315 3.916 3.17 9.353 4.94 5.437 1.773 10.13 5.315 8.11 5.222-2.02-.093-12.708-6.091-14.883-6.993z" fill="url(#af)" fill-rule="nonzero"/><path d="M110.434 298.975c0-6.883-4-6.912-4.542-10.58-.604-4.088.129-3.502 2.924-4.405 3.157-1.02 6.812 3.491 5.658 9.13-.774 3.78-4.04 9.807-4.04 5.855z" fill="url(#ag)" fill-rule="nonzero" opacity=".7"/><g transform="translate(387.107 282.42)"><mask id="aj" fill="#fff"><use xlink:href="#ah"/></mask><path d="M99.886 59.426c.357 1.123 3.438 6.146 2.276 9.64l10.085-11.27 1.276-20.62L91.12 20.26 59.335 5.257l-28.53-7.98L18.423 6.98c13.404-1.979 26.04 10.598 32.934 14.811 6.893 4.213 7.914 5.873 9.956 2.17 2.043-3.702-.702-1.34 14.553-1.148 15.254.191 24.763 12.606 26.296 15.606 1.533 3 2.052 12.334 0 13.11-2.857 1.081-2.719 6.492-2.276 7.897z" fill="url(#ai)" fill-rule="nonzero" mask="url(#aj)"/></g><path d="M463.202 314.733c-1.428 3.297-2.316 6.596-6.13 9.024l-3.144 13.852c-.67 4.24.742 3.722-.214 4.289l8.494 3.147c1.791.762 7.42 2.032 12.866 1.557 8.771-.765 11.904-12.442 8.457-20.218-3.452-7.776-4.814-4.423-8.116-11.651-3.305-7.228-4.81-4.922-4.908-2.054-.097 2.867-1.312 3.061-2.381 3.061-1.07 0-3.138-5.128-4.924-1.007z" fill="#FF4774" fill-rule="nonzero"/><path d="M415.582 298.657c-3.007-6.08-7.126-5.82-11.767-4.315l-3.188.572c2.811 1.242 8.53 6.703 10.902 10.02 1.53 2.14 5.488 4.979 4.053 4.275-4.957-2.43-6.806-4.459-9.61 10.016-1.498 7.732-2.157 7.86 18.109 9.512 9.123.742 19.939 4.904 27.522 7.389 7.584 2.484 7.845 3.4 8.172-6.278.327-9.677-10.852-11.378-26.346-16.216-15.493-4.84-14.84-8.894-17.847-14.975z" fill="url(#ak)" fill-rule="nonzero"/><path d="M194.923 71.76c-1.374-.068-3.873 1.04-4.813 1.597.735-.838 2.243-2.507 4.5-2.415 1.997.082 3.394 1.392 4.132 2.092-.653-.487-2.446-1.206-3.82-1.274zM174.218 73.533c-.038.213-.371.287-.533.297-.769-.297-3.12-1.624-4.788-1.662-1.668-.037-4.615 1.093-5.88 1.663.826-.539 2.976-1.931 5.246-2.295 2.838-.455 6.002 1.73 5.955 1.997z" fill="#4C269C" fill-rule="nonzero"/><path d="M167.301 70.207c1.466-.33 3.652.133 3.54.292-.131.188-2.154-.057-3.311.102-.854.118-2.32.46-2.974.873.426-.39 1.573-1.003 2.745-1.267zM196.977 70.191c-1.195-.502-3.124-.44-3.053-.288.084.18 1.84.278 2.8.589.708.229 1.903.742 2.396 1.192-.304-.397-1.186-1.09-2.143-1.493z" fill="#E1C1EC" fill-rule="nonzero"/><path d="M194.305 71.72c-1.678-.057-3.276.887-4.13 1.722-.216.211-.12.54.179.582.228.033.51.049.831.026.89-.063.827.466 3.328.509 1.624.027 3.024-.642 3.803-1.17.24-.164.234-.5-.019-.643-.854-.485-2.358-.97-3.992-1.026z" fill="url(#al)" fill-rule="nonzero"/><path d="M182.633 105.713c3.283.133 7.467-5.557 8.132-8.955l-21.327.353c1.955 2.627 7.234 8.602 13.195 8.602z" fill="#A95F57" fill-rule="nonzero"/><path d="M182.835 101.923c-6.997.319-11.926-3.493-14.095-5.457 3.65.795 9.801 1.149 13.59 1.264 3.787.116 7.077-1.19 8.911-1.896-1.06 2.205-3.23 5.945-8.406 6.09z" fill="#4A259A" fill-rule="nonzero"/><path d="M187.411 99.945c.311-.038.773-1.968.97-3.069l-.39-.077-.747.934c-.041-.145-.242-.433-.716-.42-.473.012-.903.607-1.058.903-.431-.208-1.423-.595-1.947-.483-.523.112-.758.472-.81.638-.28-.28-1.002-.84-1.65-.84-.647 0-1.35.457-1.619.685-.182-.228-.676-.686-1.199-.686s-1.131.458-1.37.686c-.239-.228-.878-.686-1.526-.686-.361 0-.742.322-.887.483-.182-.093-.602-.28-.826-.28-.224 0-.425.322-.498.483a1.664 1.664 0 00-.716-.203c-.405-.015-.27 1.033-.145 1.11.1.063.773.46 1.159.652.238.14 1.057.45 1.306.45a.428.428 0 00.405-.28c.254.202.887.598 1.386.56.498-.037.654-.389.669-.56.369.254.591.762 1.495.762.311 0 .773-.238.965-.358.094.146.47.47 1.23.608.76.137 1.428-.057 1.667-.171.165.067.722.196 1.619.17.897-.024 1.13-.684 1.136-1.011.047.13.233.392.607.404.374.013.696-.264.81-.404.093.109.369.037.68 0z" fill="url(#am)" fill-rule="nonzero"/><path d="M182.42 96.246c-.855-.36-9.649-.017-13.981.181 4.672.925 14.669 1.803 15.807 1.67 1.139-.133 5.01-1.501 6.995-2.26-1.605.016-4.623-.113-5.382-.018-.949.118-1.66.783-1.969.902-.308.118-.403-.024-1.47-.475z" fill="#A95F57" fill-rule="nonzero"/><path d="M195.555 94.226c-.329-2.18-2.602-2.34-1.5-3.124 1.037-.738 2.698.83 2.698 2.108 0 1.194-.51 2.516-1.198 3.265-.062-.479.1-1.59 0-2.249z" fill="#EDDFFF" fill-rule="nonzero" opacity=".4"/><path d="M168.993 72.127c-1.57-.069-3.216.531-4.225 1.124-.307.18-.25.608.078.746.971.41 2.218.88 4.147 1.036 1.858.151 3.673-.756 4.343-.756.67 0 .713-.584.41-.584-.302 0-2.29-1.457-4.753-1.566z" fill="url(#an)" fill-rule="nonzero"/><g transform="translate(189.506 71.438)"><mask id="ap" fill="#fff"><use xlink:href="#ao"/></mask><path d="M6.7 1.165a1.937 1.937 0 11-3.874.001 1.937 1.937 0 013.874 0z" fill="#4A259A" fill-rule="nonzero" mask="url(#ap)"/></g><g transform="translate(165.699 71.915)"><mask id="ar" fill="#fff"><use xlink:href="#aq"/></mask><circle fill="#4A259A" fill-rule="nonzero" mask="url(#ar)" cx="3.398" cy="1.229" r="1.906"/></g><path d="M194.61 73.856c.029.152.2.258.383.237.446-.052.775-.793.746-.945-.028-.152-.574.362-.85.394-.183.021-.308.162-.28.314zM169.238 74.297c.03.155.204.263.39.242.456-.053.79-.809.762-.963-.03-.156-.586.368-.868.401-.186.022-.313.165-.284.32z" fill="#FFF" fill-rule="nonzero"/><path d="M177.562 67.21c1.187 1.002-.148 2.448-.445 2.485-.21 0-2.1-.242-4.3-.43-7.397-.637-8.308.878-11.896 2.145a.23.23 0 01-.274-.337c1.578-2.61 3.353-5.03 6.563-5.496 1.613-.234 6.779.495 7.385.928l-.334-.928c.705.21 2.352.831 3.301 1.633zM190.546 65.424l-1.432 2.256 1.793-1.143zM194.499 75.584a11.434 11.434 0 01-2.458-.27c-.109-.024-.165.112-.064.16.639.298 1.572.62 2.522.638.986.018 2.045-.436 2.767-.851.097-.056.029-.191-.078-.157-.719.227-1.738.47-2.69.48zM168.942 76.25c-.992.01-1.968-.15-2.692-.321-.16-.038-.25.162-.104.238.733.375 1.755.758 2.796.78 1.082.024 2.24-.516 3.07-1.04.14-.09.028-.287-.13-.232-.818.281-1.913.563-2.94.574z" fill="#4C269C" fill-rule="nonzero"/><path d="M66.93 301.292c-5.595-3.494-16.992-3.346-16.992-3.346s7.68 1.87 12.527 3.609c4.846 1.739 7.993 3.455 8.456 4.228-.32-.535-1.151-2.719-3.991-4.491z" fill="#FCD9BC" fill-rule="nonzero"/><path d="M56.823 267.298c4.533 1.85 16.182 14.221 21.44 20.175-.484-1.39-2.575-5.44-7.071-10.518-4.497-5.078-11.453-8.554-14.37-9.657z" fill="#FAD2B1" fill-rule="nonzero"/><path d="M198.493 47.802c1.938 3.408 4.518 9.44 3.905 14.53-.89 7.403-.89 8.015-.445 10.91.445 2.894-.612 5.008-1.336 5.954-.723.947-1 1.837-.5 3.396.036.113.093.277.167.487a48.397 48.397 0 011.719 6.003 60.64 60.64 0 00.479-1.818c.666-3.513 1.777-11.225.889-13.972-.842-2.605-.387-4.113-.057-5.203.105-.347.197-.652.23-.937.016-.13.046-.309.086-.538.318-1.864 1.199-7.014-1.148-15.014-.866-2.95-2.244-3.88-3.989-3.798z" fill="#F6EFFF"/><path d="M193.276 65.404c-3.086.15-5.439 3.151-4.4 4.227.6.623 4.297-.632 6.023-.88 3.257-.467 5.407.88 7.364.88-.928-2.353-3.603-4.486-8.987-4.227z" fill="#4C269C" fill-rule="nonzero"/><path d="M163.676 66.477l-1.282 6.069m2.941-6.564l-1.09 6.101" stroke="#B4489E" stroke-width=".5"/><path d="M153.322 101.456c.067-.706-1.289-5.366-1.975-7.608l19.878 19.168 17.23.924 14.289-27.08c.182-.168-.303 1.91 0 2.953.378 1.303.042 6.431-.673 6.515-.714.084-.462.84-.252 3.153.168 1.849-1.33 4.834-2.101 6.095l-.504-2.06c-.238 1.022-.833 3.16-1.303 3.53-.589.463-1.807 1.304-1.807 3.364 0 1.647-1.205 3.74-1.807 4.581v-1.05c-.322.055-1.11.243-1.681.546-.715.378-.799 1.345-1.093 1.85-.294.504-.672 2.101-2.564 2.563-1.512.37-1.778.715-1.723.841l-2.143 1.387s-1.491-.634-2.353-.294c-.554.218-1.177.967-1.177.967s-1.835-2.122-2.311-1.219c-.222.421 0 1.219 0 1.219-.449.014-1.597-.025-2.606-.295-1.008-.269-3.11-2.437-4.034-3.488l-.672 1.219c-.757-.939-2.396-2.834-2.9-2.9-.63-.085-1.765-.295-2.144-.841-.378-.547-.588-1.345-.504-2.48.067-.908-2.045-1.5-3.11-1.682-.364-.042-1.21-.227-1.68-.63-.471-.404-2.242-2.606-3.068-3.657l-.63 1.303c-.407-.168-1.329-.807-1.766-2.018-.546-1.513-1.177-4.582-1.387-4.54-.21.042-1.512.547-1.429-.336z" fill="url(#as)" fill-rule="nonzero"/><path d="M178.525 109.989c-.726.182-1.816-2.347-2.27-3.634 4.7 0 7.135-.73 11.75-.256.115 1.363.5 4.606 0 5.65-.623 1.306-1.702-.738-2.497-.965-.795-.227-1.987 1.25-3.576 2.158-1.59.908-2.101 0-2.498-.909-.398-.908 0-2.271-.909-2.044z" fill="#360E8A" fill-rule="nonzero"/><path d="M160.408 48.862c.355-.83 2.812-1.103 3.996-1.136-1.069-.115-3.325-1.125-5.647 0-1.628.79-1.588 9.35-1.066 11.02.247.79.6 1.616-2.063 3.096-2.665 1.48-3.66 4.717-3.66 15.592 0 12.908 8.519 16.512 8.519 16.512s.415-.702-.918-2.201c-1.554-1.749-5.525-14.064-5.18-21.17.346-7.106 7.088-5.982 7.204-10.264.05-1.88-1.629-10.413-1.185-11.45z" fill="url(#at)" fill-rule="nonzero"/><path d="M196.475 48.236c-.65 2.653-.017 7.621 1.997 10.617l.076.112c2.79 4.149 4.37 6.497 4.066 7.865-.307 1.381-.537 6.674 0 9.742.225 1.288-.144 4.072-.525 6.938-.263 1.982-.531 4.004-.611 5.596.478-.64.84-1.17 1.004-1.842.666-3.513 1.777-11.226.889-13.973-.842-2.604-.387-4.112-.057-5.202.105-.347.197-.652.23-.937.016-.13.046-.309.086-.538.319-1.864 1.2-7.014-1.148-15.015-1.177-4.01-3.3-4.286-6.007-3.363z" fill="#FFF" opacity=".5"/><path d="M184.337 102.584c1.184-.046 2.942-1.185 3.672-1.75-.167.392-.823 1.427-2.115 2.443-1.615 1.27-6.73.365-7.095 0-.365-.365-.077-.827.366-.808.442.02 3.691.173 5.172.115z" fill="#FFF" fill-rule="nonzero"/><path d="M201.517 44.83c1.457 1.595-3.413 2.673-4.97 2.163-4.425-1.45 4.58-4.911 4.379-6.818-.139-1.318-1.804 1.735-2.636-.485-.833-2.22 1.804-2.013 2.29-3.054.485-1.04-1.25-2.914-2.29-3.4-3.278-1.53.627-4.648 1.804-5.62 2.09-1.727-5.472-5.64-3.086-7.2 1.443-.943 6.29 2.56 5.966 4.567-.172 1.07-.567 2.633.588 2.633 2.151 0 1.711 1.978 1.457 3.4-.26 1.453-2.08 1.873-2.636 2.706-.555.833.07 1.11 1.665 2.36 2.674 2.092-.5 3.645-2.079 5.41-1.18 1.318-1.91 1.741-.452 3.337z" fill="#360E8A" fill-rule="nonzero"/><path d="M202.01 9.298c-.423 2.4-.596 5.904.99 7.173 1.081.865 2.726 1.215 4.145 1.518 1.712.364 3.096.659 2.77 1.701-.24.767-1.055 1.437-1.792 2.041-1.098.901-2.019 1.658-.592 2.371 1.619.81 2.468.52 3.257.25.373-.127.733-.25 1.153-.25 1.311 0 3.696 1.789 2.623 3.816s-1.907 3.815 0 3.815 9.775 1.073 7.868 2.862c-1.908 1.788-2.504 5.008-.716 4.77 1.788-.24 2.146 5.723 0 5.723s-2.384 5.127 0 4.292c2.384-.834 5.365-1.788 4.888 0-.477 1.789-1.192 5.843 0 5.604 1.192-.238 5.483 1.789 3.934 3.339-1.55 1.55-2.623 4.412-1.311 4.292 1.311-.119 4.768 1.55 2.384 3.696a74.36 74.36 0 01-.86.76c-1.817 1.587-2.668 2.33-1.524 3.89 1.311 1.79 2.026 5.486 0 4.89a60.066 60.066 0 01-.29-.086c-1.966-.583-4.195-1.244-3.287.8.366.825 1.154 1.543 1.877 2.203 1.162 1.06 2.16 1.97.984 2.925-1.013.823-1.488.84-1.71 1.084-.197.217-.197.611-.197 1.897 0 2.09-.9 3.625-4.227 4.66.813.061 1.661.159 2.45.25 1.456.166 2.71.31 3.168.164.077-.024.162-.05.253-.08 1.63-.508 5.346-1.669 3.167-3.537-1.439-1.234-.052-2.544 1.11-3.642.698-.66 1.315-1.243 1.191-1.687a8.688 8.688 0 00-.308-.86c-.406-1.026-.931-2.353-.678-4.731.12-1.124.343-1.743.494-2.162.265-.734.307-.852-.823-1.983-1.776-1.776-1.381-3.091 2.368-5.657 2.641-1.808 2.344-2.44 1.592-4.036-.315-.67-.71-1.508-1-2.674-.6-2.398-1.928-2.367-2.967-2.343-.67.016-1.22.028-1.374-.617-.134-.558-.162-1.055-.19-1.54-.052-.947-.103-1.848-.928-3.064a3.883 3.883 0 00-1.057-1.087c-.513-.371-.692-.501-.39-2.531.187-1.26-.334-1.526-.792-1.76-.666-.338-1.196-.608.792-3.766 2.092-3.322.961-4.368.085-5.18-.53-.49-.966-.894-.545-1.661.549-1.002.115-1.226-.594-1.592-.735-.379-1.764-.91-2.3-2.618-.62-1.98-1.356-1.784-2.448-1.493-.76.202-1.692.45-2.88.045-2.893-.986-1.578-2.696-.657-1.973.921.724 3.88-1.184 3.552-1.908-.029-.062-.056-.128-.085-.196-.3-.715-.704-1.68-3.467-2.04-3.025-.395-3.025-1.579-1.71-3.487 1.241-1.8-1.147-1.667-4.513-1.48l-.617.033c-3.683.198-6.116-1.25-6.05-3.88.055-2.209-2.205-4.092-4.215-5.263z" fill="url(#au)"/><path d="M157.929 56.823c-1-2.185-.826-7.34 1.447-9.398-5.618 0-11.74 1.677-13.069 3.369-1.66 2.114 2.114 1.661 3.12 2.265 1.007.604-1.76 2.719-1.006 3.273.756.554 2.064 1.611 1.007 3.373-1.057 1.762-3.926.806-4.53 2.014-.604 1.208.604 1.208 1.41 2.618.805 1.41-2.568 3.373-3.524 4.179-.956.805-.453 1.964 1.258 2.014 1.712.05 4.933 2.668 5.386 3.474.453.805 0 2.668-2.114 1.158-2.114-1.51-2.567 4.581-1.812 5.035.755.453.805-1.41 2.467-.454 1.66.957-1.36 3.172-1.662 4.884-.302 1.712 1.662.453 3.12 1.51 1.46 1.058-.603 1.46-1.458 3.122-.685 1.329 2.164 4.447 3.674 5.84l8.456-1.611c-.285-.218-1.813-1.193-4.916-4.61-3.584-3.947-4.216-19.025-1.94-23.963.815-1.767 3.577-3.913 4.281-4.215.705-.302 1.457-1.58.405-3.877z" fill="url(#av)" fill-rule="nonzero"/><path d="M169.876 50.85c.307-.706-.676-2.08-1.206-2.678l2.619-.5c.284.824.924 2.778 1.206 4.003.353 1.53-2.089.882-2.942 1.412-.854.53 2.207 2.442.647 3.414-1.247.777-2.265 1.775-2.619 2.177 0-.686.219-2.23 1.09-2.913 1.088-.853-.795-1.619-1.09-3.208-.293-1.589 1.913-.824 2.295-1.707zM163.429 51.607c-.422-1.934 1.498-3.628 2.728-4.214l-2.728-1.131c-.923.922-2.153 3.296-2.417 4.922-.293 1.807 2.153 2.813 3.163 3.956 1.011 1.142-2.254 4.407-.746 5.412 1.45.966.731 2.322.746 2.938.337-.616 1.336-2.514.528-3.428-1.011-1.143 1.454-3.142 1.454-4.44 0-1.749-2.201-1.598-2.728-4.015zM197.46 51.901c.091-.997-3.112-2.053-4.724-2.457l2.041-1.588c1.386.53 4.338 1.74 5.064 2.344.907.756-.793 2.76-1.511 3.932-.719 1.171 1.473.189 2.456 1.02.786.666-1.31 2.243-2.456 2.949.15-.227.566-.908 1.02-1.815.567-1.134-1.059-.491-2.646-1.134-1.587-.642.643-2.003.756-3.25zM139.523 102.693c0-.643-.224-1.726-.938-2.991l-4.552.937c.892.729 2.24 2.482.491 3.66-2.187 1.474-3.97 1.742-2.319 2.947 1.652 1.205.4 2.008-.448 4.374-.533 1.486 1.282 2.372 2.886 2.793.254.066.402-.3.203-.472-.754-.651-1.377-1.536-.813-2.32 1.026-1.429 3.838-1.965 3.08-4.375-.76-2.41 2.41-3.75 2.41-4.553z" fill="#4A259A" fill-rule="nonzero"/><path d="M452.001 336.129c.242 0 3.108-4.805 3.391-9.248.283-4.442 1.171-8.359-1.05-7.551-2.22.808-11.627 14.215-13.201 13.73-1.575-.484-4.441-17.688-5.572-18.253-1.13-.565-11.143 13.73-12.556 13.851-1.268-2.47-3.673-7.41-3.145-7.41s4.7-6.47 6.72-9.704c1.443.267 4.33 18.875 5.399 18.875s13.15-13.421 13.898-13.26c.599.127 1.516 13.26 3.742 18.553l2.374.417z" stroke="#260669" stroke-width="1.905"/><path d="M458.866 318.086l-4.544-1.658a.468.468 0 00-.601.272c-.952 2.543-2.144 6.981-.329 7.328 1.782.341 4.388-3.106 5.717-5.26a.466.466 0 00-.243-.682zM449.437 314.846l-4.545-1.659a.468.468 0 00-.6.273c-.953 2.542-2.144 6.98-.33 7.328 1.782.34 4.388-3.107 5.717-5.261a.465.465 0 00-.242-.681zM439.418 312.089l-4.544-1.658a.468.468 0 00-.601.272c-.952 2.542-2.144 6.98-.329 7.328 1.78.34 4.387-3.107 5.716-5.26a.466.466 0 00-.242-.682zM429.94 308.945l-4.544-1.659a.468.468 0 00-.601.273c-.952 2.543-2.144 6.98-.329 7.328 1.781.341 4.387-3.107 5.717-5.26a.466.466 0 00-.243-.682z" fill="#FFE0E8" fill-rule="nonzero"/><path d="M409.626 286.95a48.39 48.39 0 001.017-.68 24.58 24.58 0 013.065-1.812c8.04 2.606 22.021 8.663 29.845 17.537-12.648-8.677-20.371-12.573-33.927-15.045z" fill="#3E1C89"/><path d="M457.588 318.939l-3.228-1.178a.466.466 0 00-.6.273c-.717 1.95-1.569 5.215-.211 5.475 1.324.253 3.247-2.244 4.28-3.889a.464.464 0 00-.24-.681zM448.312 315.777l-3.228-1.178a.466.466 0 00-.6.273c-.717 1.95-1.57 5.215-.212 5.475 1.325.253 3.248-2.245 4.28-3.89a.464.464 0 00-.24-.68zM438.104 312.814l-3.228-1.178a.466.466 0 00-.6.273c-.718 1.95-1.57 5.216-.212 5.475 1.324.254 3.248-2.244 4.28-3.889a.464.464 0 00-.24-.681zM428.702 309.852l-3.228-1.178a.466.466 0 00-.6.273c-.717 1.95-1.57 5.216-.212 5.475 1.325.254 3.248-2.244 4.28-3.889a.464.464 0 00-.24-.681z" fill="#FF4774" fill-rule="nonzero"/><path d="M426.602 330.477l-4.641.248c-.218.012-.39-.101-.418-.282-.258-1.638-.252-4.394 1.582-4.312 1.695.075 3.229 2.208 4.013 3.684.146.275-.157.642-.536.662z" fill="#FFE0E8" fill-rule="nonzero"/><path d="M425.641 329.753l-3.246.173c-.217.012-.39-.1-.416-.282-.185-1.254-.155-3.271 1.216-3.21 1.236.054 2.359 1.547 2.976 2.66.151.272-.15.639-.53.659z" fill="#FF4774" fill-rule="nonzero"/><path d="M434.775 331.913l-4.641.248c-.218.011-.39-.102-.418-.282-.258-1.638-.252-4.394 1.582-4.313 1.695.075 3.229 2.209 4.013 3.685.146.274-.156.642-.536.662z" fill="#FFE0E8" fill-rule="nonzero"/><path d="M433.814 331.188l-3.246.174c-.218.012-.39-.1-.416-.282-.185-1.254-.155-3.272 1.215-3.211 1.236.055 2.36 1.548 2.977 2.66.151.273-.15.64-.53.66z" fill="#FF4774" fill-rule="nonzero"/><path d="M443.772 335.114l-4.593-.71c-.216-.033-.36-.179-.351-.362.083-1.656.654-4.352 2.433-3.896 1.643.421 2.707 2.824 3.172 4.43.086.298-.285.596-.66.538z" fill="#FFE0E8" fill-rule="nonzero"/><path d="M442.98 334.207l-3.212-.496c-.215-.033-.36-.178-.35-.361.077-1.265.52-3.234 1.848-2.893 1.2.306 1.993 1.998 2.368 3.214.092.298-.278.594-.654.536z" fill="#FF4774" fill-rule="nonzero"/><path d="M453.026 337.974l-4.593-.71c-.216-.033-.361-.178-.352-.36.084-1.658.654-4.353 2.433-3.897 1.644.42 2.708 2.824 3.173 4.43.086.298-.285.595-.66.537z" fill="#FFE0E8" fill-rule="nonzero"/><path d="M452.234 337.068l-3.212-.496c-.216-.033-.361-.179-.35-.361.076-1.266.52-3.234 1.848-2.894 1.199.307 1.992 1.999 2.368 3.215.092.298-.278.594-.654.536z" fill="#FF4774" fill-rule="nonzero"/><path d="M419.978 321.247c2.188 9.09 5.25 27.026 0 26.045-5.25-.98-2.187-17.772 0-26.045z" stroke="url(#aw)" stroke-width="1.905"/><path d="M438.65 308.788c-7.106 1.115-13.866 7.626-19.055 12.673 4.814-2.595 10.96-6.922 15.25-7.891 5.363-1.211 12.059 1.28 13.072-1.106 1.56-3.676-4.292-4.456-9.267-3.676z" stroke="url(#ax)" stroke-width="1.905"/><ellipse fill="#29076F" fill-rule="nonzero" cx="420.18" cy="321.092" rx="2.048" ry="2.049"/><path d="M414.013 327.827l.025-.01c-1.274-.267-6.508-1.67-6.843-3.116-.42-1.807 2.218-15.17 3.943-15.427 1.652-.244 4.373.801 6.333 1.556.947.364 1.716.66 2.104.71-.45-.256-1.336-.767-2.376-1.369l-1.954-1.128-.584-.294c-4.278-2.162-6.066-3.066-8.689 10.477l-.131.673c-1.092 5.56-1.345 6.85 8.172 7.928z" fill="#FD6489"/><path d="M420.352 321.135l.616-.726-.062-.052-.069-.04-.485.818zm7.622 19.73a.952.952 0 101.882-.293l-1.882.292zm-19.382-2.489a.953.953 0 001.61 1.018l-1.61-1.018zm11.143-16.514c1.877 1.592 3.705 4.741 5.199 8.39 1.478 3.615 2.567 7.564 3.04 10.612l1.882-.292c-.498-3.208-1.63-7.302-3.16-11.041-1.516-3.704-3.485-7.219-5.728-9.122l-1.233 1.453zm1.102-1.546c-.774-.46-1.568-.232-2.153.142-.566.362-1.104.95-1.603 1.612-1.01 1.341-2.082 3.295-3.12 5.363-1.042 2.08-2.082 4.342-3.01 6.314-.94 2-1.75 3.664-2.36 4.63l1.61 1.017c.686-1.085 1.548-2.868 2.474-4.836.938-1.995 1.96-4.22 2.988-6.27 1.034-2.06 2.042-3.88 2.94-5.072.455-.605.829-.975 1.106-1.152a.588.588 0 01.208-.098c.002 0-.008.001-.024-.002a.087.087 0 01-.02-.006l-.008-.003.972-1.639z" fill="#27066B" fill-rule="nonzero"/><path d="M412.472 307.679s-4.046-6.192-5.997-8.497c.939.31 3.284 1.223 5.155 2.397 2.337 1.466 2.497 2.948 3.63 4.4.906 1.162.842 2.79.697 3.457-1.234-.74-3.485-1.757-3.485-1.757z" fill="#492499" fill-rule="nonzero"/><path d="M312.499 282.42c-.28.864.116 1.927.349 2.35l1.714-3.714c-.571.095-1.784.501-2.063 1.365z" fill="#4A259A" fill-rule="nonzero"/><path d="M359.513 293.019l-1.65-2.72c-.14-.229-.412-.3-.613-.153-1.488 1.084-3.698 3.078-2.872 4.065.804.962 3.385.188 4.947-.47.26-.11.347-.46.188-.722z" fill="#FFE0E8" fill-rule="nonzero"/><path d="M358.498 292.999l-1.124-1.853c-.139-.228-.412-.3-.611-.151-1.13.838-2.715 2.299-2.101 3.032.592.708 2.45.18 3.647-.31.26-.105.348-.456.189-.718z" fill="#FF4774" fill-rule="nonzero"/><ellipse fill="#260669" fill-rule="nonzero" cx="350.706" cy="292.463" rx="1.854" ry="1.855"/><path d="M366.187 289.926c-2.22-1.481-11.714.948-16.21 2.449 4.691.83 10.013-.028 16.574 2.968 4.004 1.828 2.782-3.32-.364-5.417z" stroke="#260669" stroke-width="1.905"/><path d="M334.333 289.422c.093-1.93 1.008-6.197 2.909-6.578 1.403-.28 12.24-2.195 13.625-.965.916.815 1.405 2.188 1.682 2.969.051.144.095.267.133.364l.082-.097c.184-1.463.242-2.952-1.14-4.21-3.258-2.961-16.125.09-17.026 1.96-.586 1.219-.469 2.643-.358 3.978.07.857.138 1.677.014 2.381l.078.199z" fill="#FD6489"/><path d="M205.804 134.39c-.555.603-1.027 1.664-1.128 2.191.81.52 2.646 1.58 3.513 1.649 1.084.086 1.735-.412 2.103-1.649.295-.989-1.655-2.465-2.667-3.08-.332.094-1.22.235-1.821.89zM194.886 154.937l-1.315 1.704 1.614 2.451c.441.432 1.252.526 1.755 0 .502-.526-1.088-3.288-2.054-4.155zM192.315 161.223l-.673.528-.05.749 2.217 2.766c.108.069.37.117.557-.234.188-.352-1.289-2.686-2.05-3.81zM193.182 149.137c-.866.658-.597 1.037-.866 1.525.518 1.076 2.02 3.043 3.885 2.302 1.865-.741-.24-3.318-1.524-4.514-.22.09-.874.216-1.495.687zM231.68 133.405c0-.294 1.035-.994 1.552-1.307.103.674.417 1.871.531 2.655.143.98.554 2.315.287 2.533-.552.449-2.37-3.513-2.37-3.88z" fill="#FFF" fill-rule="nonzero"/><path d="M189.412 41.15c-.48 2.104-1.904 4.285-2.555 5.112 1.052-.602 3.398-2.06 4.36-3.083 1.202-1.278-.677-3.308-1.203-3.91-.526-.601.902-1.203 1.653-2.33.752-1.129-1.127-1.504-1.653-2.707-.526-1.203 1.278-2.256 2.105-3.308.826-1.053-2.105-.978-2.105-2.331s1.127-1.053 0-4.962c-.902-3.128-4.886-3.61-6.765-3.459 1.278 0 4.585 2.481 4.585 3.459 0 .977-1.579 1.353-.977 1.729.601.376.977.677 1.428 2.18.45 1.504-2.63 3.309-3.007 4.436-.376 1.128 1.579.527 3.007 2.256 1.428 1.73-.526 1.88-.827 3.834-.3 1.955 2.556.452 1.954 3.083z" fill="#5D37AE" fill-rule="nonzero"/><path d="M130.13 40.343c-.64 2.063-.5 4.663-.35 5.706-.61-1.048-1.909-3.486-2.23-4.853-.4-1.709 2.244-2.524 3-2.781.757-.257-.178-1.493-.264-2.846-.085-1.353 1.73-.736 2.787-1.513 1.058-.778.024-2.593-.164-3.918-.189-1.326 2.31.209 2.989-.963.678-1.17-.449-1.476 2.485-4.294 2.348-2.255 6.036-.675 7.588.397-1.106-.64-5.211-.15-5.7.695-.49.846.687 1.963-.022 1.987-.708.024-1.184.096-2.328 1.17-1.143 1.076.62 4.182.38 5.347-.24 1.164-1.63-.336-3.731.445-2.102.78-.487 1.89-1.205 3.733-.72 1.842-2.438-.89-3.236 1.688z" fill="url(#ay)" fill-rule="nonzero" opacity=".6"/><path d="M202.77 87.199l-.03.281c-.07.662-.182 1.693.004 2.332.378 1.304.042 6.432-.672 6.516-.578.068-.524.577-.37 1.994.036.334.078.718.118 1.158.168 1.85-1.331 4.834-2.102 6.095l-.504-2.06c-.238 1.023-.832 3.162-1.303 3.531l-.09.071c-.614.477-1.717 1.333-1.717 3.292 0 1.648-1.205 3.741-1.807 4.582v-1.05c-.322.055-1.11.243-1.68.545-.495.262-.688.805-.857 1.283a3.51 3.51 0 01-.236.567c-.05.085-.101.2-.162.335-.302.672-.827 1.844-2.402 2.23-.56.136-.95.27-1.215.39.226-.21.5-.424.83-.633 1.819-1.151 2.224-3.679 2.419-4.895l.014-.087c.088-.547.816-.832 1.574-1.129.875-.342 1.79-.7 1.81-1.494.037-1.483 1.14-5.4 2.47-6.16 1.065-.609 1.56-2.484 1.673-3.346l1.635.342c-.33-1.344-.79-4.267 0-5.21.77-.92 1.918-6.612 2.432-9.551l.075-.14.093.211z" fill="url(#az)"/><path d="M327.842 194.616c-1.908-10.684 2.282-19.254 4.878-22.592 1.965 28.738 4.166 44.528 9.274 75.767-5.503 1.804-8.601 2.61-14.152 3.744 1.007-5.83 3.942-19.715 7.63-28.619 4.61-11.13-5.246-14.945-7.63-28.3z" fill="url(#aA)" fill-rule="nonzero"/></g></g></svg>