<svg width="56" height="58" xmlns="http://www.w3.org/2000/svg" xmlns:xlink="http://www.w3.org/1999/xlink"><defs><path d="M40 39.551a9.86 9.86 0 013.333-7.368l21.242-18.888a5.176 5.176 0 016.85 0l21.242 18.888A9.86 9.86 0 0196 39.55v25.47C96 67.77 93.72 70 90.91 70H45.09C42.28 70 40 67.77 40 65.02V39.552z" id="a"/><path id="d" d="M0 0h42v42H0z"/><linearGradient x1="100%" y1="50%" x2="0%" y2="50%" id="b"><stop stop-color="#FE92AC" offset="0%"/><stop stop-color="#FF3FDD" offset="100%"/></linearGradient></defs><g transform="translate(-40 -12)" fill="none" fill-rule="evenodd"><path d="M0 0h135v70H0z"/><mask id="c" fill="#fff"><use xlink:href="#a"/></mask><use fill="url(#b)" xlink:href="#a"/><g mask="url(#c)"><g transform="translate(23 41)"><mask id="e" fill="#fff"><use xlink:href="#d"/></mask><path fill-opacity=".6" fill="#FFF" mask="url(#e)" d="M13.487-8L48 26.513 45.513 29 11-5.513zM24.487-19L59 15.513 56.513 18 22-16.513zM-3.513 8L31 42.513 28.513 45-6 10.487zM-.52-11L50 40.474 47.52 43-3-8.474zM19.487-14L54 20.513 51.513 23 17-11.513zM-9.513 14L25 48.513 22.513 51-12 16.487zM-5.506-5L45 45.506 42.506 48-8-2.506zM-14.513 20L20 54.513 17.513 57-17 22.487z"/></g></g></g></svg>