<svg width="143" height="120" xmlns="http://www.w3.org/2000/svg"><defs><linearGradient x1="0%" y1="62.965%" x2="100%" y2="62.965%" id="a"><stop stop-color="#087CF8" offset="0%"/><stop stop-color="#08E6F8" offset="100%"/></linearGradient></defs><path d="M1154 2335.667v20.165c-7.843 2.1-13.804 5.042-17.885 8.823-4.08 3.78-7.339 8.586-9.777 14.415-2.437 5.829-3.656 12.945-3.656 21.347 9.962 0 17.355 2.836 22.177 8.507 4.822 5.672 7.233 11.711 7.233 18.118 0 7.457-2.65 13.759-7.948 18.905-5.3 5.146-11.5 7.72-18.6 7.72-9.221 0-17.117-3.913-23.688-11.737-6.57-7.825-9.856-18.512-9.856-32.06 0-11.974 2.597-23.185 7.79-33.636 5.193-10.45 12.294-19.378 21.302-26.782 9.009-7.405 19.978-12 32.908-13.785zm-79 0v20.165c-7.863 2.1-13.84 5.042-17.93 8.823-4.091 3.78-7.359 8.586-9.803 14.415-2.444 5.829-3.665 12.945-3.665 21.347 10.2 0 17.691 2.836 22.473 8.507 4.781 5.672 7.172 11.711 7.172 18.118 0 7.457-2.683 13.759-8.05 18.905-5.365 5.146-11.554 7.72-18.567 7.72-9.138 0-17.028-3.913-23.669-11.737-6.64-7.825-9.961-18.512-9.961-32.06 0-11.974 2.603-23.185 7.81-33.636 5.206-10.45 12.299-19.378 21.277-26.782 8.979-7.405 19.95-12 32.913-13.785z" transform="rotate(180 577.262 1227.5)" fill-rule="nonzero" stroke="url(#a)" fill="none" opacity=".396" stroke-linejoin="round"/></svg>