<svg width="696" height="208" xmlns="http://www.w3.org/2000/svg"><defs><linearGradient x1="0%" y1="62.965%" x2="100%" y2="62.965%" id="a"><stop stop-color="#087CF8" offset="0%"/><stop stop-color="#08E6F8" offset="100%"/></linearGradient><linearGradient x1="1.94%" y1="62.965%" x2="100%" y2="62.965%" id="c"><stop stop-color="#4FF1F3" offset="0%"/><stop stop-color="#08A5F8" offset="100%"/></linearGradient><path id="b" d="M41 0h1439.672v73.273H41z"/></defs><g fill="none" fill-rule="evenodd"><path d="M1439.673 70.677c-17.553 0-17.553-18.962-35.106-18.962-17.556 0-17.556 18.962-35.109 18.962-17.55 0-17.55-36.201-35.1-36.201-17.554 0-17.554 70.678-35.11 70.678-17.552 0-17.552-53.439-35.107-53.439-17.553 0-17.553 27.581-35.104 27.581-17.555 0-17.555-62.058-35.11-62.058-17.554 0-17.554 96.535-35.11 96.535-17.55 0-17.55-62.058-35.105-62.058-17.556 0-17.556 44.819-35.113 44.819-17.55 0-17.55-87.915-35.104-87.915-17.555 0-17.555 53.439-35.113 53.439-17.556 0-17.556-27.582-35.109-27.582-17.557 0-17.557 70.678-35.115 70.678-17.553 0-17.553-53.439-35.111-53.439-17.555 0-17.555 27.581-35.11 27.581-17.559 0-17.559-27.581-35.114-27.581-17.556 0-17.556 10.343-35.109 10.343-17.557 0-17.557-36.201-35.118-36.201-17.558 0-17.558 53.439-35.115 53.439-17.558 0-17.558-27.581-35.114-27.581-17.555 0-17.555 62.058-35.11 62.058-17.556 0-17.556-96.535-35.114-96.535-17.558 0-17.558 44.82-35.115 44.82C579.47 62.058 579.47 0 561.912 0c-17.56 0-17.56 96.534-35.12 96.534-17.558 0-17.558-44.819-35.116-44.819s-17.558 62.058-35.116 62.058c-17.553 0-17.553-70.678-35.108-70.678-17.556 0-17.556 53.439-35.111 53.439-17.556 0-17.556-44.819-35.113-44.819-17.563 0-17.563 53.439-35.123 53.439C298.549 105.154 298.549 0 280.99 0c-17.558 0-17.558 70.677-35.115 70.677-17.56 0-17.56-18.962-35.121-18.962-17.563 0-17.563 27.581-35.125 27.581-17.556 0-17.556-62.058-35.111-62.058-17.563 0-17.563 87.916-35.128 87.916-17.563 0-17.563-70.678-35.128-70.678s-17.565 79.297-35.13 79.297c-17.568 0-17.568-62.058-35.133-62.058" stroke="url(#a)" stroke-width="4" transform="translate(-99 46.727)"/><path d="M1439.672 45.779c-17.552 0-17.552-12.212-35.105-12.212-17.556 0-17.556 12.212-35.109 12.212-17.55 0-17.55-23.314-35.1-23.314-17.554 0-17.554 45.518-35.11 45.518-17.552 0-17.552-34.416-35.108-34.416-17.553 0-17.553 17.763-35.103 17.763-17.556 0-17.556-39.967-35.111-39.967-17.553 0-17.553 62.17-35.108 62.17-17.551 0-17.551-39.966-35.106-39.966-17.556 0-17.556 28.865-35.114 28.865-17.55 0-17.55-56.62-35.103-56.62-17.556 0-17.556 34.416-35.113 34.416-17.556 0-17.556-17.763-35.109-17.763-17.558 0-17.558 45.518-35.115 45.518-17.553 0-17.553-34.416-35.111-34.416-17.556 0-17.556 17.763-35.111 17.763-17.558 0-17.558-17.763-35.113-17.763-17.556 0-17.556 6.66-35.109 6.66-17.558 0-17.558-23.313-35.118-23.313-17.558 0-17.558 34.416-35.116 34.416-17.557 0-17.557-17.763-35.113-17.763-17.555 0-17.555 39.967-35.11 39.967-17.556 0-17.556-62.171-35.114-62.171-17.558 0-17.558 28.865-35.116 28.865C579.47 40.228 579.47.26 561.912.26c-17.56 0-17.56 62.17-35.12 62.17-17.559 0-17.559-28.864-35.117-28.864-17.557 0-17.557 39.967-35.115 39.967-17.553 0-17.553-45.518-35.109-45.518-17.555 0-17.555 34.416-35.11 34.416-17.556 0-17.556-28.865-35.114-28.865-17.562 0-17.562 34.416-35.123 34.416C298.55 67.983 298.55.26 280.991.26s-17.558 45.518-35.116 45.518c-17.56 0-17.56-12.212-35.12-12.212-17.563 0-17.563 17.763-35.126 17.763-17.555 0-17.555-39.967-35.11-39.967-17.563 0-17.563 56.62-35.128 56.62-17.563 0-17.563-45.518-35.128-45.518s-17.565 51.069-35.13 51.069C17.564 73.534 17.564 33.567 0 33.567" stroke="url(#c)" stroke-width="3" transform="translate(-97 73)"/></g></svg>