<svg width="143" height="120" xmlns="http://www.w3.org/2000/svg"><defs><linearGradient x1="0%" y1="62.965%" x2="100%" y2="62.965%" id="a"><stop stop-color="#087CF8" offset="0%"/><stop stop-color="#08E6F8" offset="100%"/></linearGradient></defs><path d="M386.762 2145v20.166c-7.843 2.1-13.804 5.04-17.885 8.822-4.08 3.781-7.339 8.586-9.777 14.415-2.437 5.83-3.656 12.945-3.656 21.347 9.962 0 17.355 2.836 22.177 8.508 4.822 5.671 7.233 11.71 7.233 18.117 0 7.457-2.65 13.759-7.949 18.905-5.299 5.147-11.499 7.72-18.6 7.72-9.22 0-17.116-3.912-23.687-11.737-6.57-7.825-9.856-18.511-9.856-32.06 0-11.973 2.596-23.185 7.79-33.636 5.193-10.45 12.294-19.377 21.302-26.782 9.009-7.405 19.978-12 32.908-13.785zm-79 0v20.166c-7.863 2.1-13.84 5.04-17.93 8.822-4.092 3.781-7.359 8.586-9.803 14.415-2.444 5.83-3.666 12.945-3.666 21.347 10.201 0 17.692 2.836 22.473 8.508 4.782 5.671 7.173 11.71 7.173 18.117 0 7.457-2.683 13.759-8.05 18.905-5.365 5.147-11.554 7.72-18.567 7.72-9.138 0-17.028-3.912-23.669-11.737-6.64-7.825-9.961-18.511-9.961-32.06 0-11.973 2.603-23.185 7.81-33.636 5.206-10.45 12.299-19.377 21.277-26.782 8.979-7.405 19.95-12 32.913-13.785z" transform="translate(-245 -2144)" fill-rule="nonzero" stroke="url(#a)" fill="none" opacity=".396" stroke-linejoin="round"/></svg>