<svg width="1562" height="523" xmlns="http://www.w3.org/2000/svg"><g fill="none" fill-rule="evenodd"><path d="M0 0h1562v523H0z"/><path d="M612.333 442.342h-21.337c-3.449-8.332-10.993-13.268-19.29-13.268-12.717 0-21.338 10.388-21.338 22.216 0 12.342 8.837 22.627 21.445 22.627 8.083 0 14.98-4.32 19.183-12.856h21.337c-4.957 18.308-21.445 29.93-40.304 29.93-11.1 0-21.553-3.703-29.744-11.417-8.621-8.022-12.285-17.69-12.285-29.21 0-20.16 18.212-38.364 41.059-38.364 10.992 0 19.829 2.88 27.804 9.36 7.543 6.17 12.07 13.165 13.47 20.982zm77.053 48.649c-22.2 0-42.999-15.222-42.999-37.747 0-23.553 17.782-41.244 42.03-41.244 23.277 0 42.136 17.176 42.136 38.981 0 22.525-18.32 40.01-41.167 40.01zm-.647-17.074c12.61 0 21.446-10.182 21.446-22.319 0-11.93-8.945-22.524-21.769-22.524-12.716 0-21.66 10.182-21.66 22.216 0 12.548 8.944 22.627 21.983 22.627zm146.993 15.634H818.06l-30.606-46.49.539 46.49h-19.506V413.44h17.566l31.037 48.135-.862-48.135h19.505v76.111zm108.736 0h-17.673l-30.606-46.49.539 46.49h-19.506V413.44h17.566l31.037 48.135-.862-48.135h19.505v76.111zm85.782 0h-44.292V413.44h44.292v17.073h-24.786v11.829h24.032v17.073h-24.032v13.062h24.786v17.074zm118.65-47.21h-21.337c-3.449-8.33-10.992-13.267-19.29-13.267-12.717 0-21.338 10.388-21.338 22.216 0 12.342 8.837 22.627 21.446 22.627 8.082 0 14.98-4.32 19.182-12.856h21.338c-4.958 18.308-21.446 29.93-40.305 29.93-11.1 0-21.553-3.703-29.743-11.417-8.622-8.022-12.286-17.69-12.286-29.21 0-20.16 18.213-38.364 41.06-38.364 10.991 0 19.828 2.88 27.803 9.36 7.544 6.17 12.07 13.165 13.47 20.982zm65.474 47.21h-20.368v-59.038h-15.734V413.44H1230v17.073h-15.626v59.038z" fill="#FFF" fill-rule="nonzero"/><circle fill="#4FF5F7" cx="435" cy="452" r="20"/><circle fill="#4FF5F7" cx="1325" cy="452" r="20"/><g fill-rule="nonzero"><path d="M572.636 335.133H521.63v-93.714c0-22.122-8.603-34.72-27.346-34.72-19.357 0-28.575 11.369-28.575 32.57v95.864h-51.005v-227.37h51.005v73.126c7.374-13.826 23.966-22.122 44.245-22.122 39.022 0 62.68 24.58 62.68 69.133v107.233zM781.004 249.1c0 53.462-40.558 91.255-91.87 91.255-51.927 0-91.87-38.407-91.87-90.64 0-52.85 40.865-90.642 91.87-90.642 51.312 0 91.87 38.407 91.87 90.027zm-91.87 43.63c23.966 0 40.865-20.279 40.865-43.016S712.792 206.7 688.826 206.7c-22.43 0-40.558 19.665-40.558 43.016 0 23.352 17.821 43.016 40.865 43.016zm378.895 42.402h-51.004v-91.87c0-26.732-8.604-36.564-26.117-36.564-19.358 0-28.268 11.676-28.268 34.106v94.328h-51.005v-94.021c0-22.123-7.989-34.413-25.502-34.413-19.972 0-28.882 12.905-28.882 36.564v91.87h-51.005V164.605h47.625v18.128h.614c8.91-15.977 25.195-23.966 47.01-23.966 22.123 0 38.408 11.061 49.162 30.418 12.29-19.357 30.726-30.418 54.077-30.418 38.1 0 63.295 23.351 63.295 70.976v105.39zm201.301-69.748h-127.819c2.765 19.358 19.05 32.262 39.944 32.262 13.826 0 22.737-5.223 31.033-15.977h52.233c-16.284 37.178-47.317 58.993-83.266 58.993-49.162 0-90.334-39.636-90.334-90.333 0-49.162 39.329-91.563 89.412-91.563 51.005 0 90.026 40.25 90.026 93.099 0 4.916-.307 8.91-1.229 13.52zm-127.204-34.413h77.429c-3.995-17.513-19.358-29.19-39.022-29.19-18.436 0-34.413 11.062-38.407 29.19zm204.066 104.16h-51.005v-227.37h51.005v227.37zm105.436 56.843h-54.077l27.039-65.445-63.295-161.925h54.384l34.106 98.937h.614l32.57-98.937h54.077l-85.418 227.37z" fill="#FFF"/><path d="M25 224.116c0-16.102 6.916-31.457 19.048-42.288L165.458 73.43c11.098-9.908 28.046-9.908 39.144 0l121.41 108.397c12.132 10.831 19.048 26.186 19.048 42.288v146.171c0 15.782-13.027 28.576-29.096 28.576H54.096c-16.07 0-29.096-12.794-29.096-28.576V224.116z" fill="#FD4974"/><path d="M78.914 278.29l26.598-27.706c23.143 22.217 49.338 33.057 79.518 33.057s56.375-10.84 79.518-33.057l26.599 27.707c-30.2 28.992-65.883 43.757-106.117 43.757-40.233 0-75.916-14.765-106.116-43.757z" fill="#FFF"/></g></g></svg>