<svg width="23" height="33" xmlns="http://www.w3.org/2000/svg"><defs><linearGradient x1="0%" y1="62.965%" x2="100%" y2="62.965%" id="a"><stop stop-color="#087CF8" offset="0%"/><stop stop-color="#08E6F8" offset="100%"/></linearGradient><linearGradient x1="0%" y1="62.965%" x2="100%" y2="62.965%" id="b"><stop stop-color="#087CF8" offset="0%"/><stop stop-color="#08E6F8" offset="100%"/></linearGradient></defs><g fill-rule="nonzero" fill="none"><path d="M14.408 3.632c-.734-1.119-1.382-2.148-1.987-3.088a1.34 1.34 0 00-.345-.358c-.519-.358-1.21-.179-1.555.358-.562.94-1.21 1.924-1.987 3.088C5.122 8.822.025 16.652.025 21.127a12.02 12.02 0 003.37 8.368c2.072 2.103 4.923 3.445 8.076 3.445 3.153 0 6.004-1.342 8.077-3.49a12.02 12.02 0 003.37-8.367c0-4.475-5.098-12.26-8.51-17.451zm3.585 24.207a8.977 8.977 0 01-6.522 2.774c-2.548 0-4.837-1.074-6.522-2.774-1.685-1.745-2.678-4.116-2.678-6.756 0-3.76 4.88-11.232 8.12-16.198.389-.582.735-1.164 1.08-1.656.346.492.691 1.074 1.08 1.656 3.24 5.011 8.12 12.439 8.12 16.198a9.832 9.832 0 01-2.678 6.756z" fill="url(#a)"/><path d="M18.166 20.277c-.605-.045-1.123.448-1.166 1.074a5.908 5.908 0 01-.821 2.73c-.475.805-1.166 1.52-1.987 1.968-.518.314-.734 1.03-.432 1.566.346.627 1.037.806 1.555.493a7.613 7.613 0 002.765-2.775c.69-1.118 1.08-2.46 1.123-3.848a1.134 1.134 0 00-1.037-1.208z" fill="url(#b)"/></g></svg>