<svg width="151" height="36" xmlns="http://www.w3.org/2000/svg"><g fill="none" fill-rule="evenodd"><path d="M146.888 13.453h-1.132v1.497h1.132c.366 0 .766-.296.766-.731 0-.47-.4-.766-.766-.766zm.696 3.708l-1.097-1.671h-.73v1.671h-.593v-4.23h1.724c.713 0 1.375.505 1.375 1.288 0 .94-.835 1.253-1.08 1.253l1.132 1.689h-.73zm-1.01-5.258a3.11 3.11 0 00-3.133 3.134 3.132 3.132 0 003.133 3.134c1.741 0 3.134-1.41 3.134-3.134a3.11 3.11 0 00-3.134-3.134zm0 6.825a3.692 3.692 0 01-3.69-3.69 3.681 3.681 0 013.69-3.692 3.67 3.67 0 013.691 3.691 3.682 3.682 0 01-3.69 3.69zM18.06 15.123c3.295 0 5.302 2.093 5.302 5.79v9.658h-3.467v-8.598c0-2.407-1.118-3.698-3.066-3.698-1.892 0-3.24 1.32-3.24 3.755v8.541h-3.468v-8.626c0-2.35-1.147-3.67-3.066-3.67-1.92 0-3.24 1.434-3.24 3.785v8.511H.349V15.438h3.468v2.293c.974-1.347 2.293-2.608 4.613-2.608 2.18 0 3.699 1.06 4.5 2.666 1.234-1.605 2.84-2.666 5.131-2.666M33.078 31.002c-1.203 3.094-2.55 4.242-4.988 4.242-1.461 0-2.52-.346-3.581-.918l1.176-2.58c.63.344 1.317.573 2.035.573.973 0 1.575-.43 2.148-1.748L23.563 15.44h3.698l4.297 11.235 3.928-11.235h3.61l-6.018 15.563zM46.06 30.915c-4.5 0-7.824-3.525-7.824-7.853 0-4.327 3.324-7.94 7.853-7.94 2.867 0 4.643 1.061 6.047 2.609l-2.149 2.322c-1.06-1.119-2.178-1.892-3.926-1.892-2.522 0-4.357 2.178-4.357 4.844 0 2.722 1.863 4.902 4.528 4.902 1.634 0 2.837-.774 3.926-1.892l2.094 2.063c-1.491 1.663-3.24 2.837-6.191 2.837M73 30.571h-3.467V15.438h3.468v2.351c.974-1.433 2.379-2.666 4.729-2.666 3.41 0 5.389 2.292 5.389 5.818v9.63H79.65v-8.597c0-2.352-1.175-3.699-3.238-3.699-2.006 0-3.411 1.405-3.411 3.755v8.541zM89.566 30.457h-3.414V15.56h3.414v2.314c.96-1.411 2.341-2.624 4.656-2.624 3.357 0 5.302 2.256 5.302 5.727v9.479H96.11v-8.463c0-2.314-1.157-3.64-3.187-3.64-1.976 0-3.358 1.382-3.358 3.695v8.408zM112.1 21.945c-.23-2.236-1.549-3.984-3.84-3.984-2.122 0-3.612 1.634-3.927 3.984h7.767zm-3.382 6.133c1.692 0 2.894-.631 4.098-1.806l2.035 1.806c-1.433 1.72-3.41 2.837-6.19 2.837-4.386 0-7.768-3.18-7.768-7.881 0-4.357 3.067-7.911 7.394-7.911 4.816 0 7.252 3.783 7.252 8.169 0 .315-.028.602-.058.946h-11.12c.402 2.464 2.121 3.84 4.357 3.84zM124.217 30.915c-4.499 0-7.825-3.525-7.825-7.853 0-4.327 3.326-7.94 7.855-7.94 2.865 0 4.642 1.061 6.046 2.609l-2.149 2.322c-1.06-1.119-2.178-1.892-3.927-1.892-2.52 0-4.355 2.178-4.355 4.844 0 2.722 1.863 4.902 4.526 4.902 1.635 0 2.839-.774 3.928-1.892l2.092 2.063c-1.49 1.663-3.238 2.837-6.19 2.837M136.606 25.842c0 1.347.686 1.892 1.861 1.892.774 0 1.462-.172 2.15-.515v2.837c-.86.487-1.834.773-3.124.773-2.55 0-4.356-1.117-4.356-4.443v-7.968h-1.92v-2.98h1.92v-4.156h3.469v4.157h4.068v2.98h-4.068v7.423z" fill="#343D42"/><path d="M66.151 17.619a7.853 7.853 0 00-2.893-1.823V20.527c.59.724.942 1.682.942 2.744 0 1.148-.38 2.168-1.04 2.895-.661.726-1.593 1.175-2.789 1.178-1.134-.002-2.08-.455-2.764-1.198-.682-.742-1.093-1.775-1.093-2.927 0-1.148.383-2.168 1.038-2.896.1-.11.208-.211.32-.308v-4.343a7.935 7.935 0 00-3.294 1.975 7.918 7.918 0 00-2.312 5.624c0 2.17.858 4.146 2.296 5.576 1.436 1.432 3.457 2.314 5.756 2.313 2.326.001 4.366-.896 5.817-2.34a7.869 7.869 0 002.314-5.601c0-2.181-.857-4.166-2.298-5.6" fill="#C4D600"/><path fill="#C4D600" d="M58.853 14.284V21.4h3.425v-7.116z"/><path d="M.655 3.492h1.178l.018.585c.307-.484.806-.726 1.497-.726.395 0 .75.097 1.067.292.316.195.565.474.748.837.183.363.275.78.275 1.253 0 .437-.09.837-.27 1.2-.18.363-.436.655-.767.877a1.96 1.96 0 01-1.115.332c-.302 0-.573-.058-.815-.173a1.462 1.462 0 01-.585-.492v2.693H.656V3.492zm2.356 3.552c.354 0 .642-.121.864-.364.22-.242.332-.552.332-.93 0-.383-.113-.696-.337-.938a1.12 1.12 0 00-.859-.363 1.12 1.12 0 00-.859.363c-.224.242-.337.555-.337.939 0 .377.111.687.333.93.221.242.509.363.863.363zm5.65 1.098c-.443 0-.849-.1-1.218-.301a2.278 2.278 0 01-.88-.85 2.39 2.39 0 01-.328-1.25c0-.43.101-.827.305-1.19a2.31 2.31 0 01.864-.873 2.436 2.436 0 011.257-.327c.443 0 .849.098 1.218.296.369.198.663.48.881.846.218.366.328.782.328 1.249 0 .437-.102.837-.306 1.2a2.31 2.31 0 01-.863.872 2.436 2.436 0 01-1.258.328zm0-1.098c.349 0 .635-.121.86-.364.224-.242.336-.555.336-.938 0-.378-.111-.688-.332-.93-.222-.242-.51-.363-.864-.363s-.642.12-.863.363c-.222.242-.332.552-.332.93 0 .383.112.696.336.938.224.243.51.364.86.364zm3.011-3.552h1.284l.824 3.091.956-3.09h1.037l1 3.099.833-3.1h1.266L17.375 8H16.26L15.24 5.024 14.267 8h-1.098l-1.497-4.508zm10.406 4.65c-.525 0-.984-.095-1.377-.284a2.114 2.114 0 01-.917-.828c-.218-.363-.327-.79-.327-1.28 0-.454.094-.863.283-1.226.189-.363.458-.65.806-.859.348-.21.753-.314 1.213-.314.425 0 .799.09 1.12.27.322.18.573.438.753.775.18.336.27.735.27 1.195 0 .195-.014.372-.044.532h-3.18c.154.673.665 1.01 1.533 1.01.271 0 .536-.029.792-.085.257-.056.489-.137.696-.244l.124.966c-.213.118-.473.21-.78.274a4.654 4.654 0 01-.965.098zm.646-2.879c-.029-.312-.13-.553-.305-.721-.174-.169-.406-.253-.695-.253a.993.993 0 00-.7.253c-.183.168-.301.409-.354.721h2.054zm2.294-1.77h1.187l.009.743c.124-.265.29-.47.5-.61.21-.143.453-.213.73-.213.19 0 .364.032.523.097l-.106 1.16a1.511 1.511 0 00-.55-.106c-.336 0-.597.12-.783.363-.186.242-.279.582-.279 1.018V8h-1.23V3.492zm6.217 4.649c-.525 0-.984-.095-1.377-.284a2.114 2.114 0 01-.917-.828c-.218-.363-.327-.79-.327-1.28 0-.454.094-.863.283-1.226.19-.363.458-.65.806-.859.348-.21.753-.314 1.213-.314.425 0 .799.09 1.12.27.322.18.573.438.753.775.18.336.27.735.27 1.195 0 .195-.014.372-.044.532h-3.18c.154.673.665 1.01 1.533 1.01.272 0 .536-.029.793-.085.256-.056.488-.137.695-.244l.124.966c-.213.118-.473.21-.78.274a4.654 4.654 0 01-.965.098zm.647-2.879c-.03-.312-.132-.553-.306-.721-.174-.169-.406-.253-.695-.253a.993.993 0 00-.7.253c-.183.168-.3.409-.354.721h2.055zm4.126 2.879c-.395 0-.75-.098-1.067-.293a2.028 2.028 0 01-.748-.836 2.747 2.747 0 01-.275-1.254c0-.436.09-.836.27-1.2.18-.363.436-.655.767-.876a1.96 1.96 0 011.115-.332c.296 0 .566.059.81.177.246.118.442.283.59.496V.827h1.23V8h-1.177l-.018-.576a1.47 1.47 0 01-.61.536c-.255.121-.55.182-.887.182zm.337-1.098c.348 0 .635-.121.86-.364.223-.242.336-.555.336-.938 0-.378-.111-.688-.333-.93-.22-.242-.509-.363-.863-.363s-.642.12-.863.363c-.222.242-.333.552-.333.93 0 .383.113.696.337.938.224.243.51.364.859.364zm8.245 1.098c-.313 0-.595-.064-.846-.19a1.437 1.437 0 01-.589-.536L43.138 8H41.96V.827h1.23v3.197c.325-.45.813-.673 1.462-.673.396 0 .751.097 1.067.292.316.195.565.474.748.837.183.363.275.78.275 1.253 0 .437-.09.837-.27 1.2-.18.363-.436.655-.766.877a1.96 1.96 0 01-1.116.332zm-.275-1.098c.355 0 .642-.121.864-.364.221-.242.332-.552.332-.93 0-.383-.112-.696-.337-.938a1.12 1.12 0 00-.859-.363 1.12 1.12 0 00-.859.363c-.224.242-.336.555-.336.939 0 .377.11.687.332.93.221.242.51.363.863.363zm4.845.646l-1.878-4.198h1.337l1.17 2.896 1.115-2.896h1.32l-2.985 6.678h-1.275l1.196-2.48z" fill="#343D42" fill-rule="nonzero"/></g></svg>